<svg xmlns="http://www.w3.org/2000/svg" width="66" height="66" fill="none"><rect width="64.4" height="64.4" x=".8" y=".8" stroke="#2F2F37" stroke-width=".4" rx="32.2"/><path fill="#998470" stroke="#010101" stroke-width=".2" d="M53.188 18.875c0 1.99-3.166 5.198-4.75 6.554-8.968.452-27.583 1.04-30.296-.226-2.713-1.265-4.295-5.499-4.747-7.457-1.447 2.712 0 8.964.903 11.751-.181 2.712 1.431 5.65 2.26 6.78-1.808-.724-5.124-.452-6.556-.226 1.205.452 3.933 1.853 5.2 3.841 1.265 1.99 5.048 3.692 6.782 4.294l-.453.452c-3.617 0-4.823 1.808-4.974 2.712.226-.452 4.07-.452 7.235.452 2.532.723 6.632-1.356 8.366-2.486-.604 1.883-1.81 5.83-1.81 6.554 0 .723 2.26 1.055 3.391 1.13l.68-7.684c2.712 3.164 10.626 3.39 11.078 2.486.362-.723 3.768-.602 5.426-.452-1.085-1.627-4.37-2.787-5.878-3.164 2.94-.226 6.331-2.712 6.783-4.745.362-1.628 3.015-2.938 4.297-3.39-2.17-1.085-5.427.15-6.783.904 2.713-3.074 2.789-6.253 2.488-7.458 2.713-4.339 2.036-8.889 1.358-10.622Z"/><path fill="#fff" stroke="#010101" stroke-width=".2" d="M33.066 13c-5.692 0-6.557 4.52-6.557 4.746l3.39 9.04h7.235l2.94-9.04C39.624 16.164 37.815 13 33.067 13Z"/><path fill="#fff" stroke="#010101" stroke-width=".2" d="M23.79 38.31c-12.299-1.626-8.137-12.429-4.746-14.01-.677-5.198 2.036-7.006 4.75-7.006 2.53 0 4.672 1.205 5.425 2.486 2.938 6.101 6.87 20.158-5.428 18.53Z"/><path fill="#fff" stroke="#010101" stroke-width=".2" d="M42.858 38.31c12.3-1.626 8.141-12.429 4.75-14.01.68-5.198-2.034-7.006-4.747-7.006-2.53 0-4.673 1.205-5.426 2.486-2.94 6.101-6.876 20.158 5.423 18.53Z"/><path fill="#fff" stroke="#010101" stroke-width=".2" d="M42.846 27.707c3.845 14.237-9.271 15.82-9.724 15.82-.904 0-12.95-1.808-9.494-16.045 1.81-7.458 17.205-7.232 19.218.226Z"/></svg>