<svg xmlns="http://www.w3.org/2000/svg" width="66" height="66" fill="none"><g clip-path="url(#a)"><mask id="b" width="70" height="116" x="-20.984" y="8.934" fill="#000" maskUnits="userSpaceOnUse"><path fill="#fff" d="M-20.984 8.934h70v116h-70z"/><path fill-rule="evenodd" d="M37.09 10.248a.194.194 0 0 1 .008-.092c.18-.519 2.766-.098 5.778.941 3.012 1.04 5.309 2.303 5.13 2.822a.181.181 0 0 1-.012.026l.008.002-1.952 5.59-.018.002-.068.006c.9 1.282 1.245 2.867.431 4.746.768.232 1.27 1.34 1.144 2.613-.13 1.327-.898 2.348-1.738 2.343.216.977.583 1.897.943 2.801.892 2.237 1.744 4.374.17 7.025-.778 1.31-1.603 2.185-2.373 3.001-1.734 1.839-3.19 3.382-3.207 8.933-.012 3.867-1.73 11.572-3.609 18.768l.02-.003-.196.675a329.567 329.567 0 0 1-2.834 10.087c7.073 9.612 3.84 27.114.407 36.772-22.871 7.482-65.552 15.099-53.306-14.283 7.853-18.845 17.29-27.012 24.768-29.929-2.905-5.15-1.642-7.942.986-9.314-.738-5.031 3.98-4.526 8.444-3.515 1.737-5.99 3.653-11.713 5.26-14.517 2.248-3.92 1.497-6.376.75-8.824-.58-1.895-1.158-3.785-.343-6.347.872-2.738 2.657-3.717 4.377-4.66.917-.502 1.816-.995 2.547-1.739-.706-.432-.849-1.682-.306-2.882.469-1.034 1.302-1.71 2.029-1.72.52-2.611 2.583-3.684 4.81-3.991l1.953-5.337ZM15.607 61.69l-.3 1.068c-2.057-.23-4.567-.154-6.605.542.476-1.483 2.34-2.304 6.905-1.61Zm-6.812 3.978c1.247-.83 3.17-1.308 5.998-1.198l.075-.233-.436 1.515-.02-.017-.755 2.927.054.052c-.27 1.045-.525 2.056-.763 3.017-.397.01-.807.036-1.23.08-.205-.36-.425-.732-.659-1.115a121.45 121.45 0 0 0-.348-.671c-.715-1.373-1.532-2.94-1.916-4.357Zm2.1 6.249a45.44 45.44 0 0 0-.61-1.176c-.961-1.79-1.646-3.309-2.097-4.594-1.785 1.672-1.602 4.306-.708 6.62 1.2-.411 2.344-.686 3.415-.85Z" clip-rule="evenodd"/></mask><path fill="#005BBB" fill-rule="evenodd" d="M37.09 10.248a.194.194 0 0 1 .008-.092c.18-.519 2.766-.098 5.778.941 3.012 1.04 5.309 2.303 5.13 2.822a.181.181 0 0 1-.012.026l.008.002-1.952 5.59-.018.002-.068.006c.9 1.282 1.245 2.867.431 4.746.768.232 1.27 1.34 1.144 2.613-.13 1.327-.898 2.348-1.738 2.343.216.977.583 1.897.943 2.801.892 2.237 1.744 4.374.17 7.025-.778 1.31-1.603 2.185-2.373 3.001-1.734 1.839-3.19 3.382-3.207 8.933-.012 3.867-1.73 11.572-3.609 18.768l.02-.003-.196.675a329.567 329.567 0 0 1-2.834 10.087c7.073 9.612 3.84 27.114.407 36.772-22.871 7.482-65.552 15.099-53.306-14.283 7.853-18.845 17.29-27.012 24.768-29.929-2.905-5.15-1.642-7.942.986-9.314-.738-5.031 3.98-4.526 8.444-3.515 1.737-5.99 3.653-11.713 5.26-14.517 2.248-3.92 1.497-6.376.75-8.824-.58-1.895-1.158-3.785-.343-6.347.872-2.738 2.657-3.717 4.377-4.66.917-.502 1.816-.995 2.547-1.739-.706-.432-.849-1.682-.306-2.882.469-1.034 1.302-1.71 2.029-1.72.52-2.611 2.583-3.684 4.81-3.991l1.953-5.337ZM15.607 61.69l-.3 1.068c-2.057-.23-4.567-.154-6.605.542.476-1.483 2.34-2.304 6.905-1.61Zm-6.812 3.978c1.247-.83 3.17-1.308 5.998-1.198l.075-.233-.436 1.515-.02-.017-.755 2.927.054.052c-.27 1.045-.525 2.056-.763 3.017-.397.01-.807.036-1.23.08-.205-.36-.425-.732-.659-1.115a121.45 121.45 0 0 0-.348-.671c-.715-1.373-1.532-2.94-1.916-4.357Zm2.1 6.249a45.44 45.44 0 0 0-.61-1.176c-.961-1.79-1.646-3.309-2.097-4.594-1.785 1.672-1.602 4.306-.708 6.62 1.2-.411 2.344-.686 3.415-.85Z" clip-rule="evenodd"/><path fill="#010101" d="m37.098 10.156.245.085-.245-.085Zm-.007.092.256-.037.01.065-.023.061-.243-.089Zm5.785.85.085-.245-.085.245Zm5.13 2.82-.245-.084.245.085Zm-.012.027-.085.244-.286-.1.143-.267.228.123Zm.008.002.086-.244.244.086-.086.244-.244-.085Zm-1.952 5.59.245.085-.055.158-.166.015-.024-.258Zm-.018.002.023.258-.023-.258Zm-.068.006-.212.149-.257-.368.447-.04.022.259Zm.431 4.746-.075.248-.278-.084.116-.267.237.103Zm1.144 2.613.258.025-.258-.025Zm-1.738 2.343-.253.056-.07-.317.325.002-.002.26Zm.943 2.801-.24.096.24-.096Zm.17 7.025-.223-.132.223.132Zm-2.373 3.001.188.178-.188-.178Zm-3.207 8.933h.259-.259Zm-3.609 18.768.039.256-.388.058.099-.38.25.066Zm.02-.003-.039-.256.4-.06-.113.388-.248-.072Zm-.196.675-.25-.066.001-.006.25.072Zm-2.834 10.087-.209.154-.076-.105.037-.123.248.074Zm.407 36.772.244.087-.043.12-.12.039-.081-.246Zm-53.306-14.283-.24-.1.24.1ZM6.584 73.094l.226-.127.147.26-.279.108-.094-.24Zm.986-9.314.257-.038.026.182-.163.086-.12-.23Zm8.444-3.515.249.072-.068.234-.238-.054.057-.252Zm5.26-14.517.225.13-.225-.13Zm.75-8.824-.249.076.248-.076Zm-.343-6.347-.247-.078.247.078Zm4.377-4.66-.125-.227.125.228Zm2.547-1.739.135-.22.278.17-.228.232-.185-.182Zm-.306-2.882-.236-.107.236.107Zm2.029-1.72.254.052-.041.205-.21.003-.003-.26Zm4.81-3.991.244.089-.054.146-.154.021-.036-.256ZM15.606 61.69l.039-.256.29.044-.08.283-.25-.071Zm-.3 1.068.249.07-.06.212-.219-.024.03-.258ZM8.7 63.3l.084.245-.488.167.158-.49.246.078Zm.093 2.368-.25.068-.05-.18.156-.103.144.215Zm5.998-1.198.247.08-.06.186-.197-.007.01-.26Zm.075-.233-.246-.08.495.151-.249-.071Zm-.436 1.515.249.072-.111.385-.306-.26.168-.197Zm-.02-.017-.252-.065.104-.4.315.267-.168.197Zm-.755 2.927-.179.188-.11-.105.038-.147.251.064Zm.054.052.179-.188.11.105-.039.147-.25-.064Zm-.763 3.017.251.062-.047.192-.197.005-.007-.26Zm-1.23.08.027.258-.168.017-.084-.147.225-.128Zm-.659-1.115-.22.135-.006-.008-.004-.008.23-.119Zm-.348-.671-.23.12.23-.12Zm-.426.716-.229.123.229-.123Zm.61 1.176.232-.116.159.318-.352.054-.039-.256Zm-2.707-5.77-.177-.189.29-.272.131.375-.244.086Zm-.708 6.62.084.245-.236.08-.09-.232.242-.093ZM37.343 10.24a.078.078 0 0 0 .004-.03l-.513.075a.451.451 0 0 1 .02-.214l.49.169Zm5.449 1.101c-1.497-.516-2.882-.876-3.909-1.044-.515-.084-.928-.117-1.216-.101a1.045 1.045 0 0 0-.3.05c-.06.023-.037.032-.024-.006l-.49-.17c.058-.167.201-.259.328-.308.13-.05.288-.074.458-.083.342-.02.798.02 1.328.107 1.064.173 2.478.543 3.994 1.066l-.17.49Zm4.969 2.492c-.013.039.01.046-.023-.01a1.044 1.044 0 0 0-.205-.224c-.217-.19-.562-.418-1.02-.67-.912-.502-2.225-1.071-3.721-1.588l.169-.49c1.515.523 2.857 1.104 3.802 1.624.47.259.853.508 1.111.734.128.112.237.229.309.348.07.117.126.277.068.445l-.49-.169Zm.005-.012a.083.083 0 0 0-.005.012l.49.17a.441.441 0 0 1-.028.063l-.457-.245Zm.15.37-.007-.003.171-.489.008.003-.172.489Zm-2.11 5.26 1.951-5.59.49.17-1.952 5.59-.49-.17Zm.202-.171.018-.002.048.516-.019.002-.047-.516Zm-.067.006.068-.006.045.516-.067.006-.046-.516Zm.217 4.901c.774-1.79.447-3.28-.406-4.494l.424-.298c.948 1.35 1.31 3.029.457 4.998l-.475-.206Zm1.123 2.69c.06-.597-.03-1.146-.216-1.566-.187-.423-.457-.686-.744-.773l.15-.496c.48.145.844.553 1.068 1.06.226.51.324 1.151.258 1.826l-.516-.05Zm-1.478 2.11c.309.002.642-.187.925-.568.282-.378.492-.918.553-1.542l.516.05c-.07.705-.308 1.338-.653 1.802-.343.46-.813.78-1.344.776l.003-.518Zm.7 3.156c-.359-.9-.734-1.84-.955-2.84l.506-.113c.21.953.57 1.854.93 2.761l-.48.192Zm.188 6.797c1.503-2.532.706-4.555-.188-6.797l.482-.192c.89 2.231 1.797 4.483.151 7.253l-.445-.264Zm-2.339 2.956c.77-.816 1.577-1.673 2.339-2.956l.445.264c-.793 1.337-1.636 2.23-2.407 3.047l-.377-.355Zm-3.277 9.11c.008-2.797.38-4.61.982-5.964.603-1.354 1.43-2.229 2.295-3.146l.377.355c-.868.92-1.636 1.737-2.199 3.002-.563 1.265-.929 3-.937 5.754l-.518-.002Zm-3.6 18.702c.938-3.595 1.836-7.315 2.5-10.618.666-3.307 1.094-6.179 1.1-8.085l.518.002c-.006 1.96-.443 4.875-1.11 8.186-.666 3.315-1.567 7.046-2.507 10.646l-.501-.13Zm.308.319-.02.003-.076-.513.02-.002.076.512Zm-.483.347.196-.675.497.144-.195.675-.498-.144ZM34.467 80.46a329.594 329.594 0 0 0 2.832-10.079l.5.132a329.907 329.907 0 0 1-2.836 10.095l-.496-.148Zm.41 36.759c1.71-4.81 3.37-11.575 3.722-18.33.352-6.761-.609-13.467-4.093-18.201l.417-.308c3.59 4.878 4.548 11.73 4.194 18.537-.355 6.814-2.028 13.628-3.751 18.476l-.488-.174Zm-52.822-14.097c-3.046 7.309-2.64 12.226-.09 15.419 2.566 3.212 7.372 4.773 13.353 5.189 11.947.83 28.296-2.932 39.723-6.67l.161.492c-11.443 3.744-27.87 7.532-39.92 6.695-6.017-.418-11.014-1.994-13.722-5.383-2.723-3.41-3.06-8.559.017-15.941l.478.199ZM6.678 73.335C-.713 76.22-10.109 84.32-17.945 103.123l-.479-.199c7.87-18.885 17.35-27.12 24.914-30.07l.188.483ZM7.69 64.01c-1.263.659-2.17 1.641-2.433 3.057-.265 1.429.115 3.35 1.553 5.9l-.451.254c-1.467-2.6-1.908-4.65-1.611-6.249.299-1.61 1.337-2.71 2.703-3.422l.24.46Zm8.267-3.493c-2.239-.506-4.478-.869-6.058-.508-.779.178-1.369.526-1.73 1.096-.363.573-.522 1.415-.342 2.637l-.513.076c-.19-1.293-.035-2.275.418-2.99.456-.72 1.186-1.126 2.052-1.324 1.71-.391 4.063.004 6.287.508l-.114.505Zm5.542-14.64c-1.59 2.772-3.498 8.464-5.236 14.46l-.498-.145c1.735-5.984 3.659-11.737 5.284-14.573l.45.258Zm.772-9.029c.373 1.22.76 2.482.76 3.936 0 1.461-.39 3.1-1.532 5.093l-.45-.258c1.105-1.926 1.464-3.476 1.464-4.835 0-1.366-.362-2.556-.738-3.784l.496-.152Zm-.343-6.192c-.788 2.479-.236 4.3.343 6.192l-.496.152c-.58-1.898-1.182-3.857-.34-6.501l.493.157Zm4.255-4.511c-1.716.94-3.417 1.877-4.255 4.51l-.494-.156c.905-2.843 2.775-3.863 4.5-4.809l.248.455Zm2.607-1.785c-.762.775-1.696 1.285-2.607 1.785l-.25-.455c.924-.506 1.787-.981 2.487-1.693l.37.363Zm-.255-2.957c-.255.563-.344 1.13-.294 1.594.051.469.238.8.5.96l-.271.442c-.445-.272-.683-.782-.744-1.346-.062-.569.05-1.228.337-1.864l.472.214Zm1.796-1.567c-.286.004-.62.14-.948.415a3.26 3.26 0 0 0-.848 1.152l-.472-.214a3.776 3.776 0 0 1 .987-1.335c.388-.325.833-.53 1.274-.536l.007.518Zm4.843-3.994c-1.087.15-2.114.484-2.927 1.083-.808.595-1.418 1.46-1.665 2.703l-.508-.102c.273-1.37.955-2.347 1.866-3.018.905-.667 2.023-1.023 3.163-1.18l.07.514Zm2.16-5.505-1.952 5.337-.487-.178 1.952-5.337.487.178Zm-21.48 51.424-.3 1.067-.498-.14.3-1.069.499.142Zm-.578 1.255c-2.033-.229-4.502-.15-6.49.53l-.168-.491c2.086-.712 4.638-.788 6.716-.554l-.058.515Zm-6.821.205c.27-.841.933-1.47 2.096-1.792 1.148-.318 2.797-.344 5.094.005l-.078.512c-2.27-.345-3.834-.307-4.878-.018-1.03.286-1.535.809-1.74 1.451l-.494-.158Zm.195 2.232c1.311-.873 3.296-1.353 6.152-1.242l-.02.518c-2.8-.109-4.66.367-5.845 1.155l-.287-.431Zm5.896-1.063.075-.233.493.159-.075.233-.493-.159Zm.57-.082-.436 1.516-.498-.144.436-1.515.498.143Zm-.853 1.641-.02-.017.335-.395.02.017-.335.395Zm.398-.15-.754 2.928-.502-.13.755-2.927.501.13Zm-.826 2.676.054.051-.358.375-.054-.051.358-.375Zm.125.303c-.269 1.045-.524 2.055-.762 3.015l-.503-.125c.239-.96.494-1.973.764-3.02l.502.13Zm-1.007 3.212c-.39.01-.793.036-1.21.079l-.053-.515c.43-.045.847-.072 1.25-.082l.014.518Zm-1.461-.05a41.563 41.563 0 0 0-.655-1.109l.442-.27c.236.385.457.76.663 1.122l-.45.256Zm-.664-1.125c-.111-.217-.228-.44-.348-.67l.46-.24.349.673-.461.237Zm-.348-.67c-.711-1.366-1.543-2.96-1.936-4.409l.5-.136c.375 1.384 1.177 2.925 1.896 4.305l-.46.24Zm.032.473c.22.409.424.803.614 1.183l-.463.232c-.188-.376-.39-.765-.607-1.17l.456-.245Zm-2.08-4.557c.444 1.27 1.123 2.776 2.08 4.557l-.457.246c-.965-1.798-1.656-3.33-2.113-4.631l.49-.172ZM7.236 72.86c-.903-2.339-1.133-5.117.773-6.902l.354.378c-1.663 1.558-1.527 4.05-.644 6.337l-.483.187Zm3.696-.687a19.54 19.54 0 0 0-3.37.839l-.168-.49a20.059 20.059 0 0 1 3.46-.861l.078.512Z" mask="url(#b)"/><ellipse cx="1.596" cy="2.507" fill="#010101" rx="1.596" ry="2.507" transform="scale(-1 1) rotate(-5.631 224.268 497.974)"/><ellipse cx="29.747" cy="21.955" fill="#010101" rx="1.596" ry="2.507" transform="rotate(24.369 29.747 21.955)"/><path fill="#fff" fill-rule="evenodd" d="M40.027 15.792c3.036.853 8.545 3.776 6.296 8.649-1.405 3.042-.475 5.375.415 7.607.892 2.237 1.744 4.374.17 7.025-.778 1.31-1.603 2.185-2.373 3.002-1.734 1.838-3.19 3.382-3.207 8.933-.02 6.413-4.734 23.392-7.089 31.08l-11.174-2.995 16.962-63.301Zm-.032.11c-3.055-.78-9.289-1.002-9.777 4.342-.325 3.565-2.206 4.596-4.174 5.674-1.72.943-3.505 1.922-4.376 4.66-.815 2.562-.238 4.452.341 6.347.749 2.448 1.5 4.904-.748 8.824-3.19 5.564-7.597 22.625-9.401 30.46l11.174 2.994 16.961-63.301Z" clip-rule="evenodd"/><ellipse cx="42.848" cy="37.68" fill="url(#c)" rx="3.856" ry="5.432" transform="rotate(40.381 42.848 37.68)"/><ellipse cx="25.52" cy="33.844" fill="url(#d)" rx="3.856" ry="5.432" transform="rotate(-17.75 25.52 33.844)"/><path fill="#005BBB" d="M15.16 63.207c7.144 5.663 18.08 7.24 22.58 6.566l-.763 2.639c-10.355 2.21-19.285-3.518-22.57-6.588l.753-2.617Z"/><path fill="#FFD500" d="M14.406 65.736c8.442 7.172 18.088 7.26 22.602 6.638l-.642 2.057c-10.398 2.09-19.49-2.66-22.714-5.767l.754-2.928Z"/><ellipse cx=".715" cy="1.124" fill="#fff" opacity=".2" rx=".715" ry="1.124" transform="scale(-1 1) rotate(9.05 -141.352 -183.234)"/><ellipse cx=".715" cy="1.124" fill="#fff" opacity=".2" rx=".715" ry="1.124" transform="scale(-1 1) rotate(9.05 -178.622 -283.505)"/><path fill="#fff" d="M24.296 74.221c19.555 3.807 15.363 30.31 10.822 43.086-22.871 7.482-65.552 15.099-53.306-14.283 12.245-29.382 28.34-32.807 34.857-30.846l7.627 2.043Z"/><path fill="#FF6B0A" d="M42.87 30.064c2.405-7.568-4.602-10.816-4.596-10.713-7.922 0-9.027 6.782-9.027 7.83 0 2.883-5.119 4.06-4.53 7.222.587 3.162-.995 8.996-.986 13.365.006 2.677.78 3.861 1.439 4.286-.193-.05-.115-.018.075.046.173.098.335.144.47.152-.175-.056-.346-.11-.47-.152a1.612 1.612 0 0 1-.075-.046c.254.066.976.272 2.527.729 4.374 1.29 6.198-4.416 11.766-10.004 5.568-5.587.4-3.255 3.407-12.715Z"/><path fill="#010101" d="M28.451 49.976c3.606.636 6.839-6.88 8.005-10.717-2.038-1.057-6.552-2.982-8.312-2.227-2.2.945-4.2 12.15.307 12.944Z"/><path fill="#956C7C" d="M28 48.793c-2.384-.969-.16-6.158 1.25-8.632l4.79 1.283c-1.021 2.853-3.657 8.318-6.04 7.35Z"/><path fill="#86616F" d="M28.788 46.935c-.411-.5 1.764-5.643 2.903-8.152l1.022.395c-1.137 2.794-3.513 8.257-3.925 7.757Z"/><path fill="#EB6005" d="M38.681 36.67c-1.02-5.7 1.119-8.136 2.316-8.641-2.39-5.88-7.418-4.17-9.633-2.581 1.48 5.706.45 1.182-3.417 8.347-3.093 5.731.39 8.894 2.518 9.76 3.164.08 9.237-1.183 8.216-6.884Z"/><path fill="#EFE5D5" d="M26.962 36.268c7.69-6.152 10.349.57 10.717 4.7-.927 1.404-3.695 3.884-7.356 2.572-3.66-1.31-3.766-5.394-3.36-7.272Z"/><path fill="#DACAB0" d="M33.51 36.989c.237-.636.782-1.784 1.065-1.287.284.497-.591 1.065-1.064 1.287ZM32.273 36.658c.216-.642.516-1.877-.017-1.67-.534.208-.211 1.2.017 1.67Z"/><path fill="#3D3A00" d="m37.131 10.134-1.996 5.457c2.271 3.762 8.222 4.2 10.913 3.948L48 13.95l-10.869-3.815Z"/><path fill="#3D3A00" d="M35.132 15.591c-.103 3.209 2.076 8.234 10.913 3.904L35.132 15.59Z"/><ellipse cx="5.769" cy=".994" fill="#3D3A00" rx="5.769" ry=".994" transform="scale(-1 1) rotate(-19.031 14.554 150.647)"/><path fill="#FFD500" d="M38.76 11.572c-.035.005-.064.007-.092.013-.229.043-.397.125-.525.276-.055.064-.1.134-.148.2-.042.059-.084.116-.128.174-.012.015-.013.023.01.033.048.02.081.052.081.097.001.04-.023.069-.065.087a.185.185 0 0 1-.133.005c-.022-.007-.033-.019-.037-.039a.84.84 0 0 1 .043-.445c.045-.121.12-.232.188-.345.039-.063.075-.13.116-.193a.355.355 0 0 0 .053-.123.227.227 0 0 0-.014-.134.296.296 0 0 0-.132.083.808.808 0 0 0-.076.11c-.024.041-.04.084-.06.125-.054.107-.106.215-.164.321a1.136 1.136 0 0 1-.445.435c-.026.016-.05.015-.077.003-.068-.027-.098-.087-.07-.138.026-.048.104-.073.175-.053.025.007.03 0 .036-.016.032-.088.067-.176.1-.263.037-.1.081-.196.08-.302a.543.543 0 0 0-.187-.393l-.013.024-.712 1.305c-.014.025-.014.025.017.035l.352.116c.02.006.027.014.023.031a.434.434 0 0 0 .08.376c.018.025.03.053.046.08.099-.038.214-.048.308-.1a.701.701 0 0 0 .2-.15c.012-.014.023-.015.041-.01l.358.118c.02.007.031.007.041-.012l.717-1.312c.004-.002.007-.006.013-.019Zm-.24.16c.002.003.006.004.009.006l-.013.024-.34.622c-.02.035-.02.035-.067.02-.017-.006-.024-.012-.021-.027a.152.152 0 0 0-.05-.129c-.016-.015-.014-.027-.002-.042.056-.074.114-.149.166-.224a.602.602 0 0 1 .205-.187c.037-.023.075-.041.113-.063Zm-1.22-.396h.008c.004.013.008.025.01.037.02.087.039.156.01.242-.039.108-.08.215-.12.323-.004.015-.014.023-.036.025a.271.271 0 0 0-.155.06c-.02.017-.038.016-.073-.002-.022-.012-.006-.022 0-.033l.346-.633a.055.055 0 0 1 .01-.02Zm.43 1.221c.007.002.017.003.029.004.101.015.193.004.263-.06.01-.01.018-.012.031-.007l.031.01c.015.005.018.012.012.023-.046.086-.094.172-.142.257-.002.005-.02.011-.026.01a8.267 8.267 0 0 1-.24-.08c-.007-.002-.014-.014-.013-.019l.054-.138Zm-.633-.208c-.03.044-.062.085-.092.127-.008.012-.02.008-.032.005l-.225-.074c-.023-.008-.027-.017-.016-.034.043-.076.083-.153.126-.23.019-.035.019-.035.065-.02.013.004.025.008.022.022-.01.076.034.133.106.18.016.01.033.016.046.024Zm.489-.218c-.007.101-.012.2.008.301-.059.009-.114.018-.17.025-.008.001-.022-.006-.027-.012-.029-.03-.053-.063-.081-.094-.01-.01-.009-.016.004-.024a1.36 1.36 0 0 0 .245-.181c.008-.004.015-.01.02-.015Zm-.113.617c-.026.062-.172.154-.229.152l-.002-.003c.033-.06.064-.119.097-.177.002-.004.016-.008.023-.007.038.01.074.023.111.036Zm-.354.114c-.048-.05-.056-.196-.02-.238l.1.033c.02.006.022.014.015.028l-.079.143a.272.272 0 0 1-.016.034Zm.352-.22c-.02-.007-.04-.012-.059-.021-.006-.002-.012-.015-.01-.018a.185.185 0 0 1 .17-.068c.015.002.021.007.018.018-.01.033-.023.065-.034.099-.005.012-.016.014-.03.01a.85.85 0 0 0-.055-.02Zm-.272-.09-.052-.017c-.018-.005-.025-.014-.014-.027.02-.027.04-.055.061-.081.01-.013.021-.013.036-.003.05.031.075.094.052.14-.003.004-.017.008-.024.008l-.06-.02Z"/><path fill="#4B4800" d="m37.131 10.134-1.996 5.457c2.271 3.762 8.222 4.2 10.913 3.948L48 13.95s-.939-.117-1.508-.31c-.683-.231-1.642-.843-1.642-.843l-4.702 3.815v-5.678s-1.023.17-1.642 0c-.599-.164-1.375-.799-1.375-.799Z"/><path fill="#F2CD13" d="M43.189 11.761c-.525.199-.692.774-.699.799l-.013.046.044.024c.012.008.082.055.023.17-.05.098-.173.066-.223.052-.018-.069-.06-.34.182-.97l.039-.094s.102-.219.15-.31l-.01-.193-.144.124c-.028.1-.108.327-.108.327l-.039.094c-.268.62-.489.786-.55.82-.049-.023-.156-.088-.122-.194.038-.122.121-.107.136-.104l.047.013.024-.042c.012-.023.296-.55.06-1.06l-.06-.119-.693 1.698.385.158c-.07.262.086.543.093.555l.023.043.046-.015c.014-.003.325-.094.456-.331l.385.157.694-1.697-.126.05Zm-1.351.474a.225.225 0 0 0-.207.127l-.062-.025.358-.877c.09.337-.042.666-.09.775Zm-.161.599-.019.053-.269-.11.136-.333.07.028c-.014.117.064.201.144.255a.444.444 0 0 0-.062.107Zm.113.043a.259.259 0 0 1 .055-.09c.09.06.085.15.07.208l-.146-.06.02-.058Zm-.027.497a.632.632 0 0 1-.03-.328l.14.058-.11.27Zm.296-.525c-.008.003-.016.009-.025.014l-.007-.027a.31.31 0 0 0-.074-.116c.063-.048.151-.134.26-.295a1.204 1.204 0 0 0-.02.393.278.278 0 0 0-.134.03Zm-.185.567.109-.268.14.058a.587.587 0 0 1-.25.21Zm.328-.37-.025.053-.146-.06c.03-.051.089-.12.196-.1a.282.282 0 0 1-.025.106Zm.415-.493c.039-.11.178-.435.478-.616l-.358.877-.06-.025a.217.217 0 0 0-.06-.236Zm-.328.592.024-.052c.003-.008.027-.059.032-.118.092.02.207.011.282-.08l.069.027-.136.334-.272-.111Z"/><path fill="#FFD500" d="M15.34 62.762c-5.853-.669-15.456 1.155-7.236 12.706 8.16 11.466 9.739 18.676 5.358 17.257 1.218.455.661 2.097 1.29 2.763 4.876.775 4.967-5.778-5.923-20.154-2.621-3.822-4.372-11.265 5.961-10.864l.55-1.708Z"/><path fill="#005BBB" d="M16.126 60.292c-5.967-1.363-12.476-1.899-5.844 10.45 6.564 12.222-.4 11.308-4.825 9.277 1.09.563-.23 1.457.306 2.18 4.935 1.349 12.901.938 5.293-11.501-2.092-4.075-6.063-10.637 4.598-9l.472-1.406Z"/></g><rect width="64" height="64" x="1" y="1" stroke="#2F2F37" stroke-width=".4" rx="32"/><defs><radialGradient id="c" cx="0" cy="0" r="1" gradientTransform="matrix(0 5.43172 -3.85622 0 42.848 37.68)" gradientUnits="userSpaceOnUse"><stop stop-color="#FBB"/><stop offset="1" stop-color="#FBB" stop-opacity="0"/></radialGradient><radialGradient id="d" cx="0" cy="0" r="1" gradientTransform="matrix(0 5.43172 -3.85622 0 25.52 33.844)" gradientUnits="userSpaceOnUse"><stop stop-color="#FBB"/><stop offset="1" stop-color="#FBB" stop-opacity="0"/></radialGradient><clipPath id="a"><rect width="64" height="64" x="1" y="1" fill="#fff" rx="32"/></clipPath></defs></svg>