<svg xmlns="http://www.w3.org/2000/svg" width="66" height="66" fill="none"><path stroke="#2F2F37" stroke-width=".4" d="M33 65c17.673 0 32-14.327 32-32C65 15.327 50.673 1 33 1 15.327 1 1 15.327 1 33c0 17.673 14.327 32 32 32Z"/><path stroke="#000" stroke-miterlimit="10" stroke-width=".2" d="m39.558 48.907 5.053 4.487-4.47-2.345L43.736 59l-5.08-7.088-.093 2.506-1.154-2.021-.61 4.69-.65-6.59 3.409-1.59Z"/><path fill="#000" stroke="#000" stroke-miterlimit="10" stroke-width=".2" d="M21.783 34.569c-5.544 4.541-1.578 7.937 1.326 13.26-.265-2.21-.45-4.299 1.778-5.997l-3.104-7.263ZM38.657 28.33c5.796.552 6.712 1.01 8.343 10.605-1.804-1.671-2.427-3.436-5.425-2.776a55.559 55.559 0 0 0-2.918-7.83ZM40.568 44.015s2.189 2.843 0 4.582c-1.459 1.2-8.236 4.77-9.218-.85l9.218-3.732Z"/><path fill="#FF6B08" stroke="#000" stroke-miterlimit="10" stroke-width=".2" d="M42.01 41.266c2.745 1.59-6.009 5.97-10.876 6.576-.783.095-4.125.513-2.786-1.441l4.112-.836 6.128-2.304.212-.108 3.21-1.887Z"/><path fill="#ABB4B5" stroke="#000" stroke-miterlimit="10" stroke-width=".2" d="m41.017 36.523.942 4.757a16.457 16.457 0 0 1-6.178 4.168 16.234 16.234 0 0 1-7.35.993l-2.945-4.622s7.096.822 15.531-5.296Z"/><path fill="#FF6B08" stroke="#000" stroke-miterlimit="10" stroke-width=".2" d="M41.549 36.32S35.567 14.1 21.654 11c0 0-7.388 9.312 3.422 30.873.013 0 6.26 2.654 16.473-5.552Z"/><path fill="#F1E324" stroke="#000" stroke-miterlimit="10" stroke-width=".2" d="M31.15 23.91c-4.722-3.72-11.062 5.74-2.653 7.438 2.361.485 7.375-2.317 2.653-7.438Z"/><path stroke="#000" stroke-miterlimit="10" stroke-width=".2" d="M34.096 25.648c-3.396-8.625-12.508-3.962-11.354 1.617 2.096 10.592 14.43 6.185 11.354-1.617ZM28.973 14.746a12.45 12.45 0 0 1-4.352 3.32 12.262 12.262 0 0 1-5.33 1.114M27.478 13.6a10.273 10.273 0 0 1-3.577 2.922 10.106 10.106 0 0 1-4.474 1.04"/><path fill="#fff" d="M27.82 24.192a2.615 2.615 0 0 1 1.114-.175c.432.021.853.146 1.229.364.375.217.695.522.933.89.384.628.637 1.33.743 2.061a.532.532 0 0 1-.059.382.519.519 0 0 1-.3.238.497.497 0 0 1-.374-.05.51.51 0 0 1-.236-.3 6.416 6.416 0 0 0-.238-.997 1.283 1.283 0 0 0-.08-.203v-.08c0 .107 0 0 0 0s-.106-.23-.172-.337l-.093-.149s-.106-.148 0-.08c.106.067 0 0 0-.081l-.133-.135a1.149 1.149 0 0 0-.186-.175c.133 0 0 0 0 0l-.132-.081h-.093c-.066 0 0 0 0 0a.722.722 0 0 1-.239-.081h-.199s.133 0 0 0H29.2a3.684 3.684 0 0 0-.385 0h-.092s.159 0 0 0h-.146l-.332.094a.483.483 0 0 1-.524-.174.503.503 0 0 1-.037-.557.505.505 0 0 1 .296-.239l-.16-.135Z"/></svg>