<svg xmlns="http://www.w3.org/2000/svg" width="66" height="66" fill="none"><rect width="64" height="64" x="1" y="1" stroke="#2F2F37" stroke-width=".4" rx="32"/><mask id="a" fill="#fff"><path d="M17.96 12.9c.57.35 1.049.612 1.468.932 3.531 2.561 5.641 5.53 6.382 9.721.314 1.776.415 3.61.608 5.385.165 1.572.33 3.115.525 4.686.056.408-.006.583-.49.64-1.025.088-1.904.554-2.337 1.514-.4.845-.258 1.66.278 2.358.535.728 1.346 1.019 2.25 1.048.453 0 .756-.175 1.001-.582 1.931-3.085 3.081-6.404 3.57-9.955.392-2.94.181-5.88.09-8.79-.043-1.66-.026-3.347-.129-5.006-.05-1.048-.01-2.038.273-3.057A6.801 6.801 0 0 1 32.985 9c.776.786 1.279 1.717 1.48 2.736.17.96.22 1.98.24 2.94.02 1.048-.112 2.096-.152 3.114-.118 2.707-.267 5.414-.295 8.121-.016 4.512 1.116 8.732 3.459 12.603.296.524.716.67 1.29.612 1.448-.117 2.545-1.194 2.558-2.503.013-1.223-1.091-2.329-2.508-2.387-.512-.03-.54-.204-.476-.611.293-2.125.556-4.28.82-6.404.326-2.416.502-4.832 1.55-7.102 1.388-2.998 3.398-5.006 6.28-6.782.213-.117.425-.233.729-.408l-.007.612-.343 33.327c-.006.64-.006.64-.64.64h-7.175c-.422 0-.604.117-.699.524-.725 3.086-2.38 5.647-5.023 7.568-.547.408-1.034.932-1.552 1.398-1.34-1.514-3.23-2.562-4.357-4.337-.92-1.456-1.658-2.998-1.972-4.687-.087-.378-.266-.494-.628-.494h-7.297c-.422 0-.602-.088-.597-.554l.345-33.53c.005-.459-.055-.496-.055-.496Zm2.6 5.181a.477.477 0 0 0-.212.059l-.006.61-.164 15.893c-.009.903-.009.903.956.903.362 0 .544-.088.638-.437.373-1.077 1.105-1.892 2.105-2.416.424-.233.487-.495.431-.902-.25-2.009-.531-4.046-.691-6.055-.19-2.095-.656-3.667-1.723-5.5-.414-.758-.89-1.427-1.334-2.155Zm24.843.088c-.067-.03-.09-.03-.15-.03-.184.233-.367.466-.52.7-1.194 1.746-2.173 3.114-2.495 5.18-.39 2.62-.718 5.24-1.076 7.86-.064.348.024.581.383.785.99.553 1.705 1.339 2.086 2.416.176.495.507.611 1.292.466.483-.088.306-.437.309-.699l.166-16.184c.005-.194.005-.335.005-.494ZM26.198 41.57c-.15-.03-.331-.058-.542-.117-1.895-.407-3.363-1.31-3.947-3.202-.088-.261-.207-.378-.479-.349h-.633c-.301 0-.423.117-.426.408a477.638 477.638 0 0 0-.038 6.578c0 .116.238.378.358.378 1.628.03 3.286.03 4.915 0 .12 0 .364-.203.395-.32.132-1.106.264-2.212.397-3.376Zm12.904 0c.109 1.164.248 2.27.357 3.405.027.32.268.32.51.32 1.537 0 3.045-.029 4.582 0 .483 0 .635-.174.61-.61-.01-1.951.04-3.901.06-5.88.01-.903.01-.903-.925-.903-.272 0-.513 0-.607.32-.56 1.718-1.866 2.65-3.56 3.144-.362.087-.724.116-1.027.204Zm-6.307-8.208c-.868 2.24-1.734 4.424-3.052 6.461.929.612 1.797 1.194 2.696 1.747.12.087.422.029.573-.058.789-.466 1.518-.99 2.307-1.456.242-.145.304-.29.156-.553-1.097-1.775-2.037-4.162-2.68-6.141Zm-4.036 14.175c-.136 1.513 1.491 4.54 2.482 4.919l.061-.059c.016-1.513.062-3.027.047-4.511.001-.117-.208-.291-.329-.32-.753-.058-1.507-.03-2.26-.03Zm5.014 4.977c1.304-.728 2.844-3.842 2.645-5.006h-2.05c-.392 0-.514.145-.518.494l-.038 3.668c-.032.262-.035.524-.038.844Zm-3.935-7.277c.392 0 .814.03 1.207-.029.12 0 .364-.233.335-.32-.168-1.28-1.001-2.387-2.264-2.678-.271-.058-.422 0-.485.262-.13.786-.228 1.572-.357 2.387-.033.29.147.407.418.407.362-.029.754-.029 1.146-.029Zm5.548 0h1.055c.362.03.574-.116.518-.495a54.079 54.079 0 0 0-.28-2.183c-.056-.349-.236-.436-.599-.32-1.149.32-2.186 1.514-2.228 2.649-.001.116.208.32.328.35.422.028.814 0 1.206 0Z"/></mask><path fill="#FFD500" stroke="#2F2F37" stroke-width=".4" d="M17.96 12.9c.57.35 1.049.612 1.468.932 3.531 2.561 5.641 5.53 6.382 9.721.314 1.776.415 3.61.608 5.385.165 1.572.33 3.115.525 4.686.056.408-.006.583-.49.64-1.025.088-1.904.554-2.337 1.514-.4.845-.258 1.66.278 2.358.535.728 1.346 1.019 2.25 1.048.453 0 .756-.175 1.001-.582 1.931-3.085 3.081-6.404 3.57-9.955.392-2.94.181-5.88.09-8.79-.043-1.66-.026-3.347-.129-5.006-.05-1.048-.01-2.038.273-3.057A6.801 6.801 0 0 1 32.985 9c.776.786 1.279 1.717 1.48 2.736.17.96.22 1.98.24 2.94.02 1.048-.112 2.096-.152 3.114-.118 2.707-.267 5.414-.295 8.121-.016 4.512 1.116 8.732 3.459 12.603.296.524.716.67 1.29.612 1.448-.117 2.545-1.194 2.558-2.503.013-1.223-1.091-2.329-2.508-2.387-.512-.03-.54-.204-.476-.611.293-2.125.556-4.28.82-6.404.326-2.416.502-4.832 1.55-7.102 1.388-2.998 3.398-5.006 6.28-6.782.213-.117.425-.233.729-.408l-.007.612-.343 33.327c-.006.64-.006.64-.64.64h-7.175c-.422 0-.604.117-.699.524-.725 3.086-2.38 5.647-5.023 7.568-.547.408-1.034.932-1.552 1.398-1.34-1.514-3.23-2.562-4.357-4.337-.92-1.456-1.658-2.998-1.972-4.687-.087-.378-.266-.494-.628-.494h-7.297c-.422 0-.602-.088-.597-.554l.345-33.53c.005-.459-.055-.496-.055-.496Zm2.6 5.181a.477.477 0 0 0-.212.059l-.006.61-.164 15.893c-.009.903-.009.903.956.903.362 0 .544-.088.638-.437.373-1.077 1.105-1.892 2.105-2.416.424-.233.487-.495.431-.902-.25-2.009-.531-4.046-.691-6.055-.19-2.095-.656-3.667-1.723-5.5-.414-.758-.89-1.427-1.334-2.155Zm24.843.088c-.067-.03-.09-.03-.15-.03-.184.233-.367.466-.52.7-1.194 1.746-2.173 3.114-2.495 5.18-.39 2.62-.718 5.24-1.076 7.86-.064.348.024.581.383.785.99.553 1.705 1.339 2.086 2.416.176.495.507.611 1.292.466.483-.088.306-.437.309-.699l.166-16.184c.005-.194.005-.335.005-.494ZM26.198 41.57c-.15-.03-.331-.058-.542-.117-1.895-.407-3.363-1.31-3.947-3.202-.088-.261-.207-.378-.479-.349h-.633c-.301 0-.423.117-.426.408a477.638 477.638 0 0 0-.038 6.578c0 .116.238.378.358.378 1.628.03 3.286.03 4.915 0 .12 0 .364-.203.395-.32.132-1.106.264-2.212.397-3.376Zm12.904 0c.109 1.164.248 2.27.357 3.405.027.32.268.32.51.32 1.537 0 3.045-.029 4.582 0 .483 0 .635-.174.61-.61-.01-1.951.04-3.901.06-5.88.01-.903.01-.903-.925-.903-.272 0-.513 0-.607.32-.56 1.718-1.866 2.65-3.56 3.144-.362.087-.724.116-1.027.204Zm-6.307-8.208c-.868 2.24-1.734 4.424-3.052 6.461.929.612 1.797 1.194 2.696 1.747.12.087.422.029.573-.058.789-.466 1.518-.99 2.307-1.456.242-.145.304-.29.156-.553-1.097-1.775-2.037-4.162-2.68-6.141Zm-4.036 14.175c-.136 1.513 1.491 4.54 2.482 4.919l.061-.059c.016-1.513.062-3.027.047-4.511.001-.117-.208-.291-.329-.32-.753-.058-1.507-.03-2.26-.03Zm5.014 4.977c1.304-.728 2.844-3.842 2.645-5.006h-2.05c-.392 0-.514.145-.518.494l-.038 3.668c-.032.262-.035.524-.038.844Zm-3.935-7.277c.392 0 .814.03 1.207-.029.12 0 .364-.233.335-.32-.168-1.28-1.001-2.387-2.264-2.678-.271-.058-.422 0-.485.262-.13.786-.228 1.572-.357 2.387-.033.29.147.407.418.407.362-.029.754-.029 1.146-.029Zm5.548 0h1.055c.362.03.574-.116.518-.495a54.079 54.079 0 0 0-.28-2.183c-.056-.349-.236-.436-.599-.32-1.149.32-2.186 1.514-2.228 2.649-.001.116.208.32.328.35.422.028.814 0 1.206 0Z" mask="url(#a)"/></svg>