<svg xmlns="http://www.w3.org/2000/svg" width="50" height="51" fill="none"><g stroke="#010101" stroke-width=".5"><circle cx="25" cy="25" r="24.75" fill="#fff"/><path fill="#7BDEF3" d="M42.457 42.673c-4.505 4.388-10.56 7.111-17.242 7.111-6.401 0-12.172-2.19-16.594-6.148 4.332-1.826 10.148-1.826 17.957-1.826 6.729 0 11.736-.235 15.879.863Z"/></g><path fill="#7D571E" d="M14.841 14.49c-1.796 1.189.749 2.525 2.246 3.044.21.378.905 1.36 2 2.266 1.368 1.133 3.893 0 5.542-1.133 1.65-1.133 3.509.885 6 2.903 2.49 2.018-.14 3.93 1.368 6.337 1.508 2.407 1.403-.142 1.403-2.407 0-2.266.105-1.523 1.754-2.903 1.649-1.381 1.86-2.018 2.49-3.93.632-1.912.387-2.655-2.49-4.178-2.877-1.522-4.912-2.124-6.14-4.036-1.227-1.911-6.139-.495-8.174 0-2.034.496 1.158 1.912-.877 1.912-2.034 0-2.876.637-5.122 2.124Z"/><path fill="#FFE6CE" fill-rule="evenodd" d="m25.107 8.34.561-.029c6.075.031 9.441 5.083 9.241 11.013l-.029 2.144c1.165.165 2.759.838 2.214 3.32-.372 1.695-1.343 2.29-2.292 2.424l-.192 13.983a13.615 13.615 0 0 1-6.656 2.031c-2.364.091-4.71-.431-6.8-1.513l-.156-.082c-.016-1.669.025-3.188.025-3.188s-5.87-.58-6.25-6.256c-.184-2.741-.092-8.414.053-13.548a10.471 10.471 0 0 1 3.077-7.11 10.983 10.983 0 0 1 7.204-3.189Z" clip-rule="evenodd"/><path fill="#010101" d="m25.668 8.311.002-.25h-.014l.012.25Zm-.56.029-.014-.25.013.25Zm9.801 10.984-.25-.009v.005l.25.004Zm-.029 2.144-.25-.003-.003.22.218.03.035-.247Zm2.214 3.32.244.053-.244-.053Zm-2.292 2.424-.035-.247-.213.03-.002.214.25.003Zm-.192 13.983.132.212.117-.072.001-.137-.25-.003Zm-6.656 2.031-.01-.25.01.25Zm-6.8-1.513-.114.222.115-.222Zm-.156-.082-.25.003.001.15.134.07.115-.223Zm.025-3.188.25.007.007-.233-.232-.023-.024.25Zm-6.25-6.256.25-.017-.25.017Zm.053-13.548.25.007-.25-.007Zm3.077-7.11.177.176-.177-.177Zm7.753-3.467-.562.028.026.5.561-.029-.025-.5Zm9.503 11.27c.102-3.012-.702-5.818-2.32-7.88-1.624-2.069-4.056-3.375-7.17-3.39l-.002.5c2.961.014 5.25 1.25 6.778 3.198 1.533 1.953 2.313 4.638 2.215 7.556l.5.016Zm-.029 2.14.03-2.145-.5-.007-.03 2.145.5.007Zm-.285.244c.56.079 1.184.276 1.602.715.405.425.662 1.121.403 2.303l.488.107c.286-1.3.018-2.18-.529-2.755-.533-.558-1.29-.78-1.894-.865l-.07.495Zm2.005 3.018c-.177.809-.492 1.332-.855 1.668a2.226 2.226 0 0 1-1.228.563l.07.495a2.724 2.724 0 0 0 1.497-.69c.453-.42.81-1.042 1.004-1.929l-.488-.107Zm-1.99 16.464.191-13.982-.5-.007-.19 13.982.5.007Zm-6.896 2.278a13.864 13.864 0 0 0 6.778-2.069l-.264-.424a13.364 13.364 0 0 1-6.534 1.993l.02.5Zm-6.924-1.541a13.903 13.903 0 0 0 6.924 1.541l-.02-.5c-2.32.09-4.624-.423-6.674-1.485l-.23.444Zm-.157-.082.157.082.23-.444-.157-.081-.23.443Zm.14-3.41-.25-.006v.004a.89.89 0 0 0 0 .013l-.001.052a60.613 60.613 0 0 0-.017.902c-.009.59-.015 1.389-.007 2.226l.5-.005a95.119 95.119 0 0 1 .024-3.111v-.05a.4.4 0 0 0 .001-.014v-.003l-.25-.008Zm-6.5-6.24c.197 2.942 1.825 4.572 3.395 5.458a8.848 8.848 0 0 0 3.06 1.029l.015.001h.004l.001.001.025-.249.025-.248h-.002l-.011-.002-.045-.005c-.04-.006-.1-.014-.178-.027a8.347 8.347 0 0 1-2.648-.935c-1.461-.824-2.959-2.322-3.142-5.056l-.498.033Zm.053-13.571c-.145 5.13-.237 10.816-.053 13.571l.5-.033c-.184-2.727-.092-8.387.053-13.524l-.5-.014Zm3.15-7.28a10.722 10.722 0 0 0-3.15 7.28l.5.014a10.221 10.221 0 0 1 3.004-6.941l-.354-.354Zm7.368-3.262a11.233 11.233 0 0 0-7.368 3.261l.354.354a10.733 10.733 0 0 1 7.04-3.115l-.026-.5ZM16.323 21.08c.011.23.12.447.302.605.182.158.424.244.674.24a.989.989 0 0 0 .358-.058.93.93 0 0 0 .306-.181.845.845 0 0 0 .205-.276.787.787 0 0 0 .073-.328.854.854 0 0 0-.3-.605 1.008 1.008 0 0 0-.675-.24.99.99 0 0 0-.359.058.93.93 0 0 0-.306.181.846.846 0 0 0-.205.277.79.79 0 0 0-.073.328ZM24.634 21.08c.01.23.106.447.268.605a.837.837 0 0 0 .599.24.791.791 0 0 0 .59-.24.846.846 0 0 0 .248-.603.898.898 0 0 0-.268-.605.839.839 0 0 0-.6-.24.792.792 0 0 0-.59.239.845.845 0 0 0-.247.605Z"/><path stroke="#010101" stroke-linecap="round" stroke-width=".5" d="M22.061 27.756c-.001.05-.563.076-1.482.076a1.652 1.652 0 0 1-.394-.034.58.58 0 0 1-.395-.306c-.136-.329-.002-.625.07-.882.178-.556.13-2.177.325-2.786.812-2.47 1.789-3.407 1.891-3.376"/><path fill="#514438" stroke="#514438" stroke-width=".5" d="M24.207 17.694c.034.25 1.268.026 2.266.364 1.002.32 1.425 1.086 1.607.906.084-.087-.011-.335-.296-.631-.384-.37-.85-.65-1.36-.817a3.632 3.632 0 0 0-1.59-.152c-.41.069-.64.211-.627.33ZM15.76 18.62c.137.212.825-.295 1.562-.23.735.041 1.29.64 1.456.448.073-.093-.005-.3-.256-.517a2.227 2.227 0 0 0-2.431-.177c-.282.177-.389.371-.33.476Z"/><path stroke="#010101" stroke-width=".5" d="M21.12 30.646c0 .476-.482.862-1.078.862-.595 0-1.077-.386-1.077-.862"/><path fill="#7D571E" d="M16.613 13.527c-1.497-.52-4.042-1.856-2.245-3.045 2.245-1.487 3.087-2.124 5.122-2.124 2.034 0 .846-1.094 2.88-1.59 2.035-.496 3.664-.862 6.466 0 2.172.668 3.06 2.03 5.844 3.714 1.248.754 2.152 2.48 2.295 4.1.75.612 1.153 1.47 1.301 2.359.625 3.75-.625 5.625-.625 8.125s1.875 4.375 0 7.5-3.75-1.25-4.375-4.375 1.875-.625 2.5-4.375c0-.16-.831-1.638-1.21-2.533l-.04.033-.145.124c-.789.692-1.05 1.203-1.123 1.592-.015.19-.014.375-.004.54.01.09.022.17.022.244 0 1.94-.56 2.431-1.423 1.056-1.508-2.408.792-5.291-1.698-7.31-2.491-2.018-4.35-4.036-6-2.903-1.648 1.133-3.218 1-4.586-.132-1.095-.907-2.746-.623-2.956-1ZM17.078 32.488c-.526-3.376 1.61-4.277 2.743-4.305 2.068.309 2.27 1.841 2.113 2.57-.316 4.626-.773 3.171-.963 1.866l.064-1.897c.015-.433-.216-1.287-1.258-1.242-1.04.045-1.525.782-1.637 1.145-.135 2.027-.536 5.239-1.062 1.863Z"/><path fill="#7D571E" d="M27.61 31.442c3.866-.83 4.928-5.898 4.977-8.328 1.34 4.742-.366 10.882-1.907 12.13-1.54 1.247-5.727 3.905-12.014 3.594-6.286-.311-4.906-8.66-3.735-7.821.937.67 2.2 1.94 2.715 2.49 1.153-1.001 2.81-.34 3.494.117.546-.382 2.604-1.352 6.47-2.182Z"/></svg>