<svg xmlns="http://www.w3.org/2000/svg" width="50" height="51" fill="none"><circle cx="25" cy="25" r="24.75" fill="#fff" stroke="#010101" stroke-width=".5"/><path fill="#F3EA07" stroke="#010101" stroke-width=".5" d="M42.457 42.694c-4.505 4.389-10.56 7.111-17.242 7.111-6.401 0-12.172-2.19-16.594-6.148 4.332-1.825 10.148-1.825 17.957-1.825 6.729 0 11.736-.236 15.879.862Z"/><path fill="#D6B8A7" stroke="#010101" stroke-width=".5" d="M17.826 30.467c0 1.474-3.009 4.04-4.784 4.517 0 2.457 3.043 1.74 2.609 2.354-.348.492-.797 1.809-1.848 1.945.087.655 2.717.75 4.022.717.174.736-1.16 1.194-1.848 1.33 6.087 1.72 8.37-3.39 9.023-5.54-2.392-2.389-7.174-6.797-7.174-5.323Z"/><path fill="#FFE2D3" fill-rule="evenodd" d="m25.051 8.363.56-.028c6.068.03 9.43 5.076 9.231 11l-.03 2.142c1.165.164 2.756.836 2.213 3.316-.372 1.693-1.342 2.288-2.29 2.421l-.191 13.967a13.597 13.597 0 0 1-6.65 2.029c-2.36.09-4.704-.431-6.79-1.512l-.157-.081c-.016-1.668.025-3.185.025-3.185s-5.864-.58-6.243-6.25c-.184-2.737-.092-8.404.053-13.532a10.46 10.46 0 0 1 3.073-7.102 10.97 10.97 0 0 1 7.196-3.185Z" clip-rule="evenodd"/><path fill="#010101" d="m25.612 8.335.001-.25H25.6l.013.25Zm-.56.028-.014-.25.013.25Zm9.79 10.972-.25-.009v.005l.25.004Zm-.03 2.142-.249-.004-.003.22.218.031.035-.247Zm2.213 3.316.244.053-.244-.053Zm-2.29 2.421-.035-.247-.213.03-.003.214.25.003Zm-.191 13.967.131.212.117-.072.002-.137-.25-.003Zm-6.65 2.029-.009-.25.01.25Zm-6.79-1.512-.116.222.115-.222Zm-.157-.081-.25.002v.15l.134.07.116-.222Zm.025-3.185.25.007.006-.233-.231-.023-.025.25Zm-6.243-6.25.25-.016-.25.017Zm.053-13.532.25.007-.25-.007Zm3.073-7.102.177.177-.177-.177ZM25.6 8.085l-.56.029.025.5.56-.03-.025-.499Zm9.493 11.258c.101-3.009-.701-5.812-2.318-7.872-1.622-2.066-4.051-3.37-7.16-3.386l-.003.5c2.957.015 5.242 1.249 6.77 3.194 1.53 1.951 2.31 4.633 2.211 7.547l.5.017Zm-.03 2.137.03-2.142-.5-.007-.029 2.142.5.007Zm-.284.244c.56.08 1.182.277 1.6.715.404.424.661 1.12.402 2.3l.489.107c.285-1.299.018-2.178-.529-2.752-.532-.558-1.288-.78-1.892-.865l-.07.495Zm2.002 3.015c-.177.808-.491 1.33-.854 1.666-.363.336-.792.5-1.226.562l.07.495a2.722 2.722 0 0 0 1.496-.69c.452-.419.808-1.04 1.003-1.926l-.489-.107Zm-1.986 16.445.19-13.966-.5-.007-.19 13.966.5.007Zm-6.89 2.275a13.85 13.85 0 0 0 6.771-2.066l-.263-.425a13.348 13.348 0 0 1-6.527 1.992l.02.5Zm-6.916-1.54a13.887 13.887 0 0 0 6.916 1.54l-.019-.5a13.387 13.387 0 0 1-6.667-1.483l-.23.444Zm-.157-.08.157.08.23-.443-.156-.081-.23.444Zm.141-3.407-.25-.007v.018c0 .012 0 .029-.002.051a60.018 60.018 0 0 0-.017.901 95.33 95.33 0 0 0-.006 2.224l.5-.005a94.893 94.893 0 0 1 .023-3.107l.002-.05V38.438l-.25-.007ZM14.48 32.2c.197 2.938 1.823 4.567 3.391 5.452a8.838 8.838 0 0 0 3.057 1.028l.015.001h.005l.025-.248.025-.249h-.003l-.01-.001a2.902 2.902 0 0 1-.223-.032 8.334 8.334 0 0 1-2.645-.934c-1.46-.823-2.955-2.32-3.138-5.05l-.499.033Zm.053-13.556c-.145 5.125-.237 10.804-.053 13.556l.5-.033c-.183-2.723-.092-8.377.052-13.509l-.5-.014Zm3.146-7.272a10.71 10.71 0 0 0-3.146 7.272l.5.014a10.21 10.21 0 0 1 3-6.932l-.354-.354Zm7.36-3.257a11.22 11.22 0 0 0-7.36 3.257l.354.354a10.72 10.72 0 0 1 7.032-3.112l-.026-.5ZM25.4 21.226a.798.798 0 0 1-.257.551.83.83 0 0 1-.576.218.8.8 0 0 1-.569-.217.77.77 0 0 1-.238-.55.798.798 0 0 1 .257-.552.83.83 0 0 1 .577-.219.8.8 0 0 1 .569.218.77.77 0 0 1 .238.551ZM17.544 21.227a.797.797 0 0 1-.258.55.83.83 0 0 1-.576.218.8.8 0 0 1-.568-.217.768.768 0 0 1-.238-.55.8.8 0 0 1 .257-.551.831.831 0 0 1 .577-.22.799.799 0 0 1 .569.218.77.77 0 0 1 .237.552ZM22.515 18.252c.096.233 1.234-.287 2.283-.206 1.05.062 1.652.699 1.783.48.059-.105-.096-.322-.445-.538a3.576 3.576 0 0 0-1.522-.455 3.624 3.624 0 0 0-1.576.245c-.378.168-.565.362-.523.474Z"/><path fill="#010101" d="M14.712 19.203c.154.2.794-.365 1.533-.363.735-.023 1.34.526 1.488.32.065-.099-.03-.3-.3-.492a2.228 2.228 0 0 0-2.435.033c-.265.2-.354.403-.286.502Z"/><circle cx="27.983" cy="32.02" r="4.47" fill="url(#a)" opacity=".2"/><path fill="#F89797" stroke="#010101" stroke-width=".5" d="M20.647 31.061c.63-.246 1.6.103 2.007.308-1.72 1.617-3.644.673-4.194 0 .688-.528 1.877-.425 2.187-.308Z"/><path stroke="#010101" stroke-width=".5" d="M20.533 22.845c-.72 2.801-2.156 3.93-1.308 4.405 1.231.69 1.488.16 1.462-.191"/><path fill="#D6B8A7" stroke="#010101" stroke-width=".5" d="M37.928 22.211c.17-12.15-7.228-14.267-10.948-13.807-4.89-.837-7.44.956-9.035 2.23-1.275 1.02-.531 1.983 0 2.337-.319-1.487 5.74-2.974 4.04-2.337-1.361.51-.567 1.77 0 2.337 1.665-1.522 5.654-2.06 8.29 7.966 2.636 10.025-3.615 19.734-6.308 21.575 2.296.51 4.145-.212 4.783-.637.765 1.53-1.524 3.115-2.764 3.717 3.657.85 6.059-1.7 6.803-3.08 1.02.68.425 2.337 0 3.08 3.933-1.805 4.926-8.193 5.139-23.38Z"/><defs><radialGradient id="a" cx="0" cy="0" r="1" gradientTransform="rotate(90 -2.018 30.002) scale(4.4703)" gradientUnits="userSpaceOnUse"><stop stop-color="red"/><stop offset="1" stop-color="red" stop-opacity="0"/></radialGradient></defs></svg>