<svg xmlns="http://www.w3.org/2000/svg" width="110" height="36" fill="none"><path fill="#161616" fill-rule="evenodd" d="M0 36h48.5l.026-.048c.023-.042.046-.084.072-.124l5.606-8.749 5.608-8.752c.066-.102.099-.153.099-.204 0-.05-.032-.1-.096-.199l-2.303-3.61C54.542 9.659 51.573 5.005 48.606.35c-.08-.125-.16-.17-.3-.17C32.273.185 16.237.185.204.185H0V36ZM35.15 9.98c.71-.203 1.376-.282 2.268-.282 1.931.018 3.8.761 5.367 2.324 1.217 1.216 1.963 2.732 2.262 4.5.332 1.969.093 3.854-.799 5.611-1.058 2.083-2.672 3.419-4.779 4.025-1.812.523-3.61.418-5.345-.373-2.26-1.03-3.719-2.878-4.404-5.417-.612-2.271-.39-4.478.706-6.538 1.068-2.005 2.674-3.262 4.724-3.85ZM22.55 15.433c-.03.042-.06.085-.107.117-.123-.107-.244-.214-.363-.32a32.705 32.705 0 0 0-.409-.359c-.512-.427-1.066-.767-1.7-.918-.704-.168-1.411-.23-2.112.004-.998.33-1.695 1.051-2.153 2.055-.382.833-.485 1.72-.384 2.64.08.721.292 1.39.68 1.983.597.91 1.413 1.438 2.429 1.577.916.125 1.802 0 2.642-.44.287-.15.287-.153.286-.5v-.259c.001-.169.002-.337 0-.505-.001-.133.008-.19-.016-.214-.022-.022-.073-.015-.187-.015h-2.662c-.117-.001-.169.005-.191-.017-.023-.024-.015-.08-.015-.21v-3.494l.001-.042a.83.83 0 0 0 0-.087c-.006-.068.016-.103.084-.098.026.003.053.002.08.001h6.769c.044 0 .08.008.075.07-.003.037.018.062.04.087.026.03.053.061.038.116-.013.046-.01.098-.006.15l.003.07v1.326c0 1.768-.001 3.538.003 5.306 0 .144-.04.235-.14.325-1.254 1.139-2.663 1.934-4.257 2.325a8.681 8.681 0 0 1-2.863.213c-1.14-.1-2.221-.42-3.223-1.026-1.837-1.112-2.993-2.801-3.526-5.006a9.593 9.593 0 0 1-.23-2.968c.278-3.713 2.664-6.612 5.859-7.418.912-.231 1.833-.264 2.762-.196a8.769 8.769 0 0 1 2.098.397c1.027.335 1.933.911 2.755 1.65l.285.263c.117.11.122.174.019.31l-1.559 2.048-.323.425-.457.599-.025.035Zm18.35 1.648c-.383-1.837-1.79-3.162-3.94-3.156-1.058.026-2.15.687-2.835 2.068-.465.937-.573 1.948-.397 2.992.14.824.467 1.552 1.01 2.153.845.935 1.882 1.3 3.069 1.153 1.227-.154 2.141-.84 2.725-2.022.497-1.005.598-2.08.368-3.188Z" clip-rule="evenodd"/><path fill="#161616" d="M61.083 0h48.431v35.815c-.083-.03-.166-.013-.251-.013-15.97 0-31.943 0-47.914-.002-.292 0-.251.047-.251-.271 0-11.758 0-23.515-.002-35.274 0-.085.015-.172-.013-.255Zm28.523 10.194h-6.02c-.046 0-.09.002-.136 0-.068-.004-.09.031-.087.1.002.031 0 .06 0 .092v3.752c0 .216-.013.195.185.195h3.782c.244 0 .244 0 .244.26v11.566c0 .213-.024.196.182.198h3.629c.225 0 .225 0 .225-.24V14.55c0-.235-.027-.215.202-.215h3.85c.167 0 .167-.002.167-.179v-3.733c0-.257.026-.227-.207-.227-2.004-.002-4.01-.002-6.016-.002Zm-14.082 8.072v7.816c0 .05.003.097 0 .147-.007.089.015.144.11.13.034-.006.068 0 .102 0h3.61c.25 0 .214.031.214-.237V10.436c0-.037-.004-.074 0-.111.008-.092-.02-.14-.112-.13-.027.004-.056 0-.085 0H75.72c-.222 0-.195-.029-.195.219-.002 2.617 0 5.233 0 7.852Z"/></svg>