<svg xmlns="http://www.w3.org/2000/svg" width="166" height="156" fill="none"><path fill="#fff" stroke="#383838" stroke-width=".339" d="M60.848 16.344c.816-.7 18.926-2.184 26.353-2.475-1.214 19.651-1.165 58.226 2.33 64.631 3.945 7.231 2.912 16.158-3.495 18.487-5.126 1.863-12.232 10.966-15.144 15.284-2.281 4.416-8.475 14.382-14.998 18.924-8.155 5.677-16.164.437-18.348-3.785-2.184-4.221-1.165-10.481 1.893-15.139 3.058-4.658 13.105-14.41 19.513-21.835 6.407-7.423 6.26-11.5 6.843-21.107.583-9.607-5.966-52.112-4.947-52.985Z"/><mask id="a" width="23.429" height="38.733" x="63.137" y="22.307" fill="#000" maskUnits="userSpaceOnUse"><path fill="#fff" d="M63.137 22.307h23.429V61.04H63.137z"/><path fill-rule="evenodd" d="M73.118 24.32c-.309-.133-2.07.206-4.147.81-2.078.602-3.746 1.26-3.935 1.537l-.033.01.176.604c-.067.054-.098.099-.088.133v.002a.05.05 0 0 0 .014.021l.703 2.442c-.89 1.303-1.045 2.992-.576 4.412.135.675.406 1.43.855 2.272.267.5.556 1.03.858 1.58 1.334 2.443 2.906 5.318 3.801 7.986l.277 1.008-.007-.002.272 1.033.006.002c.487 2.555.03 4.724-2.326 5.835-4.647 2.191 1.685 4.936 5.432 6.034 2.101-1.772 5.442-6.629 2.778-14.076l.017-.023-.348-.945-.006.006-.436-.915-.003.003c-.965-2.057-2.38-4.288-4.377-6.685.407-.163.84-.372 1.303-.633.659.393 1.46.908 2.3 1.967 1.567 1.973 2.393 2.023 2.676 1.66.067-.088.096-.322.063-.613.13-.102.249-.213.332-.328.05-.069.045-.19.002-.344a2.713 2.713 0 0 0-.167-.426 6.455 6.455 0 0 0-.185-.359 10.877 10.877 0 0 0-.41-.681 17.202 17.202 0 0 0-.612-.891l-.445.352a9.932 9.932 0 0 0-.389-.5l.064-.003a16.327 16.327 0 0 0 1.201-.103 23.57 23.57 0 0 0 1.26-.181 31.056 31.056 0 0 0 1.992-.403 33.558 33.558 0 0 0 1.168-.296c.116-.032.222-.115.324-.195.09-.071.177-.14.264-.166l-.044-.453c.424-.218.7-.464.75-.67.105-.422-.592-.81-1.945-1.075a1.464 1.464 0 0 0-.296.048l-.301-.065h-.001a36.409 36.409 0 0 1-1.53-.353c-1.237-.324-1.976-1.419-2.67-2.493a4.065 4.065 0 0 0-.253-.349c1.222-.792-.492-1.92-2.147-1.86a.488.488 0 0 0 .009-.032l-.865-2.967-.002-.01c-.01-.034-.06-.055-.145-.064l-.177-.606-.03.009Z" clip-rule="evenodd"/></mask><path fill="#383838" fill-rule="evenodd" d="M73.118 24.32c-.309-.133-2.07.206-4.147.81-2.078.602-3.746 1.26-3.935 1.537l-.033.01.176.604c-.067.054-.098.099-.088.133v.002a.05.05 0 0 0 .014.021l.703 2.442c-.89 1.303-1.045 2.992-.576 4.412.135.675.406 1.43.855 2.272.267.5.556 1.03.858 1.58 1.334 2.443 2.906 5.318 3.801 7.986l.277 1.008-.007-.002.272 1.033.006.002c.487 2.555.03 4.724-2.326 5.835-4.647 2.191 1.685 4.936 5.432 6.034 2.101-1.772 5.442-6.629 2.778-14.076l.017-.023-.348-.945-.006.006-.436-.915-.003.003c-.965-2.057-2.38-4.288-4.377-6.685.407-.163.84-.372 1.303-.633.659.393 1.46.908 2.3 1.967 1.567 1.973 2.393 2.023 2.676 1.66.067-.088.096-.322.063-.613.13-.102.249-.213.332-.328.05-.069.045-.19.002-.344a2.713 2.713 0 0 0-.167-.426 6.455 6.455 0 0 0-.185-.359 10.877 10.877 0 0 0-.41-.681 17.202 17.202 0 0 0-.612-.891l-.445.352a9.932 9.932 0 0 0-.389-.5l.064-.003a16.327 16.327 0 0 0 1.201-.103 23.57 23.57 0 0 0 1.26-.181 31.056 31.056 0 0 0 1.992-.403 33.558 33.558 0 0 0 1.168-.296c.116-.032.222-.115.324-.195.09-.071.177-.14.264-.166l-.044-.453c.424-.218.7-.464.75-.67.105-.422-.592-.81-1.945-1.075a1.464 1.464 0 0 0-.296.048l-.301-.065h-.001a36.409 36.409 0 0 1-1.53-.353c-1.237-.324-1.976-1.419-2.67-2.493a4.065 4.065 0 0 0-.253-.349c1.222-.792-.492-1.92-2.147-1.86a.488.488 0 0 0 .009-.032l-.865-2.967-.002-.01c-.01-.034-.06-.055-.145-.064l-.177-.606-.03.009Z" clip-rule="evenodd"/><path fill="#383838" d="m68.971 25.13-.057-.198.057.197Zm4.147-.81-.081.189.068.03.07-.022-.057-.196Zm-8.082 2.347.057.197.07-.02.042-.062-.169-.115Zm-.033.01-.057-.197-.197.057.057.197.197-.058Zm.176.604.128.16.107-.086-.038-.131-.197.057Zm-.088.133-.197.057v.004l.197-.061Zm0 .002.196-.06v-.002l-.196.062Zm.014.021.197-.056-.015-.054-.041-.039-.14.15Zm.703 2.442.169.116.054-.08-.026-.093-.197.057Zm-.576 4.412.2-.04-.002-.013-.004-.011-.194.064Zm.855 2.272.181-.096-.18.096Zm.858 1.58.18-.097-.18.098Zm0 0-.18.099.18-.098Zm3.801 7.986-.034.202.338.057-.11-.325-.194.066Zm0 0 .034-.203-.317-.054.085.31.198-.053Zm.277 1.008-.044.2.332.073-.09-.328-.198.054Zm-.007-.002.044-.2-.328-.072.086.324.198-.052Zm.272 1.033-.198.053.03.11.108.033.06-.196Zm.006.002.202-.038-.023-.122-.119-.036-.06.196Zm-2.326 5.835-.088-.185.088.185Zm5.432 6.034-.058.197.106.03.084-.07-.132-.157Zm2.778-14.076-.163-.124-.067.089.037.104.193-.07Zm.017-.023.164.124.067-.09-.038-.104-.193.07Zm-.348-.945.192-.071-.12-.328-.228.265.156.134ZM76.84 45l-.185.088.136.285.205-.24-.156-.133Zm-.436-.915.185-.089-.138-.288-.204.245.157.132Zm-.003.003-.185.087.136.29.207-.246-.158-.131Zm-4.377-6.685-.076-.19-.262.105.18.216.158-.131Zm1.303-.633.105-.176-.103-.06-.103.058.1.178Zm2.3 1.967-.16.127.16-.127Zm2.676 1.66.162.125-.162-.126Zm.063-.613-.126-.162-.091.07.013.115.204-.023Zm.332-.328-.167-.12.167.12Zm.002-.344-.197.054.197-.054Zm-.167-.426-.185.088.185-.088Zm-.185-.359-.18.1.18-.1Zm-.226-.388-.175.107.175-.107Zm-.184-.293.173-.11-.173.11Zm-.254-.385-.17.115.17-.115Zm-.358-.506.166-.122-.126-.17-.167.13.127.162Zm-.445.352-.166.12.126.172.167-.132-.127-.16Zm-.389-.5-.01-.205-.41.02.263.316.157-.131Zm.064-.003.01.205-.01-.205Zm.585-.04.018.204-.018-.204Zm.617-.063.023.204-.023-.204Zm.598-.078-.03-.203.03.203Zm.662-.103.034.202-.034-.202Zm.627-.113-.038-.201.038.201Zm.691-.14-.043-.2.043.2Zm.673-.15-.046-.2.046.2Zm.609-.148.05.198-.05-.198Zm.559-.148-.054-.197.054.197Zm.324-.195.127.161-.127-.161Zm.264-.166.059.197.16-.049-.015-.167-.204.02Zm-.044-.453-.094-.182-.123.064.013.138.204-.02Zm.75-.67-.198-.05.198.05Zm-1.945-1.075.04-.201-.027-.006-.027.002.014.205Zm-.296.048-.043.2.05.011.049-.013-.056-.198Zm-.301-.065.043-.2-.043.2Zm-.001 0 .043-.2-.003-.001-.04.2Zm0 0-.043.2.003.001.04-.201Zm0 0-.046.2h.003l.043-.2Zm0 0 .046-.2h-.003l-.043.2Zm-1.53-.353.053-.198-.052.198ZM76.73 30.2l-.173.112.172-.112Zm-.253-.349-.111-.172-.191.124.143.177.16-.129Zm-2.147-1.86-.196-.061-.084.276.288-.01-.008-.206Zm.009-.032.2.046.012-.052-.015-.052-.197.058Zm-.865-2.967-.205.011.001.024.007.023.197-.058Zm-.002-.01-.197.057.197-.057Zm-.145-.064-.197.057.038.132.136.015.023-.204Zm-.177-.606.197-.058-.057-.197-.197.058.057.197Zm-4.12 1.014c1.034-.3 1.987-.534 2.718-.676.366-.071.673-.118.904-.14.116-.01.21-.015.28-.013.035.001.062.004.081.007.021.003.027.006.025.005l.162-.377a.717.717 0 0 0-.257-.045 2.794 2.794 0 0 0-.329.015c-.25.023-.572.073-.944.145-.746.145-1.712.383-2.755.685l.114.394Zm-3.824 1.456c-.001.003.003-.003.019-.017a.67.67 0 0 1 .065-.05c.058-.039.14-.085.243-.138.207-.106.491-.23.838-.366a32.278 32.278 0 0 1 2.658-.885l-.114-.394a32.69 32.69 0 0 0-2.693.897 10.06 10.06 0 0 0-.876.383 2.825 2.825 0 0 0-.285.164.724.724 0 0 0-.193.175l.338.232Zm-.145.091.033-.01-.114-.393-.033.01.114.393Zm.316.35-.176-.604-.394.115.176.604.394-.114Zm-.089.134c.01.032.007.06.002.08a.102.102 0 0 1-.013.032l.005-.005a.29.29 0 0 1 .026-.023l-.256-.32a.556.556 0 0 0-.115.12.274.274 0 0 0-.042.23l.393-.114Zm0-.003v-.001l-.392.122v.002l.392-.123Zm-.041-.066a.155.155 0 0 1 .041.067l-.392.12a.256.256 0 0 0 .07.112l.28-.299Zm.759 2.534-.703-2.441-.394.113.703 2.442.394-.114Zm-.579 4.405c-.45-1.366-.299-2.987.55-4.232l-.338-.232c-.928 1.361-1.087 3.118-.601 4.592l.39-.128Zm.842 2.24c-.441-.827-.705-1.564-.835-2.216l-.402.08c.14.698.419 1.473.875 2.329l.362-.193Zm.856 1.578c-.301-.551-.59-1.08-.856-1.578l-.362.193c.268.5.557 1.03.859 1.582l.36-.197Zm0 0-.36.197.36-.196Zm3.817 8.018c-.903-2.688-2.484-5.58-3.817-8.018l-.36.197c1.338 2.446 2.899 5.304 3.788 7.952l.388-.13Zm-.23.268.07-.405-.07.405Zm.51.751-.278-1.008-.395.109.277 1.008.396-.109Zm-.249.253.007.002.088-.4-.007-.002-.088.4Zm.515.781-.272-1.033-.397.104.272 1.034.397-.105Zm-.133-.142-.005-.002-.12.392.005.002.12-.392Zm-2.299 6.217c1.225-.578 1.969-1.44 2.336-2.495.364-1.047.352-2.268.105-3.564l-.403.077c.24 1.258.242 2.4-.09 3.353-.328.945-.992 1.724-2.123 2.258l.175.37Zm5.402 5.651c-1.868-.547-4.358-1.5-5.798-2.575-.358-.267-.643-.536-.837-.8-.194-.265-.288-.515-.288-.749.001-.454.372-.986 1.521-1.528l-.175-.37c-1.174.553-1.754 1.186-1.756 1.897 0 .349.14.682.367.992.226.309.546.606.923.887 1.501 1.12 4.05 2.09 5.928 2.64l.115-.394Zm2.528-13.81c2.63 7.352-.668 12.122-2.718 13.85l.265.314c2.154-1.817 5.537-6.76 2.84-14.302l-.387.138Zm.046-.215-.017.022.328.247.017-.022-.328-.247Zm-.377-.751.349.945.385-.142-.349-.945-.385.142Zm.343.069.005-.007-.31-.267-.006.007.31.267Zm-.777-.961.436.915.37-.176-.436-.916-.37.177Zm.34.046.002-.003-.314-.263-.003.003.315.263Zm-4.693-6.685c1.987 2.386 3.393 4.602 4.35 6.64l.371-.174c-.974-2.075-2.4-4.32-4.405-6.728l-.316.262Zm1.36-.942c-.455.257-.88.461-1.278.62l.152.381c.416-.167.859-.38 1.328-.644l-.202-.357Zm2.562 2.017c-.863-1.086-1.687-1.616-2.356-2.015l-.21.352c.65.387 1.427.888 2.245 1.918l.321-.255Zm2.353 1.662a.246.246 0 0 1-.178.093c-.091.01-.23-.01-.427-.105-.396-.194-.971-.671-1.748-1.65l-.321.255c.79.995 1.41 1.53 1.89 1.763.24.118.459.166.651.145a.655.655 0 0 0 .457-.25l-.324-.251Zm.02-.464c.016.134.017.25.007.338-.01.098-.03.13-.027.126l.324.251c.07-.09.099-.22.11-.333.014-.124.012-.271-.006-.428l-.407.046Zm.37-.47c-.066.092-.169.19-.291.285l.251.324c.139-.108.274-.233.373-.37l-.333-.24Zm-.028-.17a.607.607 0 0 1 .025.15c0 .035-.007.033.003.02l.333.239a.437.437 0 0 0 .075-.26c0-.083-.017-.171-.041-.258l-.395.108Zm-.155-.393c.073.152.125.285.155.392l.395-.108a2.917 2.917 0 0 0-.18-.46l-.37.176Zm-.18-.348c.068.122.128.238.18.348l.37-.176a6.71 6.71 0 0 0-.19-.37l-.36.198Zm-.221-.38c.078.129.153.256.222.38l.358-.198c-.072-.13-.15-.263-.23-.395l-.35.213Zm-.181-.29c.061.096.122.193.18.29l.351-.213c-.06-.1-.123-.2-.186-.298l-.345.222Zm-.252-.38c.083.122.168.25.252.38l.345-.22a17.853 17.853 0 0 0-.258-.39l-.339.23Zm-.353-.5c.104.142.226.313.353.5l.34-.23c-.131-.192-.256-.367-.362-.513l-.33.243Zm-.153.391.445-.351-.254-.322-.445.352.254.321Zm-.673-.529c.134.16.26.326.38.49l.331-.242a10.23 10.23 0 0 0-.396-.51l-.315.262Zm.21-.339-.062.003.02.41.062-.003-.02-.41Zm.579-.04c-.196.017-.389.03-.579.04l.02.41c.196-.01.394-.024.594-.04l-.035-.41Zm.61-.062c-.205.024-.409.045-.61.063l.035.408c.206-.017.414-.039.622-.063l-.047-.408Zm.593-.077c-.198.029-.396.055-.593.078l.047.407c.201-.024.403-.05.604-.079l-.058-.406Zm.656-.102c-.218.036-.437.07-.656.102l.058.406c.223-.032.446-.067.667-.104l-.069-.404Zm.624-.112c-.206.039-.414.076-.624.112l.069.404c.212-.036.423-.074.632-.114l-.077-.402Zm.686-.139c-.224.048-.453.094-.686.139l.077.402c.236-.044.468-.092.695-.14l-.086-.401Zm.67-.15c-.217.051-.44.101-.67.15l.086.401c.232-.05.458-.1.677-.151l-.093-.4Zm.604-.147c-.193.049-.395.098-.604.147l.093.4c.212-.05.416-.1.612-.15l-.1-.397Zm.556-.146c-.176.047-.361.097-.556.146l.101.397c.197-.05.385-.1.563-.148l-.108-.395Zm.251-.16c-.11.087-.183.14-.251.16l.108.395c.164-.045.304-.159.397-.232l-.254-.322Zm.331-.2c-.131.04-.25.138-.33.2l.253.323c.1-.08.154-.118.196-.13l-.119-.393Zm-.188-.237.043.453.409-.039-.044-.453-.408.039Zm.755-.74c-.01.044-.056.124-.172.228-.112.1-.271.206-.473.31l.188.364c.222-.114.413-.24.558-.369.14-.125.258-.272.298-.435l-.398-.098Zm-1.786-.824c.67.131 1.157.29 1.46.457a.878.878 0 0 1 .29.228c.042.059.046.101.037.139l.398.098a.567.567 0 0 0-.103-.477 1.272 1.272 0 0 0-.424-.347c-.358-.198-.895-.366-1.579-.5l-.079.402Zm-.2.045a1.26 1.26 0 0 1 .253-.042l-.027-.409c-.12.008-.233.027-.336.056l.11.395Zm-.4-.063.301.066.087-.401-.302-.065-.086.4Zm-.001 0 .087-.4h-.001l-.086.4Zm.003.001.08-.402-.08.402Zm-.003 0 .086-.402-.086.401Zm-.003-.001.092-.4-.092.4Zm-1.535-.355c.509.134 1.04.248 1.537.355l.087-.4c-.5-.108-1.021-.22-1.52-.351l-.104.396Zm-2.792-2.58c.687 1.062 1.465 2.233 2.792 2.58l.104-.396c-1.149-.3-1.848-1.319-2.552-2.406l-.344.223Zm-.239-.33c.079.096.158.206.239.33l.344-.222a4.256 4.256 0 0 0-.264-.367l-.319.258Zm-1.98-1.786c.787-.027 1.58.23 2.019.569.222.172.32.337.328.468.008.114-.049.272-.32.447l.224.344c.34-.22.527-.5.505-.819-.02-.302-.226-.563-.486-.764-.527-.408-1.418-.685-2.285-.655l.015.41Zm-.199-.283a.205.205 0 0 1-.005.018l.392.12a.644.644 0 0 0 .013-.045l-.4-.093Zm-.862-2.862.865 2.966.394-.115-.866-2.966-.393.115Zm-.002-.01a.159.159 0 0 1-.006-.037l.41-.022a.25.25 0 0 0-.01-.056l-.394.114Zm.03.082a.324.324 0 0 1 .034.005l.007.002a.103.103 0 0 1-.028-.02.155.155 0 0 1-.043-.07l.394-.114a.274.274 0 0 0-.16-.172.559.559 0 0 0-.16-.039l-.044.408Zm-.352-.753.177.606.393-.114-.176-.607-.394.115Zm.223.148.032-.008-.115-.394-.031.009.114.393Z" mask="url(#a)"/><path fill="#fff" fill-rule="evenodd" d="M87.23 65.145c.487 6.473 1.231 11.405 2.296 13.355 3.945 7.231 2.912 16.158-3.495 18.487-5.126 1.863-12.232 10.966-15.144 15.284-2.281 4.416-8.475 14.382-14.998 18.924-8.155 5.677-16.164.436-18.348-3.785-2.184-4.222-1.165-10.481 1.893-15.139 1.842-2.806 6.222-7.462 10.814-12.344 3.03-3.22 6.152-6.54 8.698-9.49 6.022-6.978 6.256-10.998 6.746-19.433.03-.54.063-1.097.098-1.675.14-2.292-.128-6.457-.601-11.483 7.866-11.68 12.548-7.27 12.548-7.27 3.248 2.672 6.771 7.094 8.447 11.482.261.705.618 1.755 1.046 3.087Z" clip-rule="evenodd"/><path fill="#383838" d="m87.23 65.145.102-.007v-.012l-.004-.012-.098.031ZM89.526 78.5l-.09.049.09-.05ZM86.03 96.987l.035.096-.035-.096ZM70.887 112.27l-.086-.058-.005.011.09.047Zm-14.998 18.924.058.084-.059-.084ZM37.54 127.41l-.091.047.091-.047Zm1.893-15.139.086.056-.086-.056Zm10.814-12.344.075.07-.075-.07Zm8.698-9.49-.077-.068.077.067Zm6.746-19.433.102.006-.102-.006Zm.098-1.675.103.006-.103-.006Zm-.601-11.483-.085-.057-.02.03.003.037.102-.01Zm12.548-7.27-.07.074.005.004.065-.079Zm8.447 11.482.097-.036-.097.036Zm.944 3.095c.243 3.238.552 6.092.932 8.382.38 2.286.834 4.022 1.376 5.014l.18-.098c-.523-.959-.974-2.664-1.353-4.95-.38-2.281-.687-5.129-.93-8.363l-.205.015Zm2.308 13.396c1.963 3.598 2.685 7.614 2.123 11.016-.561 3.4-2.403 6.177-5.563 7.325l.07.193c3.247-1.18 5.125-4.031 5.696-7.485.57-3.452-.164-7.514-2.146-11.147l-.18.098Zm-3.44 18.341c-1.298.472-2.713 1.398-4.15 2.585-1.437 1.186-2.9 2.638-4.293 4.164a79.939 79.939 0 0 0-6.751 8.575l.17.114a79.721 79.721 0 0 1 6.733-8.551c1.388-1.522 2.844-2.966 4.272-4.144 1.429-1.18 2.823-2.09 4.089-2.55l-.07-.193Zm-15.2 15.334c-1.139 2.203-3.255 5.794-5.9 9.401-2.647 3.608-5.818 7.224-9.066 9.485l.117.169c3.276-2.281 6.463-5.918 9.114-9.533 2.652-3.616 4.774-7.216 5.917-9.428l-.182-.094ZM55.83 131.11c-4.049 2.819-8.055 2.925-11.32 1.807-3.272-1.12-5.799-3.469-6.878-5.554l-.182.094c1.105 2.136 3.675 4.518 6.993 5.654 3.323 1.138 7.398 1.026 11.504-1.832l-.117-.169Zm-18.198-3.747c-2.161-4.178-1.158-10.397 1.888-15.036l-.172-.112c-3.07 4.677-4.105 10.977-1.898 15.242l.182-.094Zm1.888-15.036c1.836-2.797 6.207-7.444 10.803-12.33l-.15-.14c-4.588 4.877-8.976 9.542-10.825 12.358l.172.112Zm10.803-12.33c3.029-3.22 6.152-6.54 8.701-9.494l-.155-.134c-2.545 2.95-5.666 6.266-8.696 9.488l.15.14Zm8.701-9.494c3.017-3.496 4.59-6.258 5.468-9.207.876-2.945 1.057-6.072 1.302-10.286l-.205-.012c-.245 4.22-.426 7.322-1.294 10.24-.867 2.913-2.422 5.65-5.426 9.131l.155.134Zm6.77-19.493.099-1.675-.205-.012-.099 1.675.205.012Zm.099-1.675c.14-2.301-.129-6.474-.602-11.498l-.204.019c.473 5.027.74 9.184.601 11.467l.205.012Zm11.844-18.76.07-.075h-.001l-.004-.004-.011-.01a2.498 2.498 0 0 0-.213-.162 3.599 3.599 0 0 0-.657-.35c-.577-.237-1.428-.427-2.525-.245-2.195.365-5.353 2.21-9.292 8.06l.17.115c3.927-5.831 7.042-7.621 9.155-7.972 1.056-.176 1.868.007 2.414.232.274.112.481.235.62.33a2.318 2.318 0 0 1 .193.146l.008.008.002.002.07-.075Zm8.543 11.446c-1.683-4.407-5.219-8.843-8.478-11.525l-.13.158c3.236 2.664 6.748 7.072 8.417 11.44l.191-.073Zm1.048 3.093a81.874 81.874 0 0 0-1.047-3.092l-.193.072c.26.703.616 1.751 1.045 3.083l.195-.063Z"/><path stroke="#383838" stroke-width=".328" d="M60.848 16.344c.816-.7 18.927-2.184 26.353-2.475-1.214 19.651-1.165 58.226 2.33 64.631 3.945 7.231 2.912 16.158-3.495 18.487-5.126 1.863-12.232 10.966-15.144 15.284-2.281 4.416-8.475 14.382-14.998 18.924-8.155 5.677-16.164.436-18.348-3.785-2.184-4.221-1.165-10.481 1.893-15.139 3.058-4.658 13.105-14.41 19.513-21.835 6.407-7.423 6.261-11.5 6.843-21.107.583-9.607-5.966-52.112-4.947-52.985Z"/><path fill="#fff" d="M66.09 36.563c-2.365-4.434.19-6.49 1.763-6.964 1.28.687 5.715 1.881 3.598 2.083-2.117.202-1.248 3.032-.549 4.421 11.736 13.053 6.422 21.472 3.501 23.936-3.747-1.099-9.72-3.493-5.33-5.91 5.627-3.094-.025-12.024-2.982-17.566Z"/><path fill="#005BBB" d="M70.746 46.128c2.37.412 4.794-1.007 5.659-2.043l.442.926a5.45 5.45 0 0 1-5.817 2.15l-.284-1.033Z"/><path fill="#FFD500" d="M71.018 47.134c2.873.634 4.955-1.117 5.83-2.14l.349.946c-1.92 2.555-4.755 2.582-5.907 2.228l-.272-1.034Z"/><path fill="#fff" d="M74.424 36.087c-4.284 2.924-6.522 1.67-7.105.678-3.49-1.647-3.363-8.418 2.289-8.958 5.652-.54 10.17 4.624 4.816 8.28Z"/><ellipse cx="2.167" cy="2.365" fill="url(#b)" rx="2.167" ry="2.365" transform="matrix(-.6968 .71722 .7175 .6966 68.257 31.933)"/><ellipse cx=".429" cy=".674" fill="#383838" rx=".429" ry=".674" transform="matrix(.98586 -.16757 .16768 .98585 69.937 31.293)"/><ellipse cx=".193" cy=".303" fill="#fff" opacity=".2" rx=".193" ry=".303" transform="matrix(-.73063 .68273 .68302 .73044 70.36 31.313)"/><path fill="#EEC700" d="M72.432 47.244c-2.27-.136-6.736 1.11-4.372 7.158 2.347 6.003 2.414 9.92.786 9.312.448.202.099 1.13.297 1.473 1.874.234 2.42-3.387-.785-10.888-.743-2.005.322-5.813 4.391-6.004l-.317-1.051Z"/><path fill="#004D9D" d="M72.159 46.201c-2.411-.249-5.197.262-3.907 7.494 1.279 7.165-.58 8.243-2.217 7.418.49.293.96 1.857 1.1 2.267 1.965.349 3.16-2.608 1.459-9.795-.385-2.397-.563-6.267 3.846-6.334l-.281-1.05Z"/><path fill="#FF6B0A" d="M72.007 35.755c-.504-.738 1.291-.672 2.209-.593 1.803.077 3.116 2.712 3.655 3.376.54.665.595 1.656.438 1.859-.283.363-1.109.313-2.675-1.66-1.567-1.973-2.996-2.06-3.627-2.982Z"/><path fill="#E25A00" d="M72.675 35.78c-.356-.584.624-.716 1.31-.68 1.35.007 2.33 1.912 2.714 2.434.384.522.698 1.382.573 1.551-.223.304-1.087.065-2.2-1.486-1.115-1.55-1.953-1.092-2.397-1.82Z"/><path fill="#956C7C" d="M76.592 38.21c.049-.605-1.656-2.532-2.515-3.42l-.28.943c.912 1.077 2.746 3.08 2.795 2.476Z"/><path fill="#86616F" d="M75.983 37.52c-.083-.241-1.769-2.153-2.601-3.079l-.027.25c.91 1.043 2.71 3.069 2.628 2.828Z"/><path fill="#fff" d="m76.86 37.127.472-.373a17.534 17.534 0 0 1 .796 1.185c.08.13.156.26.226.388.069.124.132.245.186.358.074.158.132.303.166.426.043.156.047.276-.002.345-.136.188-.368.367-.59.507-.095.06-.188.114-.27.157a.566.566 0 0 1-.181.09c-.087.026-.207-.005-.352-.081a2.822 2.822 0 0 1-.42-.286 7.755 7.755 0 0 1-.483-.422 14.07 14.07 0 0 1-.358-.35 19.967 19.967 0 0 1-.75-.802 31.446 31.446 0 0 1-1.2-1.419l.717.145c.064.089.145.192.24.304.09.108.193.225.305.348a17.664 17.664 0 0 0 .726.749 22.191 22.191 0 0 0 .89.823c.154.133.301.255.436.36.093.071.18.135.259.19.123.083.229.144.31.175a.763.763 0 0 0 .05-.375 1.98 1.98 0 0 0-.094-.441 3.966 3.966 0 0 0-.142-.372 6.412 6.412 0 0 0-.195-.407 12.682 12.682 0 0 0-.47-.806 16.869 16.869 0 0 0-.272-.416Z"/><path stroke="#383838" stroke-width=".038" d="M77.662 40.21c.109-.05.277-.136.452-.247m-.452.247c-.086.026-.206-.005-.35-.081m.35.08c.278-.083.398-.302.371-.64m.08.394c.222-.14.455-.319.59-.508.05-.068.046-.188.003-.343m-.592.851c-.076.022-.233-.053-.441-.195M75.056 37.3a5.072 5.072 0 0 1-.239-.304l-.718-.145c.14.177.305.378.485.593m.472-.144-.472.144m.472-.144c.09.108.194.225.306.348m-.778-.204.31.366m0 0 .468-.162m-.467.162c.13.151.266.306.404.46m.063-.622c.119.13.248.266.383.405m-.446.217.446-.217m-.446.217c.124.138.25.276.377.412m.07-.63c.11.115.225.23.342.345m-.412.285.412-.285m-.412.285c.125.133.25.264.374.39m.038-.675c.134.13.27.26.405.387m-.443.288.443-.288m-.443.288c.122.122.242.24.358.35m.085-.638c.326.303.648.584.921.796m-1.006-.158.57-.202m-.57.202c.17.159.332.302.483.422m0 0 .523-.264m-.523.264c.154.123.296.22.42.286m.103-.55c.093.071.18.135.259.19m-.362.36.362-.36m.36-.2.673-.458m-.673.458a1.98 1.98 0 0 0-.094-.441m.767-.017a2.723 2.723 0 0 0-.166-.425m-.601.442.6-.443m-.6.443a3.966 3.966 0 0 0-.142-.372m.743-.07a6.455 6.455 0 0 0-.186-.36m-.557.43.557-.43m-.557.43a6.412 6.412 0 0 0-.195-.407m.752-.022c-.07-.127-.147-.258-.226-.388m-.526.41.526-.41m-.526.41a9.302 9.302 0 0 0-.188-.342m.714-.068c-.06-.098-.122-.197-.184-.294m-.53.362.53-.361m-.53.361c-.085-.148-.18-.303-.281-.464m.811.102a17.789 17.789 0 0 0-.254-.384m-.557.282a16.869 16.869 0 0 0-.273-.416l.472-.373c.106.144.229.317.358.507m-.557.282.557-.282"/><path fill="#fff" d="m82.703 34.572.066.689c-.183.055-.369.3-.588.36a31.23 31.23 0 0 1-1.84.447 33.27 33.27 0 0 1-1.32.252 27.174 27.174 0 0 1-1.26.181 20.166 20.166 0 0 1-1.201.103c-.235.012-.465.018-.69.017-.225 0-.443-.008-.653-.024a6.768 6.768 0 0 1-.604-.069 4.628 4.628 0 0 1-.494-.107 3.272 3.272 0 0 1-.338-.113l-.589-.5a23.653 23.653 0 0 0 1.956.073 28.265 28.265 0 0 0 3.143-.187 22.574 22.574 0 0 0 1.291-.194 17.654 17.654 0 0 0 1.363-.305 13.323 13.323 0 0 0 1.16-.373c.205-.078.405-.161.598-.25Z"/><path stroke="#383838" stroke-width=".038" d="M82.105 34.822c.205-.078.405-.161.598-.25l.066.689c-.183.055-.369.3-.588.36m-.076-.8.076.8m-.076-.8c-.181.07-.367.134-.555.195m.631.605a31.23 31.23 0 0 1-.559.148m0 0-.072-.753m.072.753c-.195.05-.398.099-.608.148m.536-.901c-.198.064-.4.123-.605.179m.069.722-.07-.722m.07.722a34.71 34.71 0 0 1-.673.15m.604-.872c-.221.06-.445.115-.672.165m.068.708-.068-.708m.068.708a33.27 33.27 0 0 1-.691.14m.623-.848c-.228.051-.46.098-.69.14m.067.707-.068-.707m.068.707c-.207.04-.417.077-.628.113m.56-.82c-.209.038-.419.073-.628.104m.068.716-.069-.716m.069.716c-.22.037-.44.072-.662.103m.594-.819c-.222.034-.443.063-.663.09m.07.73-.07-.73m.07.73c-.2.028-.4.054-.6.077m.53-.807a24.7 24.7 0 0 1-.681.072m.152.735-.152-.735m.152.735c-.207.025-.413.046-.616.063m.464-.798c-.242.022-.48.04-.715.056m.25.742-.25-.742m.25.742c-.197.017-.392.03-.585.04m.335-.782c-.227.014-.45.026-.668.035m.333.747-.333-.747m.333.747c-.235.012-.465.018-.69.017m.357-.764c-.19.007-.377.013-.559.017m.203.747-.203-.747m.203.747c-.225 0-.444-.008-.654-.024m.451-.723-.52.006m.069.717-.069-.717m.069.717a6.768 6.768 0 0 1-.604-.069m.535-.648c-.207 0-.407-.001-.598-.005m.063.653-.063-.653m.063.653a4.628 4.628 0 0 1-.494-.107m.431-.546c-.193-.004-.377-.01-.551-.017m.12.563a3.272 3.272 0 0 1-.338-.113l-.589-.5c.232.02.504.037.807.05m.12.563-.12-.563"/><path fill="#FF6B0A" d="M76.731 30.2c-.872-1.348-1.733-1.19-2.133-.837-1.972.334-1.494 1.815-1.282 3.07.213 1.254-3.66 3.178.167 3.547 2.6.25 9.228-.69 9.838-1.854.359-.684-1.952-.92-3.918-1.434-1.238-.324-1.976-1.419-2.672-2.493Z"/><path fill="#EFE5D5" d="M81.11 35.306c1.277-.193 2.263-.76 2.364-1.17.104-.421-.592-.809-1.946-1.074-1.12.075-1.158 1.152-.997 1.878.055.249.315.406.579.366Z"/><path fill="#DACAB0" d="M82.228 33.604c-.22-.047-.617-.165-.455-.265.162-.1.37.135.455.265ZM81.883 33.779c-.221-.04-.644-.085-.564.063.08.148.41.02.564-.063Z"/><path fill="#312F00" d="m73.353 24.287-.198-.681-8.147 2.364 1.074 3.695.286-.083 6.836-1.533 1.024-.749-.746-2.568.04-.006-.049-.451-.12.012Z"/><ellipse cx="4.363" cy=".433" fill="#312F00" rx="4.363" ry=".433" transform="matrix(-.96034 .2788 .27897 .96031 73.355 23.86)"/><path fill="#312F00" d="M74.325 27.285c2.843-.107 5.875 3.293-6.1 2.489l6.1-2.49Z"/><path fill="#494600" d="M74.343 27.253c-.315 1.35-7.326 3.314-8.383 2.433l-.854-2.972c1.274.05 3.404-1.298 5.37-1.151l2.682 1.962.316-3.25.87 2.978Z"/><ellipse cx="4.24" cy=".433" fill="#312F00" rx="4.24" ry=".433" transform="matrix(-.96034 .2788 .27897 .96031 73.049 23.241)"/><ellipse cx="4.3" cy=".433" fill="#312F00" rx="4.3" ry=".433" transform="matrix(-.96034 .2788 .27897 .96031 73.232 23.894)"/><path fill="#FC0" d="m72.386 24.355-.028.035c-.065.094-.085.181-.053.282.014.042.034.084.05.125.016.036.03.072.045.109.004.01.007.013.021.009.03-.009.06-.008.083.009.022.014.028.034.022.055-.005.021-.024.036-.048.046a.038.038 0 0 1-.035-.002.683.683 0 0 1-.222-.183c-.048-.06-.079-.128-.113-.193l-.059-.112a.204.204 0 0 0-.123-.11.107.107 0 0 0-.006.076.406.406 0 0 0 .03.067c.013.023.03.045.044.067.037.059.075.117.11.176.056.1.078.205.063.315-.002.014-.012.022-.028.027-.041.012-.085 0-.101-.03-.016-.026 0-.062.038-.078.014-.006.013-.01.006-.018l-.103-.133c-.039-.05-.074-.102-.131-.14a.512.512 0 0 0-.282-.087l.008.014.427.732c.008.014.008.014.025.008l.196-.075c.012-.005.018-.004.026.004.058.06.136.1.232.115.02.003.04.01.06.015.018-.048.056-.09.065-.141a.267.267 0 0 0-.005-.124c-.002-.01.001-.014.011-.018l.2-.076c.011-.004.015-.008.01-.018l-.43-.737c0-.002 0-.004-.005-.011Zm-.006.141h.007l.007.013.204.349c.011.02.011.02-.015.03-.01.003-.016.003-.023-.003a.142.142 0 0 0-.088-.032c-.014 0-.02-.006-.023-.015-.018-.047-.036-.095-.057-.141a.246.246 0 0 1-.021-.14c.001-.02.006-.04.009-.06Zm-.678.26.003-.002a.35.35 0 0 1 .023.01c.055.026.099.046.134.089.043.053.085.108.127.162.006.007.007.013 0 .021a.094.094 0 0 0-.027.075c.001.013-.006.02-.03.024-.014.003-.014-.006-.017-.012l-.207-.356a.032.032 0 0 1-.006-.01Zm.818.317.013-.008c.047-.029.076-.064.068-.112 0-.006.001-.01.009-.012l.017-.007c.008-.003.013-.002.017.005l.083.145c.002.002-.001.01-.005.012-.044.017-.09.035-.134.05a.022.022 0 0 1-.015-.002l-.053-.07Zm-.353.135c.012.026.022.052.033.079.003.007-.004.01-.01.012-.042.016-.084.03-.125.047-.014.006-.02.003-.025-.007l-.075-.129c-.012-.02-.012-.02.014-.03.007-.002.014-.005.02.001.037.032.085.04.137.033l.03-.006Zm.07-.247c.052.04.103.08.164.11-.018.024-.034.046-.052.067-.002.003-.011.005-.016.005l-.082-.008c-.008 0-.011-.003-.01-.01a.51.51 0 0 0-.004-.152v-.012Zm.288.27c.022.033.016.116-.007.135h-.002l-.058-.1c-.001-.002.002-.008.005-.01.02-.01.04-.016.062-.024Zm-.075.163c-.045-.003-.126-.055-.135-.083l.056-.021c.01-.005.016-.003.02.005l.047.08.012.019Zm.016-.202c-.01.004-.022.01-.033.012-.003.001-.013-.001-.013-.003a.067.067 0 0 1 .028-.083c.007-.004.012-.005.017 0 .013.017.025.033.04.05.004.006 0 .01-.007.013a.558.558 0 0 0-.032.011Zm-.151.058-.03.01c-.009.005-.016.004-.02-.005a1.059 1.059 0 0 1-.02-.05c-.002-.01.002-.013.013-.014.035-.005.079.01.094.035.002.003-.002.01-.005.011l-.032.013Z"/><path fill="#fff" d="M79.23 25.238c1.132.452 1.016 1.791.816 2.404.814-.078 1.454-1.64 1.671-2.412.845 0 2.412-.195 3.21-1.062.996-1.083 1.328-2.97-.136-4.887-1.463-1.918-4.932-.52-6.634-.311-1.702.208-3.656 1.241-2.98 4.03.674 2.79 2.638 1.672 4.053 2.238Z"/><path fill="#383838" d="m80.046 27.642.013.137-.21.02.066-.2.13.043Zm-.816-2.404-.051.128.051-.128ZM75.176 23l.135-.033-.135.033Zm2.981-4.031-.017-.137.017.137Zm6.634.31-.11.084.11-.084Zm.136 4.888-.102-.093.102.093Zm-3.21 1.062-.132-.037.028-.1h.105v.137Zm-1.802 2.37c.094-.291.169-.755.087-1.195-.081-.434-.311-.835-.823-1.04l.102-.255c.62.248.898.742.992 1.245a2.844 2.844 0 0 1-.096 1.33l-.262-.086Zm-.736-2.234c-.33-.132-.699-.168-1.09-.186-.386-.018-.8-.02-1.189-.091-.394-.074-.775-.222-1.101-.543-.325-.32-.584-.8-.757-1.513l.269-.065c.164.681.404 1.108.681 1.381.276.272.6.402.959.468.364.068.747.068 1.15.087.395.018.803.055 1.18.206l-.102.256Zm-4.137-2.333c-.346-1.433-.02-2.44.635-3.112.647-.664 1.596-.982 2.463-1.088l.034.274c-.835.102-1.713.405-2.3 1.007-.578.593-.892 1.497-.563 2.854l-.269.065Zm3.098-4.2c.417-.051.944-.175 1.536-.307.588-.13 1.233-.266 1.873-.335 1.27-.137 2.573-.015 3.352 1.006l-.22.167c-.683-.896-1.847-1.034-3.102-.899-.624.067-1.256.2-1.843.33-.583.13-1.128.258-1.562.312l-.034-.274Zm6.76.364c1.502 1.967 1.172 3.929.128 5.064l-.203-.186c.948-1.032 1.282-2.843-.143-4.71l.219-.168Zm.128 5.064c-.424.461-1.044.736-1.653.896-.611.161-1.226.21-1.657.211v-.276a6.5 6.5 0 0 0 1.587-.201c.585-.154 1.147-.41 1.52-.816l.203.186Zm-3.178 1.006c-.11.394-.329.99-.625 1.498a3.067 3.067 0 0 1-.51.676c-.19.18-.41.315-.656.338l-.026-.274c.161-.016.326-.106.492-.264a2.8 2.8 0 0 0 .461-.614 6.666 6.666 0 0 0 .599-1.434l.265.074Z"/><path fill="#383838" d="m79.509 20.887-.662-.835.327-.242.821 1.031-.486.046Zm-1.203.115-.177-1.85.426-.04.177 1.85-.426.04Zm.23-.774-.034-.357.645-.061.034.357-.645.061Zm.699-.2-.399-.01.512-.982.452-.044-.565 1.036Zm1.145 1.315a.725.725 0 0 1-.223-.013.486.486 0 0 1-.186-.078l.123-.308a.359.359 0 0 0 .24.067.208.208 0 0 0 .134-.055.337.337 0 0 0 .082-.144l.058-.181.027-.048.393-1.276.397-.038-.498 1.571a.882.882 0 0 1-.133.285.488.488 0 0 1-.183.156.667.667 0 0 1-.231.062Zm.197-.502-.775-1.417.425-.04.606 1.142-.256.316Zm1.823-.208a.885.885 0 0 1-.419-.054.727.727 0 0 1-.308-.234.72.72 0 0 1-.136-.369.712.712 0 0 1 .064-.387.707.707 0 0 1 .258-.286.865.865 0 0 1 .4-.135.778.778 0 0 1 .401.058.568.568 0 0 1 .271.244l-.303.202a.354.354 0 0 0-.339-.165.383.383 0 0 0-.185.066.356.356 0 0 0-.122.147.438.438 0 0 0-.028.216c.008.083.03.152.068.207a.355.355 0 0 0 .148.122c.06.027.124.037.195.03a.368.368 0 0 0 .175-.062.366.366 0 0 0 .126-.164l.336.143a.585.585 0 0 1-.22.291.796.796 0 0 1-.382.13Zm-1.456 2.155c.187-.016.333.012.438.086a.425.425 0 0 1 .181.332.445.445 0 0 1-.131.384c-.103.096-.253.154-.45.173l-.714.066-.136-1.422.41-.04.043.455.36-.034Zm-.028.685c.08-.005.14-.028.178-.067.039-.04.055-.095.048-.165-.006-.07-.032-.119-.077-.145a.314.314 0 0 0-.188-.032l-.267.022.04.413.266-.026Z"/><path fill="#fff" stroke="#383838" stroke-width=".385" d="M76.815 8.788c.928-.796 21.534-2.485 29.984-2.816-1.381 22.36-1.325 66.25 2.651 73.538 4.49 8.228 3.314 18.384-3.976 21.034-5.832 2.12-13.918 12.478-17.231 17.391-2.596 5.024-9.643 16.364-17.066 21.532-9.278 6.459-18.39.497-20.876-4.307-2.485-4.803-1.325-11.925 2.154-17.225 3.48-5.3 14.912-16.397 22.202-24.844 7.29-8.447 7.124-13.084 7.787-24.015.662-10.932-6.789-59.295-5.63-60.288Z"/><mask id="c" width="26.891" height="43.996" x="79.572" y="15.674" fill="#000" maskUnits="userSpaceOnUse"><path fill="#fff" d="M79.572 15.674h26.891V59.67H79.572z"/><path fill-rule="evenodd" d="M90.778 17.864c-.352-.151-2.355.234-4.718.92s-4.26 1.433-4.477 1.75l-.038.01.2.688c-.077.062-.112.113-.1.152a.063.063 0 0 0 .017.026l.798 2.778c-1.015 1.487-1.19 3.417-.65 5.035.155.765.463 1.62.97 2.57.304.569.633 1.17.976 1.798 1.519 2.779 3.306 6.05 4.326 9.086h-.002l.316 1.146-.007-.001.31 1.175.006.002c.554 2.908.034 5.375-2.647 6.64-5.287 2.492 1.917 5.615 6.18 6.865 2.392-2.017 6.193-7.542 3.162-16.016l.02-.026-.397-1.076-.007.008-.497-1.042-.002.003c-1.098-2.34-2.71-4.88-4.981-7.606a12.46 12.46 0 0 0 1.48-.72c.75.447 1.661 1.034 2.617 2.238 1.783 2.244 2.723 2.302 3.044 1.888.077-.099.11-.365.072-.696.149-.116.285-.243.38-.374.055-.078.05-.215.002-.392a3.084 3.084 0 0 0-.19-.484 7.469 7.469 0 0 0-.21-.409 12.341 12.341 0 0 0-.467-.774 20.493 20.493 0 0 0-.696-1.014l-.508.4c-.138-.189-.286-.38-.442-.568l.075-.003a18.86 18.86 0 0 0 1.368-.117 26.945 26.945 0 0 0 1.433-.206 34.803 34.803 0 0 0 1.5-.287 38.907 38.907 0 0 0 2.095-.508c.132-.036.253-.131.369-.223.103-.08.202-.158.3-.188l-.049-.515c.482-.249.795-.529.853-.764.118-.48-.674-.92-2.214-1.222a1.658 1.658 0 0 0-.337.055l-.345-.074a41.562 41.562 0 0 1-1.74-.402c-1.409-.368-2.249-1.614-3.04-2.836a4.599 4.599 0 0 0-.287-.398c1.385-.901-.562-2.182-2.443-2.116a.51.51 0 0 0 .01-.037l-.984-3.375a.05.05 0 0 0-.002-.012c-.012-.038-.068-.062-.166-.073l-.2-.69-.036.01Z" clip-rule="evenodd"/></mask><path fill="#383838" fill-rule="evenodd" d="M90.778 17.864c-.352-.151-2.355.234-4.718.92s-4.26 1.433-4.477 1.75l-.038.01.2.688c-.077.062-.112.113-.1.152a.063.063 0 0 0 .017.026l.798 2.778c-1.015 1.487-1.19 3.417-.65 5.035.155.765.463 1.62.97 2.57.304.569.633 1.17.976 1.798 1.519 2.779 3.306 6.05 4.326 9.086h-.002l.316 1.146-.007-.001.31 1.175.006.002c.554 2.908.034 5.375-2.647 6.64-5.287 2.492 1.917 5.615 6.18 6.865 2.392-2.017 6.193-7.542 3.162-16.016l.02-.026-.397-1.076-.007.008-.497-1.042-.002.003c-1.098-2.34-2.71-4.88-4.981-7.606a12.46 12.46 0 0 0 1.48-.72c.75.447 1.661 1.034 2.617 2.238 1.783 2.244 2.723 2.302 3.044 1.888.077-.099.11-.365.072-.696.149-.116.285-.243.38-.374.055-.078.05-.215.002-.392a3.084 3.084 0 0 0-.19-.484 7.469 7.469 0 0 0-.21-.409 12.341 12.341 0 0 0-.467-.774 20.493 20.493 0 0 0-.696-1.014l-.508.4c-.138-.189-.286-.38-.442-.568l.075-.003a18.86 18.86 0 0 0 1.368-.117 26.945 26.945 0 0 0 1.433-.206 34.803 34.803 0 0 0 1.5-.287 38.907 38.907 0 0 0 2.095-.508c.132-.036.253-.131.369-.223.103-.08.202-.158.3-.188l-.049-.515c.482-.249.795-.529.853-.764.118-.48-.674-.92-2.214-1.222a1.658 1.658 0 0 0-.337.055l-.345-.074a41.562 41.562 0 0 1-1.74-.402c-1.409-.368-2.249-1.614-3.04-2.836a4.599 4.599 0 0 0-.287-.398c1.385-.901-.562-2.182-2.443-2.116a.51.51 0 0 0 .01-.037l-.984-3.375a.05.05 0 0 0-.002-.012c-.012-.038-.068-.062-.166-.073l-.2-.69-.036.01Z" clip-rule="evenodd"/><path fill="#383838" d="m86.06 18.784-.065-.224.065.224Zm4.718-.92-.092.214.077.033.08-.023-.065-.224Zm-9.195 2.67.065.223.08-.023.047-.069-.192-.132Zm-.038.01-.065-.224-.224.065.065.224.224-.065Zm.2.688.146.182.121-.097-.043-.15-.224.065Zm-.1.152-.225.065.224-.066Zm.007.015.193-.13-.001-.003-.192.133Zm.01.01.223-.063-.017-.062-.047-.044-.16.17Zm.798 2.779.193.131.061-.09-.03-.106-.224.065Zm-.65 5.035.229-.046-.003-.014-.005-.014-.22.074Zm.97 2.57-.205.11.206-.11Zm.976 1.798-.205.112.003.005.202-.117Zm0 0 .208-.106-.006-.01-.202.116Zm0 0-.208.106.003.006.205-.112Zm4.326 9.086-.04.23.385.066-.124-.37-.221.074Zm-.002 0 .04-.23-.362-.063.097.355.225-.062Zm.316 1.146-.05.228.377.083-.102-.373-.225.062Zm-.007-.001.05-.228-.373-.082.097.37.226-.06Zm.31 1.175-.226.06.033.125.124.039.069-.223Zm.006.002.23-.043-.027-.138-.135-.041-.068.222Zm-2.647 6.64.1.21-.1-.21Zm6.18 6.865-.065.224.12.035.096-.08-.15-.179ZM95.4 42.488l-.186-.14-.076.1.042.118.22-.078Zm.02-.026.185.14.077-.1-.044-.12-.219.08Zm-.397-1.076.219-.08-.138-.373-.258.302.177.151Zm-.007.008-.21.1.154.324.233-.272-.177-.152Zm-.497-1.042.21-.1-.156-.328-.233.279.18.15Zm-.002.003-.211.099.155.331.235-.28-.18-.15Zm-4.981-7.606-.087-.217-.297.12.205.246.179-.15Zm1.48-.72.12-.2-.116-.07-.118.067.114.203Zm2.617 2.238-.182.145.182-.145Zm3.044 1.888.184.143-.184-.143Zm.072-.696-.143-.184-.103.08.014.13.232-.026Zm.38-.374.189.136-.19-.136Zm.002-.392.225-.061-.225.062Zm-.19-.484.21-.1-.21.1Zm-.21-.409-.205.114.204-.114Zm-.258-.44-.2.12.2-.12Zm-.21-.334.197-.127-.196.127Zm-.289-.439.193-.13-.193.13Zm-.406-.575.188-.138-.143-.195-.19.15.145.183Zm-.508.4-.189.138.143.196.19-.15-.144-.184Zm-.442-.568-.01-.233-.468.023.3.36.178-.15Zm.075-.003.011.233-.01-.233Zm.667-.046-.02-.232.02.232Zm.7-.07-.026-.233.027.232Zm.682-.09-.033-.23.033.23Zm.752-.117-.038-.23.038.23Zm.715-.129-.044-.229.044.23Zm.786-.158.048.228-.048-.228Zm.766-.172-.053-.227.053.227Zm.692-.168.057.226-.057-.226Zm.636-.168-.062-.225.062.225Zm.369-.223.144.184-.144-.184Zm.3-.188.067.224.183-.055-.018-.19-.232.021Zm-.049-.515-.107-.208-.141.072.015.158.233-.022Zm.853-.764-.226-.056.226.056Zm-2.214-1.222.045-.23-.03-.005-.03.002.015.233Zm-.337.055-.05.228.057.012.056-.015-.063-.225Zm-.345-.074-.05.228.05-.228Zm-1.74-.402.059-.226-.06.226Zm-3.04-2.836.196-.127-.196.127Zm-.287-.398-.127-.196-.218.141.163.202.182-.147Zm-2.443-2.116-.223-.07-.096.314.327-.011-.008-.233Zm.01-.037.227.053.014-.06-.017-.058-.224.065Zm-.984-3.375-.234.01.002.029.008.027.224-.066Zm-.002-.012-.225.065.225-.065Zm-.166-.073-.224.065.044.15.155.017.025-.232Zm-.2-.69.224-.065-.065-.224-.224.065.065.224Zm-4.689 1.155a36.72 36.72 0 0 1 3.093-.769c.416-.08.765-.135 1.028-.16.132-.012.239-.016.319-.014.04.001.07.004.093.007l.028.006.184-.429a.826.826 0 0 0-.292-.05 3.2 3.2 0 0 0-.375.016c-.285.027-.65.084-1.074.166-.849.165-1.947.434-3.134.779l.13.448Zm-4.35 1.657.021-.02a.75.75 0 0 1 .075-.056c.066-.045.158-.098.276-.158.236-.12.56-.262.954-.416a36.71 36.71 0 0 1 3.024-1.007l-.13-.448a37.164 37.164 0 0 0-3.064 1.02c-.402.158-.741.305-.996.435a3.193 3.193 0 0 0-.325.187.825.825 0 0 0-.22.2l.385.263Zm-.165.103.038-.01-.13-.449-.038.011.13.448Zm.359.4-.2-.689-.448.13.2.688.448-.13Zm-.1.15c.01.037.007.07.001.093-.005.021-.013.033-.015.035a.358.358 0 0 1 .035-.032l-.29-.364a.63.63 0 0 0-.132.136.312.312 0 0 0-.048.263l.448-.13Zm-.025-.052a.18.18 0 0 1 .024.052l-.448.13c.01.032.023.06.04.084l.384-.266Zm-.023-.026a.165.165 0 0 1 .024.029l-.387.26c.014.02.028.037.043.05l.32-.339Zm.863 2.883-.799-2.777-.448.128.799 2.778.448-.129Zm-.653 5.026c-.518-1.556-.348-3.409.622-4.83l-.386-.263c-1.06 1.553-1.238 3.56-.678 5.24l.442-.147Zm.955 2.534c-.498-.934-.798-1.767-.947-2.506l-.457.092c.16.79.477 1.667.993 2.634l.411-.22Zm.975 1.796c-.343-.627-.672-1.228-.975-1.796l-.411.22c.304.57.633 1.173.976 1.8l.41-.224Zm-.003-.005-.404.234.404-.234Zm.006.011-.416.212.416-.212Zm4.339 9.118c-1.027-3.06-2.826-6.35-4.342-9.124l-.41.224c1.521 2.783 3.298 6.036 4.31 9.048l.442-.148Zm-.263.303h.002l.08-.459h-.002l-.08.46Zm.58.855-.315-1.146-.45.123.316 1.147.45-.124Zm-.281.288.007.002.1-.456-.007-.001-.1.456Zm.585.89-.31-1.177-.45.12.309 1.175.451-.119Zm-.15-.163-.007-.002-.137.447.007.002.136-.447Zm-2.617 7.073c1.395-.657 2.24-1.637 2.658-2.837.414-1.192.4-2.581.12-4.056l-.46.087c.274 1.432.277 2.73-.1 3.815-.375 1.076-1.13 1.963-2.417 2.57l.2.421Zm6.147 6.431c-2.126-.623-4.96-1.707-6.597-2.93-.408-.304-.732-.61-.953-.91-.22-.302-.328-.586-.327-.852.001-.517.423-1.122 1.73-1.739l-.199-.422c-1.336.63-1.996 1.35-1.998 2.16 0 .396.16.775.418 1.127.257.352.62.69 1.05 1.01 1.708 1.275 4.608 2.378 6.745 3.004l.131-.448Zm2.876-15.714c2.992 8.366-.76 13.793-3.092 15.76l.3.356c2.452-2.067 6.301-7.69 3.231-16.273l-.439.157Zm.053-.244-.02.025.373.281.02-.025-.373-.281Zm-.43-.855.397 1.076.438-.161-.396-1.076-.438.161Zm.39.08.007-.009-.354-.303-.007.008.354.303Zm-.885-1.094.497 1.042.422-.201-.497-1.042-.422.2Zm.388.052.002-.003-.358-.3-.002.003.358.3Zm-5.34-7.607c2.261 2.714 3.861 5.236 4.95 7.556l.422-.198c-1.108-2.361-2.73-4.916-5.013-7.657l-.358.3Zm1.546-1.072c-.517.292-1.001.525-1.453.706l.174.433c.473-.19.975-.431 1.508-.732l-.23-.407Zm2.914 2.296c-.981-1.236-1.92-1.84-2.68-2.293l-.239.4c.739.441 1.623 1.01 2.554 2.183l.365-.29Zm2.677 1.89a.28.28 0 0 1-.202.106c-.104.012-.262-.01-.486-.12-.45-.22-1.105-.763-1.989-1.876l-.365.29c.898 1.131 1.605 1.74 2.15 2.005.274.134.523.19.741.165.225-.025.4-.13.52-.284l-.369-.286Zm.024-.527c.017.153.018.284.007.384-.012.111-.034.147-.03.143l.367.286c.08-.103.113-.25.127-.379.015-.14.013-.308-.007-.486l-.464.052Zm.422-.536a1.692 1.692 0 0 1-.333.326l.286.368c.158-.122.313-.265.426-.422l-.38-.272Zm-.033-.194c.021.078.03.134.03.172 0 .04-.009.038.003.022l.379.272a.497.497 0 0 0 .084-.296c0-.094-.019-.194-.046-.293l-.45.123Zm-.176-.446c.083.173.143.325.176.446l.45-.123a3.323 3.323 0 0 0-.204-.523l-.422.2Zm-.204-.395a7.2 7.2 0 0 1 .204.395l.422-.2a7.637 7.637 0 0 0-.218-.421l-.408.225Zm-.252-.433c.089.146.174.291.252.432l.408-.225c-.081-.148-.17-.3-.262-.45l-.398.243Zm-.207-.33c.07.11.14.22.207.33l.398-.243c-.07-.114-.14-.227-.212-.338l-.392.252Zm-.286-.432c.094.138.19.284.286.433l.393-.252a20.231 20.231 0 0 0-.293-.444l-.386.263Zm-.401-.57c.118.162.256.357.401.57l.386-.263c-.148-.217-.29-.417-.411-.582l-.376.276Zm-.176.447.508-.401-.289-.366-.508.4.29.367Zm-.765-.602c.152.182.297.37.433.556l.376-.275a11.6 11.6 0 0 0-.45-.58l-.359.299Zm.243-.386-.075.003.023.466.074-.003-.022-.466Zm.658-.045a18.71 18.71 0 0 1-.658.045l.023.466c.222-.011.447-.027.675-.046l-.04-.465Zm.694-.07c-.233.027-.465.05-.694.07l.04.465c.234-.02.47-.044.708-.072l-.054-.464Zm.675-.089a26.2 26.2 0 0 1-.675.088l.054.464c.229-.027.458-.057.687-.09l-.066-.462Zm.747-.116c-.248.041-.498.08-.747.116l.066.462c.253-.036.507-.076.758-.118l-.077-.46Zm.71-.128c-.235.045-.472.087-.71.128l.077.46c.242-.041.483-.084.72-.13l-.088-.458Zm.78-.157c-.255.054-.516.107-.78.157l.087.459c.268-.052.532-.105.79-.16l-.097-.456Zm.762-.17c-.246.057-.5.114-.762.17l.097.456c.264-.056.522-.114.771-.172l-.106-.455Zm.688-.168c-.221.055-.45.112-.688.167l.106.454c.241-.056.474-.113.696-.17l-.114-.451Zm.631-.167c-.199.054-.41.11-.631.166l.114.453c.224-.057.439-.114.641-.169l-.124-.45Zm.287-.18c-.126.098-.209.159-.287.18l.124.45c.186-.051.345-.18.451-.264l-.288-.367Zm.377-.229c-.15.045-.286.157-.377.228l.288.367c.115-.09.176-.134.223-.148l-.134-.447Zm-.215-.27.05.516.464-.045-.049-.516-.465.045Zm.86-.842c-.013.05-.065.14-.197.26a2.608 2.608 0 0 1-.537.352l.213.415c.253-.13.47-.273.635-.42.159-.143.293-.31.339-.495l-.453-.112Zm-2.033-.937c.762.149 1.317.33 1.661.52.173.095.276.184.329.259.049.067.053.115.043.158l.453.112a.646.646 0 0 0-.117-.543 1.45 1.45 0 0 0-.482-.395c-.407-.225-1.018-.416-1.797-.57l-.09.459Zm-.229.05c.084-.023.18-.04.29-.047l-.031-.465c-.139.01-.267.03-.385.064l.126.449Zm-.457-.07.344.074.1-.456-.346-.075-.099.457Zm-1.75-.404c.579.151 1.183.282 1.75.404l.098-.456a41.05 41.05 0 0 1-1.73-.4l-.118.452ZM94.69 24.68c.782 1.207 1.667 2.54 3.177 2.935l.118-.452c-1.307-.341-2.103-1.5-2.903-2.737l-.392.254Zm-.272-.378c.09.11.18.236.272.378l.392-.254c-.1-.154-.201-.293-.302-.418l-.362.294Zm-2.254-2.03c.895-.031 1.796.26 2.296.647.252.195.363.383.373.532.01.13-.055.309-.361.508l.254.391c.386-.25.598-.57.573-.931-.024-.344-.258-.64-.554-.87-.598-.462-1.611-.778-2.597-.743l.016.466Zm-.225-.323a.297.297 0 0 1-.006.02l.446.139a.768.768 0 0 0 .014-.053l-.454-.106Zm-.981-3.256.984 3.374.448-.13-.984-3.375-.448.13Zm-.002-.013a.183.183 0 0 1-.008-.043l.467-.02a.287.287 0 0 0-.011-.067l-.448.13Zm.033.094a.34.34 0 0 1 .04.006c.008.002.01.004.007.002a.116.116 0 0 1-.032-.022.176.176 0 0 1-.049-.08l.449-.13a.312.312 0 0 0-.181-.195.634.634 0 0 0-.183-.045l-.05.464Zm-.4-.856.201.69.448-.13-.2-.69-.448.13Zm.254.169.036-.01-.13-.449-.036.01.13.449Z" mask="url(#c)"/><path fill="#fff" fill-rule="evenodd" d="M106.829 64.215c.554 7.413 1.403 13.066 2.619 15.295 4.49 8.227 3.314 18.384-3.976 21.034-5.832 2.12-13.917 12.477-17.231 17.391-2.596 5.024-9.643 16.364-17.066 21.531-9.278 6.46-18.39.497-20.875-4.306-2.486-4.803-1.326-11.925 2.153-17.225 2.097-3.193 7.08-8.491 12.305-14.045 3.447-3.665 7-7.441 9.897-10.799 6.852-7.939 7.117-12.513 7.675-22.11.035-.614.072-1.248.112-1.906.157-2.583-.14-7.257-.669-12.902 8.975-13.368 14.32-8.335 14.32-8.335 3.695 3.04 7.704 8.072 9.611 13.065.283.767.666 1.891 1.125 3.312Z" clip-rule="evenodd"/><path fill="#383838" d="m106.829 64.215.116-.01-.001-.013-.004-.013-.111.035Zm2.619 15.295-.102.056.102-.056Zm-3.976 21.034-.04-.109.04.109Zm-17.231 17.391-.097-.066-.007.012.104.054Zm-17.066 21.531-.066-.095.067.095ZM50.3 135.16l.103-.053-.103.053Zm2.153-17.225-.097-.064.097.064Zm12.305-14.045.085.08-.085-.08Zm9.897-10.799-.088-.076.088.076Zm7.675-22.11.116.007-.116-.007Zm.112-1.906.116.007-.116-.007Zm-.669-12.902-.097-.065-.023.035.004.041.116-.01Zm14.32-8.335-.08.085.005.005.074-.09Zm9.611 13.065.109-.04v-.002l-.109.042Zm1.009 3.32c.277 3.709.628 6.98 1.062 9.602.434 2.62.952 4.607 1.571 5.74l.205-.111c-.598-1.096-1.112-3.048-1.546-5.667-.433-2.613-.783-5.876-1.06-9.581l-.232.017Zm2.633 15.343c2.234 4.093 3.056 8.663 2.416 12.534-.639 3.868-2.734 7.028-6.33 8.335l.08.219c3.694-1.343 5.831-4.587 6.48-8.516.649-3.928-.186-8.55-2.441-12.684l-.205.112Zm-3.914 20.869c-1.476.536-3.087 1.591-4.721 2.94-1.636 1.35-3.3 3.002-4.885 4.738-3.17 3.474-6.022 7.296-7.682 9.757l.194.13c1.654-2.453 4.5-6.266 7.66-9.729 1.58-1.732 3.237-3.375 4.861-4.716 1.626-1.342 3.213-2.378 4.653-2.901l-.08-.219Zm-17.295 17.446c-1.295 2.507-3.703 6.593-6.713 10.697-3.011 4.105-6.62 8.22-10.315 10.793l.133.191c3.727-2.595 7.354-6.734 10.37-10.846 3.018-4.114 5.432-8.21 6.733-10.727l-.208-.108Zm-17.028 21.49c-4.607 3.207-9.165 3.328-12.881 2.055-3.722-1.274-6.597-3.946-7.825-6.319l-.207.107c1.257 2.43 4.181 5.14 7.956 6.433 3.782 1.295 8.418 1.168 13.09-2.085l-.133-.191Zm-20.706-4.264c-2.46-4.754-1.317-11.83 2.148-17.108l-.195-.128c-3.494 5.322-4.671 12.49-2.16 17.343l.207-.107Zm2.148-17.108c2.09-3.182 7.063-8.47 12.292-14.029l-.17-.16c-5.22 5.55-10.214 10.857-12.317 14.061l.195.128Zm12.292-14.029c3.446-3.664 7-7.443 9.9-10.803l-.176-.152c-2.896 3.355-6.447 7.13-9.894 10.795l.17.16Zm9.9-10.803c3.433-3.978 5.223-7.12 6.221-10.476.998-3.35 1.204-6.908 1.482-11.703l-.233-.014c-.279 4.802-.484 8.33-1.472 11.65-.987 3.316-2.756 6.43-6.174 10.39l.176.153Zm7.703-22.18.112-1.905-.233-.014c-.04.658-.076 1.292-.112 1.906l.233.014Zm.112-1.905c.158-2.593-.14-7.276-.669-12.92l-.232.022c.529 5.647.825 10.311.669 12.884l.232.014Zm13.534-21.244.08-.085-.001-.002-.004-.003-.014-.012a2.85 2.85 0 0 0-.243-.185 4.088 4.088 0 0 0-.749-.399c-.659-.27-1.63-.485-2.882-.275-2.504.421-6.108 2.536-10.603 9.231l.194.13c4.48-6.673 8.036-8.726 10.448-9.13 1.205-.203 2.131.005 2.755.26.312.128.549.268.706.376a2.611 2.611 0 0 1 .22.167l.01.01c.002 0 .003.001.003.002l.08-.085Zm9.721 13.023c-1.915-5.014-5.938-10.062-9.647-13.113l-.148.18c3.683 3.03 7.678 8.046 9.577 13.017l.218-.084Zm1.127 3.318a88.874 88.874 0 0 0-1.127-3.317l-.218.081c.282.765.665 1.888 1.123 3.307l.222-.071Z"/><path stroke="#383838" stroke-width=".373" d="M76.817 8.788c.927-.795 21.534-2.485 29.984-2.816-1.381 22.36-1.326 66.25 2.651 73.538 4.489 8.228 3.313 18.384-3.977 21.035-5.832 2.12-13.917 12.477-17.23 17.39-2.596 5.024-9.643 16.364-17.066 21.532-9.278 6.459-18.39.497-20.876-4.307-2.485-4.803-1.325-11.925 2.154-17.225 3.48-5.3 14.911-16.397 22.201-24.844 7.29-8.447 7.125-13.084 7.787-24.015.663-10.932-6.788-59.295-5.628-60.288Z"/><path fill="#fff" d="M82.78 31.793c-2.692-5.045.216-7.384 2.006-7.923 1.456.781 6.502 2.14 4.094 2.37-2.41.23-1.42 3.45-.625 5.03 13.353 14.852 7.307 24.432 3.984 27.235-4.264-1.25-11.06-3.975-6.064-6.724 6.401-3.521-.03-13.682-3.394-19.988Z"/><path fill="#005BBB" d="M88.08 42.677c2.698.469 5.455-1.146 6.44-2.325l.502 1.054a6.201 6.201 0 0 1-6.618 2.447l-.324-1.176Z"/><path fill="#FFD500" d="M88.389 43.822c3.269.721 5.637-1.272 6.634-2.435l.396 1.076c-2.184 2.908-5.41 2.938-6.72 2.535l-.31-1.176Z"/><path fill="#fff" d="M92.265 31.251c-4.874 3.328-7.42 1.901-8.084.772-3.97-1.874-3.826-9.578 2.605-10.192 6.431-.614 11.572 5.261 5.48 9.42Z"/><ellipse cx="2.465" cy="2.69" fill="url(#d)" rx="2.465" ry="2.69" transform="matrix(-.6968 .71722 .7175 .6966 85.248 26.525)"/><ellipse cx=".488" cy=".767" fill="#383838" rx=".488" ry=".767" transform="matrix(.98586 -.16757 .16768 .98585 87.16 25.797)"/><ellipse cx=".219" cy=".344" fill="#fff" opacity=".2" rx=".219" ry=".344" transform="matrix(-.73063 .68273 .68302 .73044 87.64 25.82)"/><path fill="#EEC700" d="M90 43.946c-2.584-.154-7.664 1.264-4.974 8.145 2.67 6.83 2.746 11.287.893 10.595.51.23.113 1.287.338 1.677 2.133.265 2.754-3.855-.892-12.389-.846-2.281.366-6.614 4.996-6.832L90 43.946Z"/><path fill="#004D9D" d="M89.686 42.76c-2.743-.283-5.913.298-4.445 8.526 1.455 8.153-.66 9.38-2.523 8.441.557.333 1.092 2.113 1.252 2.58 2.236.396 3.596-2.968 1.66-11.146-.437-2.726-.64-7.13 4.377-7.206l-.321-1.195Z"/><path fill="#FF6B0A" d="M89.507 30.873c-.574-.839 1.469-.765 2.513-.675 2.051.088 3.546 3.086 4.16 3.842.613.756.676 1.884.497 2.114-.322.414-1.262.357-3.044-1.888-1.782-2.244-3.408-2.343-4.126-3.392Z"/><path fill="#E25A00" d="M90.269 30.9c-.405-.662.71-.813 1.49-.772 1.537.008 2.652 2.175 3.088 2.77.437.594.794 1.573.653 1.765-.254.345-1.237.073-2.504-1.691-1.268-1.765-2.222-1.243-2.727-2.071Z"/><path fill="#956C7C" d="M94.724 33.666c.055-.688-1.885-2.88-2.861-3.89l-.318 1.073c1.037 1.225 3.123 3.504 3.179 2.817Z"/><path fill="#86616F" d="M94.031 32.88c-.094-.273-2.012-2.448-2.959-3.501l-.03.285c1.035 1.186 3.083 3.49 2.99 3.216Z"/><path fill="#fff" d="m95.029 32.435.537-.424a19.727 19.727 0 0 1 .905 1.348c.09.148.177.297.257.44.078.142.15.28.211.409.086.18.152.345.19.485.049.176.053.313-.003.391-.154.215-.419.418-.671.578a4.662 4.662 0 0 1-.308.179.642.642 0 0 1-.206.101c-.098.03-.234-.006-.399-.092a3.205 3.205 0 0 1-.479-.325 8.76 8.76 0 0 1-.549-.48 15.89 15.89 0 0 1-.407-.399 23.246 23.246 0 0 1-.855-.912 36.81 36.81 0 0 1-1.365-1.614l.817.164c.072.102.164.218.272.347.103.122.22.255.348.395a20.176 20.176 0 0 0 .826.852 24.631 24.631 0 0 0 1.013.938c.175.15.342.29.496.408.105.082.204.154.294.216.14.095.26.165.353.2a.87.87 0 0 0 .057-.427 2.254 2.254 0 0 0-.107-.502 4.522 4.522 0 0 0-.161-.422 7.365 7.365 0 0 0-.223-.463 10.76 10.76 0 0 0-.213-.39 14.628 14.628 0 0 0-.32-.528c-.097-.153-.2-.31-.31-.473Z"/><path stroke="#383838" stroke-width=".043" d="M95.941 35.942c.124-.055.315-.154.514-.28m-.514.28c-.098.03-.234-.006-.399-.092m.4.092c.315-.095.452-.344.421-.73m.092.45c.252-.16.517-.363.671-.578.056-.078.052-.215.003-.391m-.674.969c-.086.025-.265-.06-.502-.222m-2.977-2.81a5.77 5.77 0 0 1-.272-.346l-.817-.164c.16.2.347.43.551.674m.538-.163-.538.163m.538-.163c.103.122.22.255.348.395m-.886-.232c.113.135.232.275.354.417m0 0 .532-.185m-.532.185c.149.172.303.348.46.523m.072-.708c.135.148.282.303.436.461m-.508.247.508-.247m-.508.247c.142.158.285.315.43.468m.078-.715c.126.13.257.26.39.391m-.469.325.47-.325m-.47.325c.143.152.285.3.426.443m.043-.768c.152.15.306.297.46.44m-.503.328.504-.327m-.504.327c.138.14.274.273.407.398m.097-.725c.37.345.737.664 1.048.905m-1.145-.18.649-.228m-.649.228c.193.182.378.345.549.48m0 0 .596-.3m-.596.3c.176.14.338.252.479.326m.117-.626c.105.082.204.154.294.216m-.411.41.411-.41m.41-.227.766-.52m-.766.52a2.254 2.254 0 0 0-.107-.502m.873-.018a3.105 3.105 0 0 0-.19-.485m-.683.503.683-.503m-.683.503a4.522 4.522 0 0 0-.161-.422m.844-.081a7.435 7.435 0 0 0-.21-.408m-.634.489.633-.49m-.633.49a7.365 7.365 0 0 0-.223-.463m.856-.026a12.4 12.4 0 0 0-.257-.441m-.599.467.6-.467m-.6.467a10.76 10.76 0 0 0-.213-.39m.812-.077a16.383 16.383 0 0 0-.21-.334m-.602.411.603-.411m-.603.411a14.628 14.628 0 0 0-.32-.528m.923.117c-.097-.15-.195-.298-.29-.438m-.633.321c-.097-.153-.2-.31-.31-.473l.537-.424c.12.163.26.36.406.576m-.633.321.633-.321"/><path fill="#fff" d="m101.681 29.528.075.784c-.208.063-.419.342-.669.41a32.651 32.651 0 0 1-1.328.337 39.081 39.081 0 0 1-2.266.458 30.611 30.611 0 0 1-1.434.207 22.698 22.698 0 0 1-1.367.116c-.268.014-.53.02-.784.02-.257-.001-.506-.01-.745-.027a7.673 7.673 0 0 1-.687-.079 5.274 5.274 0 0 1-.562-.122 3.719 3.719 0 0 1-.385-.129l-.669-.57c.264.024.573.044.917.058a27.491 27.491 0 0 0 1.308.026 32.66 32.66 0 0 0 2.801-.13 27.792 27.792 0 0 0 1.529-.184 23.176 23.176 0 0 0 1.501-.278 17.55 17.55 0 0 0 1.453-.392c.215-.069.425-.142.631-.22.234-.09.461-.184.681-.285Z"/><path stroke="#383838" stroke-width=".043" d="M101 29.813c.234-.09.461-.184.681-.285l.075.784c-.208.063-.419.342-.669.41m-.087-.91.087.91m-.087-.91c-.206.079-.416.152-.631.221m.718.69c-.2.054-.413.11-.636.167m0 0-.082-.857m.082.857c-.221.056-.452.113-.692.169m.61-1.026c-.225.073-.455.14-.688.204m.078.822-.078-.822m.078.822c-.247.058-.503.115-.766.171m.688-.993c-.252.068-.507.13-.765.188m.077.805-.077-.805m.077.805c-.256.055-.52.108-.786.159m.71-.964c-.26.058-.523.111-.787.16m.077.804-.077-.805m.077.805c-.235.045-.474.088-.714.128m.637-.933c-.237.044-.476.083-.715.12m.078.813-.078-.814m.078.814c-.25.042-.501.082-.753.118m.675-.932c-.252.038-.504.072-.754.102m.08.83-.08-.83m.08.83c-.228.032-.456.062-.682.088m.602-.918c-.26.03-.519.058-.775.082m.173.837-.173-.837m.173.837c-.235.027-.47.051-.701.07m.528-.907c-.274.025-.546.046-.814.063m.286.845-.286-.845m.286.845c-.225.02-.447.034-.666.045m.38-.89c-.258.017-.511.03-.76.04m.38.85-.38-.85m.38.85c-.268.014-.53.02-.784.02m.404-.87c-.216.009-.428.015-.635.02m.23.85-.23-.85m.23.85c-.256-.001-.505-.01-.744-.027m.514-.823c-.202.004-.4.006-.592.006m.078.817-.078-.816m.078.816a7.673 7.673 0 0 1-.687-.079m.61-.738c-.237.001-.464-.001-.68-.005m.07.743-.07-.743m.07.743a5.274 5.274 0 0 1-.562-.122m.491-.621c-.22-.005-.43-.011-.628-.02m.137.641a3.719 3.719 0 0 1-.385-.129l-.669-.57c.264.024.573.044.917.058m.137.641-.137-.64"/><path fill="#FF6B0A" d="M94.888 24.553c-.993-1.532-1.973-1.353-2.428-.951-2.243.38-1.7 2.065-1.458 3.492s-4.164 3.617.19 4.037c2.958.285 10.499-.786 11.193-2.11.408-.778-2.22-1.046-4.458-1.631-1.408-.369-2.248-1.615-3.04-2.837Z"/><path fill="#EFE5D5" d="M99.872 30.364c1.453-.22 2.575-.864 2.69-1.331.118-.48-.674-.92-2.214-1.223-1.276.086-1.317 1.312-1.135 2.137.063.284.359.462.659.417Z"/><path fill="#DACAB0" d="M101.141 28.427c-.249-.053-.701-.188-.517-.301.185-.114.422.153.517.301ZM100.749 28.626c-.253-.047-.734-.097-.642.072.091.168.466.022.642-.072Z"/><path fill="#312F00" d="m91.04 17.826-.226-.775-9.269 2.691 1.221 4.204.326-.095 7.778-1.744 1.165-.852-.849-2.922.046-.007-.056-.514-.137.014Z"/><ellipse cx="4.964" cy=".493" fill="#312F00" rx="4.964" ry=".493" transform="matrix(-.96034 .2788 .27897 .96031 91.042 17.34)"/><path fill="#312F00" d="M92.145 21.237c3.234-.122 6.685 3.748-6.941 2.833l6.941-2.833Z"/><path fill="#494600" d="M92.166 21.2c-.358 1.538-8.335 3.772-9.538 2.77l-.972-3.381c1.45.056 3.872-1.478 6.11-1.311l3.052 2.233.36-3.698.988 3.388Z"/><ellipse cx="4.825" cy=".493" fill="#312F00" rx="4.825" ry=".493" transform="matrix(-.96034 .2788 .27897 .96031 90.695 16.637)"/><ellipse cx="4.893" cy=".493" fill="#312F00" rx="4.893" ry=".493" transform="matrix(-.96034 .2788 .27897 .96031 90.904 17.38)"/><path fill="#FC0" d="M89.935 18.54c-.013.015-.024.027-.032.04-.074.106-.097.206-.06.32.015.048.038.096.057.143.018.041.035.082.05.123.005.011.01.015.025.01.034-.01.067-.008.095.011.024.017.031.039.025.063-.007.024-.028.041-.056.053A.044.044 0 0 1 90 19.3a.775.775 0 0 1-.253-.208c-.054-.07-.09-.146-.128-.22-.022-.042-.047-.084-.067-.127a.231.231 0 0 0-.14-.126.122.122 0 0 0-.007.087.47.47 0 0 0 .034.076c.015.027.034.052.05.077.042.066.085.133.124.2.065.113.09.233.072.358-.001.016-.013.025-.031.03-.047.015-.096 0-.115-.032-.018-.03 0-.072.044-.09.015-.007.014-.011.006-.02-.04-.05-.079-.102-.117-.152-.044-.057-.084-.115-.15-.16a.582.582 0 0 0-.291-.096c-.009 0-.017 0-.029-.002l.009.016.485.833c.01.016.01.016.03.008l.223-.085c.013-.005.02-.004.029.005a.452.452 0 0 0 .264.131c.023.004.046.011.068.017.02-.054.064-.103.074-.16a.303.303 0 0 0-.005-.142c-.003-.01 0-.015.012-.02l.227-.086c.013-.005.018-.01.011-.021l-.488-.838c0-.003-.001-.006-.006-.014Zm-.007.16h.008l.008.015.232.397c.013.023.013.023-.017.034-.011.004-.018.004-.026-.003a.161.161 0 0 0-.1-.036c-.016-.001-.022-.007-.026-.018-.021-.053-.041-.108-.065-.16a.28.28 0 0 1-.025-.159c.002-.023.008-.046.011-.07Zm-.772.297.004-.003.027.012c.062.03.112.052.151.1.05.061.097.123.146.185.007.008.007.015-.001.024a.107.107 0 0 0-.03.086c0 .014-.008.02-.034.027-.016.003-.016-.008-.02-.014l-.236-.405a.034.034 0 0 1-.007-.012Zm.931.36.016-.009c.053-.033.086-.073.077-.127-.001-.008 0-.012.01-.015l.02-.007c.009-.004.014-.002.018.005l.095.165c.002.003-.002.012-.005.014-.05.02-.102.04-.153.058-.004.001-.015-.001-.017-.003l-.06-.08Zm-.401.153.037.09c.004.008-.004.011-.011.014l-.143.054c-.015.006-.022.003-.028-.008-.027-.05-.056-.098-.085-.147-.013-.023-.013-.023.016-.034.008-.003.016-.006.023.001.042.037.096.045.156.037.012-.002.024-.006.035-.007Zm.08-.28c.058.045.116.09.186.125-.02.027-.039.052-.059.076-.002.004-.013.006-.019.005l-.092-.009c-.01 0-.014-.003-.013-.012a.583.583 0 0 0-.004-.172v-.014Zm.327.308c.025.036.018.131-.008.152h-.002l-.066-.113c-.002-.003.002-.01.006-.012.022-.01.046-.018.07-.027Zm-.086.184c-.05-.003-.143-.063-.153-.095l.064-.024c.012-.004.018-.002.023.006l.053.092a.177.177 0 0 1 .013.02Zm.02-.23-.039.014c-.004.002-.014-.001-.015-.004a.076.076 0 0 1 .033-.094c.007-.005.013-.005.019 0l.044.056c.006.008.002.013-.007.016a.562.562 0 0 0-.036.013Zm-.173.066-.033.013c-.011.005-.02.004-.023-.007l-.023-.058c-.003-.01.001-.014.014-.015.04-.006.09.012.107.04.002.003-.002.01-.005.013-.013.006-.025.01-.037.014Z"/><path fill="#fff" d="M97.73 18.907c1.288.515 1.155 2.039.927 2.736.927-.089 1.655-1.867 1.903-2.745.96 0 2.744-.222 3.651-1.208 1.133-1.233 1.511-3.38-.154-5.56-1.665-2.182-5.612-.592-7.549-.355-1.936.238-4.16 1.413-3.391 4.587.768 3.174 3.002 1.902 4.612 2.545Z"/><path fill="#383838" d="m98.657 21.643.015.156-.238.023.074-.228.15.049Zm-.928-2.736.058-.145-.058.145Zm-4.612-2.545-.153.037.153-.037Zm3.391-4.586-.019-.156.02.155Zm7.549.353.125-.095-.125.095Zm.154 5.561-.116-.106.116.106Zm-3.651 1.208-.151-.042.032-.114h.119v.156Zm-2.052 2.696c.108-.33.193-.858.1-1.359-.093-.493-.355-.95-.937-1.182l.116-.291c.706.282 1.022.845 1.129 1.416.105.564.01 1.147-.11 1.514l-.298-.098Zm-.837-2.541c-.376-.15-.795-.191-1.241-.212-.438-.02-.91-.021-1.351-.103-.449-.084-.883-.253-1.254-.618-.37-.364-.664-.91-.86-1.721l.304-.074c.188.775.46 1.26.776 1.571.314.31.684.457 1.09.533.415.077.851.077 1.31.099.45.02.914.062 1.343.234l-.117.291Zm-4.707-2.654c-.394-1.63-.023-2.776.722-3.541.736-.756 1.816-1.117 2.803-1.238l.039.311c-.95.117-1.95.461-2.617 1.146-.658.675-1.015 1.704-.642 3.248l-.305.074Zm3.525-4.78c.475-.057 1.074-.199 1.748-.348.668-.149 1.403-.303 2.131-.382 1.445-.155 2.927-.017 3.814 1.145l-.25.19c-.778-1.02-2.102-1.176-3.531-1.023-.709.077-1.428.228-2.096.376-.664.147-1.284.294-1.777.354l-.039-.311Zm7.693.415c1.708 2.238 1.333 4.47.144 5.762l-.231-.212c1.079-1.174 1.459-3.235-.163-5.36l.25-.19Zm.144 5.762c-.482.525-1.188.837-1.881 1.02a7.704 7.704 0 0 1-1.885.24v-.314c.47 0 1.142-.055 1.805-.23.666-.175 1.306-.467 1.73-.928l.231.212Zm-3.615 1.145a7.922 7.922 0 0 1-.712 1.705c-.169.29-.363.561-.58.768-.216.206-.467.358-.747.385l-.03-.312c.184-.018.372-.12.56-.3.188-.18.365-.424.526-.7.32-.55.559-1.201.681-1.631l.302.085ZM98.032 15.83l-.498-.63.245-.182.62.777-.367.035Zm-.906.086-.133-1.393.32-.031.133 1.394-.32.03Zm.173-.583-.025-.269.485-.046.026.269-.486.046Zm.526-.15-.3-.008.386-.74.34-.033-.426.78Zm.863.99a.549.549 0 0 1-.168-.01.367.367 0 0 1-.14-.06l.092-.231a.269.269 0 0 0 .182.051.156.156 0 0 0 .1-.042.253.253 0 0 0 .062-.108l.043-.137.021-.036.296-.96.299-.029-.375 1.183a.663.663 0 0 1-.1.215.367.367 0 0 1-.138.117.502.502 0 0 1-.174.047Zm.148-.378-.584-1.067.32-.03.457.86-.193.237Zm1.373-.157a.667.667 0 0 1-.315-.04.547.547 0 0 1-.232-.177.543.543 0 0 1-.103-.278.536.536 0 0 1 .048-.292.534.534 0 0 1 .195-.215.652.652 0 0 1 .302-.101.585.585 0 0 1 .301.043c.088.039.156.1.204.184l-.228.152a.268.268 0 0 0-.255-.124.29.29 0 0 0-.14.05.269.269 0 0 0-.092.11.33.33 0 0 0-.02.163.33.33 0 0 0 .05.156c.03.042.067.072.112.092.045.02.093.027.147.022a.278.278 0 0 0 .132-.047.276.276 0 0 0 .094-.123l.254.108a.443.443 0 0 1-.166.22.6.6 0 0 1-.288.097Zm1.177-.864c.141-.012.25.01.329.065a.318.318 0 0 1 .137.25.337.337 0 0 1-.099.289.56.56 0 0 1-.339.13l-.538.05-.102-1.071.308-.03.033.343.271-.026Zm-.021.516c.06-.004.104-.02.133-.05.03-.03.042-.071.037-.124-.005-.054-.025-.09-.059-.11a.236.236 0 0 0-.141-.024l-.201.017.03.31.201-.019Z"/><defs><radialGradient id="b" cx="0" cy="0" r="1" gradientTransform="matrix(0 2.36466 -2.16663 0 2.167 2.365)" gradientUnits="userSpaceOnUse"><stop stop-color="#FBB"/><stop offset="1" stop-color="#FBB" stop-opacity="0"/></radialGradient><radialGradient id="d" cx="0" cy="0" r="1" gradientTransform="matrix(0 2.69015 -2.46473 0 2.465 2.69)" gradientUnits="userSpaceOnUse"><stop stop-color="#FBB"/><stop offset="1" stop-color="#FBB" stop-opacity="0"/></radialGradient></defs></svg>