<svg width="166" height="149" viewBox="0 0 166 149" fill="none" xmlns="http://www.w3.org/2000/svg">
<rect x="56.4716" y="10.4716" width="59.0568" height="123.394" rx="13.6761" fill="white" stroke="#383838" stroke-width="0.943182"/>
<rect x="61.9272" y="16.5865" width="13.375" height="20.1194" rx="6.6875" fill="#FFFAFA" stroke="#383838" stroke-width="0.943182"/>
<g clip-path="url(#clip0_20581_1868)">
<mask id="path-3-outside-1_20581_1868" maskUnits="userSpaceOnUse" x="76.3636" y="63.5727" width="9.16546" height="12.8436" fill="black">
<rect fill="white" x="76.3636" y="63.5727" width="9.16546" height="12.8436"/>
<path fill-rule="evenodd" clip-rule="evenodd" d="M80.6433 65.802L80.3376 65.0198C80.3376 65.0198 80.2104 65.1081 80.1133 65.1299C80.0131 65.1524 79.8485 65.1256 79.8485 65.1256L79.8316 65.9341L79.0844 65.3785C79.0844 65.3785 78.9279 65.4631 78.8171 65.4942C78.7246 65.5202 78.5728 65.5345 78.5728 65.5345L78.871 66.3355C79.3045 66.3784 80.2657 66.3317 80.6433 65.802ZM84.2158 73.4737L80.1298 74.3873L80.5354 75.8007L84.6214 74.8871L84.2158 73.4737Z"/>
</mask>
<path fill-rule="evenodd" clip-rule="evenodd" d="M80.6433 65.802L80.3376 65.0198C80.3376 65.0198 80.2104 65.1081 80.1133 65.1299C80.0131 65.1524 79.8485 65.1256 79.8485 65.1256L79.8316 65.9341L79.0844 65.3785C79.0844 65.3785 78.9279 65.4631 78.8171 65.4942C78.7246 65.5202 78.5728 65.5345 78.5728 65.5345L78.871 66.3355C79.3045 66.3784 80.2657 66.3317 80.6433 65.802ZM84.2158 73.4737L80.1298 74.3873L80.5354 75.8007L84.6214 74.8871L84.2158 73.4737Z" fill="#8C8C8C"/>
<path d="M80.3376 65.0198L80.6922 64.9046L80.5088 64.4354L80.1059 64.7153L80.3376 65.0198ZM80.6433 65.802L80.9596 66.0231L81.0693 65.8692L80.998 65.6868L80.6433 65.802ZM80.1133 65.1299L80.217 65.4903L80.1133 65.1299ZM79.8485 65.1256L79.8922 64.7611L79.4768 64.6935L79.4683 65.0988L79.8485 65.1256ZM79.8316 65.9341L79.6107 66.2234L80.1972 66.6595L80.2118 65.9609L79.8316 65.9341ZM79.0844 65.3785L79.3053 65.0893L79.1009 64.9373L78.8865 65.0532L79.0844 65.3785ZM78.8171 65.4942L78.94 65.8498L78.94 65.8498L78.8171 65.4942ZM78.5728 65.5345L78.5166 65.1666L78.0544 65.2101L78.2159 65.6439L78.5728 65.5345ZM78.871 66.3355L78.5142 66.445L78.6011 66.6784L78.8522 66.7033L78.871 66.3355ZM80.1298 74.3873L80.0264 74.0268L79.6604 74.1087L79.7639 74.4691L80.1298 74.3873ZM84.2158 73.4737L84.5818 73.3919L84.4783 73.0315L84.1124 73.1133L84.2158 73.4737ZM80.5354 75.8007L80.1695 75.8825L80.2729 76.243L80.6389 76.1611L80.5354 75.8007ZM84.6214 74.8871L84.7249 75.2476L85.0908 75.1658L84.9874 74.8053L84.6214 74.8871ZM79.9829 65.1351L80.2887 65.9173L80.998 65.6868L80.6922 64.9046L79.9829 65.1351ZM80.217 65.4903C80.3214 65.4669 80.4162 65.4166 80.4655 65.3888C80.4946 65.3723 80.5194 65.357 80.537 65.3457C80.5459 65.3399 80.5533 65.3351 80.5587 65.3314C80.5614 65.3296 80.5637 65.3281 80.5654 65.3269C80.5663 65.3263 80.5671 65.3258 80.5677 65.3253C80.568 65.3251 80.5683 65.3249 80.5686 65.3248C80.5687 65.3247 80.5688 65.3246 80.5689 65.3245C80.569 65.3245 80.569 65.3244 80.5691 65.3244C80.5691 65.3244 80.5691 65.3244 80.5691 65.3244C80.5692 65.3243 80.5692 65.3243 80.3376 65.0198C80.1059 64.7153 80.1059 64.7153 80.106 64.7153C80.106 64.7153 80.106 64.7152 80.106 64.7152C80.1061 64.7152 80.1061 64.7152 80.1062 64.7151C80.1062 64.7151 80.1063 64.715 80.1064 64.715C80.1065 64.7149 80.1066 64.7148 80.1067 64.7148C80.1068 64.7147 80.1068 64.7147 80.1068 64.7147C80.1066 64.7148 80.106 64.7152 80.1051 64.7158C80.1032 64.7171 80.0999 64.7193 80.0953 64.7222C80.0861 64.7281 80.073 64.7362 80.0582 64.7446C80.0197 64.7663 80.0024 64.7711 80.0096 64.7695L80.217 65.4903ZM79.8485 65.1256C79.8049 65.49 79.8049 65.49 79.805 65.4901C79.805 65.4901 79.805 65.4901 79.8051 65.4901C79.8051 65.4901 79.8052 65.4901 79.8053 65.4901C79.8054 65.4901 79.8056 65.4901 79.8057 65.4902C79.806 65.4902 79.8064 65.4903 79.8068 65.4903C79.8076 65.4905 79.8086 65.4906 79.8097 65.4908C79.812 65.4912 79.8149 65.4916 79.8184 65.4921C79.8253 65.4931 79.8347 65.4944 79.8459 65.4959C79.8683 65.4987 79.8993 65.5022 79.9348 65.5048C79.9951 65.5091 80.1092 65.5145 80.217 65.4903L80.0096 64.7695C80.0172 64.7678 79.9989 64.771 79.9518 64.7676C79.9337 64.7663 79.9173 64.7644 79.9057 64.7629C79.8999 64.7622 79.8956 64.7616 79.8932 64.7613C79.892 64.7611 79.8913 64.761 79.8911 64.7609C79.891 64.7609 79.891 64.7609 79.8912 64.761C79.8913 64.761 79.8914 64.761 79.8916 64.761C79.8916 64.761 79.8917 64.761 79.8918 64.7611C79.8919 64.7611 79.8919 64.7611 79.892 64.7611C79.892 64.7611 79.8921 64.7611 79.8921 64.7611C79.8921 64.7611 79.8922 64.7611 79.8485 65.1256ZM80.2118 65.9609L80.2287 65.1524L79.4683 65.0988L79.4514 65.9074L80.2118 65.9609ZM78.8634 65.6677L79.6107 66.2234L80.0526 65.6449L79.3053 65.0893L78.8634 65.6677ZM78.94 65.8498C79.0266 65.8254 79.1164 65.7854 79.1728 65.7588C79.2036 65.7442 79.2302 65.7309 79.2492 65.7211C79.2588 65.7162 79.2666 65.7121 79.2722 65.7091C79.275 65.7076 79.2773 65.7064 79.279 65.7055C79.2798 65.7051 79.2805 65.7047 79.2811 65.7044C79.2813 65.7043 79.2816 65.7041 79.2818 65.704C79.2819 65.704 79.2819 65.7039 79.282 65.7039C79.2821 65.7039 79.2821 65.7039 79.2821 65.7038C79.2821 65.7038 79.2822 65.7038 79.2822 65.7038C79.2822 65.7038 79.2822 65.7038 79.0844 65.3785C78.8865 65.0532 78.8865 65.0532 78.8866 65.0532C78.8866 65.0532 78.8866 65.0532 78.8866 65.0532C78.8866 65.0532 78.8866 65.0532 78.8867 65.0532C78.8867 65.0531 78.8867 65.0531 78.8867 65.0531C78.8868 65.0531 78.8868 65.0531 78.8868 65.0531C78.8867 65.0531 78.8865 65.0532 78.8862 65.0534C78.8855 65.0538 78.8843 65.0544 78.8826 65.0553C78.8793 65.0571 78.874 65.0599 78.8671 65.0634C78.8534 65.0704 78.8339 65.0802 78.8118 65.0907C78.7622 65.1141 78.7183 65.1319 78.6941 65.1387L78.94 65.8498ZM78.5728 65.5345C78.629 65.9024 78.629 65.9024 78.629 65.9024C78.629 65.9024 78.629 65.9024 78.6291 65.9024C78.6291 65.9024 78.6291 65.9024 78.6292 65.9024C78.6292 65.9024 78.6293 65.9024 78.6294 65.9024C78.6296 65.9023 78.6298 65.9023 78.6301 65.9023C78.6306 65.9022 78.6313 65.9022 78.6321 65.9021C78.6337 65.9019 78.6359 65.9017 78.6386 65.9014C78.644 65.9009 78.6515 65.9001 78.6606 65.8991C78.6788 65.8971 78.704 65.8941 78.7327 65.8901C78.7854 65.8829 78.8678 65.87 78.94 65.8498L78.6941 65.1387C78.6739 65.1444 78.6342 65.1517 78.5878 65.1581C78.567 65.1609 78.5485 65.1631 78.5353 65.1646C78.5288 65.1653 78.5237 65.1658 78.5204 65.1662C78.5188 65.1663 78.5176 65.1665 78.517 65.1665C78.5166 65.1666 78.5165 65.1666 78.5164 65.1666C78.5164 65.1666 78.5164 65.1666 78.5164 65.1666C78.5164 65.1666 78.5165 65.1666 78.5165 65.1666C78.5165 65.1666 78.5165 65.1666 78.5166 65.1666C78.5166 65.1666 78.5166 65.1666 78.5166 65.1666C78.5166 65.1666 78.5166 65.1666 78.5728 65.5345ZM79.2279 66.2261L78.9297 65.425L78.2159 65.6439L78.5142 66.445L79.2279 66.2261ZM80.3271 65.581C80.2133 65.7407 79.9847 65.8572 79.6787 65.9222C79.3812 65.9853 79.0731 65.986 78.8899 65.9678L78.8522 66.7033C79.1024 66.728 79.4916 66.7267 79.8776 66.6448C80.2549 66.5647 80.6958 66.3931 80.9596 66.0231L80.3271 65.581ZM80.2333 74.7477L84.3193 73.8342L84.1124 73.1133L80.0264 74.0268L80.2333 74.7477ZM80.9014 75.7189L80.4958 74.3055L79.7639 74.4691L80.1695 75.8825L80.9014 75.7189ZM84.518 74.5267L80.432 75.4402L80.6389 76.1611L84.7249 75.2476L84.518 74.5267ZM83.8498 73.5556L84.2554 74.969L84.9874 74.8053L84.5818 73.3919L83.8498 73.5556Z" fill="#383838" mask="url(#path-3-outside-1_20581_1868)"/>
<ellipse cx="3.97398" cy="4.49469" rx="3.97398" ry="4.49469" transform="matrix(0.975906 -0.218193 0.275835 0.961205 78 71.3203)" fill="white"/>
<ellipse cx="3.31622" cy="3.95435" rx="3.31622" ry="3.95435" transform="matrix(0.975906 -0.218193 0.275835 0.961205 78.7897 71.6964)" fill="white"/>
<ellipse cx="0.254453" cy="0.400025" rx="0.254453" ry="0.400025" transform="matrix(1.05711 -0.07463 0.0845141 0.932687 79.2809 67.1011)" fill="white"/>
<ellipse cx="0.254453" cy="0.400025" rx="0.254453" ry="0.400025" transform="matrix(-0.973925 0.370414 0.419472 0.859291 82.417 66.3464)" fill="white"/>
<path fill-rule="evenodd" clip-rule="evenodd" d="M80.6274 65.8647C80.1113 65.9836 79.1706 66.4048 79.5358 67.1382C79.7805 67.6298 79.6426 67.8473 79.4936 68.0824C79.3647 68.2857 79.2275 68.5022 79.3221 68.9204C79.408 69.3003 79.5983 69.5376 79.7882 69.7744C80.0491 70.0999 80.3094 70.4244 80.2973 71.117C80.2806 72.0743 81.003 74.6451 81.3771 75.799L83.3004 75.369L83.3003 75.3685L85.1977 74.9527C84.917 73.7784 84.2272 71.2265 83.7052 70.3873C83.3374 69.796 83.4719 69.4315 83.6061 69.0682C83.7099 68.787 83.8135 68.5065 83.6837 68.1219C83.545 67.7109 83.2461 67.5598 82.9582 67.4144C82.6289 67.248 82.3141 67.0889 82.2702 66.556C82.2044 65.7577 81.1514 65.7731 80.6319 65.8808L80.6274 65.8647Z" fill="white"/>
<ellipse cx="0.614994" cy="0.866502" rx="0.614994" ry="0.866502" transform="matrix(-0.820325 0.59313 0.67178 0.723872 79.92 68.1814)" fill="white"/>
<ellipse cx="0.615024" cy="0.86646" rx="0.615024" ry="0.86646" transform="matrix(-1.00374 -0.30175 -0.341796 0.885811 83.9748 67.9626)" fill="white"/>
<path d="M84.6761 72.9813C83.4505 73.8067 81.5965 74.012 80.8375 73.8989L80.9584 74.2949C82.7024 74.6533 84.2303 73.8231 84.7954 73.374L84.6761 72.9813Z" fill="white"/>
<path d="M84.795 73.3609C83.3452 74.4081 81.714 74.3947 80.9527 74.2894L81.0548 74.5981C82.8064 74.9386 84.3585 74.2549 84.9134 73.8L84.795 73.3609Z" fill="white"/>
<ellipse opacity="0.2" cx="0.114076" cy="0.179316" rx="0.114076" ry="0.179316" transform="matrix(1.04396 0.164279 -0.186059 0.9212 82.204 66.4833)" fill="white"/>
<ellipse opacity="0.2" cx="0.114076" cy="0.179316" rx="0.114076" ry="0.179316" transform="matrix(1.04396 0.164279 -0.186059 0.9212 79.4428 67.1271)" fill="white"/>
<path d="M80.0933 67.9585C79.7103 66.8224 80.9053 66.3569 80.904 66.3722C82.2433 66.3941 82.409 67.4094 82.4058 67.5658C82.3967 67.9961 83.2586 68.1859 83.1493 68.6562C83.04 69.1265 83.2894 70.0016 83.2742 70.6535C83.2648 71.0531 83.1301 71.2277 83.0175 71.2893C83.0503 71.2824 83.037 71.2869 83.0047 71.2959C82.9751 71.3101 82.9475 71.3165 82.9247 71.3174C82.9544 71.3095 82.9836 71.3018 83.0047 71.2959C83.0089 71.2939 83.0132 71.2917 83.0175 71.2893C82.9743 71.2984 82.8516 71.3271 82.5879 71.3911C81.8443 71.5716 81.5537 70.715 80.6297 69.8657C79.7057 69.0164 80.5722 69.3787 80.0933 67.9585Z" fill="white"/>
<path d="M82.4715 70.9699C81.8599 71.0549 81.3367 69.9243 81.1516 69.3484C81.4994 69.1963 82.2687 68.9213 82.564 69.0389C82.933 69.186 83.2361 70.8637 82.4715 70.9699Z" fill="white"/>
<path d="M82.5493 70.7946C82.9553 70.6566 82.5954 69.8759 82.3647 69.5028L81.551 69.6812C81.7146 70.1098 82.1433 70.9327 82.5493 70.7946Z" fill="white"/>
<path d="M82.422 70.5151C82.4931 70.4416 82.1414 69.6681 81.9567 69.2906L81.7827 69.3466C81.9661 69.7668 82.3508 70.5887 82.422 70.5151Z" fill="white"/>
<path d="M80.7806 68.9558C80.971 68.1077 80.6169 67.7383 80.416 67.6596C80.8384 66.7887 81.6832 67.0576 82.0529 67.3009C81.7848 68.1485 81.9731 67.4762 82.6045 68.5561C83.1096 69.4201 82.5108 69.8826 82.1483 70.0059C81.613 70.0092 80.5901 69.8039 80.7806 68.9558Z" fill="white"/>
<path d="M82.7652 68.9284C81.4841 67.989 81.0136 68.985 80.9384 69.6004C81.0907 69.8124 81.5511 70.1901 82.1741 70.0045C82.7971 69.8189 82.8277 69.2098 82.7652 68.9284Z" fill="white"/>
<path d="M81.6551 69.0177C81.6171 68.9222 81.5286 68.7494 81.4791 68.8228C81.4295 68.8962 81.5758 68.9833 81.6551 69.0177Z" fill="white"/>
<path d="M81.8652 68.9719C81.8306 68.8753 81.7837 68.6903 81.8733 68.7227C81.9628 68.7551 81.9052 68.9023 81.8652 68.9719Z" fill="white"/>
<path d="M81.1251 65.0003L81.4456 65.8202C81.0498 66.3754 80.0423 66.4243 79.588 66.3794L79.2754 65.5397L81.1251 65.0003Z" fill="white"/>
<path d="M81.4451 65.82C81.4526 66.2992 81.0683 67.0431 79.5877 66.3726L81.4451 65.82Z" fill="white"/>
<ellipse cx="0.920007" cy="0.158651" rx="0.920007" ry="0.158651" transform="matrix(1.00873 -0.288837 0.327097 0.890015 79.222 65.394)" fill="white"/>
<path d="M73.6482 59.3787C73.6519 59.3793 73.655 59.3797 73.658 59.3805C73.6822 59.3861 73.6999 59.3964 73.7131 59.4152C73.7187 59.4232 73.7233 59.4319 73.7283 59.44C73.7327 59.4473 73.737 59.4544 73.7415 59.4616C73.7427 59.4635 73.7427 59.4645 73.7403 59.4657C73.7351 59.468 73.7316 59.4719 73.7314 59.4774C73.7312 59.4822 73.7338 59.4859 73.7381 59.4882C73.7426 59.4907 73.7475 59.4906 73.7523 59.489C73.7547 59.4881 73.7559 59.4867 73.7562 59.4843C73.7595 59.4658 73.7582 59.4476 73.7528 59.4296C73.7484 59.4147 73.7407 59.4009 73.7337 59.387C73.7298 59.3791 73.7262 59.3709 73.7219 59.3631C73.7193 59.3582 73.7173 59.3533 73.7166 59.3479C73.7158 59.3425 73.7163 59.337 73.7184 59.3315C73.7242 59.3338 73.7289 59.3374 73.7323 59.3419C73.7353 59.3462 73.7378 59.351 73.7401 59.3556C73.7425 59.3606 73.7441 59.3659 73.7462 59.3709C73.7516 59.3842 73.7568 59.3975 73.7627 59.4106C73.7727 59.4324 73.788 59.4506 73.8089 59.4648C73.8117 59.4668 73.8142 59.4667 73.8171 59.4653C73.8244 59.462 73.8278 59.4548 73.8249 59.4484C73.8223 59.4425 73.814 59.4393 73.8065 59.4417C73.8037 59.4425 73.8032 59.4417 73.8026 59.4396C73.7994 59.4288 73.796 59.418 73.7926 59.4072C73.789 59.395 73.7845 59.383 73.785 59.37C73.7856 59.353 73.7917 59.3395 73.8029 59.3255C73.8037 59.3245 73.8046 59.3236 73.8058 59.3221C73.8064 59.3234 73.8067 59.3243 73.8071 59.3251C73.8316 59.3796 73.855 59.4319 73.8795 59.4864C73.8809 59.4895 73.8809 59.4895 73.8776 59.4907C73.865 59.4952 73.8524 59.4998 73.8399 59.5043C73.8377 59.5051 73.837 59.506 73.8374 59.5081C73.8404 59.5243 73.8374 59.5398 73.8278 59.5541C73.8259 59.5571 73.8245 59.5605 73.8228 59.5638C73.8124 59.559 73.8001 59.5575 73.7903 59.5511C73.7822 59.5458 73.7749 59.5398 73.7695 59.5322C73.7682 59.5306 73.767 59.5303 73.7651 59.531C73.7522 59.5357 73.7396 59.5402 73.7268 59.5448C73.7245 59.5456 73.7234 59.5456 73.7224 59.5433C73.6978 59.4885 73.6742 59.4358 73.6496 59.381C73.6491 59.3809 73.6489 59.3803 73.6482 59.3787ZM73.6734 59.3988C73.6731 59.399 73.6726 59.3992 73.6724 59.3995C73.6728 59.4005 73.6733 59.4014 73.6737 59.4024C73.6855 59.4288 73.6964 59.453 73.7082 59.4793C73.7102 59.4837 73.7102 59.4837 73.7152 59.4819C73.7171 59.4812 73.7179 59.4804 73.7176 59.4786C73.7172 59.4727 73.7192 59.4674 73.7233 59.463C73.725 59.461 73.7248 59.4596 73.7236 59.4578C73.7178 59.4486 73.7118 59.4393 73.7065 59.4299C73.7008 59.4202 73.6948 59.4135 73.6852 59.4067C73.6813 59.4038 73.6773 59.4015 73.6734 59.3988ZM73.804 59.3522C73.8037 59.3523 73.8035 59.3523 73.8032 59.3524C73.8027 59.3538 73.8023 59.3553 73.802 59.3567C73.7996 59.3674 73.7975 59.3758 73.8004 59.3864C73.8042 59.3998 73.8083 59.413 73.8123 59.4263C73.8127 59.4281 73.8137 59.4291 73.816 59.4294C73.8225 59.4302 73.828 59.4326 73.8324 59.4371C73.8344 59.4391 73.8364 59.4391 73.8402 59.4369C73.8425 59.4356 73.8408 59.4342 73.8402 59.4329C73.8282 59.4062 73.8172 59.3815 73.8051 59.3546C73.8049 59.3537 73.8045 59.3529 73.804 59.3522ZM73.7553 59.5014C73.7544 59.5015 73.7534 59.5017 73.7521 59.5018C73.7413 59.5034 73.7316 59.5019 73.7243 59.4938C73.7233 59.4928 73.7224 59.4924 73.721 59.4931C73.7199 59.4935 73.7188 59.4939 73.7177 59.4943C73.7161 59.4948 73.7157 59.4956 73.7163 59.497C73.7211 59.5076 73.7259 59.5183 73.7308 59.5288C73.731 59.5294 73.7329 59.5302 73.7335 59.53C73.7421 59.527 73.7508 59.5239 73.7593 59.5207C73.76 59.5204 73.7608 59.519 73.7607 59.5184C73.7589 59.5128 73.7571 59.5072 73.7553 59.5014ZM73.823 59.4769C73.8262 59.4824 73.8294 59.4874 73.8325 59.4927C73.8333 59.4942 73.8346 59.4937 73.8359 59.4933C73.8439 59.4904 73.8518 59.4874 73.8599 59.4846C73.8625 59.4837 73.8629 59.4826 73.8618 59.4805C73.8574 59.4711 73.8533 59.4616 73.849 59.452C73.847 59.4477 73.847 59.4477 73.8421 59.4494C73.8407 59.45 73.8394 59.4504 73.8397 59.4521C73.8405 59.4615 73.8358 59.4684 73.828 59.474C73.8262 59.4751 73.8244 59.476 73.823 59.4769ZM73.7716 59.4493C73.7721 59.4618 73.7724 59.4739 73.77 59.4862C73.7762 59.4874 73.7821 59.4886 73.788 59.4895C73.7888 59.4897 73.7903 59.4889 73.7909 59.4882C73.794 59.4844 73.7967 59.4805 73.7998 59.4768C73.8007 59.4756 73.8007 59.4748 73.7994 59.4738C73.7897 59.4674 73.7815 59.4595 73.7737 59.4512C73.773 59.4506 73.7723 59.4499 73.7716 59.4493ZM73.782 59.5253C73.7846 59.5328 73.7999 59.5443 73.806 59.5443C73.8061 59.5441 73.8062 59.5439 73.8062 59.5439C73.8029 59.5366 73.7997 59.5292 73.7964 59.5221C73.7961 59.5215 73.7946 59.521 73.7939 59.5211C73.7898 59.5223 73.7859 59.5238 73.782 59.5253ZM73.8194 59.5398C73.8246 59.5338 73.8258 59.5159 73.8221 59.5106C73.8187 59.5119 73.8149 59.5133 73.8114 59.5145C73.8093 59.5153 73.809 59.5162 73.8098 59.5179C73.8124 59.5238 73.8151 59.5297 73.8177 59.5356C73.8181 59.537 73.8187 59.5382 73.8194 59.5398ZM73.7825 59.5121C73.7846 59.5114 73.7869 59.5107 73.7888 59.5097C73.7894 59.5095 73.7902 59.5079 73.7898 59.5075C73.7861 59.5017 73.7793 59.4979 73.772 59.4989C73.7704 59.4992 73.7698 59.4997 73.77 59.5011C73.7711 59.5051 73.7723 59.5091 73.7735 59.5133C73.774 59.5147 73.7752 59.515 73.7766 59.5145C73.7784 59.5136 73.7805 59.5129 73.7825 59.5121ZM73.8117 59.5017C73.8136 59.501 73.8153 59.5003 73.8172 59.4997C73.8192 59.4991 73.82 59.498 73.8188 59.4963C73.8168 59.4929 73.8147 59.4896 73.8125 59.4863C73.8114 59.4847 73.8103 59.4846 73.8086 59.4859C73.8033 59.4896 73.8005 59.4973 73.8028 59.5029C73.8031 59.5034 73.8046 59.504 73.8053 59.5039C73.8076 59.5033 73.8096 59.5024 73.8117 59.5017Z" fill="white"/>
<path d="M81.1251 65.0003L81.4456 65.8202C81.0498 66.3754 80.0423 66.4243 79.588 66.3794L79.2754 65.5397C79.2754 65.5397 79.4345 65.5248 79.5314 65.4976C79.6476 65.465 79.8116 65.3763 79.8116 65.3763L80.5948 65.9586L80.6125 65.1112C80.6125 65.1112 80.785 65.1393 80.8901 65.1157C80.9919 65.0929 81.1251 65.0003 81.1251 65.0003Z" fill="white"/>
<ellipse cx="1.88335" cy="0.499806" rx="1.88335" ry="0.499806" transform="matrix(1.01406 -0.226722 0.263969 0.919855 81.2447 75.3411)" fill="white"/>
<rect width="4.22326" height="1.61049" transform="matrix(1.01406 -0.226722 0.263969 0.919855 80.9073 74.8186)" fill="white"/>
<path d="M86.3891 89.1686C85.0954 85.7354 85.7325 84.9384 86.7735 84.6328C87.8146 84.3271 88.8655 84.6285 90.1592 88.0617C91.4529 91.4949 91.4584 97.0655 91.4584 97.0655C89.9892 93.1664 87.6828 92.6018 86.3891 89.1686Z" fill="#FF0000"/>
<path d="M87.5599 86.7204C86.2662 83.2872 86.9032 82.4902 87.9443 82.1846C88.9854 81.879 90.0363 82.1803 91.33 85.6135C92.6237 89.0467 92.6292 94.6173 92.6292 94.6173C91.1599 90.7182 88.8536 90.1536 87.5599 86.7204Z" fill="#FF0000"/>
<path d="M83.443 86.9022C82.1493 83.469 82.7863 82.6721 83.8274 82.3664C84.8684 82.0608 85.9193 82.3622 87.213 85.7954C88.5067 89.2286 88.5123 94.7991 88.5123 94.7991C87.043 90.9 84.7367 90.3354 83.443 86.9022Z" fill="#FF0000"/>
<rect width="11.8784" height="20.907" transform="matrix(0.975906 -0.218193 0.275835 0.961205 74.6418 65.3354)" fill="#B7B7B7"/>
<ellipse cx="5.93921" cy="2.10773" rx="5.93921" ry="2.10773" transform="matrix(0.975906 -0.218193 0.275835 0.961205 79.8205 83.3846)" fill="#B7B7B7"/>
<path fill-rule="evenodd" clip-rule="evenodd" d="M85.9993 61.925L74.407 64.5168L80.1739 84.6127L80.1748 84.6125C80.5243 85.7152 83.3644 86.0338 86.5462 85.3224C89.7473 84.6067 92.082 83.1195 91.7609 82.0006C91.7581 81.9908 91.7552 81.9812 91.752 81.9716L85.9993 61.925Z" fill="url(#paint0_linear_20581_1868)"/>
<path d="M74.366 64.3773C75.5111 68.3673 87.119 65.772 85.974 61.782C84.4083 56.3261 76.8168 51.7391 76.8168 51.7391C76.8168 51.7391 72.7886 58.8806 74.366 64.3773Z" fill="url(#paint1_linear_20581_1868)"/>
<path d="M73.8629 83.8426L79.574 82.5657L76.3136 71.2044C76.3136 71.2044 72.2854 78.3459 73.8629 83.8426Z" fill="url(#paint2_linear_20581_1868)"/>
<path d="M96.8929 78.6934L91.1818 79.9702L87.9214 68.6089C87.9214 68.6089 95.3155 73.1966 96.8929 78.6934Z" fill="url(#paint3_linear_20581_1868)"/>
<ellipse cx="3.97398" cy="4.49469" rx="3.97398" ry="4.49469" transform="matrix(0.975906 -0.218193 0.275835 0.961205 78 71.3203)" fill="#EDEDED"/>
<ellipse cx="3.31622" cy="3.95435" rx="3.31622" ry="3.95435" transform="matrix(0.975906 -0.218193 0.275835 0.961205 78.7897 71.6964)" fill="#888888"/>
<ellipse cx="0.254453" cy="0.400025" rx="0.254453" ry="0.400025" transform="matrix(1.05711 -0.07463 0.0845141 0.932687 79.2809 67.1011)" fill="#383838"/>
<ellipse cx="0.254453" cy="0.400025" rx="0.254453" ry="0.400025" transform="matrix(-0.973925 0.370414 0.419472 0.859291 82.417 66.3464)" fill="#383838"/>
<path fill-rule="evenodd" clip-rule="evenodd" d="M80.6274 65.8647C80.1113 65.9836 79.1706 66.4048 79.5358 67.1382C79.7805 67.6298 79.6426 67.8473 79.4936 68.0824C79.3647 68.2857 79.2275 68.5022 79.3221 68.9204C79.408 69.3003 79.5983 69.5376 79.7882 69.7744C80.0491 70.0999 80.3094 70.4244 80.2973 71.117C80.2806 72.0743 81.003 74.6451 81.3771 75.799L83.3004 75.369L83.3003 75.3685L85.1977 74.9527C84.917 73.7784 84.2272 71.2265 83.7052 70.3873C83.3374 69.796 83.4719 69.4315 83.6061 69.0682C83.7099 68.787 83.8135 68.5065 83.6837 68.1219C83.545 67.7109 83.2461 67.5598 82.9582 67.4144C82.6289 67.248 82.3141 67.0889 82.2702 66.556C82.2044 65.7577 81.1514 65.7731 80.6319 65.8808L80.6274 65.8647Z" fill="white"/>
<ellipse cx="0.614994" cy="0.866502" rx="0.614994" ry="0.866502" transform="matrix(-0.820325 0.59313 0.67178 0.723872 79.92 68.1814)" fill="url(#paint4_radial_20581_1868)"/>
<ellipse cx="0.615024" cy="0.86646" rx="0.615024" ry="0.86646" transform="matrix(-1.00374 -0.30175 -0.341796 0.885811 83.9748 67.9626)" fill="url(#paint5_radial_20581_1868)"/>
<path d="M84.6761 72.9813C83.4505 73.8067 81.5965 74.012 80.8375 73.8989L80.9584 74.2949C82.7024 74.6533 84.2303 73.8231 84.7954 73.374L84.6761 72.9813Z" fill="#005BBB"/>
<path d="M84.795 73.3609C83.3452 74.4081 81.714 74.3947 80.9527 74.2894L81.0548 74.5981C82.8064 74.9386 84.3585 74.2549 84.9134 73.8L84.795 73.3609Z" fill="#FFD500"/>
<ellipse opacity="0.2" cx="0.114076" cy="0.179316" rx="0.114076" ry="0.179316" transform="matrix(1.04396 0.164279 -0.186059 0.9212 82.204 66.4833)" fill="white"/>
<ellipse opacity="0.2" cx="0.114076" cy="0.179316" rx="0.114076" ry="0.179316" transform="matrix(1.04396 0.164279 -0.186059 0.9212 79.4428 67.1271)" fill="white"/>
<path d="M80.0933 67.9585C79.7103 66.8224 80.9053 66.3569 80.904 66.3722C82.2433 66.3941 82.409 67.4094 82.4058 67.5658C82.3967 67.9961 83.2586 68.1859 83.1493 68.6562C83.04 69.1265 83.2894 70.0016 83.2742 70.6535C83.2648 71.0531 83.1301 71.2277 83.0175 71.2893C83.0503 71.2824 83.037 71.2869 83.0047 71.2959C82.9751 71.3101 82.9475 71.3165 82.9247 71.3174C82.9544 71.3095 82.9836 71.3018 83.0047 71.2959C83.0089 71.2939 83.0132 71.2917 83.0175 71.2893C82.9743 71.2984 82.8516 71.3271 82.5879 71.3911C81.8443 71.5716 81.5537 70.715 80.6297 69.8657C79.7057 69.0164 80.5722 69.3787 80.0933 67.9585Z" fill="#FF6B0A"/>
<path d="M82.4715 70.9699C81.8599 71.0549 81.3367 69.9243 81.1516 69.3484C81.4994 69.1963 82.2687 68.9213 82.564 69.0389C82.933 69.186 83.2361 70.8637 82.4715 70.9699Z" fill="#383838"/>
<path d="M82.5493 70.7946C82.9553 70.6566 82.5954 69.8759 82.3647 69.5028L81.551 69.6812C81.7146 70.1098 82.1433 70.9327 82.5493 70.7946Z" fill="#956C7C"/>
<path d="M82.422 70.5151C82.4931 70.4416 82.1414 69.6681 81.9567 69.2906L81.7827 69.3466C81.9661 69.7668 82.3508 70.5887 82.422 70.5151Z" fill="#86616F"/>
<path d="M80.7806 68.9558C80.971 68.1077 80.6169 67.7383 80.416 67.6596C80.8384 66.7887 81.6832 67.0576 82.0529 67.3009C81.7848 68.1485 81.9731 67.4762 82.6045 68.5561C83.1096 69.4201 82.5108 69.8826 82.1483 70.0059C81.613 70.0092 80.5901 69.8039 80.7806 68.9558Z" fill="#EB6005"/>
<path d="M82.7652 68.9284C81.4841 67.989 81.0136 68.985 80.9384 69.6004C81.0907 69.8124 81.5511 70.1901 82.1741 70.0045C82.7971 69.8189 82.8277 69.2098 82.7652 68.9284Z" fill="#EFE5D5"/>
<path d="M81.6551 69.0177C81.6171 68.9222 81.5286 68.7494 81.4791 68.8228C81.4295 68.8962 81.5758 68.9833 81.6551 69.0177Z" fill="#DACAB0"/>
<path d="M81.8652 68.9719C81.8306 68.8753 81.7837 68.6903 81.8733 68.7227C81.9628 68.7551 81.9052 68.9023 81.8652 68.9719Z" fill="#DACAB0"/>
<path d="M81.1251 65.0003L81.4456 65.8202C81.0498 66.3754 80.0423 66.4243 79.588 66.3794L79.2754 65.5397L81.1251 65.0003Z" fill="#2B2900"/>
<path d="M81.4451 65.82C81.4526 66.2992 81.0683 67.0431 79.5877 66.3726L81.4451 65.82Z" fill="#2B2900"/>
<ellipse cx="0.920007" cy="0.158651" rx="0.920007" ry="0.158651" transform="matrix(1.00873 -0.288837 0.327097 0.890015 79.222 65.394)" fill="#2B2900"/>
<path d="M73.6482 59.3787C73.6519 59.3793 73.655 59.3797 73.658 59.3805C73.6822 59.3861 73.6999 59.3964 73.7131 59.4152C73.7187 59.4232 73.7233 59.4319 73.7283 59.44C73.7327 59.4473 73.737 59.4544 73.7415 59.4616C73.7427 59.4635 73.7427 59.4645 73.7403 59.4657C73.7351 59.468 73.7316 59.4719 73.7314 59.4774C73.7312 59.4822 73.7338 59.4859 73.7381 59.4882C73.7426 59.4907 73.7475 59.4906 73.7523 59.489C73.7547 59.4881 73.7559 59.4867 73.7562 59.4843C73.7595 59.4658 73.7582 59.4476 73.7528 59.4296C73.7484 59.4147 73.7407 59.4009 73.7337 59.387C73.7298 59.3791 73.7262 59.3709 73.7219 59.3631C73.7193 59.3582 73.7173 59.3533 73.7166 59.3479C73.7158 59.3425 73.7163 59.337 73.7184 59.3315C73.7242 59.3338 73.7289 59.3374 73.7323 59.3419C73.7353 59.3462 73.7378 59.351 73.7401 59.3556C73.7425 59.3606 73.7441 59.3659 73.7462 59.3709C73.7516 59.3842 73.7568 59.3975 73.7627 59.4106C73.7727 59.4324 73.788 59.4506 73.8089 59.4648C73.8117 59.4668 73.8142 59.4667 73.8171 59.4653C73.8244 59.462 73.8278 59.4548 73.8249 59.4484C73.8223 59.4425 73.814 59.4393 73.8065 59.4417C73.8037 59.4425 73.8032 59.4417 73.8026 59.4396C73.7994 59.4288 73.796 59.418 73.7926 59.4072C73.789 59.395 73.7845 59.383 73.785 59.37C73.7856 59.353 73.7917 59.3395 73.8029 59.3255C73.8037 59.3245 73.8046 59.3236 73.8058 59.3221C73.8064 59.3234 73.8067 59.3243 73.8071 59.3251C73.8316 59.3796 73.855 59.4319 73.8795 59.4864C73.8809 59.4895 73.8809 59.4895 73.8776 59.4907C73.865 59.4952 73.8524 59.4998 73.8399 59.5043C73.8377 59.5051 73.837 59.506 73.8374 59.5081C73.8404 59.5243 73.8374 59.5398 73.8278 59.5541C73.8259 59.5571 73.8245 59.5605 73.8228 59.5638C73.8124 59.559 73.8001 59.5575 73.7903 59.5511C73.7822 59.5458 73.7749 59.5398 73.7695 59.5322C73.7682 59.5306 73.767 59.5303 73.7651 59.531C73.7522 59.5357 73.7396 59.5402 73.7268 59.5448C73.7245 59.5456 73.7234 59.5456 73.7224 59.5433C73.6978 59.4885 73.6742 59.4358 73.6496 59.381C73.6491 59.3809 73.6489 59.3803 73.6482 59.3787ZM73.6734 59.3988C73.6731 59.399 73.6726 59.3992 73.6724 59.3995C73.6728 59.4005 73.6733 59.4014 73.6737 59.4024C73.6855 59.4288 73.6964 59.453 73.7082 59.4793C73.7102 59.4837 73.7102 59.4837 73.7152 59.4819C73.7171 59.4812 73.7179 59.4804 73.7176 59.4786C73.7172 59.4727 73.7192 59.4674 73.7233 59.463C73.725 59.461 73.7248 59.4596 73.7236 59.4578C73.7178 59.4486 73.7118 59.4393 73.7065 59.4299C73.7008 59.4202 73.6948 59.4135 73.6852 59.4067C73.6813 59.4038 73.6773 59.4015 73.6734 59.3988ZM73.804 59.3522C73.8037 59.3523 73.8035 59.3523 73.8032 59.3524C73.8027 59.3538 73.8023 59.3553 73.802 59.3567C73.7996 59.3674 73.7975 59.3758 73.8004 59.3864C73.8042 59.3998 73.8083 59.413 73.8123 59.4263C73.8127 59.4281 73.8137 59.4291 73.816 59.4294C73.8225 59.4302 73.828 59.4326 73.8324 59.4371C73.8344 59.4391 73.8364 59.4391 73.8402 59.4369C73.8425 59.4356 73.8408 59.4342 73.8402 59.4329C73.8282 59.4062 73.8172 59.3815 73.8051 59.3546C73.8049 59.3537 73.8045 59.3529 73.804 59.3522ZM73.7553 59.5014C73.7544 59.5015 73.7534 59.5017 73.7521 59.5018C73.7413 59.5034 73.7316 59.5019 73.7243 59.4938C73.7233 59.4928 73.7224 59.4924 73.721 59.4931C73.7199 59.4935 73.7188 59.4939 73.7177 59.4943C73.7161 59.4948 73.7157 59.4956 73.7163 59.497C73.7211 59.5076 73.7259 59.5183 73.7308 59.5288C73.731 59.5294 73.7329 59.5302 73.7335 59.53C73.7421 59.527 73.7508 59.5239 73.7593 59.5207C73.76 59.5204 73.7608 59.519 73.7607 59.5184C73.7589 59.5128 73.7571 59.5072 73.7553 59.5014ZM73.823 59.4769C73.8262 59.4824 73.8294 59.4874 73.8325 59.4927C73.8333 59.4942 73.8346 59.4937 73.8359 59.4933C73.8439 59.4904 73.8518 59.4874 73.8599 59.4846C73.8625 59.4837 73.8629 59.4826 73.8618 59.4805C73.8574 59.4711 73.8533 59.4616 73.849 59.452C73.847 59.4477 73.847 59.4477 73.8421 59.4494C73.8407 59.45 73.8394 59.4504 73.8397 59.4521C73.8405 59.4615 73.8358 59.4684 73.828 59.474C73.8262 59.4751 73.8244 59.476 73.823 59.4769ZM73.7716 59.4493C73.7721 59.4618 73.7724 59.4739 73.77 59.4862C73.7762 59.4874 73.7821 59.4886 73.788 59.4895C73.7888 59.4897 73.7903 59.4889 73.7909 59.4882C73.794 59.4844 73.7967 59.4805 73.7998 59.4768C73.8007 59.4756 73.8007 59.4748 73.7994 59.4738C73.7897 59.4674 73.7815 59.4595 73.7737 59.4512C73.773 59.4506 73.7723 59.4499 73.7716 59.4493ZM73.782 59.5253C73.7846 59.5328 73.7999 59.5443 73.806 59.5443C73.8061 59.5441 73.8062 59.5439 73.8062 59.5439C73.8029 59.5366 73.7997 59.5292 73.7964 59.5221C73.7961 59.5215 73.7946 59.521 73.7939 59.5211C73.7898 59.5223 73.7859 59.5238 73.782 59.5253ZM73.8194 59.5398C73.8246 59.5338 73.8258 59.5159 73.8221 59.5106C73.8187 59.5119 73.8149 59.5133 73.8114 59.5145C73.8093 59.5153 73.809 59.5162 73.8098 59.5179C73.8124 59.5238 73.8151 59.5297 73.8177 59.5356C73.8181 59.537 73.8187 59.5382 73.8194 59.5398ZM73.7825 59.5121C73.7846 59.5114 73.7869 59.5107 73.7888 59.5097C73.7894 59.5095 73.7902 59.5079 73.7898 59.5075C73.7861 59.5017 73.7793 59.4979 73.772 59.4989C73.7704 59.4992 73.7698 59.4997 73.77 59.5011C73.7711 59.5051 73.7723 59.5091 73.7735 59.5133C73.774 59.5147 73.7752 59.515 73.7766 59.5145C73.7784 59.5136 73.7805 59.5129 73.7825 59.5121ZM73.8117 59.5017C73.8136 59.501 73.8153 59.5003 73.8172 59.4997C73.8192 59.4991 73.82 59.498 73.8188 59.4963C73.8168 59.4929 73.8147 59.4896 73.8125 59.4863C73.8114 59.4847 73.8103 59.4846 73.8086 59.4859C73.8033 59.4896 73.8005 59.4973 73.8028 59.5029C73.8031 59.5034 73.8046 59.504 73.8053 59.5039C73.8076 59.5033 73.8096 59.5024 73.8117 59.5017Z" fill="#FFD500"/>
<path d="M81.1251 65.0003L81.4456 65.8202C81.0498 66.3754 80.0423 66.4243 79.588 66.3794L79.2754 65.5397C79.2754 65.5397 79.4345 65.5248 79.5314 65.4976C79.6476 65.465 79.8116 65.3763 79.8116 65.3763L80.5948 65.9586L80.6125 65.1112C80.6125 65.1112 80.785 65.1393 80.8901 65.1157C80.9919 65.0929 81.1251 65.0003 81.1251 65.0003Z" fill="#4B4800"/>
<ellipse cx="1.88335" cy="0.499806" rx="1.88335" ry="0.499806" transform="matrix(1.01406 -0.226722 0.263969 0.919855 81.2447 75.3411)" fill="white"/>
<rect width="4.22326" height="1.61049" transform="matrix(1.01406 -0.226722 0.263969 0.919855 80.9073 74.8186)" fill="url(#paint6_linear_20581_1868)"/>
<path d="M80.3223 65.0647C80.2745 65.1894 80.3488 65.3145 80.352 65.3198L80.3582 65.3299L80.3691 65.3263C80.3724 65.3255 80.3918 65.3211 80.4024 65.3504C80.4119 65.3756 80.3869 65.3918 80.3765 65.3981C80.3616 65.3898 80.3077 65.3518 80.2356 65.2044C80.2322 65.1969 80.2287 65.1894 80.2252 65.1819C80.2252 65.1819 80.203 65.1276 80.195 65.104L80.1594 65.0734L80.1585 65.1194C80.1714 65.1408 80.1985 65.1928 80.1985 65.1928C80.202 65.2003 80.2054 65.2078 80.2089 65.2153C80.2749 65.3655 80.2695 65.4318 80.2658 65.4479C80.254 65.4527 80.2258 65.4604 80.2127 65.4369C80.1972 65.4099 80.2131 65.3979 80.2158 65.3959L80.2256 65.3899L80.2219 65.3787C80.2199 65.3728 80.1724 65.2353 80.0462 65.1912L80.016 65.1817L80.2036 65.5862L80.2918 65.5453C80.3266 65.6013 80.4001 65.6211 80.4035 65.6219L80.4145 65.6251L80.4193 65.6145C80.4208 65.6115 80.4538 65.5423 80.4329 65.4798L80.5211 65.4389L80.3334 65.0344L80.3223 65.0647ZM80.1926 65.3793C80.1822 65.3903 80.1731 65.4104 80.1822 65.4366L80.1682 65.4431L80.0714 65.2343C80.1442 65.2749 80.1811 65.3528 80.1926 65.3793ZM80.272 65.5074L80.2784 65.5196L80.217 65.5481L80.1801 65.4687L80.1959 65.4614C80.2142 65.4833 80.2411 65.4837 80.2632 65.4788C80.2653 65.493 80.2711 65.5055 80.272 65.5074ZM80.2972 65.4949C80.294 65.488 80.29 65.4777 80.2902 65.4701C80.315 65.4646 80.3298 65.4806 80.3377 65.4928L80.3042 65.5084L80.2972 65.4949ZM80.3801 65.5826C80.36 65.5729 80.3344 65.5574 80.3179 65.5331L80.3502 65.5182L80.3801 65.5826ZM80.3347 65.4433C80.334 65.4452 80.3337 65.4476 80.3333 65.45C80.3313 65.4487 80.3295 65.448 80.3274 65.4467C80.3172 65.4423 80.3064 65.4397 80.2955 65.4402C80.2971 65.4213 80.2958 65.3915 80.2849 65.3456C80.3129 65.3836 80.3351 65.4044 80.3503 65.4148C80.3429 65.4228 80.3376 65.4321 80.3347 65.4433ZM80.4047 65.5704L80.3751 65.5066L80.4074 65.4917C80.4156 65.519 80.4108 65.5485 80.4047 65.5704ZM80.3915 65.4512L80.397 65.4646L80.3635 65.4801C80.3593 65.4661 80.3567 65.4445 80.3768 65.4291C80.3831 65.4346 80.3883 65.4443 80.3915 65.4512ZM80.3708 65.2966C80.3577 65.2716 80.3227 65.1929 80.3384 65.1104L80.4353 65.3192L80.4213 65.3257C80.4069 65.3012 80.3865 65.2954 80.3708 65.2966ZM80.4225 65.4527L80.4174 65.4399C80.4165 65.438 80.4113 65.4253 80.4018 65.4145C80.4196 65.4017 80.4362 65.3803 80.4319 65.3519L80.4478 65.3445L80.4846 65.4239L80.4225 65.4527Z" fill="#F2CD13"/>
<path d="M87.7588 66.9354H87.4299L87.5975 66.6524C87.909 66.1262 88.0832 65.5407 87.891 64.9779C87.6991 64.416 87.1206 63.8149 85.7803 63.3075C85.1105 63.0539 84.5137 62.8582 83.9715 62.6804C83.8275 62.6331 83.6873 62.5872 83.5507 62.5417C82.9026 62.3262 82.3306 62.1214 81.8191 61.8497C80.7802 61.2979 80.011 60.4812 79.2903 58.7987C77.9834 55.7476 78.2741 53.34 79.3444 51.5799C80.4091 49.8288 82.2282 48.7469 83.9314 48.3021C85.6228 47.8603 90.2177 47.3724 94.7853 47.4671C97.0713 47.5145 99.3603 47.7079 101.283 48.1293C103.196 48.5485 104.786 49.2015 105.63 50.1986C107.26 52.124 108.1 54.4599 108.181 56.552C108.261 58.6384 107.585 60.5198 106.133 61.4793C105.55 61.8638 104.505 62.2004 103.26 62.4893C102.006 62.7802 100.523 63.0286 99.0456 63.2264C96.2017 63.6071 93.3533 63.8037 92.1874 63.7493C91.8133 64.4309 91.255 65.2005 90.5392 65.8125C89.7853 66.4571 88.8462 66.9354 87.7588 66.9354Z" fill="white" stroke="#383838" stroke-width="0.375"/>
<path d="M81.4679 56.9813L81.6179 56.6333C81.7079 56.6873 81.8039 56.7293 81.9059 56.7593C82.0099 56.7873 82.1109 56.8033 82.2089 56.8073C82.3089 56.8093 82.3989 56.7993 82.4789 56.7773C82.5609 56.7553 82.6259 56.7223 82.6739 56.6783C82.7239 56.6343 82.7489 56.5783 82.7489 56.5103C82.7489 56.4303 82.7159 56.3713 82.6499 56.3333C82.5839 56.2933 82.4959 56.2733 82.3859 56.2733H81.8729V55.9073H82.3499C82.4479 55.9073 82.5239 55.8873 82.5779 55.8473C82.6339 55.8073 82.6619 55.7523 82.6619 55.6823C82.6619 55.6223 82.6419 55.5743 82.6019 55.5383C82.5619 55.5003 82.5069 55.4723 82.4369 55.4543C82.3689 55.4363 82.2919 55.4283 82.2059 55.4303C82.1199 55.4323 82.0309 55.4463 81.9389 55.4723C81.8469 55.4983 81.7589 55.5343 81.6749 55.5803L81.5279 55.2053C81.6639 55.1353 81.8069 55.0873 81.9569 55.0613C82.1089 55.0333 82.2549 55.0263 82.3949 55.0403C82.5369 55.0523 82.6649 55.0843 82.7789 55.1363C82.8929 55.1863 82.9839 55.2523 83.0519 55.3343C83.1199 55.4163 83.1539 55.5133 83.1539 55.6253C83.1539 55.7253 83.1279 55.8143 83.0759 55.8923C83.0239 55.9703 82.9509 56.0303 82.8569 56.0723C82.7649 56.1143 82.6589 56.1353 82.5389 56.1353L82.5509 56.0273C82.6909 56.0273 82.8119 56.0513 82.9139 56.0993C83.0179 56.1453 83.0979 56.2103 83.1539 56.2943C83.2119 56.3763 83.2409 56.4713 83.2409 56.5793C83.2409 56.6793 83.2139 56.7693 83.1599 56.8493C83.1079 56.9273 83.0359 56.9933 82.9439 57.0473C82.8519 57.1013 82.7469 57.1413 82.6289 57.1673C82.5109 57.1933 82.3849 57.2043 82.2509 57.2003C82.1189 57.1963 81.9859 57.1773 81.8519 57.1433C81.7179 57.1073 81.5899 57.0533 81.4679 56.9813ZM84.5556 57.1673V56.8523L84.5256 56.7833V56.2193C84.5256 56.1193 84.4946 56.0413 84.4326 55.9853C84.3726 55.9293 84.2796 55.9013 84.1536 55.9013C84.0676 55.9013 83.9826 55.9153 83.8986 55.9433C83.8166 55.9693 83.7466 56.0053 83.6886 56.0513L83.5206 55.7243C83.6086 55.6623 83.7146 55.6143 83.8386 55.5803C83.9626 55.5463 84.0886 55.5293 84.2166 55.5293C84.4626 55.5293 84.6536 55.5873 84.7896 55.7033C84.9256 55.8193 84.9936 56.0003 84.9936 56.2463V57.1673H84.5556ZM84.0636 57.1913C83.9376 57.1913 83.8296 57.1703 83.7396 57.1283C83.6496 57.0843 83.5806 57.0253 83.5326 56.9513C83.4846 56.8773 83.4606 56.7943 83.4606 56.7023C83.4606 56.6063 83.4836 56.5223 83.5296 56.4503C83.5776 56.3783 83.6526 56.3223 83.7546 56.2823C83.8566 56.2403 83.9896 56.2193 84.1536 56.2193H84.5826V56.4923H84.2046C84.0946 56.4923 84.0186 56.5103 83.9766 56.5463C83.9366 56.5823 83.9166 56.6273 83.9166 56.6813C83.9166 56.7413 83.9396 56.7893 83.9856 56.8253C84.0336 56.8593 84.0986 56.8763 84.1806 56.8763C84.2586 56.8763 84.3286 56.8583 84.3906 56.8223C84.4526 56.7843 84.4976 56.7293 84.5256 56.6573L84.5976 56.8733C84.5636 56.9773 84.5016 57.0563 84.4116 57.1103C84.3216 57.1643 84.2056 57.1913 84.0636 57.1913ZM85.4002 57.1673V55.5533H87.0052V57.1673H86.5372V55.8323L86.6422 55.9373H85.7602L85.8652 55.8323V57.1673H85.4002ZM87.6729 57.7733C87.5889 57.7733 87.5059 57.7603 87.4239 57.7343C87.3419 57.7083 87.2749 57.6723 87.2229 57.6263L87.3939 57.2933C87.4299 57.3253 87.4709 57.3503 87.5169 57.3683C87.5649 57.3863 87.6119 57.3953 87.6579 57.3953C87.7239 57.3953 87.7759 57.3793 87.8139 57.3473C87.8539 57.3173 87.8899 57.2663 87.9219 57.1943L88.0059 56.9963L88.0419 56.9453L88.6209 55.5533H89.0709L88.3419 57.2663C88.2899 57.3963 88.2299 57.4983 88.1619 57.5723C88.0959 57.6463 88.0219 57.6983 87.9399 57.7283C87.8599 57.7583 87.7709 57.7733 87.6729 57.7733ZM87.9489 57.2303L87.2289 55.5533H87.7119L88.2699 56.9033L87.9489 57.2303ZM90.0207 57.1913C89.8467 57.1913 89.6917 57.1563 89.5557 57.0863C89.4197 57.0143 89.3127 56.9153 89.2347 56.7893C89.1587 56.6633 89.1207 56.5203 89.1207 56.3603C89.1207 56.1983 89.1587 56.0553 89.2347 55.9313C89.3127 55.8053 89.4197 55.7073 89.5557 55.6373C89.6917 55.5653 89.8467 55.5293 90.0207 55.5293C90.1907 55.5293 90.3387 55.5653 90.4647 55.6373C90.5907 55.7073 90.6837 55.8083 90.7437 55.9403L90.3807 56.1353C90.3387 56.0593 90.2857 56.0033 90.2217 55.9673C90.1597 55.9313 90.0917 55.9133 90.0177 55.9133C89.9377 55.9133 89.8657 55.9313 89.8017 55.9673C89.7377 56.0033 89.6867 56.0543 89.6487 56.1203C89.6127 56.1863 89.5947 56.2663 89.5947 56.3603C89.5947 56.4543 89.6127 56.5343 89.6487 56.6003C89.6867 56.6663 89.7377 56.7173 89.8017 56.7533C89.8657 56.7893 89.9377 56.8073 90.0177 56.8073C90.0917 56.8073 90.1597 56.7903 90.2217 56.7563C90.2857 56.7203 90.3387 56.6633 90.3807 56.5853L90.7437 56.7833C90.6837 56.9133 90.5907 57.0143 90.4647 57.0863C90.3387 57.1563 90.1907 57.1913 90.0207 57.1913ZM92.1711 57.1673L91.6311 56.4023L92.0121 56.1773L92.7231 57.1673H92.1711ZM91.0281 57.1673V55.5533H91.4961V57.1673H91.0281ZM91.3581 56.5553V56.1803H91.9221V56.5553H91.3581ZM92.0571 56.4143L91.6191 56.3663L92.1861 55.5533H92.6841L92.0571 56.4143ZM93.8896 57.1673V56.8523L93.8596 56.7833V56.2193C93.8596 56.1193 93.8286 56.0413 93.7666 55.9853C93.7066 55.9293 93.6136 55.9013 93.4876 55.9013C93.4016 55.9013 93.3166 55.9153 93.2326 55.9433C93.1506 55.9693 93.0806 56.0053 93.0226 56.0513L92.8546 55.7243C92.9426 55.6623 93.0486 55.6143 93.1726 55.5803C93.2966 55.5463 93.4226 55.5293 93.5506 55.5293C93.7966 55.5293 93.9876 55.5873 94.1236 55.7033C94.2596 55.8193 94.3276 56.0003 94.3276 56.2463V57.1673H93.8896ZM93.3976 57.1913C93.2716 57.1913 93.1636 57.1703 93.0736 57.1283C92.9836 57.0843 92.9146 57.0253 92.8666 56.9513C92.8186 56.8773 92.7946 56.7943 92.7946 56.7023C92.7946 56.6063 92.8176 56.5223 92.8636 56.4503C92.9116 56.3783 92.9866 56.3223 93.0886 56.2823C93.1906 56.2403 93.3236 56.2193 93.4876 56.2193H93.9166V56.4923H93.5386C93.4286 56.4923 93.3526 56.5103 93.3106 56.5463C93.2706 56.5823 93.2506 56.6273 93.2506 56.6813C93.2506 56.7413 93.2736 56.7893 93.3196 56.8253C93.3676 56.8593 93.4326 56.8763 93.5146 56.8763C93.5926 56.8763 93.6626 56.8583 93.7246 56.8223C93.7866 56.7843 93.8316 56.7293 93.8596 56.6573L93.9316 56.8733C93.8976 56.9773 93.8356 57.0563 93.7456 57.1103C93.6556 57.1643 93.5396 57.1913 93.3976 57.1913ZM94.7342 57.1673V55.5533H95.1992V56.5133L95.9852 55.5533H96.4142V57.1673H95.9492V56.2073L95.1662 57.1673H94.7342ZM95.5442 55.3793C95.3682 55.3793 95.2362 55.3413 95.1482 55.2653C95.0602 55.1873 95.0152 55.0703 95.0132 54.9143H95.3192C95.3212 54.9823 95.3402 55.0363 95.3762 55.0763C95.4122 55.1163 95.4672 55.1363 95.5412 55.1363C95.6132 55.1363 95.6682 55.1163 95.7062 55.0763C95.7462 55.0363 95.7662 54.9823 95.7662 54.9143H96.0782C96.0782 55.0703 96.0332 55.1873 95.9432 55.2653C95.8532 55.3413 95.7202 55.3793 95.5442 55.3793ZM97.7136 57.1673V55.5533H99.0066V55.9373H98.0736L98.1786 55.8353V57.1673H97.7136ZM99.4824 57.7733C99.3984 57.7733 99.3154 57.7603 99.2334 57.7343C99.1514 57.7083 99.0844 57.6723 99.0324 57.6263L99.2034 57.2933C99.2394 57.3253 99.2804 57.3503 99.3264 57.3683C99.3744 57.3863 99.4214 57.3953 99.4674 57.3953C99.5334 57.3953 99.5854 57.3793 99.6234 57.3473C99.6634 57.3173 99.6994 57.2663 99.7314 57.1943L99.8154 56.9963L99.8514 56.9453L100.43 55.5533H100.88L100.151 57.2663C100.099 57.3963 100.039 57.4983 99.9714 57.5723C99.9054 57.6463 99.8314 57.6983 99.7494 57.7283C99.6694 57.7583 99.5804 57.7733 99.4824 57.7733ZM99.7584 57.2303L99.0384 55.5533H99.5214L100.079 56.9033L99.7584 57.2303ZM101.83 57.1913C101.656 57.1913 101.501 57.1563 101.365 57.0863C101.229 57.0143 101.122 56.9153 101.044 56.7893C100.968 56.6633 100.93 56.5203 100.93 56.3603C100.93 56.1983 100.968 56.0553 101.044 55.9313C101.122 55.8053 101.229 55.7073 101.365 55.6373C101.501 55.5653 101.656 55.5293 101.83 55.5293C102 55.5293 102.148 55.5653 102.274 55.6373C102.4 55.7073 102.493 55.8083 102.553 55.9403L102.19 56.1353C102.148 56.0593 102.095 56.0033 102.031 55.9673C101.969 55.9313 101.901 55.9133 101.827 55.9133C101.747 55.9133 101.675 55.9313 101.611 55.9673C101.547 56.0033 101.496 56.0543 101.458 56.1203C101.422 56.1863 101.404 56.2663 101.404 56.3603C101.404 56.4543 101.422 56.5343 101.458 56.6003C101.496 56.6663 101.547 56.7173 101.611 56.7533C101.675 56.7893 101.747 56.8073 101.827 56.8073C101.901 56.8073 101.969 56.7903 102.031 56.7563C102.095 56.7203 102.148 56.6633 102.19 56.5853L102.553 56.7833C102.493 56.9133 102.4 57.0143 102.274 57.0863C102.148 57.1563 102 57.1913 101.83 57.1913ZM103.817 57.1673V56.6303L103.883 56.7053H103.436C103.204 56.7053 103.022 56.6573 102.89 56.5613C102.758 56.4653 102.692 56.3273 102.692 56.1473C102.692 55.9553 102.761 55.8083 102.899 55.7063C103.039 55.6043 103.227 55.5533 103.463 55.5533H104.234V57.1673H103.817ZM102.668 57.1673L103.097 56.5523H103.574L103.166 57.1673H102.668ZM103.817 56.4863V55.8143L103.883 55.9343H103.472C103.376 55.9343 103.301 55.9523 103.247 55.9883C103.195 56.0243 103.169 56.0823 103.169 56.1623C103.169 56.3163 103.268 56.3933 103.466 56.3933H103.883L103.817 56.4863ZM104.707 56.4383L104.614 55.0673H105.172L105.079 56.4383H104.707ZM104.893 57.1913C104.809 57.1913 104.74 57.1643 104.686 57.1103C104.632 57.0563 104.605 56.9923 104.605 56.9183C104.605 56.8423 104.632 56.7793 104.686 56.7293C104.74 56.6773 104.809 56.6513 104.893 56.6513C104.979 56.6513 105.048 56.6773 105.1 56.7293C105.154 56.7793 105.181 56.8423 105.181 56.9183C105.181 56.9923 105.154 57.0563 105.1 57.1103C105.048 57.1643 104.979 57.1913 104.893 57.1913Z" fill="#383838"/>
</g>
<defs>
<linearGradient id="paint0_linear_20581_1868" x1="76.3209" y1="69.9147" x2="93.7963" y2="70.4017" gradientUnits="userSpaceOnUse">
<stop stop-color="#C8C8C8"/>
<stop offset="1" stop-color="white"/>
</linearGradient>
<linearGradient id="paint1_linear_20581_1868" x1="74.5478" y1="63.7376" x2="86.524" y2="53.3125" gradientUnits="userSpaceOnUse">
<stop stop-color="#C8C8C8"/>
<stop offset="1" stop-color="white"/>
</linearGradient>
<linearGradient id="paint2_linear_20581_1868" x1="73.2242" y1="80.9906" x2="80.2869" y2="76.5157" gradientUnits="userSpaceOnUse">
<stop stop-color="#C8C8C8"/>
<stop offset="1" stop-color="white"/>
</linearGradient>
<linearGradient id="paint3_linear_20581_1868" x1="95.9164" y1="75.9169" x2="87.2789" y2="75.7823" gradientUnits="userSpaceOnUse">
<stop stop-color="#C8C8C8"/>
<stop offset="1" stop-color="white"/>
</linearGradient>
<radialGradient id="paint4_radial_20581_1868" cx="0" cy="0" r="1" gradientUnits="userSpaceOnUse" gradientTransform="translate(0.614994 0.866502) rotate(90) scale(0.866502 0.614994)">
<stop stop-color="#FFBBBB"/>
<stop offset="1" stop-color="#FFBBBB" stop-opacity="0"/>
</radialGradient>
<radialGradient id="paint5_radial_20581_1868" cx="0" cy="0" r="1" gradientUnits="userSpaceOnUse" gradientTransform="translate(0.615024 0.86646) rotate(90) scale(0.86646 0.615024)">
<stop stop-color="#FFBBBB"/>
<stop offset="1" stop-color="#FFBBBB" stop-opacity="0"/>
</radialGradient>
<linearGradient id="paint6_linear_20581_1868" x1="2.11163" y1="0" x2="2.11163" y2="1.61049" gradientUnits="userSpaceOnUse">
<stop stop-color="#888888" stop-opacity="0"/>
<stop offset="1" stop-color="#888888"/>
</linearGradient>
<clipPath id="clip0_20581_1868">
<rect width="58.5542" height="58.5542" fill="white" transform="translate(55.7229 42.2531)"/>
</clipPath>
</defs>
</svg>
