<svg xmlns="http://www.w3.org/2000/svg" width="180" height="144" fill="none"><rect width="59.057" height="123.394" x="61.472" y="10.472" fill="#fff" stroke="#383838" stroke-width=".943" rx="13.676"/><rect width="13.375" height="20.119" x="66.927" y="16.587" fill="snow" stroke="#383838" stroke-width=".943" rx="6.688"/><g clip-path="url(#a)"><mask id="b" width="9.165" height="12.844" x="81.364" y="63.573" fill="#000" maskUnits="userSpaceOnUse"><path fill="#fff" d="M81.364 63.573h9.165v12.844h-9.165z"/><path fill-rule="evenodd" d="m85.643 65.802-.305-.782s-.128.088-.225.11c-.1.022-.264-.004-.264-.004l-.017.808-.748-.555s-.156.084-.267.115c-.092.026-.244.04-.244.04l.298.801c.434.043 1.395-.003 1.772-.533Zm3.573 7.672-4.086.913.405 1.414 4.086-.914-.405-1.413Z" clip-rule="evenodd"/></mask><path fill="#8C8C8C" fill-rule="evenodd" d="m85.643 65.802-.305-.782s-.128.088-.225.11c-.1.022-.264-.004-.264-.004l-.017.808-.748-.555s-.156.084-.267.115c-.092.026-.244.04-.244.04l.298.801c.434.043 1.395-.003 1.772-.533Zm3.573 7.672-4.086.913.405 1.414 4.086-.914-.405-1.413Z" clip-rule="evenodd"/><path fill="#383838" d="m85.338 65.02.354-.115-.183-.47-.403.28.232.305Zm.305.782.317.221.11-.154-.072-.182-.355.115Zm-.53-.672.104.36-.104-.36Zm-.264-.004.043-.365-.415-.067-.009.405.38.027Zm-.017.808-.221.29.586.435.015-.698-.38-.027Zm-.748-.555.221-.29-.204-.152-.215.116.198.326Zm-.267.115.123.356-.123-.356Zm-.244.04-.056-.367-.463.043.162.434.357-.11Zm.298.801-.357.11.087.233.251.025.019-.368Zm1.259 8.052-.104-.36-.366.082.104.36.366-.082Zm4.086-.913.366-.082-.104-.36-.366.081.104.36Zm-3.68 2.327-.367.081.104.361.366-.082-.104-.36Zm4.085-.914.104.36.366-.081-.104-.36-.366.081Zm-4.638-9.752.306.782.709-.23-.306-.782-.71.23Zm.234.355a.95.95 0 0 0 .249-.101l.071-.043.022-.015.006-.004.003-.002h.001l-.231-.305-.232-.305a.82.82 0 0 1-.047.029c-.04.022-.057.027-.05.025l.208.721Zm-.368-.364-.044.364h.005l.008.002a2.716 2.716 0 0 0 .117.013c.06.004.174.01.282-.015l-.207-.72c.007-.002-.011.001-.058-.002a.825.825 0 0 1-.046-.005l-.013-.002h-.002.001l-.043.365Zm.363.835.017-.809-.76-.053-.018.808.76.054Zm-1.349-.293.748.555.442-.578-.748-.556-.442.579Zm.077.182a1.588 1.588 0 0 0 .31-.129l.022-.012.007-.004h.002v-.001h.001l-.198-.325-.197-.326-.004.002a.904.904 0 0 1-.188.083l.245.712Zm-.367-.316.056.368h.01a1.426 1.426 0 0 0 .094-.012c.052-.007.135-.02.207-.04l-.246-.711a.939.939 0 0 1-.159.026l-.015.001h-.003l.056.368Zm.655.692-.298-.801-.714.219.298.801.714-.219Zm1.1-.645c-.115.16-.343.276-.65.341a2.77 2.77 0 0 1-.788.046l-.038.735c.25.025.64.024 1.026-.058.377-.08.818-.252 1.082-.622l-.633-.442Zm-.095 9.167 4.086-.914-.207-.72-4.086.913.207.72Zm.668.97-.405-1.413-.732.164.406 1.413.731-.163Zm3.617-1.191-4.086.913.207.721 4.086-.913-.207-.721Zm-.668-.971.405 1.413.732-.164-.405-1.413-.732.164Z" mask="url(#b)"/><ellipse cx="3.974" cy="4.495" fill="#fff" rx="3.974" ry="4.495" transform="matrix(.9759 -.2182 .27583 .9612 83 71.32)"/><ellipse cx="3.316" cy="3.954" fill="#fff" rx="3.316" ry="3.954" transform="matrix(.9759 -.2182 .27583 .9612 83.79 71.696)"/><ellipse cx=".254" cy=".4" fill="#fff" rx=".254" ry=".4" transform="matrix(1.05711 -.07463 .08451 .93269 84.28 67.101)"/><ellipse cx=".254" cy=".4" fill="#fff" rx=".254" ry=".4" transform="matrix(-.97393 .37041 .41947 .8593 87.417 66.346)"/><path fill="#fff" fill-rule="evenodd" d="M85.627 65.865c-.516.119-1.456.54-1.091 1.273.245.492.107.71-.042.944-.13.204-.266.42-.172.838.086.38.276.618.466.854.261.326.521.65.51 1.343-.017.957.705 3.528 1.08 4.682l1.922-.43 1.898-.416c-.281-1.175-.97-3.727-1.493-4.566-.368-.591-.233-.956-.099-1.319.104-.281.208-.561.078-.946-.139-.411-.438-.562-.726-.708-.33-.166-.644-.325-.688-.858-.066-.798-1.119-.783-1.638-.675l-.005-.016Z" clip-rule="evenodd"/><ellipse cx=".615" cy=".867" fill="#fff" rx=".615" ry=".867" transform="matrix(-.82032 .59313 .67178 .72387 84.92 68.181)"/><ellipse cx=".615" cy=".866" fill="#fff" rx=".615" ry=".866" transform="matrix(-1.00374 -.30175 -.3418 .88581 88.975 67.963)"/><path fill="#fff" d="M89.676 72.981c-1.225.826-3.08 1.031-3.838.918l.12.396c1.744.358 3.272-.472 3.837-.921l-.119-.393Z"/><path fill="#fff" d="M89.795 73.36c-1.45 1.048-3.081 1.035-3.842.93l.102.308c1.751.34 3.303-.343 3.858-.798l-.118-.44Z"/><ellipse cx=".114" cy=".179" fill="#fff" opacity=".2" rx=".114" ry=".179" transform="matrix(1.04396 .16428 -.18606 .9212 87.204 66.483)"/><ellipse cx=".114" cy=".179" fill="#fff" opacity=".2" rx=".114" ry=".179" transform="matrix(1.04396 .16428 -.18606 .9212 84.443 67.127)"/><path fill="#fff" d="M85.093 67.959c-.383-1.137.812-1.602.811-1.587 1.34.022 1.505 1.037 1.502 1.194-.01.43.853.62.743 1.09-.109.47.14 1.346.125 1.997-.01.4-.144.575-.257.636.033-.007.02-.002-.012.007a.207.207 0 0 1-.08.021l.08-.021a.223.223 0 0 0 .013-.007c-.044.01-.166.038-.43.102-.744.18-1.034-.676-1.958-1.525-.924-.85-.058-.487-.537-1.907Z"/><path fill="#fff" d="M87.472 70.97c-.612.085-1.135-1.046-1.32-1.622.347-.152 1.117-.427 1.412-.31.369.148.672 1.826-.092 1.932Z"/><path fill="#fff" d="M87.55 70.795c.405-.138.045-.92-.185-1.292l-.814.178c.164.429.592 1.252.998 1.114Z"/><path fill="#fff" d="M87.422 70.515c.071-.073-.28-.847-.465-1.224l-.174.056c.183.42.568 1.242.639 1.168Z"/><path fill="#fff" d="M85.78 68.956c.191-.848-.163-1.218-.364-1.296.422-.871 1.267-.602 1.637-.36-.268.849-.08.176.552 1.256.505.864-.094 1.327-.457 1.45-.535.003-1.558-.202-1.367-1.05Z"/><path fill="#fff" d="M87.765 68.928c-1.28-.939-1.751.057-1.827.672.153.212.613.59 1.236.404.623-.185.654-.794.591-1.076Z"/><path fill="#fff" d="M86.655 69.018c-.038-.096-.126-.269-.176-.195-.05.073.097.16.176.195ZM86.865 68.972c-.034-.097-.081-.282.008-.25.09.033.032.18-.008.25ZM86.125 65l.32.82c-.395.555-1.403.604-1.857.56l-.313-.84 1.85-.54Z"/><path fill="#fff" d="M86.445 65.82c.008.48-.377 1.223-1.857.553l1.857-.553Z"/><ellipse cx=".92" cy=".159" fill="#fff" rx=".92" ry=".159" transform="matrix(1.00873 -.28884 .3271 .89002 84.222 65.394)"/><path fill="#fff" d="M78.648 59.379c.004 0 .007 0 .01.002a.086.086 0 0 1 .055.034c.006.008.01.017.015.025l.014.022-.002.004c-.005.002-.008.006-.009.011 0 .005.003.009.007.011.005.003.01.003.014.001.003 0 .004-.002.004-.005a.117.117 0 0 0-.003-.054c-.005-.015-.012-.03-.02-.043l-.011-.024a.044.044 0 0 1-.005-.015c-.001-.005 0-.011.001-.017.006.003.01.006.014.01a.11.11 0 0 1 .008.015l.006.015.017.04a.13.13 0 0 0 .046.054c.003.002.005.002.008 0 .007-.003.01-.01.008-.017-.003-.005-.011-.009-.019-.006-.002 0-.003 0-.003-.002a2.005 2.005 0 0 0-.01-.033c-.004-.012-.009-.024-.008-.037 0-.017.007-.03.018-.044 0-.002.002-.002.003-.004l.001.003.072.161c.002.004.002.004-.001.005l-.038.013c-.002.001-.003.002-.003.004a.06.06 0 0 1-.01.046l-.004.01c-.01-.005-.023-.007-.033-.013a.075.075 0 0 1-.02-.019c-.002-.001-.003-.002-.005-.001l-.038.014c-.002 0-.004 0-.005-.002l-.072-.162-.002-.002Zm.025.02v.003l.035.077c.002.005.002.005.007.003.002 0 .003-.002.003-.003a.02.02 0 0 1 .005-.016c.002-.002.002-.003 0-.005l-.016-.028a.07.07 0 0 0-.022-.023l-.012-.008Zm.131-.047-.002.005c-.002.01-.005.019-.002.03l.012.04.004.002c.007.001.012.004.016.008.002.002.004.002.008 0 .002-.001 0-.003 0-.004l-.035-.078-.001-.003Zm-.049.15h-.003c-.01.001-.02 0-.028-.008a615496506.623 615496506.623 0 0 0-.008.003l.015.032.003.001a1.13 1.13 0 0 0 .027-.012l-.006-.017Zm.068-.025.01.016h.003l.024-.008c.002-.001.003-.002.002-.005l-.013-.028c-.002-.004-.002-.004-.007-.003-.001.001-.003.001-.002.003 0 .01-.004.016-.012.022l-.005.003Zm-.051-.028c0 .013 0 .025-.002.037l.018.004.003-.002.009-.011v-.003a.146.146 0 0 1-.026-.023l-.002-.002Zm.01.076c.003.008.018.02.024.02v-.001l-.01-.022h-.002l-.012.003Zm.037.015c.006-.006.007-.024.003-.03a.337.337 0 0 1-.01.005c-.003 0-.003.001-.002.003l.008.018.001.004Zm-.037-.028.007-.002v-.002a.018.018 0 0 0-.017-.01c-.002.001-.002.002-.002.003l.004.012c0 .002.001.002.003.002l.005-.003Zm.03-.01.005-.002c.002 0 .003-.002.002-.004a.21.21 0 0 0-.007-.01h-.003c-.006.004-.008.011-.006.017h.002l.007-.001ZM86.125 65l.32.82c-.395.555-1.403.604-1.857.56l-.313-.84s.16-.015.256-.042c.117-.033.28-.122.28-.122l.784.583.017-.848s.173.028.278.005c.102-.023.235-.116.235-.116Z"/><ellipse cx="1.883" cy=".5" fill="#fff" rx="1.883" ry=".5" transform="matrix(1.01406 -.22672 .26397 .91985 86.245 75.341)"/><path fill="#fff" d="m85.907 74.819 4.283-.958.425 1.481-4.283.958z"/><path fill="red" d="M91.39 89.169c-1.295-3.434-.657-4.23.383-4.536 1.042-.306 2.093-.004 3.386 3.429 1.294 3.433 1.3 9.004 1.3 9.004-1.47-3.9-3.776-4.464-5.07-7.897Z"/><path fill="red" d="M92.56 86.72c-1.294-3.433-.657-4.23.384-4.535 1.041-.306 2.092-.005 3.386 3.428 1.294 3.434 1.3 9.004 1.3 9.004-1.47-3.899-3.776-4.463-5.07-7.897Z"/><path fill="red" d="M88.443 86.902c-1.294-3.433-.657-4.23.384-4.536 1.041-.305 2.092-.004 3.386 3.43 1.294 3.433 1.3 9.003 1.3 9.003-1.47-3.899-3.776-4.464-5.07-7.897Z"/><path fill="#B7B7B7" d="m79.642 65.335 11.592-2.591L97 82.84 85.41 85.43z"/><ellipse cx="5.939" cy="2.108" fill="#B7B7B7" rx="5.939" ry="2.108" transform="matrix(.9759 -.2182 .27583 .9612 84.82 83.385)"/><path fill="url(#c)" fill-rule="evenodd" d="m91 61.925-11.593 2.592 5.767 20.096c.35 1.102 3.19 1.42 6.372.71 3.201-.716 5.536-2.203 5.215-3.322a.696.696 0 0 0-.009-.03l-5.753-20.046Z" clip-rule="evenodd"/><path fill="url(#d)" d="M79.366 64.377c1.145 3.99 12.753 1.395 11.608-2.595-1.566-5.456-9.157-10.043-9.157-10.043s-4.028 7.142-2.451 12.638Z"/><path fill="url(#e)" d="m78.863 83.843 5.711-1.277-3.26-11.362s-4.029 7.142-2.451 12.639Z"/><path fill="url(#f)" d="m101.893 78.693-5.711 1.277-3.26-11.361s7.394 4.588 8.971 10.084Z"/><ellipse cx="3.974" cy="4.495" fill="#EDEDED" rx="3.974" ry="4.495" transform="matrix(.9759 -.2182 .27583 .9612 83 71.32)"/><ellipse cx="3.316" cy="3.954" fill="#888" rx="3.316" ry="3.954" transform="matrix(.9759 -.2182 .27583 .9612 83.79 71.696)"/><ellipse cx=".254" cy=".4" fill="#383838" rx=".254" ry=".4" transform="matrix(1.05711 -.07463 .08451 .93269 84.28 67.101)"/><ellipse cx=".254" cy=".4" fill="#383838" rx=".254" ry=".4" transform="matrix(-.97393 .37041 .41947 .8593 87.417 66.346)"/><path fill="#fff" fill-rule="evenodd" d="M85.627 65.865c-.516.119-1.456.54-1.091 1.273.245.492.107.71-.042.944-.13.204-.266.42-.172.838.086.38.276.618.466.854.261.326.521.65.51 1.343-.017.957.705 3.528 1.08 4.682l1.922-.43 1.898-.416c-.281-1.175-.97-3.727-1.493-4.566-.368-.591-.233-.956-.099-1.319.104-.281.208-.561.078-.946-.139-.411-.438-.562-.726-.708-.33-.166-.644-.325-.688-.858-.066-.798-1.119-.783-1.638-.675l-.005-.016Z" clip-rule="evenodd"/><ellipse cx=".615" cy=".867" fill="url(#g)" rx=".615" ry=".867" transform="matrix(-.82032 .59313 .67178 .72387 84.92 68.181)"/><ellipse cx=".615" cy=".866" fill="url(#h)" rx=".615" ry=".866" transform="matrix(-1.00374 -.30175 -.3418 .88581 88.975 67.963)"/><path fill="#005BBB" d="M89.676 72.981c-1.225.826-3.08 1.031-3.838.918l.12.396c1.744.358 3.272-.472 3.837-.921l-.119-.393Z"/><path fill="#FFD500" d="M89.795 73.36c-1.45 1.048-3.081 1.035-3.842.93l.102.308c1.751.34 3.303-.343 3.858-.798l-.118-.44Z"/><ellipse cx=".114" cy=".179" fill="#fff" opacity=".2" rx=".114" ry=".179" transform="matrix(1.04396 .16428 -.18606 .9212 87.204 66.483)"/><ellipse cx=".114" cy=".179" fill="#fff" opacity=".2" rx=".114" ry=".179" transform="matrix(1.04396 .16428 -.18606 .9212 84.443 67.127)"/><path fill="#FF6B0A" d="M85.093 67.959c-.383-1.137.812-1.602.811-1.587 1.34.022 1.505 1.037 1.502 1.194-.01.43.853.62.743 1.09-.109.47.14 1.346.125 1.997-.01.4-.144.575-.257.636.033-.007.02-.002-.012.007a.207.207 0 0 1-.08.021l.08-.021a.223.223 0 0 0 .013-.007c-.044.01-.166.038-.43.102-.744.18-1.034-.676-1.958-1.525-.924-.85-.058-.487-.537-1.907Z"/><path fill="#383838" d="M87.472 70.97c-.612.085-1.135-1.046-1.32-1.622.347-.152 1.117-.427 1.412-.31.369.148.672 1.826-.092 1.932Z"/><path fill="#956C7C" d="M87.55 70.795c.405-.138.045-.92-.185-1.292l-.814.178c.164.429.592 1.252.998 1.114Z"/><path fill="#86616F" d="M87.422 70.515c.071-.073-.28-.847-.465-1.224l-.174.056c.183.42.568 1.242.639 1.168Z"/><path fill="#EB6005" d="M85.78 68.956c.191-.848-.163-1.218-.364-1.296.422-.871 1.267-.602 1.637-.36-.268.849-.08.176.552 1.256.505.864-.094 1.327-.457 1.45-.535.003-1.558-.202-1.367-1.05Z"/><path fill="#EFE5D5" d="M87.765 68.928c-1.28-.939-1.751.057-1.827.672.153.212.613.59 1.236.404.623-.185.654-.794.591-1.076Z"/><path fill="#DACAB0" d="M86.655 69.018c-.038-.096-.126-.269-.176-.195-.05.073.097.16.176.195ZM86.865 68.972c-.034-.097-.081-.282.008-.25.09.033.032.18-.008.25Z"/><path fill="#2B2900" d="m86.125 65 .32.82c-.395.555-1.403.604-1.857.56l-.313-.84 1.85-.54Z"/><path fill="#2B2900" d="M86.445 65.82c.008.48-.377 1.223-1.857.553l1.857-.553Z"/><ellipse cx=".92" cy=".159" fill="#2B2900" rx=".92" ry=".159" transform="matrix(1.00873 -.28884 .3271 .89002 84.222 65.394)"/><path fill="#FFD500" d="M78.648 59.379c.004 0 .007 0 .01.002a.086.086 0 0 1 .055.034c.006.008.01.017.015.025l.014.022-.002.004c-.005.002-.008.006-.009.011 0 .005.003.009.007.011.005.003.01.003.014.001.003 0 .004-.002.004-.005a.117.117 0 0 0-.003-.054c-.005-.015-.012-.03-.02-.043l-.011-.024a.044.044 0 0 1-.005-.015c-.001-.005 0-.011.001-.017.006.003.01.006.014.01a.11.11 0 0 1 .008.015l.006.015.017.04a.13.13 0 0 0 .046.054c.003.002.005.002.008 0 .007-.003.01-.01.008-.017-.003-.005-.011-.009-.019-.006-.002 0-.003 0-.003-.002a2.005 2.005 0 0 0-.01-.033c-.004-.012-.009-.024-.008-.037 0-.017.007-.03.018-.044 0-.002.002-.002.003-.004l.001.003.072.161c.002.004.002.004-.001.005l-.038.013c-.002.001-.003.002-.003.004a.06.06 0 0 1-.01.046l-.004.01c-.01-.005-.023-.007-.033-.013a.075.075 0 0 1-.02-.019c-.002-.001-.003-.002-.005-.001l-.038.014c-.002 0-.004 0-.005-.002l-.072-.162-.002-.002Zm.025.02v.003l.035.077c.002.005.002.005.007.003.002 0 .003-.002.003-.003a.02.02 0 0 1 .005-.016c.002-.002.002-.003 0-.005l-.016-.028a.07.07 0 0 0-.022-.023l-.012-.008Zm.131-.047-.002.005c-.002.01-.005.019-.002.03l.012.04.004.002c.007.001.012.004.016.008.002.002.004.002.008 0 .002-.001 0-.003 0-.004l-.035-.078-.001-.003Zm-.049.15h-.003c-.01.001-.02 0-.028-.008a615496506.623 615496506.623 0 0 0-.008.003l.015.032.003.001a1.13 1.13 0 0 0 .027-.012l-.006-.017Zm.068-.025.01.016h.003l.024-.008c.002-.001.003-.002.002-.005l-.013-.028c-.002-.004-.002-.004-.007-.003-.001.001-.003.001-.002.003 0 .01-.004.016-.012.022l-.005.003Zm-.051-.028c0 .013 0 .025-.002.037l.018.004.003-.002.009-.011v-.003a.146.146 0 0 1-.026-.023l-.002-.002Zm.01.076c.003.008.018.02.024.02v-.001l-.01-.022h-.002l-.012.003Zm.037.015c.006-.006.007-.024.003-.03a.337.337 0 0 1-.01.005c-.003 0-.003.001-.002.003l.008.018.001.004Zm-.037-.028.007-.002v-.002a.018.018 0 0 0-.017-.01c-.002.001-.002.002-.002.003l.004.012c0 .002.001.002.003.002l.005-.003Zm.03-.01.005-.002c.002 0 .003-.002.002-.004a.21.21 0 0 0-.007-.01h-.003c-.006.004-.008.011-.006.017h.002l.007-.001Z"/><path fill="#4B4800" d="m86.125 65 .32.82c-.395.555-1.403.604-1.857.56l-.313-.84s.16-.015.256-.042c.117-.033.28-.122.28-.122l.784.583.017-.848s.173.028.278.005c.102-.023.235-.116.235-.116Z"/><ellipse cx="1.883" cy=".5" fill="#fff" rx="1.883" ry=".5" transform="matrix(1.01406 -.22672 .26397 .91985 86.245 75.341)"/><path fill="url(#i)" d="M0 0h4.223v1.61H0z" transform="matrix(1.01406 -.22672 .26397 .91985 85.907 74.819)"/><path fill="#F2CD13" d="M85.322 65.065c-.047.124.027.25.03.255l.006.01.011-.004c.003 0 .023-.005.033.024.01.026-.015.042-.026.048-.014-.008-.068-.046-.14-.194l-.01-.022s-.023-.054-.031-.078l-.036-.03v.045l.04.074.01.022c.066.15.06.217.057.233-.012.005-.04.012-.053-.011-.016-.027 0-.04.003-.041l.01-.006-.004-.011c-.002-.006-.05-.144-.176-.188l-.03-.01.188.405.088-.04a.205.205 0 0 0 .111.076l.011.003.005-.01c.002-.003.035-.073.014-.135l.088-.041-.188-.405-.01.03Zm-.13.314c-.01.011-.019.031-.01.058l-.014.006-.097-.209c.073.04.11.119.122.145Zm.08.128.006.013-.061.028-.037-.08.016-.007c.018.022.045.023.067.018a.11.11 0 0 0 .009.028Zm.025-.012a.065.065 0 0 1-.007-.025c.025-.005.04.01.048.023l-.034.015-.007-.013Zm.083.088a.156.156 0 0 1-.062-.05l.032-.015.03.065Zm-.045-.14-.002.007-.006-.003a.072.072 0 0 0-.031-.007.307.307 0 0 0-.011-.094c.028.038.05.058.065.069a.065.065 0 0 0-.015.028Zm.07.127-.03-.063.032-.015a.145.145 0 0 1-.002.078Zm-.014-.119.006.014-.034.015c-.004-.014-.006-.035.014-.05a.07.07 0 0 1 .014.021Zm-.02-.154a.306.306 0 0 1-.033-.187l.097.21-.014.006c-.014-.025-.035-.03-.05-.03Zm.052.156-.006-.013c0-.002-.006-.015-.015-.025.018-.013.034-.035.03-.063l.016-.008.037.08-.063.029Z"/><path fill="#fff" stroke="#383838" stroke-width=".375" d="M92.759 66.935h-.33l.168-.283c.312-.526.486-1.111.294-1.674-.192-.562-.77-1.163-2.11-1.67-.67-.254-1.267-.45-1.81-.628l-.42-.138c-.648-.216-1.22-.42-1.732-.692-1.039-.552-1.808-1.369-2.529-3.051-1.307-3.051-1.016-5.459.054-7.22 1.065-1.75 2.884-2.832 4.587-3.277 1.692-.442 6.287-.93 10.854-.835 2.286.047 4.575.24 6.498.662 1.913.42 3.503 1.073 4.347 2.07 1.63 1.925 2.47 4.26 2.551 6.353.08 2.086-.596 3.968-2.048 4.927-.583.385-1.628.721-2.873 1.01-1.254.291-2.737.54-4.214.737-2.844.381-5.693.578-6.859.523-.374.682-.932 1.452-1.648 2.063-.754.645-1.693 1.123-2.78 1.123Z"/><path fill="#383838" d="m86.468 56.981.15-.348a1.234 1.234 0 0 0 .59.174c.1.002.19-.008.27-.03a.46.46 0 0 0 .196-.099c.05-.044.075-.1.075-.168a.19.19 0 0 0-.1-.177.506.506 0 0 0-.263-.06h-.513v-.366h.477c.098 0 .174-.02.228-.06a.192.192 0 0 0 .084-.165c0-.06-.02-.108-.06-.144a.368.368 0 0 0-.165-.084.828.828 0 0 0-.231-.024 1.073 1.073 0 0 0-.267.042c-.092.026-.18.062-.264.108l-.147-.375c.136-.07.279-.118.429-.144.152-.028.298-.035.438-.02.142.011.27.043.384.095.114.05.205.116.273.198a.442.442 0 0 1 .102.291.47.47 0 0 1-.297.447.758.758 0 0 1-.318.063l.012-.108c.14 0 .26.024.363.072a.544.544 0 0 1 .24.195.481.481 0 0 1 .087.285c0 .1-.027.19-.081.27a.648.648 0 0 1-.216.198 1.075 1.075 0 0 1-.315.12 1.54 1.54 0 0 1-.378.033 1.846 1.846 0 0 1-.4-.057 1.537 1.537 0 0 1-.383-.162Zm3.088.186v-.315l-.03-.069v-.564a.3.3 0 0 0-.093-.234c-.06-.056-.153-.084-.28-.084a.802.802 0 0 0-.464.15l-.168-.327c.088-.062.194-.11.318-.144.124-.034.25-.05.378-.05.246 0 .437.057.573.173.136.116.204.297.204.543v.921h-.438Zm-.492.024a.761.761 0 0 1-.324-.063.502.502 0 0 1-.207-.177.448.448 0 0 1-.072-.249c0-.096.023-.18.069-.252a.463.463 0 0 1 .225-.168c.102-.042.235-.063.399-.063h.429v.273h-.378c-.11 0-.186.018-.228.054a.174.174 0 0 0-.06.135c0 .06.023.108.069.144a.332.332 0 0 0 .195.051.41.41 0 0 0 .21-.054.326.326 0 0 0 .135-.165l.072.216a.418.418 0 0 1-.186.237.669.669 0 0 1-.348.081Zm1.336-.024v-1.614h1.605v1.614h-.468v-1.335l.105.105h-.882l.105-.105v1.335H90.4Zm2.273.606a.82.82 0 0 1-.25-.039.55.55 0 0 1-.2-.108l.17-.333a.406.406 0 0 0 .265.102.235.235 0 0 0 .156-.048.38.38 0 0 0 .108-.153l.084-.198.036-.05.579-1.393h.45l-.73 1.713a.997.997 0 0 1-.18.306.55.55 0 0 1-.221.156.755.755 0 0 1-.267.045Zm.276-.543-.72-1.677h.483l.558 1.35-.321.327Zm2.072-.039c-.174 0-.33-.035-.465-.105a.821.821 0 0 1-.321-.297.814.814 0 0 1-.114-.429c0-.162.038-.305.114-.429a.8.8 0 0 1 .32-.294.979.979 0 0 1 .466-.108.88.88 0 0 1 .444.108c.126.07.219.171.279.303l-.363.195a.399.399 0 0 0-.363-.222.433.433 0 0 0-.216.054.401.401 0 0 0-.153.153.495.495 0 0 0-.054.24c0 .094.018.174.054.24a.401.401 0 0 0 .153.153.433.433 0 0 0 .216.054.417.417 0 0 0 .204-.05.414.414 0 0 0 .159-.172l.363.198a.66.66 0 0 1-.28.303.9.9 0 0 1-.443.105Zm2.15-.024-.54-.765.381-.225.711.99h-.552Zm-1.143 0v-1.614h.468v1.614h-.468Zm.33-.612v-.375h.564v.375h-.564Zm.7-.14-.439-.049.567-.813h.498l-.627.861Zm1.832.752v-.315l-.03-.069v-.564a.3.3 0 0 0-.093-.234c-.06-.056-.153-.084-.28-.084a.802.802 0 0 0-.464.15l-.168-.327c.088-.062.194-.11.318-.144.124-.034.25-.05.378-.05.246 0 .437.057.573.173.136.116.204.297.204.543v.921h-.438Zm-.492.024a.761.761 0 0 1-.324-.063.502.502 0 0 1-.207-.177.448.448 0 0 1-.072-.249c0-.096.023-.18.069-.252a.463.463 0 0 1 .225-.168c.102-.042.235-.063.399-.063h.429v.273h-.378c-.11 0-.186.018-.228.054a.174.174 0 0 0-.06.135c0 .06.023.108.069.144a.332.332 0 0 0 .195.051.41.41 0 0 0 .21-.054.326.326 0 0 0 .135-.165l.072.216a.418.418 0 0 1-.186.237.669.669 0 0 1-.348.081Zm1.336-.024v-1.614h.465v.96l.786-.96h.429v1.614h-.465v-.96l-.783.96h-.432Zm.81-1.788c-.176 0-.308-.038-.396-.114-.088-.078-.133-.195-.135-.35h.306a.244.244 0 0 0 .057.161c.036.04.091.06.165.06.072 0 .127-.02.165-.06.04-.04.06-.094.06-.162h.312c0 .156-.045.273-.135.351-.09.076-.223.114-.399.114Zm2.17 1.788v-1.614h1.293v.384h-.933l.105-.102v1.332h-.465Zm1.768.606a.82.82 0 0 1-.249-.039.55.55 0 0 1-.201-.108l.171-.333a.406.406 0 0 0 .264.102.235.235 0 0 0 .156-.048.38.38 0 0 0 .108-.153l.084-.198.036-.05.579-1.393h.45l-.729 1.713a.997.997 0 0 1-.18.306.55.55 0 0 1-.222.156.755.755 0 0 1-.267.045Zm.276-.543-.72-1.677h.483l.558 1.35-.321.327Zm2.072-.039c-.174 0-.329-.035-.465-.105a.821.821 0 0 1-.321-.297.814.814 0 0 1-.114-.429c0-.162.038-.305.114-.429a.8.8 0 0 1 .321-.294.979.979 0 0 1 .465-.108.88.88 0 0 1 .444.108c.126.07.219.171.279.303l-.363.195a.399.399 0 0 0-.363-.222.433.433 0 0 0-.216.054.401.401 0 0 0-.153.153.495.495 0 0 0-.054.24c0 .094.018.174.054.24a.401.401 0 0 0 .153.153.433.433 0 0 0 .216.054.417.417 0 0 0 .204-.05.414.414 0 0 0 .159-.172l.363.198a.66.66 0 0 1-.279.303.9.9 0 0 1-.444.105Zm1.987-.024v-.537l.066.075h-.447c-.232 0-.414-.048-.546-.144a.48.48 0 0 1-.198-.414c0-.192.069-.339.207-.44.14-.103.328-.154.564-.154h.771v1.614h-.417Zm-1.149 0 .429-.615h.477l-.408.615h-.498Zm1.149-.68v-.673l.066.12h-.411a.402.402 0 0 0-.225.054c-.052.036-.078.094-.078.174 0 .154.099.231.297.231h.417l-.066.093Zm.89-.049-.093-1.37h.558l-.093 1.37h-.372Zm.186.753a.28.28 0 0 1-.207-.08.262.262 0 0 1-.081-.193c0-.076.027-.139.081-.189a.286.286 0 0 1 .207-.078.28.28 0 0 1 .207.078c.054.05.081.113.081.19a.262.262 0 0 1-.081.191.274.274 0 0 1-.207.081Z"/></g><defs><linearGradient id="c" x1="81.321" x2="98.796" y1="69.915" y2="70.402" gradientUnits="userSpaceOnUse"><stop stop-color="#C8C8C8"/><stop offset="1" stop-color="#fff"/></linearGradient><linearGradient id="d" x1="79.548" x2="91.524" y1="63.738" y2="53.313" gradientUnits="userSpaceOnUse"><stop stop-color="#C8C8C8"/><stop offset="1" stop-color="#fff"/></linearGradient><linearGradient id="e" x1="78.224" x2="85.287" y1="80.991" y2="76.516" gradientUnits="userSpaceOnUse"><stop stop-color="#C8C8C8"/><stop offset="1" stop-color="#fff"/></linearGradient><linearGradient id="f" x1="100.916" x2="92.279" y1="75.917" y2="75.782" gradientUnits="userSpaceOnUse"><stop stop-color="#C8C8C8"/><stop offset="1" stop-color="#fff"/></linearGradient><linearGradient id="i" x1="2.112" x2="2.112" y1="0" y2="1.61" gradientUnits="userSpaceOnUse"><stop stop-color="#888" stop-opacity="0"/><stop offset="1" stop-color="#888"/></linearGradient><radialGradient id="g" cx="0" cy="0" r="1" gradientTransform="matrix(0 .8665 -.615 0 .615 .867)" gradientUnits="userSpaceOnUse"><stop stop-color="#FBB"/><stop offset="1" stop-color="#FBB" stop-opacity="0"/></radialGradient><radialGradient id="h" cx="0" cy="0" r="1" gradientTransform="matrix(0 .86646 -.61502 0 .615 .866)" gradientUnits="userSpaceOnUse"><stop stop-color="#FBB"/><stop offset="1" stop-color="#FBB" stop-opacity="0"/></radialGradient><clipPath id="a"><path fill="#fff" d="M60.723 42.253h58.554v58.554H60.723z"/></clipPath></defs></svg>