<svg xmlns="http://www.w3.org/2000/svg" width="162" height="116" fill="none"><path fill="#fff" stroke="#383838" stroke-width=".75" d="m151.051 1.003-43.983 1.456L12.275 1a.1.1 0 0 0-.1.087L1 85.925v3.497a.1.1 0 0 0 .003.024l.693 2.785a.101.101 0 0 0 .008.02l.694 1.394 2.098 4.211 2.097 3.509 2.093 2.802.01.011 1.386 1.391a.1.1 0 0 0 .015.013l2.089 1.398 2.796 1.404 2.78 1.395a.093.093 0 0 0 .036.01l57.227 4.905a.1.1 0 0 0 .105-.072l7.767-26.273c.029-.098.168-.095.193.004l6.677 26.264a.1.1 0 0 0 .107.075l54.113-5.691a.184.184 0 0 0 .025-.005L148 107.5l2-1 2.359-1.274 2.441-1.75.012-.011 2.087-2.095.009-.01 2.088-2.795a.345.345 0 0 0 .009-.015l1.388-2.787a.11.11 0 0 0 .009-.026l.696-3.496L161.5 89v-3.5L151.153 1.09a.1.1 0 0 0-.102-.087Z"/><path stroke="#383838" stroke-width=".75" d="M17 1 7 87v2.189a5 5 0 0 0 .257 1.58l.586 1.761a5 5 0 0 0 .403.9L10 96.5l1.79 2.684c.14.21.296.41.466.597l2.089 2.289a5 5 0 0 0 1.486 1.117l2.131 1.048c.358.176.734.309 1.123.395l3.915.87 4 .5 5.5.5 12.5 1 31 3M145.718 1l10.218 86.458c.043.36.046.724.01 1.085l-.404 4.04c-.024.24-.066.477-.124.71l-.368 1.48a5.02 5.02 0 0 1-.846 1.784l-1.067 1.429c-.284.38-.62.717-.999 1.002l-2.225 1.676-3.637 2.434a5.023 5.023 0 0 1-1.195.586l-3.558 1.191L135.5 106l-18.5 2-28 2.5"/><path stroke="#383838" stroke-width=".75" d="m10.089 15.74 36.438-.64 106.182.64"/><path stroke="#383838" stroke-width=".75" d="M77.5 61.5c1.5 0 1.067-5.905 1.067-5.905l-1.192-16.226-1.786-11.405a.102.102 0 0 1 0-.027l1.188-10.181a.1.1 0 0 1 .013-.04l3.56-5.98a.093.093 0 0 1 .014-.02l2.901-2.924a.1.1 0 0 1 .142 0l2.898 2.922a.097.097 0 0 1 .019.026l2.967 5.982a.096.096 0 0 1 .009.027l1.783 10.186a.103.103 0 0 1 0 .032L89.297 39.37l-1.19 16.207a.1.1 0 0 0 .003.036c.105.355 1.764 6.011 1.187 6.593"/><mask id="a" fill="#fff"><path fill-rule="evenodd" d="m107.765 52.66.229-.458.002-.003.001-.002.02-.041.027.013c.295-.07 1.797.491 3.536 1.33 1.74.84 3.109 1.666 3.234 1.938l.027.013-.251.502c.051.058.071.102.057.13a.045.045 0 0 1-.016.018l-1.215 2.441c.491.827.647 1.784.531 2.7.064.656-.163 1.478-.944 2.453-.209.262-.435.539-.671.827l-.001.001-.001.002c-1.737 2.128-3.986 4.881-3.967 6.984.233.12.457.24.671.36 3.774-1.159 10.629-1.08 22.279 1.462 3.466.7 8.53 2.477 7.45 3.402-.247.574-2.275 1.114-7.395 1.488-.072.098-.224.197-.476.294 1.616.437 2.585 1.21-2.517 1.929.733.52 1.202 1.586-2.785 1.686a10.87 10.87 0 0 0-2.233.284 141.88 141.88 0 0 1 7.951 5.75c-4.007.705-7.545 1.059-10.664 1.13.258.336.37.781.268 1.23l-.007.03c.458.532.481 1.335.017 1.907a1.518 1.518 0 0 1-.78.51 1.522 1.522 0 0 1-.571.555 1.5 1.5 0 0 1-2.043-.57l-.081-.144a1.523 1.523 0 0 1-.946.54 1.516 1.516 0 0 1-.632.486 1.494 1.494 0 0 1-1.96-.802l-.76-1.856-3.993-2.848a1.455 1.455 0 0 1-.483-.583c-3.051-1.05-5.224-2.542-6.724-4.187-2.031-.604-4.169-1.612-5.584-2.397-.28-1.177-1.76-3.882-5.437-5.294-3.676-1.41-2.854-2.217-1.983-2.444-4.826-2.513-3.1-2.76-1.267-2.534a.296.296 0 0 1 .11-.105c-9.549-4.099-7.995-4.905-4.317-4.657 1.743-.096 4.196.09 6.09.402 6.555.979 11.447 2.14 15.029 3.393.488-1.484 1.471-3.136 3.217-4.891-.644-.275-1.368-.72-2.166-1.401l-4.062 1.688c-.334.14-.655-.217-.476-.53l.589-1.03-2.023.345c-.387.066-.606-.42-.297-.664l4.073-3.21a2.897 2.897 0 0 1 .527-1.918.55.55 0 0 1 .083-.115 4.25 4.25 0 0 1 1.245-1.083c-2.848-1.105-.697-2.288 1.088-1.92l-.002-.029 1.238-2.464.003-.01c.014-.027.061-.038.138-.034Z" clip-rule="evenodd"/></mask><path fill="#000" d="M107.994 52.202 197.399 97l.812-1.622.754-1.65-90.971-41.526Zm-.229.457-6.064 99.816 65.895 4.003 29.573-59.02-89.404-44.799Zm.231-.46L20.291 4.16l-1.752 3.197-1.514 3.317L107.996 52.2Zm.001-.002 87.705 48.04.879-1.606.821-1.638-89.405-44.796Zm.02-.041 43.472-90.057-88.737-42.834-44.14 88.094 89.405 44.797Zm.027.013-43.472 90.056 31.882 15.39 34.464-8.098-22.874-97.348Zm3.536 1.33-43.471 90.058L111.58 53.5Zm3.234 1.938L23.841 96.958l14.99 32.841 32.51 15.694 43.473-90.056Zm.027.013 89.406 44.795 45.46-90.734-91.393-44.117-43.473 90.056Zm-.251.502L25.184 11.158-5.201 71.803 39.91 122.46l74.679-66.507Zm.057.13 89.399 44.809.006-.011-89.405-44.798Zm-.016.018L59.384-27.254 37.047-12.448l-11.94 23.99L114.63 56.1Zm-1.215 2.441L23.891 13.984-.395 62.78l27.848 46.854 85.963-51.093Zm.531 2.7-99.2-12.619-1.418 11.14 1.09 11.177 99.528-9.699Zm-.944 2.453 78.086 62.471.003-.003-78.089-62.468Zm-.671.827 77.378 63.346.039-.048.039-.048-77.456-63.25Zm0 0 77.354 63.375.012-.014.012-.015-77.378-63.345Zm-.001.001 77.225 63.533.065-.079.064-.079-77.354-63.375Zm0 0L35.106.992l-.144.175-.143.175 77.512 63.182Zm-.001.002 77.193 63.57.16-.194.159-.195-77.512-63.181Zm0 0L35.137.953l-.26.315-.256.317 77.709 62.939Zm0 0 77.455 63.252.127-.157.127-.157-77.709-62.938Zm-3.967 6.984-99.996.91.55 60.535L62.81 160.53l45.553-89.022Zm.671.36-48.925 87.214 37.34 20.947 40.93-12.564-29.345-95.597Zm22.279 1.462-21.322 97.7.754.165.756.153 19.812-98.018Zm7.45 3.402L73.684.807 56.088 15.889 46.92 37.174l91.843 39.558Zm-7.395 1.488-7.289-99.734-46.224 3.378-27.3 37.454 80.813 58.902Zm-.476.294L94.938-14.799-190.541 95.2l295.334 79.849 26.099-96.534Zm-2.517 1.929-13.949-99.022-248.913 35.063L70.491 161.987l57.884-81.544Zm-2.785 1.686 2.511 99.969h.004l-2.515-99.969Zm-2.233.284-23.03-97.311-222.69 52.703L67.591 165.42l55.766-83.006Zm7.951 5.75 17.327 98.488 221.604-38.988-177.44-138.36-61.491 78.86Zm-10.664 1.13-2.293-99.974L-78.795-6.16l120.14 156.377 79.299-60.924Zm.268 1.23L23.4 68.352v.004l97.512 22.165Zm-.007.03-97.04-24.15-12.49 50.187 33.737 39.197 75.793-65.234Zm.017 1.907-77.67-62.986 77.67 62.986Zm-.78.51L93.604-3.444 54.66 7.276l-20.574 34.76 86.056 50.934Zm-.571.555 48.566 87.415-48.566-87.415Zm-2.043-.57-87.427 48.546v.001l87.427-48.546Zm-.081-.144 87.427-48.544-71.27-128.353L40.262 29.232l77.185 63.58Zm-.111.122L47.396 21.46l-.001.001 69.941 71.472Zm-.835.418L101.273-5.483 61.341.67 36.89 32.835l79.61 60.516Zm-.632.486L77.661 1.424l38.208 92.413Zm-1.96-.802 92.539-37.903h-.001l-92.538 37.903Zm-.76-1.856 92.538-37.903-10.951-26.738-23.524-16.776-58.063 81.417Zm-3.993-2.848 58.062-81.417-58.062 81.417Zm-.483-.583L199.61 46.15 181.775 7.16 141.237-6.8l-32.564 94.55Zm-6.724-4.187 73.924-67.345L157.128-4.36l-26.679-7.932-28.5 95.853Zm-5.584-2.397L-.909 104.353l10.216 42.851L47.82 168.59l48.545-87.426Zm-5.437-5.294 35.838-93.357-.004-.002-35.834 93.36Zm-1.983-2.444 25.185 96.777 251.498-65.449L135.13-15.269 88.945 73.427Zm-1.267-2.534-12.253 99.247 66.074 8.157 33.016-57.812-86.837-49.592Zm.11-.105 51.03 86 169.08-100.328-180.66-77.561-39.45 91.89ZM83.47 66.13l-6.72 99.774 6.08.409 6.084-.332-5.444-99.851Zm6.09.402-16.288 98.665.76.125.764.114 14.765-98.904Zm15.029 3.393-33.02 94.391 96.207 33.657 31.816-96.832-95.003-31.216Zm3.217-4.891 70.908 70.513 104.14-104.723-135.904-57.811-39.144 92.02Zm-2.166-1.401 64.904-76.075-46.656-39.806-56.632 23.54 38.384 92.34Zm-4.062 1.688-38.383-92.34-.01.004-.01.004L101.58 65.32Zm-.476-.53 86.819 49.624.005-.009-86.824-49.614Zm.589-1.03 86.823 49.615L293.498-70.339 84.905-34.819l16.787 98.58Zm-2.023.345L82.883-34.475l16.786 98.581Zm-.297-.664 61.889 78.548.007-.006.008-.006-61.904-78.536Zm4.073-3.21 61.904 78.535 42.229-33.286-4.481-53.583-99.652 8.334Zm.527-1.918 82.276 56.839 3.317-4.802 2.736-5.154-88.329-46.883Zm.083-.115 72.341 69.042 4.012-4.204 3.498-4.64-79.851-60.198Zm1.245-1.083 50.8 86.136L333.734 38.488l-192.261-74.6L105.3 57.116Zm1.088-1.92L86.166 153.13l136.516 28.189-17.044-138.35-99.25 12.227Zm-.002-.029L17.031 10.269 5.164 33.886l1.353 26.397 99.869-5.116Zm1.238-2.464 89.354 44.898 5.823-11.59 2.674-12.691-97.851-20.617Zm.003-.01 89.395 44.817.005-.01.006-.01-89.406-44.796ZM18.59 7.404l-.23.458L197.17 97.457l.23-.457L18.589 7.404Zm-1.565 3.27-.001.003 181.941 83.052.001-.003-181.94-83.052Zm3.267-6.517-.001.002L195.7 100.24l.002-.003L20.292 4.156Zm-1.68 3.203-.02.04 178.81 89.594.02-.04L18.612 7.359Zm132.903-45.247-.026-.013-86.943 180.114.026.012 86.943-180.113Zm3.537 1.331a128.822 128.822 0 0 0-10.624-4.566 108.654 108.654 0 0 0-10.15-3.262 102.247 102.247 0 0 0-11.996-2.448c-2.522-.359-18.052-2.826-37.113 1.653l45.749 194.697a99.68 99.68 0 0 1-24.62 2.629 99.043 99.043 0 0 1-12.162-.97 97.825 97.825 0 0 1-11.462-2.333 91.153 91.153 0 0 1-8.561-2.734 71.81 71.81 0 0 1-6.004-2.552l86.943-180.114Zm50.734 50.472c-8.362-18.321-20.292-29.287-22.104-31.013a102.222 102.222 0 0 0-9.498-8 108.493 108.493 0 0 0-8.93-5.97 128.787 128.787 0 0 0-10.202-5.489L68.109 143.557a71.86 71.86 0 0 1-5.757-3.127 91.81 91.81 0 0 1-7.535-5.056 97.659 97.659 0 0 1-9.078-7.657 99.087 99.087 0 0 1-8.465-9.144 99.716 99.716 0 0 1-13.433-21.615l181.945-83.043Zm-47.472-48.521-.028-.014-86.945 180.113.028.013 86.945-180.112Zm45.682 135.353.251-.502-178.812-89.59-.251.503 178.812 89.589Zm.056.133c19.363-38.644 7.45-73.193 1.908-85.609-6.043-13.541-13.686-22.45-16.692-25.825L39.911 122.459c-2.955-3.318-10.561-12.176-16.585-25.674-5.523-12.372-17.432-46.885 1.916-85.5l178.81 89.595Zm-34.175 38.573c12.209-8.091 25.167-20.602 34.169-38.562L25.248 11.274C34.243-6.673 47.19-19.172 59.384-27.254l110.493 166.707Zm33.063-36.354 1.215-2.442L25.106 11.543l-1.215 2.441 179.049 89.115Zm10.208-29.24c2.581-20.298-.553-44.173-13.77-66.41L27.453 109.634C15.22 89.05 12.397 67.09 14.746 48.622l198.402 25.236Zm-22.056 52.303c11.82-14.777 25.685-40.744 22.384-74.62L14.418 70.939C11.245 38.377 24.655 14.052 34.915 1.227l156.177 124.935Zm-1.304 1.609c.165-.202.721-.881 1.301-1.606L34.917 1.224l.125-.156.03-.037-.057.07-.06.073-.078.097 154.911 126.5Zm-.078.096L34.955 1.175v.001L189.71 127.867Zm-.025.03.001-.001L34.978 1.147l-.001.001 154.708 126.749Zm-.129.158L35.106.99l154.45 127.065Zm.286-.35h.001L34.819 1.341l155.023 126.364Zm-.319.389L35.137.953l154.386 127.141Zm.516-.632h.001L34.62 1.585 190.04 127.463Zm18.32-56.863c.153 16.85-4.108 29.698-6.804 36.428-2.851 7.114-5.936 12.234-7.576 14.803-2.922 4.579-5.804 7.917-4.194 5.946L34.875 1.272c-.127.157-5.002 5.935-9.479 12.949-2.309 3.617-17.321 26.078-17.029 58.197l199.992-1.82Zm-50.4-85.946a119.708 119.708 0 0 0-4.043-2.167L62.81 160.53a79.338 79.338 0 0 1-2.7-1.448l97.849-174.428Zm-5.324-9.024c-13.477-2.94-42.57-8.683-72.946.641l58.69 191.195c-7.276 2.234-13.36 3.077-17.392 3.422-4.118.352-7.249.279-9.046.185-3.384-.179-4.372-.57-1.95-.042l42.644-195.4Zm51.208 177.029c10.279-8.811 22.834-23.262 29.905-44.437 7.358-22.036 6.122-43.447.863-60.83-8.9-29.418-28.394-45.33-32.857-48.97-12.334-10.061-24.443-14.91-26.776-15.876-8.506-3.52-16.965-5.84-23.853-7.233l-39.624 196.036c-3.422-.692-7.616-1.774-12.993-4-.77-.318-11.598-4.506-23.178-13.952-4.085-3.333-23.334-18.948-32.15-48.09-5.217-17.244-6.451-38.52.864-60.429C51.072 23.83 63.539 9.502 73.684.807l130.159 151.851Zm-65.185 25.296c4.078-.298 11.292-.924 19.266-2.64a106.557 106.557 0 0 0 21.319-6.96c4.275-1.923 35.504-15.243 51.364-52.064L46.92 37.174A99.442 99.442 0 0 1 76.59-1.518a98.31 98.31 0 0 1 20.615-12.528c8.903-4.004 16.209-5.64 18.658-6.167 5.618-1.208 9.259-1.377 8.217-1.301l14.579 199.468Zm28.189-6.127c3.895-1.501 27.41-10.115 45.333-34.706L50.556 19.318A99.413 99.413 0 0 1 78.143-6.398a98.238 98.238 0 0 1 16.795-8.4l71.909 186.625Zm-24.523 7.638c3.236-.456 9.869-1.475 17.56-3.783a103.679 103.679 0 0 0 19.292-7.963c6.146-3.303 25.867-14.41 39.746-38.636 18.913-33.013 16.507-71.199-.263-100.12C206.225 7.52 189.385-3.175 183.925-6.501c-12.739-7.76-24.332-10.815-26.933-11.518l-52.199 193.068c-1.794-.485-12.66-3.279-24.922-10.749-5.221-3.181-21.886-13.724-34.228-35.009-16.678-28.762-19.076-66.783-.26-99.627C59.166 5.605 78.685-5.328 84.503-8.455c8.009-4.303 14.784-6.49 17.909-7.428 6.488-1.946 11.328-2.6 12.014-2.696l27.898 198.044Zm-14.219 2.633c4.594-.116 13.11-.562 23.201-3.001 6.574-1.589 32.825-8.148 53.964-33.271 12.343-14.67 21.583-34.273 23.312-57.092 1.646-21.727-4.009-39.54-9.815-51.5-10.478-21.58-25.756-33.542-32.508-38.335L70.491 161.987c-6.386-4.533-21.33-16.167-31.638-37.397-5.722-11.785-11.333-29.419-9.7-50.967 1.716-22.64 10.884-42.064 23.083-56.562 20.849-24.779 46.516-31.02 52.079-32.365 9.081-2.195 16.16-2.47 18.76-2.535l5.03 199.937Zm18.283-2.373a89.15 89.15 0 0 1-18.287 2.373L123.08-17.839c-7.82.196-15.439 1.21-22.753 2.94l46.061 194.624ZM192.799 9.304a241.968 241.968 0 0 0-13.676-9.897L67.591 165.42c.414.279.855.587 1.284.898.432.314.758.562.941.705L192.8 9.303Zm-69.863 179.963c8.875-.204 17.482-1.171 25.699-2.616L113.98-10.324c.204-.036 1.735-.296 4.371-.357l4.585 199.948Zm95.487-76.574c6.937-30.51-.741-61.233-18.48-84.323L41.345 150.217C24.122 127.799 16.668 97.964 23.4 68.352l195.023 44.341Zm-.478 2.009c.16-.644.321-1.316.479-2.014L23.399 68.358c.154-.679.31-1.33.465-1.954l194.081 48.298Zm-19.352 40.744c30.99-38.214 30.055-93.005-1.896-130.128L45.112 155.787C14.078 119.73 13.19 66.544 43.252 29.474l155.341 125.972Zm-51.912 33.939a101.528 101.528 0 0 0 51.912-33.939L43.252 29.474A98.478 98.478 0 0 1 93.604-3.444l53.077 192.829Zm21.456-8.445a101.518 101.518 0 0 0 38.061-37.035L34.086 42.035A98.483 98.483 0 0 1 71.004 6.11l97.133 174.83ZM30.102 141.502c27.822 50.105 90.122 66.058 138.035 39.438L71.005 6.11C117.46-19.7 177.93-4.257 204.953 44.41L30.102 141.502Zm-.081-.146.08.145 174.853-97.09-.08-.144-174.853 97.089Zm157.255 23.05a101.525 101.525 0 0 0 7.357-8.015L40.262 29.231a98.455 98.455 0 0 1 7.134-7.77l139.88 142.945Zm-55.547 27.779a101.526 101.526 0 0 0 55.548-27.78L47.395 21.461a98.478 98.478 0 0 1 53.878-26.944l30.456 197.668Zm22.348-5.935a101.52 101.52 0 0 0 42.034-32.383L36.891 32.835a98.479 98.479 0 0 1 40.77-31.41l76.416 184.825ZM21.37 130.938c21.756 53.116 81.913 76.313 132.708 55.312L77.66 1.424C126.914-18.94 185.316 3.54 206.448 55.132L21.37 130.938Zm-.76-1.856.76 1.856 185.077-75.806-.76-1.856-185.076 75.806Zm30.483 40.666 3.993 2.848L171.213 9.762l-3.994-2.848L51.093 169.748Zm-33.357-40.401a101.47 101.47 0 0 0 33.358 40.402L167.218 6.914a98.538 98.538 0 0 1 32.392 39.235L17.736 129.347Zm10.29 21.558c14.028 15.399 31.022 25.516 48.083 31.392L141.237-6.801c10.959 3.774 23.606 10.91 34.636 23.017L28.026 150.905ZM47.82 168.59c5.577 3.097 14.578 7.538 25.63 10.824l56.999-191.706a74.223 74.223 0 0 1 8.821 3.222 68.012 68.012 0 0 1 5.641 2.808L47.82 168.59Zm7.27.638c-14.418-5.535-26.552-14.506-35.811-25.214-8.041-9.299-16.083-22.444-20.188-39.661L193.64 57.974c-7.714-32.359-31.534-61.896-66.873-75.461L55.091 169.228ZM63.76-23.35c-7.57 1.97-25.53 7.46-42.732 23.13-9.5 8.655-21.581 23.066-28.214 44.186-7.05 22.453-5.528 44.909 1.241 63.866 11.445 32.052 35.036 47.451 40.327 50.896 8.677 5.649 16.524 8.894 20.713 10.502l71.667-186.719c2.35.902 8.922 3.517 16.746 8.611 4.439 2.89 27.6 17.809 38.9 49.454 6.696 18.755 8.217 41.026 1.219 63.312-6.581 20.954-18.555 35.218-27.913 43.743-16.918 15.411-34.449 20.716-41.584 22.572L63.76-23.35Zm36.17-5.005a106.094 106.094 0 0 0-22.386-.41c-4.635.413-17.625 1.77-32.61 8.519-14.75 6.643-50.005 27.867-57.79 75.123-6.81 41.34 13.716 69.978 19.48 77.484a102.63 102.63 0 0 0 19.112 19.034c7.373 5.635 14.199 9.256 17.024 10.727l92.37-177.391c.413.214 5.644 2.863 12.041 7.75 2.86 2.186 10.502 8.203 18.086 18.08 5.559 7.239 26.009 35.66 19.227 76.826-7.756 47.082-42.878 68.175-57.415 74.723-14.775 6.654-27.474 7.952-31.765 8.334-10.112.902-17.843-.054-19.879-.305L99.93-28.355ZM36.757-15.212C26.484-9.116 11.786 2.135.841 21.3l173.674 99.184c-10.899 19.084-25.523 30.266-35.697 36.303l-102.06-172ZM90.19-33.644c-1.888-.128-14.254-1.155-28.93 1.839-4.316.88-30.463 5.777-52.74 29.011-13.674 14.262-25.166 34.868-27.49 60.287-2.18 23.86 4.542 42.877 10.4 54.46 10.283 20.337 24.83 31.611 28.192 34.242a110.586 110.586 0 0 0 13.506 9.024c5.853 3.329 11.439 5.839 15.21 7.458l78.9-183.78c-1.004-.43 1.195.442 4.769 2.475 1.698.965 5.874 3.406 10.882 7.326 2.741 2.146 16.909 13.01 27.02 33.006C175.68 33.116 182.368 51.98 180.2 75.7c-2.311 25.281-13.743 45.765-27.315 59.92-22.071 23.02-47.841 27.761-51.644 28.537-13.648 2.784-24.44 1.749-24.49 1.746l13.44-199.548Zm15.661 1.512c-7.09-1.17-17.05-2.178-27.825-1.59l10.89 199.703c-4.505.246-7.801.066-9.318-.039a66.198 66.198 0 0 1-6.325-.745l32.578-197.33Zm31.76 7.666c-11.528-4.032-23.062-6.38-33.284-7.906l-29.53 197.808c1.208.181 1.516.268 1.105.174-.366-.083-1.928-.453-4.333-1.294l66.042-188.781ZM36.9-5.48C26.255 5.224 15.782 19.856 9.587 38.71l190.006 62.431c-5.22 15.886-13.726 27.213-20.878 34.406L36.9-5.48Zm3.837 145.188c6.987 5.961 16.24 12.375 27.927 17.346L146.95-26.987c10.397 4.423 18.203 9.945 23.594 14.545L40.737 139.708Zm99.226 17.953 4.062-1.688-76.768-184.68-4.061 1.688 76.767 184.68ZM14.283 15.169c-49.582 86.748 41.133 177.657 125.699 142.484L63.177-27.011c83.896-34.894 173.97 55.303 124.745 141.426L14.284 15.169Zm.585-1.022-.589 1.03 173.648 99.229.588-1.03L14.868 14.147Zm101.588 148.54 2.022-.344L84.905-34.819l-2.022.344 33.573 197.162ZM37.483-15.106c-83.251 65.595-21.65 194.928 78.974 177.793L82.882-34.475C182.73-51.478 243.894 76.882 161.261 141.99L37.483-15.106Zm4.058-3.198-4.073 3.21 123.808 157.072 4.073-3.211L41.541-18.304ZM21.696 1.476C9.326 19.382 1.636 42.789 3.793 68.566l199.304-16.668c2.038 24.37-5.256 46.474-16.849 63.255L21.696 1.476Zm10.018-12.32a100.522 100.522 0 0 0-16.07 22.275L192.3 105.197a99.507 99.507 0 0 1-15.905 22.044L31.714-10.843ZM54.5-29.018C44.38-23.052 33.502-14.333 24.204-2l159.702 120.396a95.763 95.763 0 0 1-27.806 24.855L54.5-29.019Zm72.111-13.719a103.5 103.5 0 0 0-39.935-.371c-9.632 1.802-31.682 7.28-51.746 26.502C23.766-5.914 9.449 12.954 5.135 40.398.59 69.304 9.263 94.166 20.399 111.144c18.141 27.657 43.887 37.322 48.727 39.2l72.347-186.456c3.416 1.326 28.363 10.429 46.162 37.564 10.965 16.718 19.581 41.33 15.074 70.002-4.277 27.21-18.465 45.861-29.425 56.361-19.659 18.833-41.015 24.016-49.83 25.665a96.488 96.488 0 0 1-37.288-.35L126.61-42.738ZM6.517 60.282c.125 2.454.338 4.836.622 7.141L205.638 42.97c.281 2.285.492 4.647.617 7.081L6.517 60.283ZM18.269 7.807l-1.238 2.463 178.709 89.796 1.238-2.464L18.269 7.806Zm-.037.07a100.037 100.037 0 0 0-8.46 24.21L205.475 73.32a99.952 99.952 0 0 1-8.453 24.19L18.232 7.877Zm95.597-55.033c-4.444-.27-15.839-.747-29.84 2.666C71.516-41.45 37.331-30.243 18.22 7.898l178.812 89.591c-19.097 38.113-53.252 49.301-65.676 52.33-13.956 3.402-25.288 2.922-29.656 2.656l12.128-199.632Z" mask="url(#a)"/><path fill="#D9D9D9" d="M89.484 66.643c28.046 4.264 24.127 12.324 18.661 15.821-1.233 2.636-7.409.011-10.343-1.631-.292-1.162-1.749-3.82-5.236-5.156-3.488-1.336-2.736-2.15-1.923-2.39-5.05-2.647-2.6-2.718-.743-2.422-15.41-4.899-5.664-5.107-.416-4.222Z"/><path fill="url(#b)" d="M88.711 66.785c28.491 4.729 24.269 12.758 18.597 16.182-1.331 2.627-7.558-.108-10.505-1.803-.266-1.171-1.678-3.863-5.2-5.26-3.52-1.397-2.73-2.202-1.894-2.43-5.077-2.738-2.576-2.77-.691-2.444-13.034-5.728-5.635-5.216-.307-4.245Z"/><path stroke="#FF6B0A" stroke-linecap="round" stroke-width="3" d="M109.899 87.06 114 90.106M115.831 91.773l-1.677-1.765M115.69 90.43l-1.504-.526M114.892 92.358l-.922-2.37"/><path fill="#D9D9D9" d="M131.113 73.404c-27.761-5.808-26.974 3.101-23.111 8.282.212 2.897 6.928 2.599 10.259 2.087.689-.985 3.001-2.962 6.741-2.994 3.741-.031 3.327-1.055 2.653-1.563 5.669-.713 3.403-1.635 1.561-2.007 16.165.8 7.122-2.799 1.897-3.805Z"/><path fill="url(#c)" d="M131.747 74.198c-28.343-5.53-27.262 3.456-23.179 8.64.307 2.923 7.109 2.54 10.472 1.984.667-1.003 2.95-3.028 6.743-3.105 3.793-.076 3.341-1.105 2.641-1.61 5.728-.789 3.4-1.692 1.52-2.046 14.24-.805 7.135-2.911 1.803-3.864Z"/><path fill="url(#d)" d="M99.815 76.09c-.386 5.992 5.145 16.769 30.358 11.932-9.347-7.656-28.504-20.762-30.358-11.933Z"/><path fill="#fff" d="M112.811 63.727c1.778-2.332.563-3.767-.267-4.194-.785.272-3.385.532-2.224.854 1.162.322.385 1.872-.149 2.607-7.899 6.4-5.799 11.78-4.422 13.486 2.206-.27 6.024-1.241 3.656-2.958-2.961-2.146 1.183-6.881 3.406-9.795Z"/><path fill="url(#e)" d="M114.913 88.277c-.569.963-3.935-.053-7.517-2.269-3.582-2.215-6.024-4.79-5.455-5.753.569-.962 3.934.053 7.516 2.269 3.582 2.215 6.025 4.791 5.456 5.753Z"/><path stroke="#FF6B0A" stroke-linecap="round" stroke-width="3" d="m112.696 87.446 4.502 2.381M119.141 91.418l-1.867-1.549M118.849 90.104l-1.555-.342M118.273 92.11l-1.185-2.238"/><path fill="#fff" d="M105.186 63.123c3.154 3.176 5.235 2.411 5.881 1.632 3.196-.924 4.143-6.844-.536-8.143-4.679-1.299-9.289 2.54-5.345 6.51Z"/><path fill="#DF5B04" d="m108.181 62.266-.486-.563a5.13 5.13 0 0 0-3.406-1.763.192.192 0 0 0-.184.1l-2.653 4.823c-.171.312.133.665.453.525l6.181-2.702a.27.27 0 0 0 .095-.42Z"/><path fill="#FF6B0A" d="m108.296 62.266-.402-.45a5.68 5.68 0 0 0-3.641-1.876.206.206 0 0 0-.153.047l-4.293 3.538c-.296.244-.09.728.281.66l8.053-1.462a.28.28 0 0 0 .155-.457Z"/><path fill="#797979" d="M104.518 59.136a.506.506 0 0 0 .618-.365.509.509 0 0 0-.344-.632.507.507 0 0 0-.618.365.51.51 0 0 0 .344.632ZM109.322 61.005a.507.507 0 0 0 .618-.365.51.51 0 0 0-.344-.632.507.507 0 0 0-.618.365.509.509 0 0 0 .344.632Z"/><path fill="#3D3A00" d="m107.823 52.82.273-.565 6.496 3.255-1.479 3.063-.228-.115-5.522-2.338-.746-.802 1.028-2.13-.034-.01.112-.387.1.029Z"/><path fill="#3D3A00" d="M110.896 54.81c1.845.925 3.416 1.52 3.508 1.33.092-.19-1.329-1.095-3.175-2.02-1.845-.924-3.416-1.519-3.508-1.328-.092.19 1.33 1.094 3.175 2.019ZM106.537 55.29c-2.378-.51-5.463 2.01 4.754 3.063l-4.754-3.063Z"/><path fill="#494600" d="M106.528 55.26c.055 1.223 5.657 3.961 6.685 3.348l1.182-2.464c-1.081-.144-2.666-1.631-4.346-1.791l-2.565 1.317.239-2.879-1.195 2.468Z"/><path fill="#3D3A00" d="M111.156 54.27c1.793.899 3.322 1.472 3.414 1.282.092-.19-1.288-1.074-3.081-1.972-1.794-.899-3.322-1.473-3.414-1.282-.092.19 1.287 1.073 3.081 1.972Z"/><path fill="#3D3A00" d="M110.944 54.835c1.819.911 3.368 1.495 3.46 1.305.092-.19-1.308-1.084-3.126-1.995-1.819-.911-3.368-1.495-3.46-1.305-.092.19 1.307 1.084 3.126 1.995Z"/><path fill="#FFD500" d="M108.463 53.445a.414.414 0 0 1 .002.36c-.02.045-.046.088-.069.13-.02.039-.041.076-.06.115-.005.01-.009.013-.02.007-.023-.014-.049-.016-.072-.001a.062.062 0 0 0-.03.058.07.07 0 0 0 .031.057c.009.007.018.008.03.002a.683.683 0 0 0 .226-.171c.053-.06.093-.13.136-.198.024-.038.05-.076.073-.115a.264.264 0 0 1 .053-.065.183.183 0 0 1 .074-.04.15.15 0 0 1-.01.084.565.565 0 0 1-.04.07c-.016.024-.034.046-.051.068-.043.06-.088.119-.13.18a.692.692 0 0 0-.119.337c-.002.017.005.026.018.034.032.019.071.011.091-.018a.07.07 0 0 0-.016-.092c-.01-.009-.008-.013 0-.021l.114-.133c.044-.05.084-.101.141-.137a.387.387 0 0 1 .235-.059l.021.002-.009.014-.515.75c-.01.014-.01.014-.023.004l-.151-.108c-.008-.007-.014-.007-.022 0a.334.334 0 0 1-.221.096c-.017.001-.035.006-.053.008-.005-.054-.029-.106-.026-.164a.395.395 0 0 1 .03-.136c.004-.01.002-.015-.005-.02l-.153-.11c-.009-.007-.011-.012-.004-.022l.518-.754c-.001-.002.001-.005.006-.012Zm-.024.156-.006-.002-.009.014-.245.358c-.014.02-.014.02.006.034.007.006.012.007.02 0a.109.109 0 0 1 .081-.023c.012.002.017-.004.022-.014.026-.049.051-.1.078-.147a.363.363 0 0 0 .048-.15c.003-.024.003-.047.005-.07Zm.519.378-.003-.003-.022.008c-.051.021-.092.038-.131.08l-.142.161c-.006.007-.008.014-.004.024a.122.122 0 0 1 .007.086c-.004.014.001.022.02.03.012.006.013-.005.017-.01l.25-.365a.06.06 0 0 0 .008-.01Zm-.759.24a.06.06 0 0 1-.009-.011c-.034-.038-.051-.081-.034-.133.002-.007.001-.011-.005-.015a.146.146 0 0 1-.013-.01c-.007-.004-.011-.003-.016.004l-.1.148c-.002.003-.001.012.001.014a5.1 5.1 0 0 0 .103.074c.003.002.011.001.013-.001l.06-.07Zm.27.195-.044.082c-.004.008.001.011.006.015.032.023.064.045.096.07.01.007.016.005.022-.005.029-.045.06-.088.091-.133.014-.02.014-.02-.006-.034-.006-.004-.011-.008-.018-.002-.037.03-.079.032-.122.018-.009-.004-.017-.009-.025-.011Zm-.007-.282a.9.9 0 0 1-.162.1c.01.028.019.055.03.08.001.005.008.008.013.008.023.002.047 0 .07.002.007 0 .011-.002.012-.01a.729.729 0 0 1 .035-.166l.002-.014Zm-.3.26c-.026.032-.038.126-.023.15l.002-.001c.023-.034.048-.068.07-.102.002-.002 0-.01-.002-.012-.015-.013-.031-.023-.047-.035Zm.029.189c.038.003.118-.044.132-.074l-.043-.03c-.008-.006-.013-.005-.019.003l-.056.082-.014.019Zm.029-.225c.008.006.016.014.025.018.003.002.011 0 .012-.002.016-.032.015-.07-.007-.095-.004-.005-.008-.006-.014-.001l-.044.048c-.005.007-.003.012.003.016l.025.016Zm.116.084a.42.42 0 0 0 .022.016c.007.006.014.006.018-.003a1.09 1.09 0 0 0 .028-.054c.004-.008.001-.013-.008-.016a.081.081 0 0 0-.087.026c-.002.003-.001.01.001.013l.026.019Z"/><path fill="url(#f)" d="M108.687 64.355c.569.87 1.785 1.044 2.716.388.931-.655 1.224-1.892.655-2.762-.569-.87-1.785-1.044-2.715-.388-.931.655-1.225 1.892-.656 2.762Z"/><path fill="#fff" stroke="#161616" stroke-width=".342" d="m118.744 55.943-.27-.001.138-.243c.243-.43.504-1.128.5-1.812-.005-.674-.265-1.333-1.065-1.73-.495-.246-1.231-.263-2.119-.207-.283.017-.581.042-.888.068-.635.054-1.308.11-1.961.112-.974.001-1.942-.12-2.748-.57-.813-.452-1.445-1.229-1.766-2.505-.631-2.505-.41-4.642.35-6.17.763-1.534 2.071-2.454 3.575-2.486.575-.013 1.76-.129 3.309-.28l1.102-.108c2.078-.2 4.603-.43 7.097-.559 2.493-.129 4.961-.159 6.924.04.982.1 1.844.258 2.522.493.673.233 1.19.55 1.447.988.932 1.593 1.31 3.518 1.206 5.237-.103 1.71-.685 3.262-1.727 4.059-.22.168-.556.324-.962.472-.409.148-.905.293-1.456.431-1.103.277-2.437.53-3.763.742a68.3 68.3 0 0 1-3.724.492c-.962.098-1.744.15-2.157.135-.306.574-.811 1.38-1.405 2.06-.317.362-.664.695-1.025.938-.36.243-.745.405-1.134.404Z"/><path fill="#000" d="m118.296 44.922.671-.984.005.258-.742-.886.524-.028.47.58-.197.016.42-.631.497-.026-.646.95-.014-.252.77.913-.53.027-.493-.617.196.016-.422.638-.509.026Zm2.318-.12-.071-1.335.11.102-.65.034-.02-.384 1.554-.08.021.383-.65.034.099-.113.072 1.336-.465.024Zm1.948-.076a.953.953 0 0 1-.464-.084.846.846 0 0 1-.331-.277.816.816 0 0 1-.136-.423.794.794 0 0 1 .389-.744.955.955 0 0 1 .453-.131c.17-.01.324.019.461.084a.786.786 0 0 1 .467.7.802.802 0 0 1-.091.434.806.806 0 0 1-.298.31.947.947 0 0 1-.45.131Zm-.021-.383a.39.39 0 0 0 .346-.225.508.508 0 0 0 .041-.243.49.49 0 0 0-.067-.237.383.383 0 0 0-.155-.145.41.41 0 0 0-.212-.043.41.41 0 0 0-.207.065.412.412 0 0 0-.142.16.5.5 0 0 0-.041.243c.005.092.027.17.067.237a.405.405 0 0 0 .37.188Zm1.993.281a1.004 1.004 0 0 1-.47-.08.823.823 0 0 1-.336-.28.816.816 0 0 1-.137-.423.802.802 0 0 1 .091-.434.798.798 0 0 1 .305-.31.978.978 0 0 1 .458-.132c.17-.009.32.02.449.085.13.063.228.16.295.288l-.352.213a.418.418 0 0 0-.168-.16.434.434 0 0 0-.419.022.405.405 0 0 0-.145.161.5.5 0 0 0-.041.243.5.5 0 0 0 .067.236.406.406 0 0 0 .38.188.415.415 0 0 0 .201-.061.406.406 0 0 0 .149-.18l.373.18a.658.658 0 0 1-.262.317.899.899 0 0 1-.438.127Zm1.818-1.217c.212-.009.375.03.49.12a.48.48 0 0 1 .189.383.504.504 0 0 1-.166.426c-.121.104-.293.162-.517.174l-.809.039-.086-1.612.464-.024.028.515.407-.02Zm-.064.773c.09-.003.158-.026.204-.068.046-.043.067-.104.062-.184-.004-.08-.031-.135-.081-.167a.355.355 0 0 0-.21-.046l-.302.013.025.467.302-.016Zm-12.094 3.958-.087-1.612.465-.024.034.63.701-.037-.034-.629.467-.024.087 1.612-.468.024-.032-.602-.701.036.032.602-.464.024Zm3.045-.157-.017-.315-.034-.067-.03-.563a.298.298 0 0 0-.105-.23c-.063-.052-.158-.075-.283-.069a.809.809 0 0 0-.457.174l-.185-.318c.084-.066.188-.12.31-.16a1.42 1.42 0 0 1 .375-.07c.245-.013.439.035.581.144.142.109.22.286.233.532l.049.92-.437.022Zm-.49.05a.762.762 0 0 1-.327-.047.5.5 0 0 1-.216-.166.45.45 0 0 1-.086-.245.46.46 0 0 1 .056-.255.463.463 0 0 1 .215-.18c.1-.047.232-.075.396-.083l.428-.022.015.272-.378.02c-.11.006-.185.027-.225.066a.173.173 0 0 0-.052.138c.003.06.028.106.076.14.05.031.116.045.198.04a.41.41 0 0 0 .207-.064.334.334 0 0 0 .126-.172l.083.212a.415.415 0 0 1-.173.246.666.666 0 0 1-.343.1Zm1.333-.094-.086-1.611.488-.026.667 1.072-.194.01.591-1.136.437-.023.093 1.611-.423.022-.061-1.132.075.044-.505.957-.197.01-.609-.932.086-.026.061 1.139-.423.021Zm3.199-.14a.958.958 0 0 1-.464-.085.85.85 0 0 1-.33-.277.816.816 0 0 1-.137-.423.812.812 0 0 1 .091-.434.807.807 0 0 1 .299-.31.952.952 0 0 1 .453-.131.95.95 0 0 1 .461.084.798.798 0 0 1 .33.274c.082.12.128.262.137.426a.82.82 0 0 1-.091.434.808.808 0 0 1-.299.31.948.948 0 0 1-.45.131Zm-.02-.384a.41.41 0 0 0 .207-.065.382.382 0 0 0 .138-.16.496.496 0 0 0 .041-.243.5.5 0 0 0-.066-.237.391.391 0 0 0-.368-.188.403.403 0 0 0-.348.225.488.488 0 0 0-.041.243c.005.092.027.17.066.237a.42.42 0 0 0 .158.145.412.412 0 0 0 .213.043Zm2.207-.372a1.01 1.01 0 0 1-.476.144c-.212.011-.377-.028-.496-.118-.119-.092-.184-.244-.196-.456l-.027-.506.468-.024.025.476c.006.1.035.17.09.212a.34.34 0 0 0 .222.051.836.836 0 0 0 .372-.112l.018.333Zm0 .618-.086-1.611.467-.024.087 1.611-.468.024Zm.916-.047-.086-1.611.464-.024.052.958.733-.999.429-.022.086 1.612-.464.023-.052-.958-.73.999-.432.022Zm2.127-.11-.086-1.611.824-.043c.202-.01.361.019.479.087.118.066.18.165.187.296a.36.36 0 0 1-.145.32.723.723 0 0 1-.416.133l.042-.11c.196-.01.343.018.443.085.102.067.156.169.164.307a.401.401 0 0 1-.144.344c-.103.087-.266.137-.488.148l-.86.044Zm.412-.34.392-.02a.353.353 0 0 0 .19-.051.15.15 0 0 0 .058-.139c-.003-.061-.025-.105-.067-.131-.041-.028-.105-.04-.191-.035l-.401.02.019.357Zm-.034-.631.353-.019c.082-.004.142-.022.181-.054a.15.15 0 0 0 .056-.132c-.003-.058-.027-.1-.07-.126a.32.32 0 0 0-.185-.032l-.354.018.019.345Zm2.254.86a1.005 1.005 0 0 1-.47-.081.828.828 0 0 1-.336-.28.816.816 0 0 1-.137-.423.803.803 0 0 1 .091-.434.798.798 0 0 1 .305-.31.978.978 0 0 1 .458-.132c.17-.009.32.02.45.085.129.063.228.16.295.288l-.353.214a.402.402 0 0 0-.374-.203.432.432 0 0 0-.213.065.396.396 0 0 0-.144.16.488.488 0 0 0-.042.243.512.512 0 0 0 .067.237.404.404 0 0 0 .161.145.434.434 0 0 0 .219.042.416.416 0 0 0 .201-.061.406.406 0 0 0 .149-.179l.374.179a.66.66 0 0 1-.263.317.898.898 0 0 1-.438.128Zm1.983-.127-.029-.536.07.072-.446.023c-.232.012-.416-.027-.553-.116a.48.48 0 0 1-.22-.403.51.51 0 0 1 .183-.451c.134-.11.319-.17.555-.182l.77-.04.086 1.612-.416.021Zm-1.148.06.396-.637.476-.024-.374.635-.498.026Zm1.111-.74-.036-.67.073.116-.411.02a.401.401 0 0 0-.222.066c-.05.039-.072.098-.068.178.008.154.111.226.309.216l.416-.022-.061.096Z"/><defs><linearGradient id="b" x1="99.253" x2="94.454" y1="68.715" y2="80.49" gradientUnits="userSpaceOnUse"><stop stop-color="#fff"/><stop offset="1" stop-color="#F5F5F5"/></linearGradient><linearGradient id="c" x1="121.196" x2="121.57" y1="72.319" y2="85.009" gradientUnits="userSpaceOnUse"><stop stop-color="#fff"/><stop offset="1" stop-color="#F9F9F9"/></linearGradient><linearGradient id="d" x1="109.677" x2="120.682" y1="75.763" y2="88.296" gradientUnits="userSpaceOnUse"><stop stop-color="#fff"/><stop offset="1" stop-color="#F5F5F5"/></linearGradient><radialGradient id="e" cx="0" cy="0" r="1" gradientTransform="rotate(31.736 -94.013 232.858) scale(7.62591 2.02386)" gradientUnits="userSpaceOnUse"><stop stop-color="#E8E8E8"/><stop offset="1" stop-color="#EFEFEF" stop-opacity=".5"/></radialGradient><radialGradient id="f" cx="0" cy="0" r="1" gradientTransform="matrix(-1.68554 1.18695 -1.0831 -1.53806 110.373 63.168)" gradientUnits="userSpaceOnUse"><stop stop-color="#FBB"/><stop offset="1" stop-color="#FBB" stop-opacity="0"/></radialGradient></defs></svg>