<svg xmlns="http://www.w3.org/2000/svg" width="573" height="647" fill="none"><g filter="url(#a)"><rect width="512" height="624" x="32" y="13" fill="#DBF0FF" rx="25"/></g><path fill="#fff" stroke="#383838" stroke-width="2.207" d="M170.588 109.667c-39.051 10.94-52.663 35.414-54.588 46.283l37.792 183.555-13.647 66.795c-7.978 39.55-3.324 72.58 0 84.15-5.879 23.563-18.546 44.53-24.145 52.069 10.918 27.349 51.789 38.394 70.86 40.498 219.927 26.823 256.669-45.232 252.47-45.232-4.199 0-9.448-36.29-5.773-47.335 3.674-11.044.443-51.95 0-55.75-.342-2.925-7.349-53.12-11.023-77.839-1.575-5.084-5.984-29.558-11.023-86.781-5.039-57.222 32.893-93.267 52.489-104.137-27.294-45.757-78.208-61.009-78.208-61.009S353.774 92.136 342.751 86c0 0-32.06 13.89-53.751 14-22.126.113-54.9-14-54.9-14-3.85 3.331-24.46 12.728-63.512 23.667Z"/><path fill="#fff" stroke="#383838" stroke-width="2.207" d="M440.705 382c-6.693-11.291-20.078-34.297-20.078-35.99-5.46-22.406-12.932-68.79-9.128-103.51 3.805-34.72 35.416-67.502 52.5-76.5l66 184.244c-3.381 3.387-60.939 22.582-89.294 31.756ZM157.752 233.099c-1.271-60.306-27.305-77.86-41.252-79.099L46 339.802 137.096 369 154 340c2.119-10.44 5.023-46.595 3.752-106.901Z"/><path stroke="#010101" stroke-width="3" d="M326 28.297c-11.702-20.245-39.206-47.35-54.065 0C255.434 80.88 295.807 59.684 301.425 98"/><g clip-path="url(#b)"><mask id="c" width="158" height="262" x="265.359" y="150.704" fill="#000" maskUnits="userSpaceOnUse"><path fill="#fff" d="M265.359 150.704h158v262h-158z"/><path fill-rule="evenodd" d="M292.1 153.406a.435.435 0 0 0-.018-.198c-.405-1.176-6.264-.222-13.085 2.131-6.821 2.353-12.022 5.213-11.616 6.389a.366.366 0 0 0 .027.061l-.013.005 4.42 12.658.192.017c-2.037 2.903-2.816 6.49-.975 10.745-1.741.521-2.88 3.035-2.596 5.918.297 3.01 2.037 5.322 3.942 5.307-.489 2.212-1.319 4.296-2.135 6.343-2.02 5.065-3.949 9.905-.384 15.908 1.761 2.967 3.63 4.948 5.374 6.798 3.926 4.162 7.223 7.658 7.261 20.229.027 8.756 3.918 26.207 8.172 42.501l-.051-.007.53 1.831a747.238 747.238 0 0 0 6.339 22.54c-16.02 21.768-8.697 61.405-.923 83.276 51.793 16.943 148.448 34.194 120.717-32.346-17.785-42.676-39.157-61.171-56.093-67.777 6.576-11.66 3.722-17.982-2.225-21.09 1.673-11.393-9.006-10.252-19.112-7.966-3.933-13.565-8.272-26.523-11.911-32.871-5.091-8.879-3.391-14.44-1.697-19.984 1.312-4.291 2.62-8.572.774-14.373-1.973-6.2-6.017-8.417-9.911-10.552-2.08-1.14-4.117-2.257-5.773-3.945 1.591-.984 1.911-3.81.683-6.522-1.058-2.335-2.936-3.862-4.579-3.893-1.181-5.921-5.861-8.349-10.91-9.041l-4.424-12.092Zm48.673 116.502c.228.806.455 1.612.68 2.418 4.655-.521 10.336-.344 14.947 1.232-1.075-3.36-5.293-5.219-15.627-3.65Zm15.416 9.014c-2.826-1.883-7.182-2.967-13.591-2.718l-.211-.655 1.026 3.56.048-.041 1.708 6.631-.106.101a739.514 739.514 0 0 1 1.732 6.849c.894.023 1.82.083 2.774.182.465-.817.962-1.658 1.493-2.526.252-.492.517-1 .788-1.521 1.619-3.107 3.468-6.655 4.339-9.862Zm-4.757 14.149c.428-.856.889-1.744 1.384-2.665 2.175-4.05 3.726-7.489 4.746-10.398 4.035 3.786 3.62 9.749 1.598 14.985a44.874 44.874 0 0 0-7.728-1.922Zm-43.561-43.399h-.001l9.532 35.572h.001l-9.532-35.572Zm12.953 48.339.082.307h-.001l-.082-.307h.001Z" clip-rule="evenodd"/></mask><path fill="#005BBB" fill-rule="evenodd" d="M292.1 153.406a.435.435 0 0 0-.018-.198c-.405-1.176-6.264-.222-13.085 2.131-6.821 2.353-12.022 5.213-11.616 6.389a.366.366 0 0 0 .027.061l-.013.005 4.42 12.658.192.017c-2.037 2.903-2.816 6.49-.975 10.745-1.741.521-2.88 3.035-2.596 5.918.297 3.01 2.037 5.322 3.942 5.307-.489 2.212-1.319 4.296-2.135 6.343-2.02 5.065-3.949 9.905-.384 15.908 1.761 2.967 3.63 4.948 5.374 6.798 3.926 4.162 7.223 7.658 7.261 20.229.027 8.756 3.918 26.207 8.172 42.501l-.051-.007.53 1.831a747.238 747.238 0 0 0 6.339 22.54c-16.02 21.768-8.697 61.405-.923 83.276 51.793 16.943 148.448 34.194 120.717-32.346-17.785-42.676-39.157-61.171-56.093-67.777 6.576-11.66 3.722-17.982-2.225-21.09 1.673-11.393-9.006-10.252-19.112-7.966-3.933-13.565-8.272-26.523-11.911-32.871-5.091-8.879-3.391-14.44-1.697-19.984 1.312-4.291 2.62-8.572.774-14.373-1.973-6.2-6.017-8.417-9.911-10.552-2.08-1.14-4.117-2.257-5.773-3.945 1.591-.984 1.911-3.81.683-6.522-1.058-2.335-2.936-3.862-4.579-3.893-1.181-5.921-5.861-8.349-10.91-9.041l-4.424-12.092Zm48.673 116.502c.228.806.455 1.612.68 2.418 4.655-.521 10.336-.344 14.947 1.232-1.075-3.36-5.293-5.219-15.627-3.65Zm15.416 9.014c-2.826-1.883-7.182-2.967-13.591-2.718l-.211-.655 1.026 3.56.048-.041 1.708 6.631-.106.101a739.514 739.514 0 0 1 1.732 6.849c.894.023 1.82.083 2.774.182.465-.817.962-1.658 1.493-2.526.252-.492.517-1 .788-1.521 1.619-3.107 3.468-6.655 4.339-9.862Zm-4.757 14.149c.428-.856.889-1.744 1.384-2.665 2.175-4.05 3.726-7.489 4.746-10.398 4.035 3.786 3.62 9.749 1.598 14.985a44.874 44.874 0 0 0-7.728-1.922Zm-43.561-43.399h-.001l9.532 35.572h.001l-9.532-35.572Zm12.953 48.339.082.307h-.001l-.082-.307h.001Z" clip-rule="evenodd"/><path fill="#010101" d="m292.082 153.208-.95.327.95-.327Zm.018.198-.996-.127-.031.243.084.229.943-.345Zm-13.103 1.933-.327-.95.327.95Zm-11.616 6.389-.95.328.95-.328Zm.027.061.332.948 1.114-.391-.564-1.037-.882.48Zm-.013.005-.333-.948-.947.332.331.947.949-.331Zm4.42 12.658-.949.331.213.609.642.06.094-1Zm.192.017.822.577 1.003-1.429-1.739-.149-.086 1.001Zm-.975 10.745.288.962 1.083-.324-.449-1.037-.922.399Zm-2.596 5.918-1 .098 1-.098Zm3.942 5.307.981.217.272-1.232-1.261.01.008 1.005Zm-2.135 6.343-.934-.372.934.372Zm-.384 15.908-.864.513.864-.513Zm5.374 6.798-.731.689.731-.689Zm7.261 20.229 1.005-.003-1.005.003Zm8.172 42.501-.148.994 1.504.224-.384-1.472-.972.254Zm-.051-.007.148-.994-1.548-.23.435 1.503.965-.279Zm.53 1.831.972-.256-.003-.012-.004-.011-.965.279Zm6.339 22.54.809.596.297-.404-.143-.48-.963.288Zm-.923 83.276-.947.337.166.465.469.153.312-.955Zm120.717-32.346-.927.387.927-.387Zm-56.093-67.777-.875-.494-.569 1.009 1.079.421.365-.936Zm-2.225-21.09-.994-.146-.104.706.632.331.466-.891Zm-19.112-7.966-.965.28.263.909.923-.209-.221-.98Zm-11.911-32.871.871-.5-.871.5Zm-1.697-19.984-.96-.293.96.293Zm.774-14.373.958-.304-.958.304Zm-9.911-10.552.483-.881-.017-.009-.017-.008-.449.898Zm0 0-.483.881.017.009.017.009.449-.899Zm-5.773-3.945-.529-.854-1.069.661.88.897.718-.704Zm.683-6.522-.915.415.915-.415Zm-4.579-3.893-.985.197.158.792.808.016.019-1.005Zm-10.91-9.041-.943.345.207.568.6.082.136-.995Zm44.249 104.41-.151-.994-1.126.171.31 1.097.967-.274Zm.68 2.418-.968.27.23.823.849-.095-.111-.998Zm14.947 1.232-.325.951 1.89.646-.608-1.903-.957.306Zm-.211 5.364.969.264.19-.698-.602-.402-.557.836Zm-13.591-2.718-.957.308.234.725.762-.029-.039-1.004Zm-.211-.655.956-.308-1.922.586.966-.278Zm1.026 3.56-.966.278.431 1.494 1.185-1.006-.65-.766Zm.048-.041.973-.25-.4-1.554-1.223 1.038.65.766Zm1.708 6.631.697.723.422-.406-.146-.568-.973.251Zm-.106.101-.693-.728-.427.407.147.572.973-.251Zm1.732 6.849-.975.242.184.742.764.02.027-1.004Zm2.774.182-.104.999.652.068.325-.57-.873-.497Zm1.493-2.526.857.524.019-.032.018-.033-.894-.459Zm.788-1.521-.891-.464.891.464Zm.966 1.622.885.475-.885-.475Zm-1.384 2.665-.898-.45-.617 1.234 1.364.209.151-.993Zm6.13-13.063.688-.732-1.125-1.056-.511 1.455.948.333Zm1.598 14.985-.326.951.915.313.348-.902-.937-.362Zm-51.29-45.321.335-.948-1.799-.635.494 1.843.97-.26Zm.001 0 .971-.26-.137-.511-.499-.176-.335.947Zm9.531 35.572-.97.26.264.986.981-.279-.275-.967Zm.001 0 .275.966.951-.27-.256-.956-.97.26Zm3.503 13.074.188.986 1.062-.202-.28-1.044-.97.26Zm-.082-.307.97-.26-.256-.957-.961.243.247.974Zm.081.307-.97.26.241.901.917-.174-.188-.987Zm-.082-.307-.247-.974-.987.25.263.984.971-.26Zm-29.691-144.476a.568.568 0 0 1-.028-.256l1.993.254c.026-.206.012-.43-.065-.653l-1.9.655Zm-11.807 2.754c3.373-1.164 6.486-1.973 8.782-2.347 1.156-.189 2.057-.258 2.664-.225.308.017.478.058.551.086.083.032-.102-.013-.19-.268l1.9-.655c-.189-.548-.646-.821-.987-.952-.353-.136-.76-.195-1.164-.217-.819-.045-1.885.05-3.097.248-2.44.397-5.667 1.241-9.114 2.43l.655 1.9Zm-10.994 5.112c.087.254-.031.404.015.327.04-.067.149-.204.381-.407.457-.401 1.21-.901 2.236-1.466 2.038-1.121 4.988-2.403 8.362-3.566l-.655-1.9c-3.448 1.189-6.509 2.514-8.675 3.706-1.076.591-1.974 1.173-2.591 1.714-.305.267-.589.564-.783.888-.187.314-.379.81-.19 1.359l1.9-.655Zm-.041-.092a.641.641 0 0 1 .041.092l-1.9.655c.026.074.057.145.094.213l1.765-.96Zm-.563 1.432.013-.004-.665-1.896-.013.005.665 1.895Zm5.036 11.38-4.42-12.659-1.897.663 4.42 12.658 1.897-.662Zm-.67-.653-.185-.016-.187 2 .2.018.172-2.002Zm-.139 11.347c-1.69-3.906-.979-7.126.875-9.769l-1.645-1.154c-2.219 3.164-3.066 7.118-1.074 11.72l1.844-.797Zm-2.518 6.218c-.127-1.291.069-2.463.457-3.339.395-.892.932-1.37 1.427-1.518l-.576-1.925c-1.247.373-2.149 1.413-2.688 2.629-.546 1.232-.777 2.758-.62 4.35l2-.197Zm2.934 4.401c-.522.005-1.164-.315-1.761-1.115-.586-.786-1.04-1.937-1.173-3.286l-2 .197c.164 1.661.729 3.172 1.563 4.29.824 1.106 2.004 1.935 3.387 1.924l-.016-2.01Zm-1.194 7.72c.811-2.035 1.674-4.193 2.183-6.498l-1.962-.434c-.468 2.12-1.267 4.129-2.088 6.188l1.867.744Zm-.454 15.023c-3.289-5.54-1.574-9.936.454-15.023l-1.867-.744c-2.01 5.044-4.154 10.326-.314 16.793l1.727-1.026Zm5.242 6.621c-1.742-1.847-3.542-3.758-5.242-6.621l-1.727 1.026c1.823 3.071 3.761 5.122 5.507 6.974l1.462-1.379Zm7.535 20.916c-.019-6.368-.863-10.536-2.26-13.673-1.397-3.141-3.317-5.167-5.275-7.243l-1.462 1.379c1.968 2.086 3.66 3.89 4.902 6.681 1.243 2.794 2.067 6.658 2.086 12.862l2.009-.006Zm8.139 42.25c-2.124-8.137-4.156-16.553-5.658-24.022-1.507-7.489-2.468-13.957-2.481-18.228l-2.009.006c.013 4.484 1.011 11.119 2.52 18.619 1.513 7.519 3.554 15.975 5.684 24.133l1.944-.508Zm-1.171 1.24.051.008.296-1.988-.051-.007-.296 1.987Zm1.643.559-.53-1.832-1.93.559.53 1.831 1.93-.558Zm6.337 22.531a743.828 743.828 0 0 1-6.33-22.508l-1.943.513a747.821 747.821 0 0 0 6.347 22.571l1.926-.576Zm-.939 83.228c-3.862-10.864-7.611-26.144-8.405-41.393-.795-15.277 1.385-30.345 9.19-40.951l-1.618-1.191c-8.215 11.162-10.383 26.796-9.578 42.247.806 15.48 4.605 30.953 8.517 41.961l1.894-.673Zm118.843-31.623c6.874 16.493 5.897 27.44.263 34.494-5.697 7.132-16.425 10.657-29.942 11.596-26.973 1.873-63.934-6.625-89.799-15.085l-.624 1.909c25.929 8.482 63.192 17.081 90.562 15.18 13.654-.948 25.127-4.527 31.373-12.346 6.307-7.896 7.013-19.745.022-36.521l-1.855.773Zm-55.531-67.228c16.6 6.474 37.811 24.709 55.531 67.228l1.855-.773c-17.852-42.834-39.384-61.59-56.656-68.327l-.73 1.872Zm-2.326-21.135c2.776 1.45 4.722 3.582 5.287 6.63.574 3.098-.239 7.344-3.471 13.075l1.75.987c3.344-5.929 4.392-10.673 3.696-14.428-.705-3.805-3.159-6.388-6.331-8.045l-.931 1.781Zm-18.425-7.877c5.081-1.149 10.059-1.942 13.528-1.148 1.693.388 2.915 1.13 3.655 2.299.749 1.183 1.112 2.977.714 5.689l1.988.292c.438-2.983.094-5.32-1.005-7.056-1.107-1.75-2.873-2.717-4.904-3.182-3.978-.912-9.393.009-14.419 1.146l.443 1.96Zm-13.004-33.351c3.57 6.226 7.879 19.064 11.818 32.651l1.93-.559c-3.926-13.544-8.295-26.621-12.005-33.092l-1.743 1Zm-1.785-20.777c-.843 2.757-1.74 5.67-1.74 9.035-.001 3.392.905 7.172 3.525 11.742l1.743-1c-2.47-4.309-3.259-7.748-3.259-10.742 0-3.022.8-5.661 1.652-8.448l-1.921-.587Zm.777-13.775c1.744 5.48.531 9.493-.777 13.775l1.921.587c1.314-4.3 2.719-8.849.771-14.971l-1.915.609Zm-9.437-9.976c3.877 2.125 7.593 4.18 9.437 9.976l1.915-.609c-2.102-6.606-6.475-8.985-10.386-11.129l-.966 1.762Zm.034.018.898-1.797-.898 1.797Zm-6.042-4.14c1.778 1.811 3.95 2.994 6.008 4.122l.966-1.762c-2.102-1.152-4.004-2.203-5.539-3.768l-1.435 1.408Zm.486-6.811c.55 1.215.736 2.419.632 3.387-.106.984-.487 1.593-.929 1.866l1.057 1.709c1.15-.711 1.724-2.007 1.869-3.361.147-1.369-.121-2.933-.799-4.43l-1.83.829Zm-3.683-3.303c.524.009 1.191.267 1.882.847.682.572 1.328 1.412 1.801 2.456l1.83-.829c-.585-1.292-1.406-2.383-2.339-3.166-.924-.775-2.018-1.296-3.136-1.317l-.038 2.009Zm-11.027-9.051c2.42.332 4.675 1.071 6.446 2.374 1.748 1.286 3.073 3.156 3.615 5.869l1.97-.393c-.64-3.209-2.246-5.514-4.394-7.095-2.127-1.564-4.736-2.385-7.365-2.746l-.272 1.991Zm-5.231-12.742 4.424 12.092 1.886-.691-4.423-12.091-1.887.69Zm48.649 116.431c.228.804.455 1.609.679 2.414l1.935-.54c-.225-.807-.452-1.615-.681-2.422l-1.933.548Zm1.758 3.142c4.57-.511 10.089-.327 14.511 1.185l.65-1.901c-4.799-1.641-10.642-1.811-15.384-1.28l.223 1.996Zm15.793-.072c-.661-2.065-2.292-3.575-5.03-4.335-2.682-.745-6.485-.795-11.705-.003l.302 1.987c5.114-.776 8.587-.681 10.866-.048 2.223.617 3.238 1.716 3.653 3.011l1.914-.612Zm-.611 4.834c-3.071-2.046-7.668-3.139-14.187-2.886l.078 2.008c6.299-.245 10.414.831 12.994 2.55l1.115-1.672Zm-13.192-2.19-.211-.655-1.912.616.21.655 1.913-.616Zm-2.133-.069 1.026 3.56 1.931-.556-1.026-3.56-1.931.556Zm2.642 4.048.048-.041-1.3-1.532-.049.041 1.301 1.532Zm-1.575-.556 1.708 6.63 1.946-.501-1.708-6.63-1.946.501Zm1.984 5.656a4.672 4.672 0 0 1-.102.097l1.386 1.455.11-.105-1.394-1.447Zm-.382 1.076c.611 2.37 1.19 4.663 1.73 6.84l1.95-.484a741.19 741.19 0 0 0-1.734-6.858l-1.946.502Zm2.678 7.602a35.37 35.37 0 0 1 2.697.177l.208-1.998a36.814 36.814 0 0 0-2.852-.187l-.053 2.008Zm3.674-.325c.459-.807.951-1.64 1.477-2.499l-1.714-1.048a93.407 93.407 0 0 0-1.509 2.553l1.746.994Zm1.514-2.564c.251-.489.514-.995.785-1.516l-1.782-.928c-.27.52-.537 1.031-.791 1.526l1.788.918Zm.785-1.516c1.605-3.08 3.512-6.73 4.417-10.062l-1.939-.527c-.837 3.081-2.627 6.527-4.26 9.661l1.782.928Zm-.811.683c-.498.929-.963 1.825-1.396 2.69l1.797.899c.423-.847.879-1.726 1.37-2.639l-1.771-.95Zm4.684-10.256c-.998 2.847-2.525 6.236-4.684 10.256l1.771.95c2.191-4.081 3.766-7.568 4.809-10.54l-1.896-.666Zm3.483 15.68c2.061-5.334 2.658-11.852-1.847-16.079l-1.375 1.465c3.564 3.344 3.332 8.753 1.348 13.89l1.874.724Zm-8.816-1.291c2.363.361 4.893.97 7.553 1.88l.651-1.901a45.826 45.826 0 0 0-7.901-1.965l-.303 1.986Zm-43.745-43.445h.001l.669-1.894-.001-.001-.669 1.895Zm10.836 34.365-9.531-35.572-1.941.52 9.532 35.572 1.94-.52Zm-1.244-.706h-.001l.55 1.933.001-.001-.55-1.932Zm-10.227-34.346 9.532 35.572 1.94-.52-9.531-35.572-1.941.52Zm14.975 48.126-.082-.307-1.941.52.083.307 1.94-.52Zm-.783 1.247.001-.001-.376-1.973h-.001l.376 1.974Zm-1.241-1.034.083.307 1.94-.52-.082-.307-1.941.52Zm.725-1.234h-.001l.493 1.948h.001l-.493-1.948Z" mask="url(#c)"/><ellipse cx="272.032" cy="190.777" fill="#010101" rx="3.613" ry="5.678" transform="rotate(-5.631 272.032 190.777)"/><ellipse cx="3.613" cy="5.678" fill="#010101" rx="3.613" ry="5.678" transform="scale(-1 1) rotate(24.369 -556.043 -630.454)"/><path fill="#fff" fill-rule="evenodd" d="M285.442 165.967c-6.876 1.931-19.353 8.552-14.259 19.586 3.181 6.89 1.076 12.172-.94 17.229-2.02 5.065-3.949 9.905-.384 15.908 1.761 2.967 3.63 4.948 5.374 6.798 3.926 4.162 7.223 7.658 7.261 20.229.044 14.524 10.721 52.974 16.054 70.383l25.305-6.781-38.411-143.352Zm.067.249c6.92-1.765 21.036-2.27 22.141 9.833.738 8.072 4.997 10.408 9.453 12.85 3.894 2.135 7.938 4.352 9.911 10.552 1.846 5.802.538 10.082-.774 14.374-1.694 5.543-3.394 11.104 1.697 19.983 7.224 12.6 17.202 51.237 21.289 68.98l-25.305 6.781-38.412-143.353Z" clip-rule="evenodd"/><ellipse cx="8.733" cy="12.301" fill="url(#d)" rx="8.733" ry="12.301" transform="scale(-1 1) rotate(40.381 -411.49 -277.375)"/><ellipse cx="8.733" cy="12.301" fill="url(#e)" rx="8.733" ry="12.301" transform="scale(-1 1) rotate(-17.75 468.18 1156.746)"/><path fill="#005BBB" d="M341.751 273.342c-16.178 12.824-40.942 16.397-51.136 14.869l1.73 5.976c23.45 5.006 43.673-7.966 51.114-14.918l-1.708-5.927Z"/><path fill="#FFD500" d="M343.461 279.069c-19.118 16.242-40.961 16.443-51.184 15.033l1.455 4.657c23.547 4.732 44.136-6.023 51.437-13.06l-1.708-6.63Z"/><ellipse cx="308.025" cy="178.159" fill="#fff" opacity=".2" rx="1.62" ry="2.546" transform="rotate(9.05 308.025 178.159)"/><ellipse cx="271.256" cy="188.607" fill="#fff" opacity=".2" rx="1.62" ry="2.546" transform="rotate(9.05 271.256 188.607)"/><path fill="#fff" d="M321.068 298.286c-44.285 8.621-34.79 68.64-24.507 97.572 51.793 16.943 148.448 34.194 120.717-32.346-27.73-66.539-64.179-74.294-78.937-69.854l-17.273 4.628Z"/><path fill="#FF6B0A" d="M279.003 198.287c-5.447-17.138 10.422-24.495 10.409-24.262 17.938 0 20.441 15.36 20.441 17.733 0 6.529 11.593 9.195 10.261 16.356-1.331 7.161 2.252 20.372 2.231 30.265-.013 6.062-1.768 8.744-3.259 9.707.438-.113.261-.042-.169.103-.393.223-.76.327-1.065.345.396-.126.784-.251 1.065-.345.056-.032.112-.066.169-.103-.575.148-2.21.615-5.722 1.65-9.906 2.922-14.036-10-26.645-22.654-12.61-12.654-.907-7.372-7.716-28.795Z"/><path fill="#010101" d="M311.662 243.379c-8.165 1.44-15.486-15.579-18.126-24.269 4.614-2.394 14.837-6.754 18.823-5.043 4.982 2.139 9.509 27.513-.697 29.312Z"/><path fill="#956C7C" d="M312.68 240.701c5.398-2.195.36-13.947-2.833-19.549l-10.845 2.906c2.31 6.462 8.281 18.837 13.678 16.643Z"/><path fill="#86616F" d="M310.891 236.492c.932-1.133-3.994-12.779-6.573-18.46l-2.314.893c2.574 6.328 7.955 18.7 8.887 17.567Z"/><path fill="#EB6005" d="M288.489 213.247c2.312-12.911-2.532-18.427-5.244-19.571 5.411-13.313 16.798-9.444 21.815-5.845-3.351 12.923-1.019 2.678 7.737 18.903 7.005 12.98-.882 20.143-5.701 22.103-7.166.183-20.919-2.679-18.607-15.59Z"/><path fill="#EFE5D5" d="M315.03 212.337c-17.414-13.932-23.435 1.291-24.269 10.645 2.098 3.178 8.368 8.793 16.658 5.824 8.289-2.97 8.528-12.217 7.611-16.469Z"/><path fill="#DACAB0" d="M300.199 213.968c-.536-1.44-1.768-4.038-2.411-2.913-.643 1.125 1.339 2.411 2.411 2.913ZM303.009 213.22c-.49-1.456-1.169-4.25.039-3.781 1.208.469.478 2.717-.039 3.781Z"/><path fill="#3D3A00" d="m292.008 153.154 4.521 12.357c-5.144 8.519-18.619 9.51-24.714 8.941l-4.42-12.659 24.613-8.639Z"/><path fill="#3D3A00" d="M296.526 165.51c.235 7.267-4.701 18.646-24.714 8.841l24.714-8.841Z"/><ellipse cx="279.73" cy="157.468" fill="#3D3A00" rx="13.065" ry="2.252" transform="rotate(-19.031 279.73 157.468)"/><path fill="#FFD500" d="M279.467 159.485c.07.011.128.018.182.033.451.11.783.321 1.035.711.106.165.195.345.29.515.084.151.166.299.253.449.023.038.025.058-.02.084-.095.051-.16.135-.16.249a.246.246 0 0 0 .128.225c.083.051.174.047.263.012.043-.019.065-.049.071-.1.054-.39.022-.771-.084-1.147-.089-.312-.236-.598-.37-.886-.076-.165-.147-.335-.228-.498a1.083 1.083 0 0 1-.106-.318.765.765 0 0 1 .028-.344c.109.047.198.12.261.213.058.09.106.19.15.286.047.104.079.215.119.319.106.276.208.554.322.827.193.453.484.83.877 1.122.051.04.098.037.151.007a.284.284 0 0 0 .139-.357.27.27 0 0 0-.345-.136c-.051.019-.061.002-.073-.041-.063-.226-.13-.453-.196-.677-.073-.256-.16-.506-.157-.777.005-.359.113-.644.314-.941l.053-.072.026.062 1.403 3.36c.027.064.027.064-.034.09l-.693.298c-.041.018-.053.037-.045.082.063.339.014.665-.159.968-.035.063-.059.136-.089.204-.195-.096-.422-.123-.608-.254a1.495 1.495 0 0 1-.392-.389c-.025-.034-.047-.039-.082-.024l-.704.303c-.041.018-.062.016-.082-.031l-1.411-3.38c-.009-.003-.014-.015-.027-.047Zm.474.412c-.004.006-.013.009-.018.015l.026.061.669 1.602c.038.091.038.091.131.051.035-.015.049-.031.043-.07a.458.458 0 0 1 .099-.33c.031-.041.026-.07.003-.108-.111-.191-.226-.384-.328-.579a1.38 1.38 0 0 0-.403-.481c-.073-.059-.148-.106-.222-.161Zm2.402-1.022c-.006.003-.01.001-.016.004-.007.031-.015.062-.02.091-.04.225-.075.403-.018.624.076.279.157.556.235.833.009.038.028.058.071.063.12.015.222.064.306.156.038.043.075.041.144-.006.043-.029.011-.057 0-.083a4485.042 4485.042 0 0 1-.702-1.682Zm-.845 3.146c-.016.003-.035.008-.058.011-.2.038-.381.008-.519-.158-.019-.022-.036-.029-.061-.015l-.061.026c-.029.013-.036.03-.024.059.092.22.185.443.28.662.005.011.039.028.051.023.158-.065.318-.134.474-.204.012-.005.027-.036.025-.049l-.107-.355Zm1.245-.535c.061.112.122.217.181.327.017.031.04.021.063.011.149-.064.293-.129.443-.19.046-.02.053-.044.032-.087-.085-.195-.164-.393-.247-.593-.038-.091-.038-.091-.129-.052-.026.011-.049.021-.044.058.02.195-.066.343-.208.463-.032.024-.065.041-.091.063Zm-.962-.562c.012.26.023.516-.017.775.116.023.225.045.336.063.015.004.042-.014.053-.029.056-.08.104-.163.16-.242.017-.025.017-.042-.009-.062a2.883 2.883 0 0 1-.483-.467c-.015-.011-.028-.026-.04-.038Zm.221 1.59c.052.157.339.394.451.391l.004-.009c-.064-.152-.125-.306-.19-.455-.005-.011-.033-.02-.046-.018-.075.025-.146.06-.219.091Zm.698.291c.095-.127.109-.503.04-.612l-.198.085c-.038.016-.043.036-.029.071l.155.37c.008.028.019.054.032.086Zm-.693-.567c.038-.016.08-.031.115-.053.012-.005.025-.038.019-.046-.072-.121-.2-.198-.334-.175-.029.006-.041.018-.036.047l.069.254c.009.031.031.035.058.024.033-.018.071-.035.109-.051Zm.535-.23.102-.044c.036-.012.051-.035.029-.071a6.193 6.193 0 0 0-.121-.207c-.021-.033-.042-.034-.072-.008a.344.344 0 0 0-.101.359c.005.011.034.023.047.021.042-.014.079-.034.116-.05Z"/><path fill="#4B4800" d="m292.008 153.154 4.521 12.357c-5.144 8.519-18.619 9.51-24.714 8.941l-4.42-12.659s2.125-.266 3.415-.703c1.546-.523 3.717-1.909 3.717-1.909l10.649 8.64v-12.859s2.318.383 3.718 0c1.356-.372 3.114-1.808 3.114-1.808Z"/><path fill="#FFD500" d="M341.35 272.337c13.256-1.515 35.001 2.615 16.387 28.774-18.477 25.966-22.054 42.293-12.134 39.081.071-.027.146-.052.223-.075l-.223.075c-2.758 1.03-1.497 4.748-2.921 6.257-11.042 1.755-11.248-13.085 13.414-45.642 5.935-8.656 9.9-25.511-13.5-24.603l-1.246-3.867Z"/><path fill="#005BBB" d="M339.577 266.74c13.512-3.087 28.253-4.3 13.235 23.666-14.865 27.679.903 25.608 10.926 21.008.095-.049.198-.097.31-.144-.103.049-.206.097-.31.144-2.468 1.275.522 3.301-.694 4.935-11.174 3.056-29.215 2.125-11.986-26.044 4.737-9.227 13.731-24.089-10.412-20.379l-1.069-3.186Z"/><path fill="#fff" stroke="#010101" stroke-width="1.005" d="m258.85 241.577.838.009-.403.735c-.994 1.815-1.967 4.753-1.678 7.651.284 2.855 1.792 5.707 5.843 7.456 2.522 1.088 6.089 1.177 10.251.976 1.345-.065 2.75-.16 4.192-.258 2.969-.201 6.092-.412 9.16-.392 4.57.03 9.113.569 13.019 2.446 3.926 1.887 7.175 5.111 9.169 10.432 3.933 10.491 3.709 19.392.734 25.722-2.983 6.345-8.712 10.052-15.622 10.131-2.721.031-8.288.474-15.536 1.051-1.636.131-3.358.268-5.152.408-9.725.763-21.542 1.63-33.25 2.079-11.704.45-23.316.484-32.626-.421-4.655-.453-8.753-1.142-12.007-2.139-3.236-.992-5.723-2.313-7.053-4.091-4.988-6.669-7.505-14.714-7.68-21.887-.175-7.151 1.981-13.554 6.495-16.786.93-.666 2.413-1.297 4.26-1.895 1.858-.603 4.13-1.187 6.67-1.744 5.081-1.113 11.266-2.125 17.434-2.963a350.633 350.633 0 0 1 17.357-1.922c4.697-.391 8.451-.572 10.299-.471 1.205-2.395 3.303-5.818 5.884-8.69 2.667-2.968 5.963-5.473 9.402-5.437Z"/><path fill="#010101" d="M194.726 288.831v-13.503h12.307v13.503h-3.106v-11.67l.714.713h-7.523l.714-.713v11.67h-3.106Zm21.537.154c-.875 0-1.64-.193-2.296-.579-.655-.386-1.17-.971-1.543-1.755-.36-.797-.54-1.8-.54-3.009 0-1.222.174-2.225.521-3.009.347-.785.849-1.37 1.505-1.756.655-.385 1.44-.578 2.353-.578.977 0 1.851.225 2.623.675a4.745 4.745 0 0 1 1.852 1.852c.463.797.694 1.736.694 2.816 0 1.093-.231 2.038-.694 2.835a4.745 4.745 0 0 1-1.852 1.852c-.772.437-1.646.656-2.623.656Zm-6.134 3.588v-14.12h2.874v2.122l-.058 3.086.193 3.067v5.845h-3.009Zm5.613-6.057c.501 0 .945-.116 1.331-.347.399-.232.714-.56.945-.984.244-.437.367-.952.367-1.543 0-.605-.123-1.119-.367-1.543a2.475 2.475 0 0 0-.945-.984 2.543 2.543 0 0 0-1.331-.347 2.64 2.64 0 0 0-1.35.347 2.475 2.475 0 0 0-.945.984c-.232.424-.348.938-.348 1.543 0 .591.116 1.106.348 1.543.231.424.546.752.945.984a2.64 2.64 0 0 0 1.35.347Zm7.799 2.315v-10.378h2.99v6.173l5.054-6.173h2.758v10.378h-2.99v-6.173l-5.034 6.173h-2.778Zm13.695 0v-10.378h5.304c1.299 0 2.315.238 3.048.714.733.463 1.099 1.119 1.099 1.967 0 .849-.347 1.518-1.042 2.006-.681.476-1.588.714-2.719.714l.308-.694c1.261 0 2.199.231 2.817.694.63.463.945 1.138.945 2.025 0 .913-.348 1.633-1.042 2.161-.694.527-1.755.791-3.183.791h-5.535Zm2.758-2.045h2.527c.553 0 .964-.09 1.234-.27.283-.193.425-.482.425-.868 0-.399-.129-.688-.386-.868-.257-.193-.663-.289-1.215-.289h-2.585v2.295Zm0-4.07h2.276c.527 0 .919-.096 1.177-.289.27-.193.405-.47.405-.83 0-.373-.135-.649-.405-.829-.258-.18-.65-.27-1.177-.27h-2.276v2.218Zm9.221 6.115v-10.378h3.009v10.378h-3.009Zm1.505-11.825c-.553 0-1.003-.16-1.35-.482a1.56 1.56 0 0 1-.521-1.196c0-.475.173-.874.521-1.196.347-.321.797-.482 1.35-.482s1.003.155 1.35.463c.347.296.521.682.521 1.157 0 .502-.174.92-.521 1.254-.334.322-.784.482-1.35.482Zm6.61 11.825v-8.603l.675.694h-4.186v-2.469h10.011v2.469h-4.185l.675-.694v8.603h-2.99Zm9.569 3.896c-.54 0-1.074-.084-1.601-.251-.527-.167-.958-.398-1.293-.694l1.1-2.141c.231.205.495.366.791.482.308.116.611.174.906.174.425 0 .759-.103 1.003-.309.258-.193.489-.521.695-.984l.54-1.273.231-.328 3.723-8.95h2.893l-4.687 11.014c-.334.836-.72 1.492-1.157 1.968-.424.475-.9.81-1.427 1.003a4.882 4.882 0 0 1-1.717.289Zm1.774-3.491-4.629-10.783h3.106l3.587 8.68-2.064 2.103Zm6.62-.425.154-2.469.232.039h.212c.36 0 .643-.103.848-.309.206-.205.361-.482.463-.829.103-.36.174-.765.213-1.215.051-.45.09-.92.115-1.408l.155-4.167h8.873v10.378h-3.01v-8.642l.676.733h-4.553l.637-.771-.135 2.604a24.029 24.029 0 0 1-.232 2.546c-.102.771-.276 1.44-.52 2.006-.245.553-.573.983-.984 1.292-.412.296-.939.444-1.582.444-.231 0-.476-.02-.733-.058a8.189 8.189 0 0 1-.829-.174Zm14.139.02v-10.378h3.009v10.378h-3.009Zm1.504-11.825c-.553 0-1.003-.16-1.35-.482a1.564 1.564 0 0 1-.521-1.196c0-.475.174-.874.521-1.196.347-.321.797-.482 1.35-.482s1.003.155 1.351.463c.347.296.52.682.52 1.157 0 .502-.173.92-.52 1.254-.335.322-.785.482-1.351.482Z"/></g><defs><radialGradient id="d" cx="0" cy="0" r="1" gradientTransform="matrix(0 12.3007 -8.73282 0 8.733 12.3)" gradientUnits="userSpaceOnUse"><stop stop-color="#FBB"/><stop offset="1" stop-color="#FBB" stop-opacity="0"/></radialGradient><radialGradient id="e" cx="0" cy="0" r="1" gradientTransform="matrix(0 12.3007 -8.73282 0 8.733 12.3)" gradientUnits="userSpaceOnUse"><stop stop-color="#FBB"/><stop offset="1" stop-color="#FBB" stop-opacity="0"/></radialGradient><clipPath id="b"><path fill="#fff" d="M170 134h217v217H170z"/></clipPath><filter id="a" width="520" height="632" x="28" y="13" color-interpolation-filters="sRGB" filterUnits="userSpaceOnUse"><feFlood flood-opacity="0" result="BackgroundImageFix"/><feColorMatrix in="SourceAlpha" result="hardAlpha" values="0 0 0 0 0 0 0 0 0 0 0 0 0 0 0 0 0 0 127 0"/><feOffset dy="4"/><feGaussianBlur stdDeviation="2"/><feComposite in2="hardAlpha" operator="out"/><feColorMatrix values="0 0 0 0 0 0 0 0 0 0 0 0 0 0 0 0 0 0 0.15 0"/><feBlend in2="BackgroundImageFix" result="effect1_dropShadow_20693_79"/><feBlend in="SourceGraphic" in2="effect1_dropShadow_20693_79" result="shape"/></filter></defs></svg>