<svg xmlns="http://www.w3.org/2000/svg" width="608" height="792" fill="none"><path fill="#fff" stroke="#010101" stroke-width="1.452" d="M126.583 81.525c4.066-3.486 94.373-10.892 131.403-12.344-6.05 98.022-5.809 290.436 11.618 322.383 19.675 36.07 14.522 80.596-17.426 92.214-25.559 9.294-60.992 54.698-75.513 76.239-11.376 22.025-42.259 71.738-74.788 94.392-40.66 28.317-80.595 2.178-91.487-18.879-10.891-21.056-5.808-52.278 9.44-75.513 15.247-23.235 65.347-71.883 97.295-108.913 31.948-37.031 31.222-57.361 34.126-105.283 2.905-47.922-29.751-259.94-24.668-264.296Z"/><mask id="a" width="110.784" height="189.117" x="142.355" y="115.403" fill="#000" maskUnits="userSpaceOnUse"><path fill="#fff" d="M142.355 115.403h110.784V304.52H142.355z"/><path fill-rule="evenodd" d="M187.775 121.31c-1.547-.661-10.321 1.027-20.676 4.035-10.355 3.007-18.67 6.281-19.621 7.668l-.167.048.875 3.016c-.318.255-.474.469-.447.636a.18.18 0 0 0 .006.032c.012.04.036.078.071.111l3.504 12.189c-4.43 6.501-5.201 14.927-2.862 22.007.673 3.367 2.028 7.134 4.264 11.326 1.33 2.494 2.773 5.134 4.275 7.884 6.655 12.182 14.49 26.522 18.956 39.83l-.009-.002 1.382 5.027-.03-.006 1.358 5.154.032.01c2.427 12.745.149 23.561-11.602 29.104-23.167 10.929 8.405 24.62 27.087 30.099 10.48-8.841 27.139-33.066 13.853-70.217l.082-.109-1.737-4.717-.029.035-2.178-4.57-.008.009c-4.813-10.258-11.873-21.385-21.825-33.338 2.025-.814 4.186-1.852 6.485-3.151 3.286 1.959 7.276 4.53 11.463 9.805 7.811 9.84 11.93 10.091 13.339 8.278.339-.435.479-1.602.315-3.055.651-.506 1.245-1.062 1.659-1.637.245-.342.224-.943.012-1.716-.169-.615-.459-1.338-.832-2.125a32.978 32.978 0 0 0-.925-1.79 54.432 54.432 0 0 0-1.127-1.934c-.299-.49-.607-.98-.917-1.463a84.956 84.956 0 0 0-3.051-4.445l-2.223 1.755a49.92 49.92 0 0 0-1.936-2.492l.336-.016a83.45 83.45 0 0 0 2.92-.199 98.454 98.454 0 0 0 3.073-.313c.992-.116 1.988-.246 2.984-.389a137.25 137.25 0 0 0 6.429-1.078 173.447 173.447 0 0 0 9.835-2.187c.976-.247 1.908-.494 2.788-.735.578-.158 1.11-.576 1.617-.975.451-.355.883-.695 1.313-.824l-.216-2.262c2.113-1.088 3.485-2.315 3.739-3.346.519-2.102-2.953-4.034-9.703-5.359a7.309 7.309 0 0 0-1.472.242l-1.509-.326c-2.932-.632-6.059-1.306-8.966-2.123-5.278-1.483-8.529-6.131-11.259-10.885a22.233 22.233 0 0 0-1.982-2.932c6.077-3.953-2.463-9.568-10.708-9.278.017-.053.031-.106.044-.159l-4.314-14.79a.261.261 0 0 0-.009-.057c-.049-.168-.297-.273-.722-.319l-.796-2.744-.006-.023-.007-.022-.069-.237-.156.045Z" clip-rule="evenodd"/></mask><path fill="#010101" fill-rule="evenodd" d="M187.775 121.31c-1.547-.661-10.321 1.027-20.676 4.035-10.355 3.007-18.67 6.281-19.621 7.668l-.167.048.875 3.016c-.318.255-.474.469-.447.636a.18.18 0 0 0 .006.032c.012.04.036.078.071.111l3.504 12.189c-4.43 6.501-5.201 14.927-2.862 22.007.673 3.367 2.028 7.134 4.264 11.326 1.33 2.494 2.773 5.134 4.275 7.884 6.655 12.182 14.49 26.522 18.956 39.83l-.009-.002 1.382 5.027-.03-.006 1.358 5.154.032.01c2.427 12.745.149 23.561-11.602 29.104-23.167 10.929 8.405 24.62 27.087 30.099 10.48-8.841 27.139-33.066 13.853-70.217l.082-.109-1.737-4.717-.029.035-2.178-4.57-.008.009c-4.813-10.258-11.873-21.385-21.825-33.338 2.025-.814 4.186-1.852 6.485-3.151 3.286 1.959 7.276 4.53 11.463 9.805 7.811 9.84 11.93 10.091 13.339 8.278.339-.435.479-1.602.315-3.055.651-.506 1.245-1.062 1.659-1.637.245-.342.224-.943.012-1.716-.169-.615-.459-1.338-.832-2.125a32.978 32.978 0 0 0-.925-1.79 54.432 54.432 0 0 0-1.127-1.934c-.299-.49-.607-.98-.917-1.463a84.956 84.956 0 0 0-3.051-4.445l-2.223 1.755a49.92 49.92 0 0 0-1.936-2.492l.336-.016a83.45 83.45 0 0 0 2.92-.199 98.454 98.454 0 0 0 3.073-.313c.992-.116 1.988-.246 2.984-.389a137.25 137.25 0 0 0 6.429-1.078 173.447 173.447 0 0 0 9.835-2.187c.976-.247 1.908-.494 2.788-.735.578-.158 1.11-.576 1.617-.975.451-.355.883-.695 1.313-.824l-.216-2.262c2.113-1.088 3.485-2.315 3.739-3.346.519-2.102-2.953-4.034-9.703-5.359a7.309 7.309 0 0 0-1.472.242l-1.509-.326c-2.932-.632-6.059-1.306-8.966-2.123-5.278-1.483-8.529-6.131-11.259-10.885a22.233 22.233 0 0 0-1.982-2.932c6.077-3.953-2.463-9.568-10.708-9.278.017-.053.031-.106.044-.159l-4.314-14.79a.261.261 0 0 0-.009-.057c-.049-.168-.297-.273-.722-.319l-.796-2.744-.006-.023-.007-.022-.069-.237-.156.045Z" clip-rule="evenodd"/><path fill="#010101" d="m167.099 125.345-.245-.844.245.844Zm20.676-4.035-.346.808.289.124.302-.088-.245-.844Zm-40.297 11.703.245.844.302-.088.178-.259-.725-.497Zm-.167.048-.245-.844-.844.245.245.844.844-.245Zm.875 3.016.55.686.458-.367-.164-.564-.844.245Zm-.447.636.87-.119-.001-.01-.001-.01-.868.139Zm.006.032.844-.245-.844.245Zm.071.111.845-.243-.066-.228-.172-.165-.607.636Zm3.504 12.189.727.495.232-.341-.114-.397-.845.243Zm-2.862 22.007.861-.173-.01-.052-.017-.051-.834.276Zm4.264 11.326.775-.413-.775.413Zm4.275 7.884.771-.421-.771.421Zm18.956 39.83-.15.866 1.452.252-.469-1.398-.833.28Zm-.009-.002.15-.866-1.365-.237.367 1.336.848-.233Zm1.382 5.027-.189.859 1.423.313-.386-1.405-.848.233Zm-.03-.006.189-.858-1.405-.31.366 1.392.85-.224Zm1.358 5.154-.85.224.124.473.468.144.258-.841Zm.032.01.864-.164-.099-.521-.507-.155-.258.84Zm-11.602 29.104.375.795-.375-.795Zm27.087 30.099-.247.843.453.133.361-.304-.567-.672Zm13.853-70.217-.702-.53-.285.379.16.446.827-.295Zm.082-.109.702.529.289-.383-.166-.45-.825.304Zm-1.737-4.717.825-.303-.517-1.405-.975 1.136.667.572Zm-.029.035-.794.378.582 1.22.879-1.026-.667-.572Zm-2.178-4.57.793-.378-.589-1.237-.879 1.052.675.563Zm-.008.009-.795.374.585 1.248.885-1.058-.675-.564Zm-21.825-33.338-.328-.816-1.12.45.772.928.676-.562Zm6.485-3.151.45-.755-.438-.261-.444.251.432.765Zm11.463 9.805.688-.547-.688.547Zm13.339 8.278-.693-.539.693.539Zm.315-3.055-.539-.694-.39.302.055.491.874-.099Zm1.659-1.637-.714-.513.714.513Zm.012-1.716.847-.233-.847.233Zm-.832-2.125-.794.376.794-.376Zm-.925-1.79.769-.425-.769.425Zm-1.127-1.934-.751.458.751-.458Zm-.917-1.463-.739.474.739-.474Zm-1.269-1.921.726-.494-.726.494Zm-1.782-2.524.709-.52-.539-.733-.714.563.544.69Zm-2.223 1.755-.71.519.538.736.716-.565-.544-.69Zm-1.936-2.492-.04-.878-1.768.08 1.132 1.36.676-.562Zm.336-.016.044.878-.044-.878Zm2.92-.199-.075-.876.075.876Zm3.073-.313.102.873-.102-.873Zm2.984-.389.125.87-.125-.87Zm3.299-.515.146.866-.146-.866Zm3.13-.563-.164-.864.164.864Zm3.445-.696.183.86-.183-.86Zm3.358-.751.2.856-.2-.856Zm3.032-.74-.216-.851.216.851Zm2.788-.735-.233-.847.233.847Zm1.617-.975.543.691-.543-.691Zm1.313-.824.254.841.69-.208-.069-.717-.875.084Zm-.216-2.262-.402-.782-.529.273.056.592.875-.083Zm3.739-3.346-.853-.211.853.211Zm-9.703-5.359.17-.862-.113-.023-.115.008.058.877Zm-1.472.242-.187.859.212.046.21-.058-.235-.847Zm-1.509-.326-.186.859.186-.859Zm-8.966-2.123.238-.846-.238.846ZM206.5 151.826l-.762.437.762-.437Zm-1.982-2.932-.479-.737-.818.532.614.758.683-.553Zm-10.708-9.278-.84-.259-.364 1.181 1.235-.043-.031-.879Zm.044-.159.856.199.052-.224-.065-.222-.843.247Zm-4.314-14.79-.879.025.003.113.032.108.844-.246Zm-.009-.057-.844.245.844-.245Zm-.722-.319-.844.245.164.564.585.064.095-.873Zm-.796-2.744-.865.158.008.044.013.043.844-.245Zm-.006-.023.844-.245-.844.245Zm-.007-.022-.844.245.012.044.017.041.815-.33Zm-.069-.237.844-.245-.245-.844-.844.245.245.844Zm-20.587 4.924c5.159-1.499 9.915-2.666 13.564-3.375 1.826-.355 3.36-.592 4.522-.7a12.015 12.015 0 0 1 1.413-.065c.179.005.32.017.426.033a1.387 1.387 0 0 1 .16.036l.692-1.616c-.354-.151-.8-.198-1.23-.21a13.781 13.781 0 0 0-1.625.072c-1.242.116-2.839.364-4.694.725-3.713.722-8.522 1.903-13.718 3.412l.49 1.688Zm-19.141 7.321a1.122 1.122 0 0 1 .116-.117 3.58 3.58 0 0 1 .342-.256 12.13 12.13 0 0 1 1.228-.702c1.039-.531 2.461-1.152 4.194-1.831 3.461-1.355 8.102-2.917 13.261-4.415l-.49-1.688c-5.197 1.509-9.89 3.087-13.413 4.467-1.759.689-3.241 1.334-4.352 1.902-.555.283-1.032.554-1.411.809-.356.241-.707.52-.925.836l1.45.995Zm-.647.395.167-.048-.49-1.688-.167.048.49 1.688Zm1.474 1.927-.875-3.016-1.688.49.875 3.016 1.688-.49Zm-.423.742a.608.608 0 0 1-.021.283c-.018.056-.039.083-.036.079.002-.002.015-.019.048-.052a1.74 1.74 0 0 1 .138-.121l-1.099-1.372a2.72 2.72 0 0 0-.521.529c-.133.188-.311.519-.245.931l1.736-.277Zm-.018-.074c.01.031.016.063.02.094l-1.741.238c.007.053.018.106.033.158l1.688-.49Zm-.166-.28a.63.63 0 0 1 .166.28l-1.688.49c.062.211.179.378.308.502l1.214-1.272Zm3.742 12.582-3.504-12.189-1.69.486 3.505 12.189 1.689-.486Zm-2.873 21.974c-2.261-6.847-1.507-14.983 2.755-21.236l-1.453-.99c-4.6 6.749-5.387 15.464-2.971 22.777l1.669-.551Zm4.205 11.189c-2.203-4.131-3.524-7.817-4.178-11.086l-1.723.345c.693 3.466 2.081 7.313 4.351 11.568l1.55-.827Zm4.271 7.876a923.922 923.922 0 0 1-4.271-7.876l-1.55.827c1.332 2.498 2.777 5.142 4.279 7.892l1.542-.843Zm19.018 39.971c-4.495-13.395-12.371-27.806-19.018-39.971l-1.542.843c6.664 12.198 14.458 26.467 18.894 39.687l1.666-.559Zm-.993 1.144.01.002.3-1.732-.009-.002-.301 1.732Zm2.381 3.928-1.383-5.027-1.695.466 1.383 5.028 1.695-.467Zm-1.067 1.085.03.007.378-1.717-.03-.006-.378 1.716Zm2.397 4.073-1.358-5.155-1.7.448 1.358 5.154 1.7-.447Zm-.56-.607-.033-.01-.515 1.681.033.01.515-1.681Zm-11.485 30.739c6.077-2.867 9.756-7.132 11.573-12.357 1.805-5.191 1.746-11.253.518-17.706l-1.727.329c1.198 6.291 1.214 12.01-.451 16.799-1.654 4.755-4.989 8.669-10.663 11.345l.75 1.59Zm26.959 28.461c-9.322-2.734-21.758-7.492-28.958-12.867-1.793-1.338-3.225-2.689-4.203-4.026-.977-1.336-1.465-2.61-1.462-3.818.005-2.355 1.926-5.043 7.664-7.75l-.75-1.59c-5.845 2.758-8.665 5.88-8.672 9.336-.004 1.699.684 3.331 1.801 4.859s2.697 2.999 4.57 4.398c7.464 5.572 20.155 10.399 29.516 13.144l.494-1.686Zm12.779-69.079c13.139 36.743-3.337 60.599-13.593 69.25l1.134 1.344c10.705-9.031 27.546-33.625 14.114-71.185l-1.655.591Zm.208-.934-.083.109 1.404 1.059.082-.109-1.403-1.059Zm-1.86-3.883 1.737 4.716 1.649-.607-1.737-4.716-1.649.607Zm1.462.303.03-.035-1.335-1.144-.029.035 1.334 1.144Zm-3.639-4.764 2.178 4.57 1.587-.756-2.178-4.57-1.587.756Zm1.461.195.007-.009-1.349-1.127-.007.009 1.349 1.127Zm-23.176-33.34c9.912 11.905 16.929 22.969 21.706 33.15l1.591-.747c-4.85-10.336-11.953-21.526-21.946-33.527l-1.351 1.124Zm6.729-4.478c-2.269 1.282-4.395 2.303-6.381 3.1l.655 1.631c2.065-.829 4.261-1.884 6.591-3.201l-.865-1.53Zm12.583 10.023c-4.281-5.393-8.373-8.029-11.701-10.013l-.9 1.51c3.244 1.934 7.132 4.441 11.225 9.596l1.376-1.093Zm11.958 8.286c-.208.267-.515.469-.983.521-.49.054-1.211-.054-2.207-.541-2.005-.98-4.889-3.38-8.768-8.266l-1.376 1.093c3.932 4.954 7.013 7.6 9.372 8.752 1.187.58 2.248.81 3.171.709.945-.104 1.681-.55 2.178-1.189l-1.387-1.079Zm.134-2.417c.077.677.08 1.266.031 1.716-.024.225-.06.402-.098.53-.041.137-.074.179-.067.171l1.387 1.079c.327-.421.466-1.03.526-1.592a9.787 9.787 0 0 0-.032-2.102l-1.747.198Zm1.819-2.249c-.345.479-.867.976-1.484 1.456l1.078 1.388c.685-.532 1.351-1.148 1.833-1.818l-1.427-1.026Zm-.122-.97c.095.345.134.606.135.79 0 .191-.04.217-.013.18l1.427 1.026c.272-.379.345-.824.343-1.212a4.843 4.843 0 0 0-.197-1.25l-1.695.466Zm-.778-1.982c.362.765.629 1.437.778 1.982l1.695-.466c-.188-.684-.501-1.458-.885-2.269l-1.588.753Zm-.9-1.741c.335.608.64 1.193.9 1.741l1.588-.753a33.607 33.607 0 0 0-.95-1.838l-1.538.85Zm-1.109-1.901c.391.642.766 1.281 1.109 1.901l1.538-.85a53.39 53.39 0 0 0-1.146-1.966l-1.501.915Zm-.905-1.447c.306.478.61.963.905 1.447l1.501-.915a72.174 72.174 0 0 0-.927-1.481l-1.479.949Zm-1.257-1.9a88.51 88.51 0 0 1 1.257 1.9l1.479-.949a88.567 88.567 0 0 0-1.283-1.94l-1.453.989Zm-1.763-2.499a85.308 85.308 0 0 1 1.763 2.499l1.453-.989a85.023 85.023 0 0 0-1.799-2.55l-1.417 1.04Zm-.971 1.925 2.224-1.755-1.089-1.38-2.224 1.755 1.089 1.38Zm-3.156-2.62c.67.805 1.304 1.63 1.902 2.449l1.419-1.037a50.425 50.425 0 0 0-1.97-2.536l-1.351 1.124Zm.968-1.456-.332.016.079 1.756.341-.016-.088-1.756Zm2.889-.197c-.976.084-1.94.15-2.889.197l.088 1.756a80.406 80.406 0 0 0 2.951-.202l-.15-1.751Zm3.046-.31c-1.023.12-2.04.224-3.046.31l.15 1.751a96.887 96.887 0 0 0 3.1-.315l-.204-1.746Zm2.962-.386c-.989.142-1.978.271-2.962.386l.204 1.746c1-.117 2.004-.248 3.007-.392l-.249-1.74Zm3.276-.512c-1.087.184-2.182.355-3.276.512l.249 1.74c1.11-.159 2.219-.333 3.32-.519l-.293-1.733Zm3.113-.56c-1.027.196-2.066.383-3.113.56l.293 1.733c1.059-.178 2.111-.368 3.149-.566l-.329-1.727Zm3.426-.691c-1.119.238-2.264.47-3.426.691l.329 1.727c1.175-.224 2.332-.458 3.463-.699l-.366-1.719Zm3.34-.747c-1.08.252-2.196.503-3.34.747l.366 1.719a166.45 166.45 0 0 0 3.375-.755l-.401-1.711Zm3.017-.736a176.1 176.1 0 0 1-3.017.736l.401 1.711c1.054-.247 2.073-.496 3.048-.744l-.432-1.703Zm2.771-.731c-.874.239-1.801.484-2.771.731l.432 1.703a158.29 158.29 0 0 0 2.804-.739l-.465-1.695Zm1.307-.819c-.544.428-.932.716-1.307.819l.465 1.695c.783-.215 1.458-.762 1.928-1.132l-1.086-1.382Zm1.603-.975c-.624.188-1.197.656-1.603.975l1.086 1.382c.496-.39.787-.602 1.024-.674l-.507-1.683Zm-.838-1.337.217 2.262 1.749-.167-.216-2.262-1.75.167Zm3.761-3.64c-.065.263-.319.682-.906 1.208-.568.508-1.371 1.047-2.382 1.567l.805 1.563c1.101-.567 2.04-1.186 2.749-1.82.691-.618 1.251-1.328 1.44-2.096l-1.706-.422Zm-9.019-4.286c3.343.656 5.793 1.449 7.321 2.295.765.424 1.237.827 1.49 1.178.233.324.266.578.208.813l1.706.422c.202-.816-.005-1.592-.488-2.262-.464-.645-1.184-1.201-2.065-1.689-1.766-.977-4.427-1.813-7.833-2.481l-.339 1.724Zm-1.068.227c.38-.106.81-.18 1.296-.212l-.117-1.754a8.191 8.191 0 0 0-1.65.273l.471 1.693Zm-1.93-.314 1.508.326.373-1.717c-.496-.109-1.001-.217-1.51-.327l-.371 1.718Zm-9.017-2.136c2.937.825 6.091 1.505 9.017 2.136l.371-1.718c-2.937-.633-6.037-1.302-8.913-2.11l-.475 1.692Zm-11.784-11.294c2.727 4.749 6.129 9.705 11.784 11.294l.475-1.692c-4.903-1.378-8.001-5.716-10.735-10.477l-1.524.875Zm-1.903-2.816a21.34 21.34 0 0 1 1.903 2.816l1.524-.875a23.193 23.193 0 0 0-2.061-3.048l-1.366 1.107Zm-9.994-8.952c3.951-.14 7.937 1.147 10.156 2.864 1.12.867 1.645 1.726 1.694 2.438.045.64-.282 1.469-1.652 2.36l.958 1.473c1.669-1.085 2.553-2.44 2.448-3.955-.101-1.444-1.087-2.712-2.373-3.706-2.593-2.007-6.999-3.382-11.293-3.231l.062 1.757Zm-.843-1.238a1.53 1.53 0 0 1-.028.1l1.68.518c.023-.072.042-.145.06-.219l-1.712-.399Zm-4.302-14.344 4.314 14.79 1.687-.493-4.314-14.789-1.687.492Zm-.009-.058a.675.675 0 0 1-.026-.163l1.757-.051a1.156 1.156 0 0 0-.043-.276l-1.688.49Zm.027.309a1.685 1.685 0 0 1 .244.046c-.001-.001-.044-.019-.1-.071a.63.63 0 0 1-.171-.284l1.688-.49c-.13-.446-.484-.666-.712-.765a2.584 2.584 0 0 0-.758-.183l-.191 1.747Zm-1.545-3.372.796 2.744 1.688-.49-.796-2.744-1.688.49Zm-.006-.023a.74.74 0 0 1-.015-.064l1.729-.317a1.076 1.076 0 0 0-.026-.109l-1.688.49Zm.022.063a.926.926 0 0 1-.022-.063l1.688-.49a.782.782 0 0 0-.037-.106l-1.629.659Zm-.098-.322.069.237 1.688-.49-.069-.237-1.688.49Zm.933.644.156-.045-.49-1.688-.156.045.49 1.688Z" mask="url(#a)"/><path fill="#fff" fill-rule="evenodd" d="M258.161 325.011c2.427 32.254 6.139 56.832 11.441 66.553 19.675 36.07 14.522 80.596-17.426 92.214-25.558 9.293-60.992 54.698-75.513 76.239-11.376 22.024-42.259 71.737-74.787 94.391-40.661 28.318-80.596 2.179-91.488-18.878-10.89-21.057-5.808-52.278 9.44-75.513 9.186-13.999 31.025-37.223 53.922-61.573 15.106-16.065 30.674-32.621 43.373-47.34 30.027-34.804 31.191-54.856 33.634-96.928.156-2.692.318-5.474.493-8.355.693-11.437-.64-32.221-3.001-57.297 39.214-58.24 62.555-36.25 62.555-36.25 16.196 13.332 33.766 35.389 42.123 57.276 1.305 3.529 3.089 8.788 5.234 15.461Z" clip-rule="evenodd"/><path fill="#010101" d="m258.161 325.011.438-.033-.004-.052-.016-.05-.418.135Zm11.441 66.553.386-.21-.386.21Zm-17.426 92.214-.15-.413.15.413Zm-75.513 76.239-.365-.246-.014.021-.012.023.391.202Zm-74.787 94.391-.252-.36.252.36Zm-82.048-94.391-.368-.241.368.241Zm53.922-61.573-.32-.301.32.301Zm43.373-47.34.333.287-.333-.287Zm33.634-96.928.439.026-.439-.026Zm.493-8.355-.439-.027.439.027Zm-3.001-57.297-.364-.246-.088.131.015.156.437-.041Zm62.555-36.25-.301.32.011.01.011.01.279-.34Zm42.123 57.276.413-.152-.002-.004-.411.156Zm4.796 15.494c1.214 16.134 2.75 30.356 4.647 41.766 1.894 11.392 4.156 20.033 6.846 24.965l.772-.421c-2.613-4.789-4.857-13.298-6.751-24.688-1.891-11.374-3.425-25.568-4.638-41.688l-.876.066Zm11.493 66.731c9.797 17.959 13.402 38.01 10.598 54.994-2.804 16.978-12 30.854-27.788 36.596l.3.826c16.16-5.877 25.514-20.072 28.355-37.279 2.84-17.2-.815-37.448-10.693-55.558l-.772.421Zm-17.19 91.59c-6.458 2.348-13.51 6.964-20.669 12.878-7.164 5.917-14.458 13.153-21.401 20.766-13.885 15.224-26.387 31.977-33.658 42.762l.729.491c7.251-10.755 19.727-27.474 33.578-42.661 6.926-7.593 14.19-14.798 21.312-20.681 7.126-5.886 14.088-10.431 20.409-12.729l-.3-.826Zm-75.754 76.45c-5.677 10.993-16.23 28.908-29.425 46.902-13.198 17.999-29.017 36.045-45.223 47.331l.503.721c16.323-11.368 32.21-29.506 45.429-47.533 13.223-18.032 23.8-35.986 29.497-47.018l-.781-.403Zm-74.648 94.233c-20.207 14.073-40.208 14.606-56.513 9.021-16.328-5.593-28.942-17.32-34.332-27.741l-.78.404c5.5 10.636 18.3 22.507 34.827 28.168 16.55 5.669 36.847 5.113 57.301-9.131l-.503-.721Zm-90.845-18.72C-.015 614.459 5 583.411 20.195 560.258l-.735-.482C4.16 583.093-.99 614.488 9.998 635.732l.78-.404Zm9.416-75.07c9.16-13.958 30.962-37.146 53.875-61.513l-.64-.602c-22.882 24.333-44.756 47.593-53.97 61.633l.735.482Zm53.875-61.513c15.105-16.063 30.679-32.626 43.386-47.354l-.665-.575c-12.692 14.712-28.253 31.26-43.361 47.327l.64.602Zm43.386-47.354c15.041-17.434 22.877-31.202 27.25-45.9 4.367-14.681 5.269-30.267 6.49-51.289l-.878-.051c-1.222 21.049-2.123 36.525-6.455 51.089-4.327 14.546-12.086 28.207-27.072 45.576l.665.575Zm33.74-97.189c.156-2.692.318-5.474.492-8.355l-.877-.053c-.175 2.882-.336 5.665-.493 8.357l.878.051Zm.492-8.355c.696-11.476-.641-32.294-3.001-57.364l-.875.082c2.362 25.082 3.69 45.832 2.999 57.229l.877.053Zm59.116-93.573.301-.32-.002-.002-.004-.004-.016-.014a5.903 5.903 0 0 0-.273-.233c-.189-.154-.469-.37-.838-.621a17.877 17.877 0 0 0-3.26-1.738c-2.868-1.179-7.094-2.122-12.552-1.216-10.912 1.811-26.641 10.992-46.275 40.152l.729.491c19.579-29.079 35.128-38.023 45.69-39.776 5.279-.877 9.339.038 12.073 1.162a16.978 16.978 0 0 1 3.1 1.651 11.342 11.342 0 0 1 .969.737.835.835 0 0 1 .045.041l.01.009.002.001v.001l.301-.321Zm42.534 57.12c-8.389-21.971-26.011-44.087-42.254-57.459l-.559.679c16.147 13.292 33.666 35.289 41.992 57.093l.821-.313Zm5.241 15.482c-2.145-6.675-3.932-11.941-5.239-15.478l-.825.305c1.301 3.52 3.084 8.772 5.227 15.442l.837-.269Z"/><path stroke="#010101" stroke-width="1.406" d="M126.583 81.524c4.066-3.485 94.373-10.891 131.403-12.343-6.05 98.022-5.809 290.435 11.618 322.383 19.675 36.07 14.522 80.596-17.426 92.213-25.559 9.294-60.992 54.699-75.513 76.24-11.376 22.024-42.259 71.737-74.788 94.391-40.66 28.317-80.595 2.178-91.487-18.878-10.891-21.057-5.808-52.279 9.44-75.513 15.247-23.235 65.347-71.883 97.295-108.914 31.948-37.03 31.222-57.361 34.126-105.283 2.905-47.921-29.751-259.94-24.668-264.296Z"/><path fill="#fff" d="M152.722 182.379c-11.797-22.117.943-32.373 8.788-34.736 6.38 3.426 28.498 9.384 17.941 10.392-10.557 1.009-6.223 15.122-2.736 22.052 58.516 65.109 32.02 107.105 17.456 119.391-18.682-5.479-48.471-17.422-26.573-29.473 28.053-15.438-.13-59.981-14.876-87.626Z"/><path fill="#005BBB" d="M175.944 230.09c11.823 2.056 23.904-5.022 28.218-10.19l2.202 4.621c-9.438 12.893-23.22 12.38-29.002 10.725l-1.418-5.156Z"/><path fill="#FFD500" d="M177.296 235.111c14.328 3.162 24.707-5.575 29.073-10.676l1.737 4.717c-9.573 12.748-23.708 12.882-29.452 11.113l-1.358-5.154Z"/><path fill="#fff" d="M194.281 180.003c-21.36 14.586-32.519 8.333-35.428 3.384-17.398-8.217-16.769-41.991 11.415-44.683 28.184-2.692 50.712 23.066 24.013 41.299Z"/><ellipse cx="10.803" cy="11.792" fill="url(#b)" rx="10.803" ry="11.792" transform="scale(-1 1) rotate(45.837 -270.135 -113.75)"/><ellipse cx="174.587" cy="159.049" fill="#010101" rx="2.14" ry="3.363" transform="rotate(-9.65 174.587 159.049)"/><ellipse cx=".959" cy="1.507" fill="#fff" opacity=".2" rx=".959" ry="1.507" transform="scale(-1 1) rotate(43.069 -284.92 -142.401)"/><path fill="#EEC700" d="M184.357 235.657c-11.324-.676-33.59 5.54-21.801 35.706 11.703 29.945 12.035 49.48 3.917 46.447a1.966 1.966 0 0 0-.182-.071c.061.025.121.049.182.071 2.233 1.01.495 5.642 1.481 7.351 9.348 1.163 12.067-16.898-3.912-54.311-3.705-10.002 1.603-28.996 21.894-29.951l-1.579-5.242Z"/><path fill="#004D9D" d="M182.98 230.455c-12.021-1.241-25.914 1.306-19.479 37.378 6.376 35.742-2.891 41.121-11.056 37.004a1.791 1.791 0 0 0-.226-.116l.226.116c2.44 1.459 4.783 9.264 5.487 11.309 9.798 1.738 15.757-13.012 7.271-48.861-1.915-11.952-2.807-31.257 19.182-31.592l-1.405-5.238Z"/><path fill="#FF6B0A" d="M182.195 178.352c-2.515-3.68 6.436-3.354 11.013-2.961 8.989.387 15.539 13.527 18.227 16.842 2.689 3.316 2.966 8.261 2.181 9.27-1.409 1.813-5.528 1.562-13.339-8.278-7.811-9.84-14.938-10.272-18.082-14.873Z"/><path fill="#E25A00" d="M185.523 178.47c-1.773-2.905 3.115-3.567 6.536-3.389 6.729.036 11.617 9.539 13.531 12.144 1.914 2.604 3.478 6.896 2.859 7.738-1.113 1.513-5.42.323-10.975-7.412-5.555-7.736-9.735-5.448-11.951-9.081Z"/><path fill="#956C7C" d="M205.055 190.591c.244-3.014-8.258-12.623-12.539-17.05l-1.391 4.702c4.542 5.372 13.687 15.362 13.93 12.348Z"/><path fill="#86616F" d="M202.012 187.146c-.41-1.199-8.815-10.733-12.967-15.35l-.133 1.249c4.538 5.2 13.51 15.301 13.1 14.101Z"/><path fill="#fff" d="m206.395 185.195 2.354-1.857a86.983 86.983 0 0 1 3.967 5.908c.396.651.777 1.301 1.127 1.934.342.619.655 1.221.925 1.789.373.788.663 1.511.832 2.125.212.774.233 1.375-.012 1.716-.678.942-1.837 1.833-2.943 2.534-.474.3-.938.564-1.349.783a2.822 2.822 0 0 1-.901.445c-.432.13-1.03-.026-1.751-.404-.618-.325-1.327-.813-2.099-1.426a38.446 38.446 0 0 1-2.405-2.106 68.382 68.382 0 0 1-1.784-1.746 97.866 97.866 0 0 1-1.867-1.945 131.86 131.86 0 0 1-1.879-2.054 168.405 168.405 0 0 1-3.568-4.121 160.128 160.128 0 0 1-2.415-2.954l3.58.72c.317.443.721.956 1.193 1.519.451.537.964 1.12 1.523 1.732a87.909 87.909 0 0 0 1.912 2.022 110.244 110.244 0 0 0 3.727 3.645 88.246 88.246 0 0 0 2.421 2.179 53.96 53.96 0 0 0 2.175 1.791c.46.358.893.676 1.289.945.614.419 1.14.722 1.545.877.227-.505.309-1.13.251-1.871-.051-.647-.209-1.382-.47-2.2a20.07 20.07 0 0 0-.706-1.852 31.79 31.79 0 0 0-.975-2.03 46.57 46.57 0 0 0-.937-1.707 65.463 65.463 0 0 0-1.403-2.316 89.895 89.895 0 0 0-1.357-2.075Z"/><path stroke="#010101" stroke-width=".163" d="M210.395 200.572c.54-.244 1.378-.676 2.25-1.228m-2.25 1.228c-.432.13-1.03-.026-1.751-.404m1.751.404c1.385-.417 1.981-1.508 1.848-3.197m.402 1.969c1.106-.701 2.265-1.592 2.943-2.534.245-.341.224-.942.012-1.716m-2.955 4.25c-.376.11-1.161-.268-2.198-.975M197.4 186.055a25.894 25.894 0 0 1-1.193-1.519l-3.58-.72c.7.879 1.519 1.883 2.415 2.954m2.358-.715-2.358.715m2.358-.715c.451.537.964 1.12 1.523 1.732m-3.881-1.017c.496.592 1.016 1.204 1.552 1.827m0 0 2.329-.81m-2.329.81c.652.755 1.328 1.526 2.016 2.294m.313-3.104a87.909 87.909 0 0 0 1.912 2.022m-2.225 1.082 2.225-1.082m-2.225 1.082c.619.691 1.249 1.38 1.879 2.054m.346-3.136c.552.567 1.126 1.142 1.709 1.715m-2.055 1.421 2.055-1.421m-2.055 1.421c.624.667 1.249 1.32 1.867 1.945m.188-3.366c.665.652 1.343 1.301 2.018 1.93m-2.206 1.436 2.206-1.436m-2.206 1.436a68.382 68.382 0 0 0 1.784 1.746m.422-3.182c1.626 1.515 3.233 2.914 4.596 3.97m-5.018-.788 2.843-1.003m-2.843 1.003c.844.795 1.654 1.51 2.405 2.106m0 0 2.613-1.318m-2.613 1.318c.772.613 1.481 1.101 2.099 1.426m.514-2.744c.46.358.893.676 1.289.945m-1.803 1.799 1.803-1.799m1.796-.994 3.357-2.281m-3.357 2.281c-.051-.647-.209-1.382-.47-2.2m3.827-.081c-.169-.614-.459-1.337-.832-2.125m-2.995 2.206 2.995-2.206m-2.995 2.206a20.07 20.07 0 0 0-.706-1.852m3.701-.354c-.27-.568-.583-1.17-.925-1.789m-2.776 2.143 2.776-2.143m-2.776 2.143a31.79 31.79 0 0 0-.975-2.03m3.751-.113a54.432 54.432 0 0 0-1.127-1.934m-2.624 2.047 2.624-2.047m-2.624 2.047a46.57 46.57 0 0 0-.937-1.707m3.561-.34c-.299-.49-.607-.981-.917-1.464m-2.644 1.804 2.644-1.804m-2.644 1.804a65.463 65.463 0 0 0-1.403-2.316m4.047.512a91.746 91.746 0 0 0-1.269-1.92m-2.778 1.408a89.895 89.895 0 0 0-1.357-2.075l2.354-1.857c.525.715 1.139 1.58 1.781 2.524m-2.778 1.408 2.778-1.408"/><path fill="#fff" d="m235.558 172.449.328 3.436c-.913.275-1.837 1.5-2.93 1.799a158.824 158.824 0 0 1-5.82 1.475 166.314 166.314 0 0 1-9.933 2.01 137.25 137.25 0 0 1-3.299.515c-.996.143-1.992.273-2.984.389a98.454 98.454 0 0 1-3.073.313 83.45 83.45 0 0 1-2.92.199c-1.172.059-2.32.088-3.437.084a47.594 47.594 0 0 1-3.262-.116 33.844 33.844 0 0 1-3.01-.345 23.15 23.15 0 0 1-2.463-.534 16.505 16.505 0 0 1-1.687-.566l-2.933-2.497c1.157.102 2.509.189 4.02.253a130.534 130.534 0 0 0 5.731.109 145.014 145.014 0 0 0 5.378-.116 138.331 138.331 0 0 0 6.897-.453 120.99 120.99 0 0 0 6.701-.804c1.046-.158 2.092-.331 3.135-.521a88.907 88.907 0 0 0 3.444-.698 78.032 78.032 0 0 0 3.351-.825 68.189 68.189 0 0 0 3.017-.892c.94-.303 1.863-.625 2.766-.968a48.277 48.277 0 0 0 2.983-1.247Z"/><path stroke="#010101" stroke-width=".163" d="M232.575 173.696a48.277 48.277 0 0 0 2.983-1.247l.328 3.436c-.913.275-1.837 1.5-2.931 1.799m-.38-3.988.38 3.988m-.38-3.988c-.903.343-1.826.665-2.766.968m3.146 3.02c-.879.241-1.811.488-2.787.735m0 0-.359-3.755m.359 3.755c-.97.247-1.984.495-3.032.74m2.673-4.495c-.989.318-1.996.615-3.017.892m.344 3.603-.344-3.603m.344 3.603c-1.086.255-2.208.506-3.358.751m3.014-4.354a78.032 78.032 0 0 1-3.351.825m.337 3.529-.337-3.529m.337 3.529c-1.125.24-2.276.473-3.445.696m3.108-4.225a88.907 88.907 0 0 1-3.444.698m.336 3.527-.336-3.527m.336 3.527c-1.032.196-2.077.385-3.13.563m2.794-4.09c-1.043.19-2.089.363-3.135.521m.341 3.569-.341-3.569m.341 3.569a137.25 137.25 0 0 1-3.299.515m2.958-4.084c-1.103.165-2.207.313-3.305.445m.347 3.639-.347-3.639m.347 3.639c-.996.143-1.992.273-2.984.389m2.637-4.028a120.99 120.99 0 0 1-3.396.359m.759 3.669-.759-3.669m.759 3.669a98.454 98.454 0 0 1-3.073.313m2.314-3.982a127.37 127.37 0 0 1-3.566.278m1.252 3.704-1.252-3.704m1.252 3.704a83.45 83.45 0 0 1-2.92.199m1.668-3.903c-1.13.073-2.242.131-3.331.175m1.663 3.728-1.663-3.728m1.663 3.728c-1.172.059-2.32.088-3.437.084m1.774-3.812c-.947.039-1.876.067-2.783.086m1.009 3.726-1.009-3.726m1.009 3.726a47.594 47.594 0 0 1-3.262-.116m2.253-3.61c-.887.018-1.753.028-2.595.03m.342 3.58-.342-3.58m.342 3.58a33.844 33.844 0 0 1-3.01-.345m2.668-3.235c-1.032.003-2.028-.006-2.98-.025m.312 3.26-.312-3.26m.312 3.26a23.15 23.15 0 0 1-2.463-.534m2.151-2.726c-.964-.018-1.884-.047-2.751-.084m.6 2.81a16.505 16.505 0 0 1-1.687-.566l-2.933-2.497c1.157.102 2.509.189 4.02.253m.6 2.81-.6-2.81"/><path fill="#FF6B0A" d="M206.498 151.825c-4.588-7.988-9.254-7.216-11.36-5.358-9.832 1.665-7.451 9.054-6.391 15.311 1.059 6.257-18.249 15.857.832 17.696 12.966 1.25 46.013-3.445 49.054-9.246 1.871-3.572-10.819-4.692-20.876-7.518-5.278-1.483-8.528-6.13-11.259-10.885Z"/><path fill="#EFE5D5" d="M227.304 176.157c6.52-.917 11.591-3.798 12.105-5.88.519-2.102-2.953-4.035-9.703-5.36-5.746.385-5.78 6.051-4.903 9.664.258 1.065 1.369 1.735 2.501 1.576Z"/><path fill="#DACAB0" d="M233.186 167.622c-1.092-.233-3.073-.823-2.266-1.32.808-.498 1.847.673 2.266 1.32ZM231.457 168.494c-1.102-.203-3.205-.424-2.805.314.4.737 2.037.098 2.805-.314Z"/><path fill="#312F00" d="m188.922 121.148-.987-3.399-40.62 11.797 5.351 18.428 1.428-.415 34.085-7.647 5.107-3.734-3.72-12.81.203-.03-.246-2.252-.601.062Z"/><ellipse cx="21.756" cy="2.162" fill="#312F00" rx="21.756" ry="2.162" transform="scale(-1 1) rotate(16.193 -512.768 -604.514)"/><path fill="#312F00" d="M193.773 136.102c14.172-.534 29.293 16.429-30.423 12.417l30.423-12.417Z"/><path fill="#494600" d="M193.858 135.941c-1.571 6.738-36.529 16.532-41.8 12.139l-4.262-14.823c6.354.248 16.973-6.479 26.779-5.746l13.373 9.788 1.577-16.21 4.333 14.852Z"/><ellipse cx="21.144" cy="2.162" fill="#312F00" rx="21.144" ry="2.162" transform="scale(-1 1) rotate(16.193 -501.16 -600.7)"/><ellipse cx="21.442" cy="2.162" fill="#312F00" rx="21.442" ry="2.162" transform="scale(-1 1) rotate(16.193 -513.064 -602.306)"/><path fill="#FC0" d="M184.089 123.083c-.056.075-.105.135-.142.197-.322.514-.424.996-.264 1.548.069.233.169.462.254.689.075.201.149.398.221.6.017.053.037.07.106.05.146-.048.295-.042.413.05a.27.27 0 0 1 .11.302c-.028.12-.12.201-.242.257a.172.172 0 0 1-.172-.014 3.487 3.487 0 0 1-1.108-1.006c-.237-.335-.392-.704-.562-1.063-.097-.204-.205-.409-.294-.616a1.248 1.248 0 0 0-.228-.356 1.008 1.008 0 0 0-.384-.252.65.65 0 0 0-.031.418c.037.126.093.253.15.371.063.128.147.248.216.37.185.322.374.642.547.97a2.88 2.88 0 0 1 .315 1.73c-.008.081-.056.123-.138.148-.204.069-.421.001-.505-.158-.078-.147.004-.345.193-.433.068-.033.061-.056.027-.102-.173-.241-.343-.488-.512-.731-.195-.275-.37-.559-.654-.775-.377-.285-.776-.414-1.28-.465a5.686 5.686 0 0 1-.125-.008l.039.074 2.128 4.032c.04.078.04.078.127.041l.978-.411c.058-.024.09-.02.128.024.292.334.677.55 1.157.633.1.018.199.054.299.081.088-.261.281-.497.323-.777a1.62 1.62 0 0 0-.023-.683c-.012-.051.005-.075.055-.096l.994-.417c.058-.025.077-.046.047-.102l-2.14-4.056c.005-.011-.003-.025-.023-.064Zm-.031.779c.01 0 .022-.005.032-.005l.039.074 1.015 1.922c.057.11.057.11-.074.165-.05.021-.08.02-.115-.017a.67.67 0 0 0-.437-.173c-.073-.004-.098-.032-.116-.085-.091-.258-.18-.522-.283-.775a1.488 1.488 0 0 1-.109-.768c.009-.116.032-.224.048-.338Zm-3.382 1.433c.008-.004.01-.009.019-.012.039.017.079.035.114.055.272.144.491.254.664.487.216.296.425.596.637.894.031.038.033.072-.003.117a.55.55 0 0 0-.134.413c.007.07-.031.103-.147.131-.071.017-.069-.036-.086-.068l-1.032-1.957a.168.168 0 0 1-.032-.06Zm4.079 1.745c.019-.012.042-.026.067-.045.233-.158.377-.352.338-.615-.004-.037.005-.058.044-.07l.086-.036c.041-.018.065-.01.083.025.14.264.281.532.416.797.008.015-.009.06-.025.067-.22.097-.446.192-.67.281-.016.007-.062-.004-.074-.016l-.265-.388Zm-1.759.739c.058.148.108.29.164.434.016.041-.017.055-.05.069-.209.088-.417.17-.625.262-.065.027-.097.015-.121-.04-.12-.237-.249-.471-.375-.711-.058-.109-.058-.109.07-.163.037-.015.07-.029.102.005.184.176.42.215.682.178.055-.01.106-.027.153-.034Zm.347-1.359c.259.223.513.439.82.611-.089.127-.171.248-.259.367-.011.017-.055.027-.081.025-.137-.011-.269-.033-.406-.045-.042-.003-.059-.018-.056-.058a3.092 3.092 0 0 0-.017-.832.308.308 0 0 0-.001-.068Zm1.435 1.492c.114.176.081.638-.031.74l-.012-.003c-.096-.183-.197-.365-.288-.546-.007-.014.01-.047.025-.058.099-.05.204-.09.306-.133Zm-.372.892c-.224-.013-.628-.304-.674-.457l.28-.117c.053-.023.079-.012.101.03l.235.444c.02.03.037.062.058.1Zm.082-1.109c-.054.022-.109.05-.166.065-.017.007-.065-.007-.066-.02a.387.387 0 0 1 .141-.455c.034-.022.058-.024.083.004.067.088.129.178.197.27.023.033.006.058-.031.073a2.47 2.47 0 0 0-.158.063Zm-.757.317-.143.061c-.048.024-.086.018-.102-.031-.034-.093-.068-.186-.098-.281-.014-.046.005-.067.062-.074.176-.026.392.059.469.195.007.014-.009.051-.023.061-.056.028-.111.047-.165.069Z"/><path fill="#fff" d="M218.236 125.886c5.646 2.258 5.064 8.936 4.067 11.993 4.063-.389 7.25-8.183 8.336-12.031 4.211-.001 12.027-.975 16.001-5.298 4.968-5.404 6.623-14.816-.674-24.379-7.297-9.563-24.593-2.59-33.08-1.55-8.487 1.04-18.229 6.192-14.863 20.106 3.366 13.915 13.155 8.337 20.213 11.159Z"/><path fill="#010101" d="m222.303 137.879.056.588-.898.086.28-.858.562.184Zm-4.067-11.993.219-.549-.219.549Zm-20.213-11.159-.575.139.575-.139Zm14.863-20.106.072.587-.072-.587Zm33.08 1.55.47-.358-.47.358Zm.674 24.379.435.4-.435-.4Zm-16.001 5.298-.569-.161.122-.43h.447v.591Zm-8.898 11.847c.476-1.46.851-3.791.438-6.004-.408-2.187-1.573-4.22-4.163-5.256l.439-1.098c3.056 1.222 4.423 3.657 4.886 6.137.459 2.455.044 4.992-.476 6.588l-1.124-.367Zm-3.725-11.26c-1.666-.666-3.515-.845-5.47-.936-1.925-.09-3.981-.093-5.909-.452-1.953-.363-3.834-1.097-5.443-2.682-1.604-1.578-2.888-3.951-3.746-7.499l1.149-.278c.825 3.41 2.027 5.558 3.426 6.935 1.394 1.371 3.032 2.028 4.83 2.362 1.822.339 3.746.34 5.748.433 1.97.092 3.991.274 5.854 1.019l-.439 1.098Zm-20.568-11.569c-1.722-7.119-.103-12.105 3.138-15.432 3.206-3.291 7.914-4.871 12.228-5.4l.144 1.174c-4.173.511-8.58 2.027-11.525 5.051-2.911 2.988-4.479 7.535-2.836 14.329l-1.149.278Zm15.366-20.832c2.085-.255 4.719-.877 7.667-1.532 2.93-.65 6.144-1.327 9.328-1.67 6.33-.681 12.775-.068 16.627 4.98l-.94.718c-3.445-4.515-9.296-5.197-15.561-4.522-3.112.335-6.27.999-9.198 1.649-2.91.646-5.621 1.286-7.779 1.55l-.144-1.173Zm33.622 1.779c7.46 9.777 5.813 19.509.639 25.137l-.87-.8c4.763-5.181 6.424-14.271-.709-23.62l.94-.717Zm.639 25.137c-2.096 2.281-5.169 3.644-8.196 4.441-3.037.8-6.096 1.047-8.24 1.048v-1.182c2.067-.001 5.021-.241 7.939-1.009 2.926-.771 5.749-2.056 7.627-4.098l.87.8Zm-15.867 5.058c-.552 1.958-1.638 4.918-3.11 7.45-.735 1.266-1.581 2.448-2.523 3.346-.94.895-2.019 1.549-3.216 1.663l-.112-1.177c.834-.08 1.677-.546 2.512-1.342.832-.793 1.613-1.872 2.317-3.084 1.409-2.424 2.461-5.286 2.994-7.177l1.138.321ZM217.801 113.414l-2.835-3.583 1.399-1.037 3.521 4.421-2.085.199Zm-5.156.493-.757-7.932 1.824-.175.758 7.932-1.825.175Zm.987-3.319-.146-1.53 2.765-.264.146 1.53-2.765.264Zm2.994-.858-1.708-.043 2.194-4.211 1.937-.185-2.423 4.439Zm4.908 5.637a3.072 3.072 0 0 1-.954-.057 2.091 2.091 0 0 1-.798-.335l.525-1.32a1.54 1.54 0 0 0 1.034.29c.25-.024.44-.103.572-.238.14-.127.258-.333.353-.616l.246-.779.117-.205 1.685-5.467 1.7-.162-2.136 6.733c-.149.51-.339.917-.569 1.221a2.102 2.102 0 0 1-.782.669 2.871 2.871 0 0 1-.993.266Zm.847-2.15-3.325-6.075 1.825-.174 2.594 4.898-1.094 1.351Zm7.811-.895c-.657.063-1.255-.013-1.794-.229a3.118 3.118 0 0 1-1.319-1.006 3.087 3.087 0 0 1-.586-1.579c-.058-.612.034-1.166.276-1.662a3.04 3.04 0 0 1 1.106-1.226c.488-.321 1.061-.513 1.718-.576.642-.061 1.214.022 1.716.248.501.219.889.567 1.163 1.044l-1.301.868a1.584 1.584 0 0 0-.661-.578 1.516 1.516 0 0 0-.79-.13 1.641 1.641 0 0 0-.796.282c-.229.159-.403.37-.523.633-.112.262-.151.571-.117.926.034.355.13.651.29.887.168.236.379.41.633.523.255.113.533.155.836.126.279-.027.53-.116.752-.266.229-.16.408-.394.539-.704l1.442.617c-.18.513-.494.928-.944 1.245-.451.31-.997.496-1.64.557Zm6.698-4.916c.802-.069 1.427.054 1.877.369.456.307.715.782.776 1.424.064.673-.124 1.22-.564 1.643-.44.416-1.083.664-1.929.745l-3.061.281-.582-6.096 1.756-.168.186 1.949 1.541-.147Zm-.119 2.938c.34-.024.594-.121.761-.289.167-.169.236-.404.207-.706-.029-.303-.14-.509-.334-.62-.194-.119-.461-.166-.802-.141l-1.146.098.169 1.768 1.145-.11Z"/><path fill="#fff" stroke="#010101" stroke-width="1.652" d="M206.194 43.834c4.626-3.966 107.379-12.393 149.512-14.045-6.884 111.531-6.609 330.461 13.219 366.812 22.386 41.04 16.523 91.703-19.828 104.921-29.08 10.575-69.397 62.237-85.92 86.746-12.943 25.06-48.082 81.624-85.093 107.4-46.265 32.22-91.703 2.478-104.096-21.48-12.392-23.958-6.609-59.483 10.74-85.92 17.35-26.437 74.354-81.789 110.705-123.923 36.351-42.133 35.524-65.266 38.829-119.792 3.305-54.526-33.851-295.762-28.068-300.72Z"/><mask id="c" width="125.011" height="214.15" x="224.292" y="82.596" fill="#000" maskUnits="userSpaceOnUse"><path fill="#fff" d="M224.292 82.596h125.011v214.15H224.292z"/><path fill-rule="evenodd" d="M275.821 89.103c-1.759-.753-11.744 1.169-23.526 4.59-11.783 3.422-21.244 7.148-22.325 8.726l-.189.054.996 3.431c-.332.266-.509.493-.514.674a.28.28 0 0 0 .01.087c.014.047.042.09.083.129l3.986 13.866c-5.041 7.397-5.918 16.984-3.257 25.04.766 3.831 2.308 8.117 4.852 12.887a1063.62 1063.62 0 0 0 4.865 8.971c7.572 13.86 16.487 30.176 21.568 45.318l-.01-.002 1.573 5.72-.034-.007 1.545 5.865.036.011c2.761 14.501.169 26.808-13.201 33.115-26.36 12.435 9.563 28.012 30.82 34.247 11.924-10.06 30.878-37.623 15.762-79.894l.051-.068.043-.057-1.976-5.366-.034.04-2.479-5.2-.008.01c-5.477-11.671-13.51-24.332-24.834-37.932 2.305-.926 4.765-2.108 7.382-3.587 3.739 2.229 8.28 5.155 13.044 11.157 8.888 11.196 13.574 11.482 15.178 9.419.385-.495.545-1.823.358-3.477.741-.575 1.416-1.208 1.887-1.862.279-.389.255-1.073.014-1.952-.193-.7-.522-1.522-.947-2.418a37.192 37.192 0 0 0-1.053-2.037c-.398-.72-.831-1.46-1.282-2.2-.34-.558-.69-1.116-1.043-1.666a98.864 98.864 0 0 0-1.444-2.184 98.241 98.241 0 0 0-2.027-2.873l-2.53 1.997c-.69-.944-1.424-1.9-2.202-2.835l.377-.018a92.466 92.466 0 0 0 3.323-.227c1.156-.099 2.324-.218 3.497-.355 1.128-.132 2.262-.281 3.395-.443a168.583 168.583 0 0 0 7.315-1.227 186.938 186.938 0 0 0 7.74-1.646 182.364 182.364 0 0 0 6.622-1.678c.659-.18 1.263-.656 1.84-1.11.514-.403 1.005-.79 1.495-.938l-.246-2.572c2.404-1.238 3.966-2.635 4.256-3.808.59-2.392-3.361-4.59-11.04-6.098a8.4 8.4 0 0 0-1.677.276l-1.716-.371h-.004v-.001c-3.335-.719-6.893-1.486-10.2-2.415-6.006-1.687-9.704-6.975-12.811-12.385-.753-1.31-1.507-2.413-2.254-3.335 6.916-4.497-2.802-10.888-12.183-10.557.019-.061.035-.121.049-.182l-4.91-16.835a.275.275 0 0 0-.01-.057c-.055-.191-.337-.31-.819-.364l-.91-3.136-.003-.011-.004-.012-.082-.283-.178.051Z" clip-rule="evenodd"/></mask><path fill="#010101" fill-rule="evenodd" d="M275.821 89.103c-1.759-.753-11.744 1.169-23.526 4.59-11.783 3.422-21.244 7.148-22.325 8.726l-.189.054.996 3.431c-.332.266-.509.493-.514.674a.28.28 0 0 0 .01.087c.014.047.042.09.083.129l3.986 13.866c-5.041 7.397-5.918 16.984-3.257 25.04.766 3.831 2.308 8.117 4.852 12.887a1063.62 1063.62 0 0 0 4.865 8.971c7.572 13.86 16.487 30.176 21.568 45.318l-.01-.002 1.573 5.72-.034-.007 1.545 5.865.036.011c2.761 14.501.169 26.808-13.201 33.115-26.36 12.435 9.563 28.012 30.82 34.247 11.924-10.06 30.878-37.623 15.762-79.894l.051-.068.043-.057-1.976-5.366-.034.04-2.479-5.2-.008.01c-5.477-11.671-13.51-24.332-24.834-37.932 2.305-.926 4.765-2.108 7.382-3.587 3.739 2.229 8.28 5.155 13.044 11.157 8.888 11.196 13.574 11.482 15.178 9.419.385-.495.545-1.823.358-3.477.741-.575 1.416-1.208 1.887-1.862.279-.389.255-1.073.014-1.952-.193-.7-.522-1.522-.947-2.418a37.192 37.192 0 0 0-1.053-2.037c-.398-.72-.831-1.46-1.282-2.2-.34-.558-.69-1.116-1.043-1.666a98.864 98.864 0 0 0-1.444-2.184 98.241 98.241 0 0 0-2.027-2.873l-2.53 1.997c-.69-.944-1.424-1.9-2.202-2.835l.377-.018a92.466 92.466 0 0 0 3.323-.227c1.156-.099 2.324-.218 3.497-.355 1.128-.132 2.262-.281 3.395-.443a168.583 168.583 0 0 0 7.315-1.227 186.938 186.938 0 0 0 7.74-1.646 182.364 182.364 0 0 0 6.622-1.678c.659-.18 1.263-.656 1.84-1.11.514-.403 1.005-.79 1.495-.938l-.246-2.572c2.404-1.238 3.966-2.635 4.256-3.808.59-2.392-3.361-4.59-11.04-6.098a8.4 8.4 0 0 0-1.677.276l-1.716-.371h-.004v-.001c-3.335-.719-6.893-1.486-10.2-2.415-6.006-1.687-9.704-6.975-12.811-12.385-.753-1.31-1.507-2.413-2.254-3.335 6.916-4.497-2.802-10.888-12.183-10.557.019-.061.035-.121.049-.182l-4.91-16.835a.275.275 0 0 0-.01-.057c-.055-.191-.337-.31-.819-.364l-.91-3.136-.003-.011-.004-.012-.082-.283-.178.051Z" clip-rule="evenodd"/><path fill="#010101" d="m252.295 93.693.278.96-.278-.96Zm23.526-4.59-.394.92.329.14.343-.1-.278-.96ZM229.97 102.42l.278.96.344-.1.202-.295-.824-.565Zm-.189.054-.279-.96-.961.279.279.96.961-.279Zm.996 3.431.624.781.523-.418-.187-.642-.96.279Zm-.514.674.999.049.001-.011v-.012l-1-.026Zm.01.087.961-.279-.961.279Zm.083.129.961-.277-.076-.264-.201-.189-.684.73Zm3.986 13.866.827.563.264-.388-.13-.451-.961.276Zm-3.257 25.04.981-.196-.012-.06-.019-.058-.95.314Zm4.852 12.887-.882.471.882-.471Zm4.865 8.971.877-.48-.877.48Zm21.568 45.318-.171.985 1.653.287-.534-1.59-.948.318Zm-.01-.002.171-.985-1.554-.27.418 1.52.965-.265Zm1.573 5.72-.215.977 1.618.356-.439-1.598-.964.265Zm-.034-.007.215-.977-1.599-.352.417 1.584.967-.255Zm1.545 5.865-.967.255.141.538.532.163.294-.956Zm.036.011.982-.187-.113-.592-.576-.177-.293.956Zm-13.201 33.115-.426-.905.426.905Zm30.82 34.247-.282.959.516.151.41-.346-.644-.764Zm15.762-79.894-.798-.603-.325.431.182.509.941-.337Zm.051-.068.798.603.001-.001-.799-.602Zm.043-.057.799.602.328-.436-.189-.511-.938.345Zm-1.976-5.366.938-.346-.589-1.598-1.108 1.293.759.651Zm-.034.04-.903.43.661 1.388 1.001-1.167-.759-.651Zm-2.479-5.2.903-.43-.671-1.408-.999 1.197.767.641Zm-.008.01-.906.425.667 1.421 1.006-1.204-.767-.642Zm-24.834-37.932-.372-.928-1.275.512.879 1.055.768-.639Zm7.382-3.587.512-.859-.498-.297-.506.285.492.871Zm13.044 11.157.784-.622-.784.622Zm15.178 9.419.79.614-.79-.614Zm.358-3.477-.614-.79-.443.345.063.558.994-.113Zm1.887-1.862-.812-.584.812.584Zm.014-1.952.964-.265-.964.265Zm-.947-2.418.903-.429-.903.429Zm-1.053-2.037-.875.484.875-.484Zm-1.282-2.2-.854.52.854-.52Zm-1.043-1.666-.841.541.841-.541Zm-1.444-2.184.827-.562-.827.562Zm-2.027-2.873.806-.592-.613-.834-.813.642.62.784Zm-2.53 1.997-.807.59.612.838.815-.643-.62-.785Zm-2.202-2.835-.046-.999-2.011.091 1.288 1.548.769-.64Zm.377-.018.05.999-.05-.999Zm3.323-.227-.085-.996.085.996Zm3.497-.355-.116-.994.116.994Zm3.395-.443-.142-.99.142.99Zm3.753-.587.167.987-.167-.987Zm3.562-.64-.187-.982.187.982Zm3.92-.791-.209-.978.209.978Zm3.82-.855-.228-.974.228.974Zm3.45-.842.246.97-.246-.97Zm3.172-.836.264.965-.264-.965Zm1.84-1.11-.618-.786.618.786Zm1.495-.938.288.958.785-.237-.078-.816-.995.095Zm-.246-2.572-.458-.889-.602.309.065.675.995-.095Zm4.256-3.808.971.24-.971-.24Zm-11.04-6.098.193-.981-.129-.025-.131.009.067.997Zm-1.677.276-.213.978.242.052.239-.066-.268-.964Zm-1.716-.371-.211.978.211-.978Zm-.003 0-.261.965.025.007.025.005.211-.977Zm0 0 .26-.966-.055-.015-.056-.008-.149.989Zm-.001 0-.208.978.03.006.029.004.149-.988Zm0-.001-.211.978.003.001.208-.979Zm-10.2-2.415-.27.963.27-.963Zm-12.811-12.385.867-.498-.867.498Zm-2.254-3.335-.545-.839-.931.606.699.862.777-.629Zm-12.183-10.557-.956-.295-.414 1.344 1.405-.049-.035-1Zm.049-.182.974.227.06-.255-.074-.252-.96.28Zm-4.91-16.835-.999.054.006.116.033.11.96-.28Zm-.01-.057.96-.28-.96.28Zm-.819-.364-.96.28.187.641.664.074.109-.995Zm-.91-3.136-.967.256.003.012.003.011.961-.279Zm-.003-.011.966-.256-.006-.023-.007-.023-.953.302Zm-.004-.012-.96.279.003.011.003.011.954-.301Zm-.082-.283.96-.28-.279-.96-.96.28.279.96Zm-23.426 5.602c5.871-1.705 11.282-3.033 15.434-3.84 2.079-.403 3.824-.673 5.146-.797a13.854 13.854 0 0 1 1.607-.073c.204.005.364.02.484.038.06.009.105.018.137.026l.046.014.787-1.838c-.402-.172-.909-.226-1.398-.24-.52-.014-1.144.016-1.849.082-1.414.132-3.23.415-5.341.825-4.226.821-9.698 2.165-15.61 3.882l.557 1.92Zm-21.779 8.33c0 .001.008-.012.032-.036.022-.025.055-.057.1-.096.092-.08.22-.178.389-.292.339-.228.805-.496 1.397-.799 1.182-.603 2.8-1.31 4.772-2.082 3.938-1.543 9.219-3.32 15.089-5.025l-.557-1.92c-5.913 1.716-11.254 3.512-15.262 5.082-2.002.784-3.687 1.519-4.952 2.164-.631.323-1.174.631-1.605.922-.405.273-.805.59-1.052.951l1.649 1.131Zm-.735.45.189-.055-.557-1.921-.189.055.557 1.921Zm1.678 2.191-.996-3.43-1.921.557.996 3.431 1.921-.558Zm-.474.979a.611.611 0 0 1-.049.232c-.017.04-.03.055-.023.044a1.948 1.948 0 0 1 .21-.195l-1.249-1.562a3.2 3.2 0 0 0-.549.542c-.143.188-.329.494-.339.887l1.999.052Zm-.029-.218a.74.74 0 0 1 .028.241l-1.997-.097a1.24 1.24 0 0 0 .048.414l1.921-.558Zm-.194-.322c.068.064.15.171.194.322l-1.921.558c.071.245.208.437.358.579l1.369-1.459Zm4.263 14.32-3.986-13.867-1.922.553 3.986 13.866 1.922-.552Zm-3.268 25.002c-2.573-7.79-1.715-17.048 3.134-24.163l-1.653-1.126c-5.233 7.679-6.129 17.595-3.38 25.916l1.899-.627Zm4.785 12.731c-2.507-4.7-4.01-8.894-4.754-12.613l-1.961.392c.788 3.943 2.368 8.321 4.95 13.162l1.765-.941Zm4.859 8.961c-1.71-3.13-3.349-6.129-4.859-8.961l-1.765.941c1.516 2.842 3.16 5.851 4.869 8.979l1.755-.959Zm21.639 45.48c-5.114-15.241-14.077-31.639-21.639-45.48l-1.755.959c7.583 13.879 16.45 30.115 21.498 45.157l1.896-.636Zm-1.13 1.301.011.002.342-1.97-.01-.002-.343 1.97Zm2.709 4.47-1.573-5.72-1.929.53 1.574 5.72 1.928-.53Zm-1.213 1.234.034.008.43-1.953-.034-.008-.43 1.953Zm2.727 4.634-1.545-5.865-1.934.51 1.545 5.865 1.934-.51Zm-.638-.69-.036-.011-.587 1.912.037.011.586-1.912Zm-13.067 34.975c6.914-3.261 11.1-8.115 13.167-14.06 2.054-5.907 1.987-12.804.589-20.146l-1.964.374c1.363 7.159 1.381 13.666-.514 19.115-1.881 5.41-5.676 9.863-12.131 12.908l.853 1.809Zm30.674 32.383c-10.606-3.111-24.757-8.524-32.949-14.64-2.04-1.522-3.67-3.059-4.782-4.581-1.112-1.52-1.667-2.97-1.664-4.344.005-2.68 2.192-5.738 8.721-8.818l-.853-1.809c-6.652 3.138-9.86 6.691-9.868 10.623-.004 1.933.778 3.79 2.049 5.529 1.271 1.738 3.068 3.411 5.2 5.003 8.493 6.34 22.933 11.833 33.583 14.956l.563-1.919Zm14.54-78.597c14.949 41.805-3.798 68.949-15.466 78.792l1.289 1.529c12.181-10.275 31.342-38.259 16.06-80.995l-1.883.674Zm.194-1.008-.051.068 1.596 1.206.051-.068-1.596-1.206Zm.042-.055-.043.057 1.598 1.203.043-.057-1.598-1.203Zm-2.116-4.419 1.977 5.366 1.876-.691-1.976-5.367-1.877.692Zm1.664.345.034-.04-1.518-1.302-.034.04 1.518 1.302Zm-4.14-5.421 2.478 5.2 1.805-.86-2.478-5.2-1.805.86Zm1.661.222.009-.011-1.535-1.282-.009.01 1.535 1.283Zm-26.369-37.935c11.278 13.545 19.262 26.135 24.696 37.718l1.811-.849c-5.518-11.761-13.6-24.493-24.97-38.148l-1.537 1.279Zm7.658-5.097c-2.582 1.46-5.002 2.622-7.262 3.53l.745 1.856c2.35-.944 4.849-2.146 7.501-3.644l-.984-1.742Zm14.32 11.406c-4.873-6.137-9.529-9.136-13.316-11.394l-1.024 1.718c3.692 2.201 8.116 5.053 12.773 10.92l1.567-1.244Zm13.605 9.427c-.237.304-.586.535-1.118.593-.558.062-1.378-.061-2.511-.615-2.282-1.115-5.563-3.845-9.976-9.405l-1.567 1.244c4.474 5.636 7.98 8.647 10.665 9.958 1.35.66 2.557.922 3.607.806 1.075-.118 1.913-.626 2.479-1.353l-1.579-1.228Zm.153-2.75c.088.77.091 1.44.035 1.953a3.358 3.358 0 0 1-.112.603c-.046.156-.084.204-.076.194l1.579 1.228c.372-.478.529-1.172.598-1.811.074-.688.064-1.509-.037-2.393l-1.987.226Zm2.069-2.559c-.393.545-.986 1.111-1.689 1.656l1.227 1.58c.78-.605 1.537-1.306 2.085-2.068l-1.623-1.168Zm-.139-1.104c.108.394.152.691.153.9.001.216-.045.246-.014.204l1.623 1.168c.31-.431.393-.937.391-1.38-.002-.45-.09-.935-.224-1.421l-1.929.529Zm-.886-2.254c.413.87.716 1.634.886 2.255l1.929-.53c-.214-.778-.571-1.66-1.008-2.582l-1.807.857Zm-1.024-1.981c.382.691.728 1.357 1.024 1.981l1.807-.857a37.678 37.678 0 0 0-1.081-2.092l-1.75.968Zm-1.261-2.164c.445.731.871 1.459 1.261 2.164l1.75-.968a61.998 61.998 0 0 0-1.303-2.236l-1.708 1.04Zm-1.03-1.645c.349.543.695 1.095 1.03 1.645l1.708-1.04a85.196 85.196 0 0 0-1.055-1.686l-1.683 1.081Zm-1.43-2.163c.469.691.952 1.419 1.43 2.163l1.683-1.081a105.97 105.97 0 0 0-1.459-2.206l-1.654 1.124Zm-2.006-2.842a94.71 94.71 0 0 1 2.006 2.842l1.654-1.124a98.41 98.41 0 0 0-2.048-2.903l-1.612 1.185Zm-1.104 2.189 2.53-1.997-1.24-1.569-2.529 1.996 1.239 1.57Zm-3.591-2.98a55.616 55.616 0 0 1 2.164 2.785l1.615-1.18c-.7-.957-1.448-1.93-2.242-2.884l-1.537 1.279Zm1.097-1.656-.374.017.091 1.998.382-.018-.099-1.997Zm3.287-.225c-1.11.095-2.208.171-3.287.225l.099 1.997a94.308 94.308 0 0 0 3.359-.229l-.171-1.993Zm3.466-.353c-1.164.137-2.322.255-3.466.353l.171 1.993c1.166-.1 2.344-.221 3.527-.359l-.232-1.987Zm3.369-.439c-1.125.161-2.25.308-3.369.439l.232 1.987c1.138-.133 2.28-.283 3.421-.446l-.284-1.98Zm3.729-.583a148.31 148.31 0 0 1-3.729.583l.284 1.98c1.263-.181 2.525-.379 3.778-.59l-.333-1.973Zm3.541-.636c-1.168.222-2.351.436-3.541.636l.333 1.973c1.205-.204 2.402-.42 3.583-.645l-.375-1.964Zm3.898-.787c-1.273.271-2.576.535-3.898.787l.375 1.964c1.336-.255 2.653-.521 3.94-.795l-.417-1.956Zm3.801-.851c-1.229.288-2.499.573-3.801.851l.417 1.956a199.14 199.14 0 0 0 3.84-.859l-.456-1.948Zm3.432-.837c-1.098.279-2.245.56-3.432.837l.456 1.948c1.199-.281 2.358-.565 3.468-.846l-.492-1.939Zm3.154-.831c-.995.272-2.049.551-3.154.831l.492 1.939c1.117-.284 2.183-.566 3.19-.841l-.528-1.929Zm1.486-.932c-.619.487-1.06.815-1.486.932l.528 1.929c.891-.245 1.659-.867 2.194-1.289l-1.236-1.572Zm1.824-1.109c-.709.214-1.361.745-1.824 1.109l1.236 1.572c.564-.443.896-.685 1.165-.766l-.577-1.915Zm-.952-1.52.245 2.573 1.991-.191-.246-2.572-1.99.19Zm4.28-4.143c-.074.3-.363.777-1.031 1.374-.647.579-1.561 1.192-2.712 1.785l.916 1.778c1.254-.646 2.322-1.349 3.13-2.072.786-.703 1.423-1.511 1.639-2.385l-1.942-.48Zm-10.262-4.876c3.804.746 6.591 1.648 8.33 2.61.871.483 1.408.942 1.695 1.34.266.369.303.659.237.926l1.942.48c.229-.929-.007-1.811-.556-2.574-.528-.733-1.347-1.366-2.35-1.921-2.009-1.112-5.036-2.063-8.912-2.824l-.386 1.963Zm-1.216.258a7.276 7.276 0 0 1 1.476-.242l-.134-1.995a9.274 9.274 0 0 0-1.879.31l.537 1.927Zm-2.195-.357c.58.125 1.152.248 1.714.371l.426-1.955-1.718-.371-.422 1.955Zm-.003-.001.003.001.422-1.955-.003-.001-.422 1.955Zm-.05-.012.521-1.931-.521 1.931Zm.111.023.299-1.977-.299 1.977Zm-.059-.01.417-1.956-.001-.001-.416 1.957Zm-10.262-2.431c3.342.939 6.93 1.712 10.259 2.43l.422-1.955c-3.342-.721-6.868-1.481-10.14-2.401l-.541 1.926Zm-13.409-12.85c3.104 5.403 6.975 11.042 13.409 12.85l.541-1.926c-5.579-1.567-9.104-6.503-12.215-11.92l-1.735.996Zm-2.163-3.204c.709.875 1.434 1.933 2.163 3.204l1.735-.996c-.775-1.35-1.559-2.498-2.344-3.467l-1.554 1.259Zm-11.371-10.186c4.496-.159 9.031 1.305 11.556 3.259 1.275.986 1.871 1.964 1.928 2.774.05.728-.322 1.671-1.881 2.685l1.09 1.677c1.899-1.235 2.906-2.776 2.786-4.501-.114-1.643-1.237-3.085-2.699-4.217-2.951-2.283-7.965-3.849-12.85-3.676l.07 1.999Zm-.96-1.409a1.082 1.082 0 0 1-.031.114l1.912.59a3.69 3.69 0 0 0 .067-.25l-1.948-.454Zm-4.896-16.328 4.91 16.835 1.92-.56-4.91-16.835-1.92.56Zm-.01-.058a.718.718 0 0 1-.029-.168l1.997-.108a1.21 1.21 0 0 0-.048-.282l-1.92.558Zm.032.352c.092.01.161.021.211.033.051.011.07.02.066.018-.002 0-.051-.022-.114-.08a.71.71 0 0 1-.195-.323l1.92-.558c-.147-.507-.549-.757-.808-.87a2.97 2.97 0 0 0-.861-.209l-.219 1.989Zm-1.762-3.852.911 3.136 1.921-.557-.911-3.136-1.921.557Zm-.009-.035.003.012 1.933-.511-.003-.012-1.933.511Zm.009.034.004.012 1.907-.603-.004-.012-1.907.603Zm-.089-.306.083.284 1.92-.558-.082-.283-1.921.557Zm1.061.734.179-.052-.558-1.92-.178.051.557 1.92Z" mask="url(#c)"/><path fill="#fff" fill-rule="evenodd" d="M355.864 320.324c2.761 36.972 6.996 65.161 13.059 76.277 22.386 41.041 16.523 91.703-19.828 104.922-29.08 10.574-69.397 62.237-85.92 86.746-12.943 25.06-48.082 81.624-85.093 107.4-46.265 32.22-91.703 2.478-104.095-21.48-12.393-23.959-6.61-59.483 10.74-85.92 10.452-15.928 35.3-42.353 61.353-70.059 17.188-18.279 34.901-37.116 49.351-53.864 34.165-39.6 35.489-62.415 38.269-110.285.178-3.063.361-6.228.56-9.507.781-12.887-.698-36.201-3.336-64.361 44.751-66.676 71.397-41.573 71.397-41.573 18.427 15.169 38.419 40.266 47.928 65.169 1.414 3.827 3.326 9.443 5.615 16.535Z" clip-rule="evenodd"/><path fill="#010101" d="m355.864 320.324.498-.037-.004-.059-.018-.057-.476.153Zm13.059 76.277.439-.239-.439.239Zm-19.828 104.922.171.47-.171-.47Zm-85.92 86.746-.414-.28-.016.024-.014.026.444.23Zm-85.093 107.4-.286-.411.286.411Zm-104.095-21.48-.445.229.445-.229Zm10.74-85.92.417.274-.418-.274Zm61.353-70.059.364.343-.364-.343Zm49.351-53.864.378.326-.378-.326ZM233.7 354.061l-.499-.029.499.029Zm.56-9.507.499.03-.499-.03Zm-3.336-64.361-.415-.278-.099.147.017.178.497-.047Zm71.397-41.573-.343.364.012.011.013.011.318-.386Zm47.928 65.169.469-.173-.002-.005-.467.178Zm5.116 16.573c1.381 18.493 3.131 34.799 5.297 47.878 2.162 13.06 4.746 22.961 7.822 28.601l.878-.479c-2.987-5.477-5.552-15.228-7.714-28.285-2.158-13.038-3.906-29.312-5.286-47.79l-.997.075Zm13.119 76.479c11.146 20.434 15.249 43.248 12.058 62.573-3.19 19.318-13.654 35.107-31.618 41.639l.342.94c18.387-6.686 29.03-22.838 32.263-42.416 3.231-19.571-.927-42.609-12.167-63.215l-.878.479Zm-19.56 104.212c-7.347 2.672-15.371 7.924-23.517 14.653-8.151 6.733-16.451 14.966-24.35 23.627-15.799 17.323-30.024 36.385-38.296 48.656l.829.559c8.25-12.238 22.445-31.261 38.206-48.541 7.88-8.639 16.145-16.836 24.248-23.53 8.109-6.698 16.03-11.869 23.222-14.484l-.342-.94Zm-86.193 86.986c-6.46 12.508-18.467 32.892-33.48 53.366-15.018 20.479-33.017 41.012-51.455 53.853l.571.821c18.574-12.935 36.65-33.572 51.69-54.083 15.046-20.518 27.08-40.946 33.563-53.498l-.889-.459Zm-84.935 107.219c-22.993 16.013-45.75 16.619-64.302 10.265-18.579-6.364-32.93-19.707-39.063-31.564l-.889.459c6.26 12.102 20.823 25.609 39.628 32.051 18.832 6.45 41.925 5.817 65.197-10.39l-.571-.821ZM74.431 673.959c-12.282-23.745-6.575-59.072 10.713-85.416l-.836-.549c-17.41 26.531-23.268 62.252-10.766 86.424l.889-.459Zm10.713-85.416c10.423-15.882 35.229-42.265 61.3-69.99l-.728-.685c-26.035 27.686-50.924 54.152-61.408 70.126l.836.549Zm61.3-69.99c17.187-18.277 34.908-37.122 49.365-53.881l-.757-.653c-14.441 16.739-32.146 35.568-49.336 53.849l.728.685Zm49.365-53.881c17.114-19.836 26.03-35.501 31.005-52.225 4.969-16.704 5.996-34.438 7.385-58.357l-.998-.058c-1.391 23.95-2.416 41.559-7.345 58.13-4.924 16.551-13.753 32.094-30.804 51.857l.757.653Zm38.39-110.582c.178-3.063.361-6.228.56-9.506l-.998-.06c-.199 3.279-.383 6.445-.56 9.508l.998.058Zm.56-9.506c.784-12.931-.7-36.284-3.337-64.437l-.995.093c2.638 28.166 4.112 51.442 3.334 64.284l.998.06Zm67.562-105.964c.343-.364.342-.364.342-.365l-.002-.001-.005-.005-.018-.017-.065-.058a13.748 13.748 0 0 0-1.203-.915 20.303 20.303 0 0 0-3.722-1.982c-3.273-1.343-8.097-2.414-14.327-1.367-12.454 2.092-30.405 12.62-52.812 46.005l.831.557c22.344-33.292 40.091-43.551 52.147-45.576 6.026-1.012 10.661.026 13.782 1.306a19.359 19.359 0 0 1 3.538 1.883c.396.269.692.498.888.657a6.84 6.84 0 0 1 .27.23l.011.01.002.002h.001l.342-.364Zm48.395 64.991c-9.545-24.998-29.595-50.162-48.077-65.377l-.636.772c18.372 15.124 38.306 40.153 47.779 64.962l.934-.357Zm5.624 16.56c-2.29-7.095-4.204-12.718-5.622-16.555l-.938.347c1.411 3.817 3.32 9.425 5.608 16.515l.952-.307Z"/><path stroke="#010101" stroke-width="1.6" d="M206.194 43.834c4.626-3.966 107.379-12.393 149.512-14.045-6.884 111.531-6.609 330.461 13.219 366.812 22.386 41.04 16.523 91.703-19.828 104.921-29.08 10.575-69.397 62.237-85.92 86.746-12.943 25.06-48.082 81.624-85.093 107.4-46.265 32.22-91.703 2.478-104.096-21.48-12.392-23.958-6.609-59.483 10.74-85.92 17.35-26.437 74.354-81.789 110.705-123.923 36.351-42.133 35.524-65.266 38.829-119.792 3.305-54.526-33.851-295.762-28.068-300.72Z"/><path fill="#fff" d="M235.934 158.587c-13.423-25.165 1.073-36.834 9.999-39.523 7.259 3.898 32.425 10.677 20.413 11.825-12.012 1.147-7.08 17.205-3.113 25.09 66.58 74.082 36.433 121.865 19.862 135.845-21.257-6.234-55.151-19.823-30.236-33.535 31.919-17.566-.147-68.247-16.925-99.702Z"/><path fill="#005BBB" d="M262.358 212.874c13.453 2.34 27.198-5.713 32.106-11.594l2.507 5.258c-10.74 14.67-26.421 14.086-33 12.204l-1.613-5.868Z"/><path fill="#FFD500" d="M263.895 218.587c16.302 3.599 28.111-6.343 33.08-12.147l1.976 5.367c-10.893 14.504-26.976 14.658-33.511 12.645l-1.545-5.865Z"/><path fill="#fff" d="M283.22 155.884c-24.304 16.596-37 9.482-40.31 3.85-19.796-9.348-19.081-47.777 12.987-50.84 32.069-3.063 57.702 26.245 27.323 46.99Z"/><ellipse cx="12.292" cy="13.417" fill="url(#d)" rx="12.292" ry="13.417" transform="scale(-1 1) rotate(45.837 -280.586 -227.404)"/><ellipse cx="260.813" cy="132.042" fill="#010101" rx="2.435" ry="3.826" transform="rotate(-9.65 260.813 132.042)"/><ellipse cx="1.091" cy="1.715" fill="#fff" opacity=".2" rx="1.091" ry="1.715" transform="scale(-1 1) rotate(43.069 -293.274 -265.257)"/><path fill="#EEC700" d="M271.928 219.209c-12.884-.77-38.218 6.303-24.804 40.626 13.315 34.071 13.692 56.299 4.456 52.848a2.044 2.044 0 0 0-.208-.081c.07.029.139.056.208.081 2.54 1.15.563 6.42 1.685 8.363 10.636 1.324 13.73-19.226-4.451-61.795-4.216-11.381 1.823-32.992 24.911-34.078l-1.797-5.964Z"/><path fill="#004D9D" d="M270.36 213.29c-13.677-1.412-29.484 1.485-22.162 42.528 7.254 40.668-3.29 46.788-12.58 42.104a2.236 2.236 0 0 0-.257-.132c.085.045.171.089.257.132 2.776 1.66 5.442 10.54 6.243 12.868 11.149 1.977 17.929-14.806 8.273-55.596-2.179-13.599-3.193-35.564 21.825-35.945l-1.599-5.959Z"/><path fill="#FF6B0A" d="M269.473 154.006c-2.862-4.188 7.323-3.817 12.53-3.369 10.228.44 17.681 15.39 20.74 19.163 3.058 3.772 3.374 9.399 2.481 10.547-1.603 2.063-6.29 1.777-15.178-9.419-8.887-11.196-16.996-11.687-20.573-16.922Z"/><path fill="#E25A00" d="M273.261 154.141c-2.018-3.307 3.544-4.06 7.436-3.857 7.657.041 13.218 10.854 15.396 13.817 2.178 2.964 3.957 7.847 3.253 8.805-1.267 1.722-6.167.367-12.487-8.434-6.321-8.801-11.077-6.198-13.598-10.331Z"/><path fill="#956C7C" d="M295.483 167.931c.277-3.429-9.397-14.362-14.268-19.4l-1.582 5.351c5.168 6.112 15.573 17.478 15.85 14.049Z"/><path fill="#86616F" d="M292.023 164.013c-.467-1.365-10.031-12.213-14.754-17.466l-.152 1.421c5.163 5.917 15.372 17.409 14.906 16.045Z"/><path fill="#fff" d="m297.009 161.792 2.678-2.114a98.241 98.241 0 0 1 2.027 2.873c.474.697.962 1.433 1.444 2.184.353.55.703 1.108 1.043 1.666.451.74.884 1.48 1.282 2.2.39.705.746 1.39 1.053 2.036.425.897.755 1.719.947 2.418.241.88.265 1.564-.014 1.953-.771 1.071-2.09 2.086-3.348 2.882a22.96 22.96 0 0 1-1.535.891 3.197 3.197 0 0 1-1.026.507c-.491.148-1.171-.029-1.991-.46-.704-.369-1.511-.925-2.389-1.622a44.217 44.217 0 0 1-2.737-2.396 79.095 79.095 0 0 1-2.03-1.987 117.26 117.26 0 0 1-2.124-2.213 154.265 154.265 0 0 1-2.138-2.337 180.327 180.327 0 0 1-4.059-4.69 177.002 177.002 0 0 1-2.748-3.36l4.073.818c.36.506.82 1.089 1.357 1.729a63.51 63.51 0 0 0 1.734 1.971 98.336 98.336 0 0 0 2.175 2.301 123.097 123.097 0 0 0 4.241 4.147c1.85 1.724 3.678 3.316 5.229 4.518.524.406 1.016.768 1.467 1.075.699.476 1.297.821 1.758.997.258-.574.351-1.286.285-2.129-.058-.736-.238-1.572-.535-2.503a22.662 22.662 0 0 0-.803-2.107 36.379 36.379 0 0 0-1.109-2.31 53.902 53.902 0 0 0-1.067-1.942 73.581 73.581 0 0 0-1.595-2.635 101.35 101.35 0 0 0-1.545-2.361Z"/><path stroke="#010101" stroke-width=".185" d="M301.56 179.288c.615-.277 1.569-.77 2.561-1.398m-2.561 1.398c-.491.148-1.171-.029-1.991-.46m1.991.46c1.576-.475 2.254-1.716 2.103-3.638m.458 2.24c1.258-.796 2.577-1.811 3.348-2.882.279-.389.255-1.073.014-1.953m-3.362 4.835c-.428.125-1.321-.304-2.501-1.108m-14.846-14.012a28.356 28.356 0 0 1-1.357-1.729l-4.073-.818c.796 1 1.728 2.142 2.748 3.36m2.682-.813-2.682.813m2.682-.813a63.51 63.51 0 0 0 1.734 1.971m-4.416-1.158c.564.674 1.156 1.371 1.766 2.079m0 0 2.65-.921m-2.65.921c.741.86 1.51 1.737 2.293 2.611m.357-3.532a98.336 98.336 0 0 0 2.175 2.301m-2.532 1.231 2.532-1.231m-2.532 1.231c.705.786 1.421 1.57 2.138 2.337m.394-3.568c.629.645 1.281 1.3 1.945 1.951m-2.339 1.617 2.339-1.617m-2.339 1.617a117.26 117.26 0 0 0 2.124 2.213m.215-3.83c.757.742 1.528 1.481 2.296 2.196m-2.511 1.634 2.511-1.634m-2.511 1.634a79.095 79.095 0 0 0 2.03 1.987m.481-3.621c1.85 1.724 3.678 3.316 5.229 4.518m-5.71-.897 3.235-1.142m-3.235 1.142a44.217 44.217 0 0 0 2.737 2.396m0 0 2.973-1.499m-2.973 1.499c.878.697 1.685 1.253 2.389 1.622m.584-3.121c.524.406 1.016.768 1.467 1.075m-2.051 2.046 2.051-2.046m2.043-1.132 3.82-2.595m-3.82 2.595c-.058-.736-.238-1.572-.535-2.503m4.355-.092c-.192-.699-.522-1.521-.947-2.418m-3.408 2.51 3.408-2.51m-3.408 2.51a22.662 22.662 0 0 0-.803-2.107m4.211-.403a37.543 37.543 0 0 0-1.053-2.036m-3.158 2.439 3.158-2.439m-3.158 2.439a36.379 36.379 0 0 0-1.109-2.31m4.267-.129c-.398-.72-.831-1.46-1.282-2.2m-2.985 2.329 2.985-2.329m-2.985 2.329a53.902 53.902 0 0 0-1.067-1.942m4.052-.387c-.34-.558-.69-1.116-1.043-1.666m-3.009 2.053 3.009-2.053m-3.009 2.053a73.581 73.581 0 0 0-1.595-2.635m4.604.582a98.864 98.864 0 0 0-1.444-2.184m-3.16 1.602a101.35 101.35 0 0 0-1.545-2.361l2.678-2.114a98.241 98.241 0 0 1 2.027 2.873m-3.16 1.602 3.16-1.602"/><path fill="#fff" d="m330.185 147.289.374 3.91c-1.04.313-2.09 1.707-3.335 2.047-1.001.275-2.061.555-3.172.837a198.805 198.805 0 0 1-7.27 1.696 180.726 180.726 0 0 1-7.482 1.432 149.5 149.5 0 0 1-3.753.586c-1.133.163-2.267.311-3.395.443-1.173.137-2.341.257-3.497.356-1.121.096-2.23.172-3.322.227-1.334.066-2.64.1-3.91.095a54.078 54.078 0 0 1-3.712-.132 38.182 38.182 0 0 1-3.426-.393 26.163 26.163 0 0 1-2.802-.607 18.677 18.677 0 0 1-1.919-.645l-3.337-2.84c1.316.115 2.855.215 4.574.288.986.042 2.033.074 3.13.096a154.763 154.763 0 0 0 6.343-.007 155.05 155.05 0 0 0 6.957-.296 148.646 148.646 0 0 0 7.921-.725c1.25-.15 2.505-.318 3.76-.507 1.191-.179 2.381-.376 3.567-.592 1.315-.24 2.623-.504 3.919-.794a89.15 89.15 0 0 0 3.813-.939 76.894 76.894 0 0 0 3.433-1.015 66.162 66.162 0 0 0 3.147-1.102 53.982 53.982 0 0 0 3.394-1.419Z"/><path stroke="#010101" stroke-width=".185" d="M326.791 148.708a53.982 53.982 0 0 0 3.394-1.419l.374 3.91c-1.04.313-2.09 1.707-3.335 2.047m-.433-4.538.433 4.538m-.433-4.538c-1.028.39-2.078.757-3.147 1.102m3.58 3.436c-1.001.275-2.061.555-3.172.837m0 0-.408-4.273m.408 4.273c-1.104.28-2.257.562-3.45.842m3.042-5.115c-1.125.362-2.271.7-3.433 1.015m.391 4.1-.391-4.1m.391 4.1c-1.235.289-2.512.575-3.82.854m3.429-4.954a89.15 89.15 0 0 1-3.813.939m.384 4.015-.384-4.015m.384 4.015c-1.28.273-2.59.538-3.92.791m3.536-4.806c-1.296.29-2.604.554-3.919.794m.383 4.012-.383-4.012m.383 4.012c-1.174.224-2.364.439-3.562.641m3.179-4.653c-1.186.216-2.376.413-3.567.592m.388 4.061-.388-4.061m.388 4.061a149.5 149.5 0 0 1-3.753.586m3.365-4.647c-1.255.189-2.51.357-3.76.507m.395 4.14-.395-4.14m.395 4.14c-1.133.163-2.267.311-3.395.443m3-4.583c-1.296.155-2.586.291-3.863.408m.863 4.175-.863-4.175m.863 4.175c-1.173.137-2.341.257-3.497.356m2.634-4.531c-1.369.126-2.724.231-4.058.317m1.424 4.214-1.424-4.214m1.424 4.214c-1.121.096-2.23.172-3.322.227m1.898-4.441a157.46 157.46 0 0 1-3.79.199m1.892 4.242-1.892-4.242m1.892 4.242c-1.334.066-2.64.1-3.91.095m2.018-4.337a155.05 155.05 0 0 1-3.167.097m1.149 4.24-1.149-4.24m1.149 4.24a54.078 54.078 0 0 1-3.712-.132m2.563-4.108c-1.009.022-1.995.033-2.952.035m.389 4.073-.389-4.073m.389 4.073a38.182 38.182 0 0 1-3.426-.393m3.037-3.68c-1.175.003-2.308-.007-3.391-.028m.354 3.708-.354-3.708m.354 3.708a26.163 26.163 0 0 1-2.802-.607m2.448-3.101a139.634 139.634 0 0 1-3.13-.096m.682 3.197a18.677 18.677 0 0 1-1.919-.645l-3.337-2.84c1.316.115 2.855.215 4.574.288m.682 3.197-.682-3.197"/><path fill="#FF6B0A" d="M297.123 123.824c-5.221-9.09-10.529-8.211-12.925-6.097-11.187 1.894-8.478 10.302-7.273 17.421 1.206 7.119-20.763 18.043.947 20.135 14.753 1.422 52.355-3.92 55.814-10.521 2.13-4.063-12.309-5.338-23.752-8.553-6.006-1.688-9.704-6.975-12.811-12.385Z"/><path fill="#EFE5D5" d="M320.793 151.508c7.419-1.043 13.189-4.322 13.774-6.691.59-2.391-3.361-4.59-11.04-6.097-6.538.438-6.576 6.885-5.579 10.995.294 1.212 1.558 1.974 2.845 1.793Z"/><path fill="#DACAB0" d="M327.488 141.797c-1.242-.265-3.497-.936-2.578-1.502.919-.567 2.102.765 2.578 1.502ZM325.521 142.789c-1.254-.23-3.647-.482-3.192.357.455.839 2.317.112 3.192-.357Z"/><path fill="#312F00" d="m277.122 88.918-1.123-3.867-46.218 13.422 6.089 20.968 1.624-.471 38.783-8.701 5.811-4.25-4.233-14.574.231-.035-.28-2.561-.684.07Z"/><ellipse cx="24.754" cy="2.46" fill="#312F00" rx="24.754" ry="2.46" transform="scale(-1 1) rotate(16.193 -442.562 -930.761)"/><path fill="#312F00" d="M282.641 105.934c16.126-.608 33.33 18.693-34.615 14.128l34.615-14.128Z"/><path fill="#494600" d="M282.737 105.75c-1.786 7.667-41.563 18.811-47.56 13.812l-4.849-16.866c7.23.283 19.312-7.372 30.47-6.538l15.215 11.137 1.795-18.444 4.929 16.899Z"/><ellipse cx="24.058" cy="2.46" fill="#312F00" rx="24.058" ry="2.46" transform="scale(-1 1) rotate(16.193 -429.355 -926.426)"/><ellipse cx="24.397" cy="2.46" fill="#312F00" rx="24.397" ry="2.46" transform="scale(-1 1) rotate(16.193 -442.901 -928.253)"/><path fill="#FC0" d="M271.625 91.064c-.063.086-.119.153-.161.225-.366.584-.483 1.132-.3 1.76.077.266.192.526.288.785.086.228.17.452.252.682.02.06.042.08.121.057.165-.055.335-.048.47.057.122.09.158.213.124.344-.031.135-.136.229-.274.291a.199.199 0 0 1-.197-.015 3.98 3.98 0 0 1-1.261-1.144c-.269-.381-.445-.802-.638-1.21-.111-.233-.234-.465-.336-.701a1.387 1.387 0 0 0-.259-.405 1.146 1.146 0 0 0-.437-.287.744.744 0 0 0-.035.475c.042.144.106.288.171.423.072.146.167.282.245.42.211.367.426.732.623 1.105.323.623.447 1.28.358 1.968-.008.092-.063.14-.156.169-.233.078-.48 0-.575-.18-.089-.168.004-.393.22-.493.077-.038.069-.064.03-.116-.196-.275-.39-.555-.582-.832-.222-.313-.421-.636-.745-.882-.428-.324-.883-.47-1.456-.529a6.632 6.632 0 0 1-.142-.009l.045.084 2.42 4.588c.046.088.046.088.145.047l1.113-.467c.065-.028.102-.024.145.027.332.38.771.626 1.317.72.114.02.227.06.34.091.101-.296.319-.564.368-.883a1.847 1.847 0 0 0-.027-.777c-.013-.058.006-.086.062-.11l1.132-.475c.066-.027.088-.05.054-.115l-2.435-4.616c.005-.012-.004-.028-.027-.072Zm-.035.886c.011 0 .025-.006.037-.005l.044.084 1.154 2.187c.066.125.066.125-.084.187-.056.024-.09.024-.13-.019a.757.757 0 0 0-.498-.197c-.082-.004-.111-.036-.131-.096-.104-.294-.205-.594-.323-.883a1.687 1.687 0 0 1-.123-.873c.01-.131.036-.255.054-.385Zm-3.848 1.63c.009-.003.012-.01.021-.013.045.02.09.04.13.063.31.163.559.289.756.554.246.337.483.678.725 1.017.034.044.037.082-.004.133a.629.629 0 0 0-.152.47c.008.08-.035.118-.167.149-.082.02-.079-.04-.098-.077l-1.175-2.227a.206.206 0 0 1-.036-.068Zm4.641 1.987c.022-.014.048-.03.076-.052.265-.18.429-.4.385-.7-.005-.042.005-.066.05-.08a9.72 9.72 0 0 1 .098-.04c.047-.02.074-.012.095.028.158.3.319.605.473.908.008.016-.01.067-.029.075-.25.11-.507.218-.762.32-.019.008-.071-.004-.084-.018l-.302-.441Zm-2.001.84c.065.168.122.33.186.495.019.046-.019.061-.056.077-.239.1-.475.194-.711.299-.075.03-.111.017-.138-.045-.137-.27-.283-.537-.427-.81-.066-.124-.066-.124.079-.185.043-.017.08-.033.117.005.209.201.478.245.776.203.062-.012.12-.031.174-.039Zm.395-1.546c.294.254.583.499.932.695-.1.145-.194.282-.294.417-.012.02-.063.032-.093.03-.155-.014-.306-.039-.461-.052-.048-.004-.068-.02-.064-.066.045-.317.022-.63-.019-.946.004-.026 0-.054-.001-.078Zm1.633 1.698c.128.2.091.725-.036.842l-.013-.004c-.11-.209-.225-.415-.328-.621-.008-.016.012-.054.028-.066.113-.057.232-.102.349-.151Zm-.424 1.015c-.254-.016-.714-.346-.766-.52l.318-.134c.061-.025.09-.013.115.035l.267.505c.023.034.042.07.066.114Zm.093-1.263c-.061.026-.124.057-.189.075-.019.007-.073-.009-.075-.023a.44.44 0 0 1 .161-.518c.038-.025.066-.027.094.005.076.1.147.203.225.307.026.038.006.066-.036.083-.058.02-.119.046-.18.071Zm-.86.361-.164.07c-.054.027-.097.02-.116-.036-.038-.106-.077-.212-.111-.32-.016-.052.005-.075.07-.083.201-.03.447.067.534.221.008.016-.01.058-.026.07-.064.031-.127.053-.187.078Z"/><path fill="#fff" d="M310.477 94.309c6.424 2.569 5.762 10.167 4.628 13.645 4.622-.442 8.249-9.31 9.485-13.689 4.791 0 13.684-1.109 18.206-6.028 5.653-6.148 7.535-16.857-.767-27.738-8.303-10.881-27.983-2.947-37.639-1.764-9.657 1.183-20.741 7.046-16.912 22.877 3.83 15.832 14.969 9.486 22.999 12.697Z"/><path fill="#010101" d="m315.105 107.954.064.67-1.022.097.318-.976.64.209Zm-4.628-13.645-.25.624.25-.624Zm-22.999-12.697-.653.159.653-.159Zm16.912-22.877-.082-.668.082.668Zm37.639 1.764-.535.408.535-.408Zm.767 27.738-.495-.455.495.455Zm-18.206 6.028-.648-.182.139-.49h.509v.672Zm-10.125 13.48c.542-1.661.969-4.314.499-6.831-.465-2.489-1.79-4.802-4.737-5.98l.5-1.25c3.477 1.39 5.033 4.161 5.559 6.983.522 2.794.05 5.679-.542 7.496l-1.279-.418Zm-4.238-12.812c-1.895-.758-3.999-.96-6.224-1.065-2.19-.102-4.53-.105-6.724-.513-2.221-.414-4.361-1.25-6.192-3.052-1.825-1.796-3.286-4.496-4.262-8.532l1.307-.317c.939 3.88 2.306 6.323 3.898 7.89 1.586 1.56 3.45 2.307 5.496 2.688 2.073.386 4.262.387 6.539.493 2.242.104 4.542.311 6.662 1.16l-.5 1.248ZM286.825 81.77c-1.96-8.1-.117-13.773 3.57-17.559 3.648-3.744 9.005-5.542 13.913-6.144l.164 1.336c-4.748.581-9.762 2.307-13.113 5.747-3.312 3.4-5.097 8.574-3.227 16.304l-1.307.317Zm17.483-23.703c2.373-.29 5.369-.997 8.723-1.742 3.334-.74 6.991-1.51 10.614-1.9 7.203-.776 14.536-.078 18.919 5.666l-1.07.816c-3.92-5.137-10.578-5.913-17.705-5.145-3.542.38-7.134 1.136-10.466 1.876-3.311.735-6.396 1.464-8.851 1.765l-.164-1.336Zm38.256 2.024c8.488 11.125 6.614 22.198.727 28.601l-.99-.91c5.419-5.894 7.31-16.237-.807-26.875l1.07-.816Zm.727 28.601c-2.385 2.595-5.881 4.147-9.326 5.054-3.456.91-6.936 1.191-9.375 1.192v-1.345c2.351 0 5.713-.274 9.032-1.148 3.33-.877 6.542-2.339 8.679-4.663l.99.91Zm-18.054 5.756c-.628 2.227-1.863 5.595-3.538 8.476-.837 1.441-1.8 2.786-2.872 3.808-1.068 1.018-2.296 1.762-3.658 1.892l-.128-1.34c.949-.09 1.908-.621 2.858-1.526.947-.902 1.835-2.131 2.637-3.51 1.603-2.758 2.799-6.014 3.406-8.165l1.295.365ZM309.988 80.188l-3.225-4.076 1.591-1.18 4.007 5.03-2.373.226Zm-5.866.56-.862-9.025 2.076-.198.862 9.025-2.076.198Zm1.122-3.776-.166-1.74 3.146-.3.166 1.74-3.146.3Zm3.407-.976-1.943-.048 2.496-4.792 2.204-.211-2.757 5.051Zm5.585 6.415a3.535 3.535 0 0 1-1.086-.066 2.372 2.372 0 0 1-.908-.381l.598-1.502a1.754 1.754 0 0 0 1.176.33c.284-.027.501-.117.651-.27.16-.146.293-.38.401-.702l.28-.885.134-.234 1.917-6.22 1.934-.185-2.43 7.661c-.17.58-.386 1.043-.648 1.389-.253.345-.55.599-.89.762a3.264 3.264 0 0 1-1.129.303Zm.963-2.447-3.783-6.912 2.076-.198 2.952 5.573-1.245 1.537Zm8.888-1.018c-.748.071-1.428-.016-2.041-.26a3.548 3.548 0 0 1-1.502-1.146c-.378-.51-.6-1.109-.666-1.796-.066-.697.038-1.327.314-1.89a3.456 3.456 0 0 1 1.259-1.396c.555-.365 1.206-.584 1.954-.655.731-.07 1.381.024 1.953.282a2.77 2.77 0 0 1 1.323 1.187l-1.48.987c-.212-.309-.463-.528-.752-.656a1.725 1.725 0 0 0-.899-.149c-.344.033-.646.14-.906.321a1.727 1.727 0 0 0-.595.72c-.128.299-.172.65-.134 1.054.039.404.149.74.331 1.01.19.267.43.466.72.594.29.128.607.176.951.143.318-.03.603-.13.855-.302.261-.181.465-.448.614-.8l1.641.701a2.854 2.854 0 0 1-1.075 1.417c-.512.353-1.134.564-1.865.634Zm7.621-5.594c.912-.079 1.624.061 2.135.42.519.35.813.89.883 1.62.073.765-.14 1.389-.641 1.87-.501.473-1.233.755-2.196.847l-3.482.32-.663-6.937 1.999-.19.212 2.217 1.753-.167Zm-.136 3.343c.388-.028.676-.138.866-.33.19-.191.269-.459.236-.803-.033-.343-.16-.579-.38-.705-.221-.135-.525-.188-.913-.16l-1.303.111.192 2.012 1.302-.125Z"/><path fill="#998470" stroke="#010101" stroke-width="1.6" d="M485.382 468.278c-3.103 8.575-21.761 17.475-30.703 20.853-39.38-12.043-120.571-38.551-130.296-48.241-9.725-9.69-9.943-30.414-8.836-39.566-10.472 9.437-13.99 38.656-14.44 52.085-5.012 11.412-2.642 26.597-.831 32.763-6.671-5.941-21.394-9.945-27.922-11.204 4.495 3.83 14.073 14.128 16.429 24.679 2.356 10.551 16.014 23.795 22.549 29.098l-2.656 1.243c-15.599-5.644-23.621.271-25.682 3.934 1.681-1.596 18.256 4.4 30.495 13.236 9.791 7.069 30.716 4.5 39.954 2.332-5.539 7.18-16.899 22.32-18.028 25.439-1.128 3.118 8.104 8.075 12.862 10.163l14.916-32.075c6.762 17.876 40.534 31.196 43.895 28.004 2.689-2.554 17.191 3.28 24.105 6.516-2.14-8.709-14.5-18.838-20.412-22.814 13.028 3.611 31.532-1.817 36.657-9.882 4.099-6.452 17.584-7.966 23.815-7.916-7.667-8.064-23.635-7.816-30.661-6.684 16.497-9.02 21.783-22.611 22.364-28.278 18.472-14.478 22.647-35.156 22.426-43.685Z"/><path fill="#fff" stroke="#010101" stroke-width="1.6" d="M407.776 411.547c-24.55-8.882-35.329 9.261-35.681 10.235l.517 44.271 31.199 11.287 26.782-34.394c.519-7.527-2.343-23.992-22.817-31.399Z"/><path fill="#fff" stroke="#010101" stroke-width="1.6" d="M328.298 506.228c-50.5-26.205-15.7-66.295 1.392-67.826 5.188-23.472 19.708-27.035 31.409-22.802 10.911 3.947 18.268 12.487 19.52 19.185 3.152 30.897-1.82 97.648-52.321 71.443Z"/><path fill="#fff" stroke="#010101" stroke-width="1.6" d="M410.528 535.977c55.579 12.172 54.496-40.899 42.342-53.011 11.036-21.356 2.158-33.384-9.542-37.617-10.911-3.948-22.031-2.092-27.279 2.254-22.198 21.726-61.1 76.202-5.521 88.374Z"/><path fill="#fff" stroke="#010101" stroke-width="1.6" d="M427.039 492.356c-5.633 67.391-64.663 53.753-66.613 53.048-3.9-1.411-53.027-28.001-15.911-84.005 19.442-29.336 85.475-4.344 82.524 30.957Z"/><path fill="#010101" d="m344.133 326.119 3.15-.751 4.048 16.956-3.149.751-4.049-16.956Zm-4.721 19.046-3.15.75-4.048-16.956 3.149-.751 4.049 16.957Zm7.277-9.415-9.279 2.211-.642-2.689 9.279-2.21.642 2.688ZM363.458 340.7l-.332-2.669-.244-.547-.582-4.671c-.112-.906-.471-1.572-1.077-1.999-.607-.443-1.463-.596-2.567-.459a7.298 7.298 0 0 0-2.157.618c-.679.319-1.241.715-1.684 1.188l-1.491-2.099c.641-.631 1.431-1.139 2.37-1.523.954-.403 1.958-.67 3.013-.8 1.912-.238 3.444.041 4.597.835 1.167.775 1.87 2.118 2.108 4.029l.963 7.735-2.917.362Zm-4.131.688c-.989.122-1.874.065-2.657-.173-.785-.254-1.42-.652-1.906-1.194a3.713 3.713 0 0 1-.848-1.977c-.092-.741-.002-1.43.27-2.066.288-.638.815-1.18 1.579-1.626.765-.446 1.814-.752 3.149-.918l3.831-.475.256 2.051-3.609.448c-1.055.13-1.742.391-2.061.782a1.61 1.61 0 0 0-.39 1.303c.069.56.347.978.833 1.252s1.125.362 1.916.264c.758-.094 1.412-.351 1.962-.77.566-.422.94-.987 1.119-1.695l.75 1.789c-.2.811-.661 1.479-1.382 2.004-.705.522-1.642.856-2.812 1.001ZM369.513 340.028l-.309-13.294 3.113-.071.203 8.763 7.143-8.931 2.839-.065.308 13.294-3.112.071-.204-8.763-7.117 8.931-2.864.065Zm6.104-15.01c-1.328.031-2.356-.253-3.084-.851-.729-.614-1.115-1.519-1.159-2.713l2.067-.047c.03.597.224 1.066.58 1.406.374.34.884.503 1.531.488.631-.014 1.125-.2 1.482-.557.374-.357.562-.834.565-1.432l2.117-.049c.011 1.196-.341 2.117-1.057 2.764-.7.631-1.714.961-3.042.991ZM395.828 340.586l-4.292-6.734 2.656-1.363 5.286 8.386-3.65-.289Zm-9.51-.752 1.044-13.256 3.103.246-1.044 13.256-3.103-.246Zm2.603-5.139.203-2.582 4.495.355-.203 2.582-4.495-.355Zm5.438-.519-2.878-.578 5.391-6.268 3.327.264-5.84 6.582ZM408.751 342.67c-1.062-.195-1.988-.619-2.78-1.271-.776-.649-1.335-1.511-1.678-2.587-.324-1.089-.346-2.393-.067-3.911.281-1.535.757-2.747 1.427-3.637.686-.886 1.505-1.487 2.458-1.801.955-.331 1.989-.394 3.099-.19 1.29.238 2.375.724 3.253 1.459a6.183 6.183 0 0 1 1.925 2.759c.405 1.104.483 2.334.234 3.689-.249 1.355-.76 2.485-1.534 3.389a6.172 6.172 0 0 1-2.779 1.894c-1.082.375-2.268.444-3.558.207Zm-8.092 3.246 3.272-17.829 2.916.536-.567 3.086-.736 3.46-.393 3.522-1.43 7.788-3.062-.563Zm8.23-5.93c.735.135 1.418.092 2.05-.129a3.61 3.61 0 0 0 1.657-1.164c.457-.557.762-1.252.915-2.085.156-.849.117-1.607-.115-2.274a3.605 3.605 0 0 0-1.135-1.678c-.512-.431-1.135-.715-1.87-.85-.735-.135-1.427-.093-2.075.125a3.61 3.61 0 0 0-1.657 1.164c-.454.541-.759 1.236-.914 2.085-.153.833-.115 1.591.114 2.274a3.607 3.607 0 0 0 1.136 1.678c.528.434 1.159.719 1.894.854ZM425.655 346.63l.747-2.583-.008-.598 1.307-4.521c.254-.877.187-1.631-.201-2.262-.384-.646-1.11-1.124-2.179-1.434a7.3 7.3 0 0 0-2.226-.281c-.751.025-1.423.167-2.017.427l-.543-2.516c.838-.327 1.765-.483 2.78-.465a11.23 11.23 0 0 1 3.085.452c1.85.535 3.149 1.395 3.895 2.579.768 1.172.884 2.683.349 4.533l-2.165 7.487-2.824-.818Zm-4.068-.995c-.957-.277-1.749-.679-2.374-1.206-.621-.543-1.048-1.159-1.281-1.848a3.72 3.72 0 0 1 0-2.152c.208-.717.562-1.314 1.063-1.792.517-.472 1.214-.763 2.093-.871.879-.109 1.964.024 3.256.398l3.709 1.073-.574 1.985-3.494-1.011c-1.021-.295-1.755-.326-2.203-.093a1.61 1.61 0 0 0-.872 1.044c-.157.542-.066 1.035.272 1.478.339.444.891.776 1.657.998.733.212 1.436.234 2.107.065a2.948 2.948 0 0 0 1.697-1.116l-.016 1.94c-.504.666-1.191 1.098-2.061 1.296-.853.202-1.846.139-2.979-.188ZM441.988 349.756l-.912.421 4.494-10.481 2.861 1.228-4.493 10.481-.393-.982 6.044 2.592-.958.402 4.494-10.481 2.862 1.227-5.24 12.221-18.018-7.727 5.24-12.22 2.861 1.227-4.493 10.481-.37-.971 6.021 2.582Zm6.764 8.752 1.384-3.227.359.995-2.701-1.159 1.04-2.426 4.716 2.023-2.119 4.943-2.679-1.149ZM460.723 362.183l1.346-2.328.136-.583 2.356-4.074c.456-.791.572-1.539.347-2.244-.217-.72-.807-1.358-1.77-1.915a7.29 7.29 0 0 0-2.094-.808c-.735-.156-1.421-.179-2.06-.069l.077-2.573c.892-.117 1.829-.045 2.81.216 1.004.254 1.966.647 2.886 1.179 1.668.964 2.722 2.111 3.163 3.439.463 1.322.213 2.817-.751 4.484l-3.901 6.747-2.545-1.471Zm-3.71-1.944c-.863-.499-1.534-1.079-2.015-1.74-.473-.676-.739-1.377-.799-2.102a3.711 3.711 0 0 1 .516-2.088c.374-.647.862-1.141 1.463-1.484.615-.335 1.362-.449 2.241-.344.879.106 1.901.495 3.066 1.169l3.342 1.932-1.034 1.789-3.149-1.82c-.92-.532-1.625-.739-2.116-.62a1.616 1.616 0 0 0-1.098.804c-.282.488-.312.989-.09 1.5.222.512.678.968 1.368 1.367.661.382 1.338.572 2.03.569a2.952 2.952 0 0 0 1.916-.675l-.482 1.878c-.649.526-1.42.78-2.312.763-.877-.009-1.826-.308-2.847-.898ZM477.827 374.053l2.769-3.587.035.688-3.156-2.435c-1.446-1.116-2.35-2.296-2.712-3.539-.338-1.247-.061-2.448.831-3.605.954-1.235 2.113-1.84 3.477-1.814 1.378.036 2.797.617 4.257 1.743l4.832 3.728-8.124 10.526-2.209-1.705Zm-7.574-5.843 5.944-1.83 2.524 1.948-5.825 1.921-2.643-2.039Zm10.951 1.468 3.651-4.731-.147.924-2.899-2.237c-.763-.588-1.466-.9-2.11-.935-.62-.039-1.174.257-1.661.888-.913 1.182-.6 2.367.939 3.554l2.978 2.298-.751.239ZM489.48 384.329l.836-7.939 2.928.587-1.087 9.851-2.677-2.499Zm-6.975-6.509 9.075-9.718 2.277 2.124-9.075 9.718-2.277-2.124Zm5.24-2.399 1.767-1.893 3.296 3.077-1.767 1.892-3.296-3.076Zm4.579 2.98-1.893-2.244 8.124-1.546 2.44 2.278-8.671 1.512ZM493.301 388.238l9.738-9.053 2.121 2.279-9.739 9.054-2.12-2.28Zm12.412-9.396c-.396-.426-.59-.903-.583-1.431a1.8 1.8 0 0 1 .594-1.3c.389-.362.835-.527 1.339-.497.528.031.99.259 1.386.685.395.425.59.89.584 1.395.017.506-.163.934-.54 1.284a1.947 1.947 0 0 1-1.395.549c-.516-.019-.978-.248-1.385-.685ZM502.16 398.661c-.876-1.085-1.433-2.237-1.669-3.454a6.64 6.64 0 0 1 .304-3.51c.415-1.124 1.133-2.098 2.153-2.921 1.034-.834 2.138-1.33 3.312-1.487a6.465 6.465 0 0 1 3.476.46c1.14.488 2.149 1.275 3.025 2.36.814 1.008 1.321 2.06 1.523 3.156a5.12 5.12 0 0 1-.359 3.202l-2.587-.985c.24-.707.294-1.38.162-2.02a3.884 3.884 0 0 0-.809-1.715c-.48-.595-1.042-1.027-1.686-1.296a3.558 3.558 0 0 0-2.032-.217c-.697.114-1.381.442-2.053.984-.672.542-1.144 1.147-1.416 1.814a3.594 3.594 0 0 0-.197 2.015c.127.687.431 1.327.911 1.922a3.88 3.88 0 0 0 1.506 1.153c.598.264 1.268.353 2.009.268l.417 2.736a5.46 5.46 0 0 1-3.227-.31c-1.028-.429-1.95-1.147-2.763-2.155ZM508.705 407.15l9.448-6.388-.214 1.016-3.029-4.476 2.187-1.478 6.979 10.314-2.186 1.478-3.016-4.455 1.024.179-9.448 6.388-1.745-2.578ZM524.951 416.474c.837 1.491 1.141 2.815.913 3.97-.227 1.156-.949 2.074-2.166 2.756-1.26.706-2.488.823-3.686.352-1.182-.48-2.209-1.513-3.08-3.1l-3.024-5.443 11.602-6.499 1.522 2.715-3.801 2.13 1.72 3.119Zm-6.154 2.62c.432.804.94 1.319 1.523 1.544.583.226 1.208.152 1.874-.222.667-.373 1.027-.851 1.081-1.433.077-.576-.105-1.273-.546-2.092l-1.367-2.489-3.932 2.203 1.367 2.489ZM245.825 606.42l12.448-10.347-.222 2.031-3.265-3.925 2.087-1.736 4.429 5.323-13.406 11.143-2.071-2.489ZM255.536 617.613c-.965-.984-1.588-2.118-1.868-3.4-.269-1.27-.15-2.596.358-3.975.519-1.392 1.461-2.755 2.825-4.091 1.364-1.336 2.742-2.243 4.132-2.721 1.403-.49 2.737-.588 4.002-.293 1.277.307 2.397.952 3.362 1.937.976.996 1.599 2.129 1.868 3.4.268 1.27.143 2.601-.376 3.993-.496 1.391-1.426 2.755-2.79 4.091-1.364 1.335-2.753 2.242-4.167 2.721-1.391.478-2.719.57-3.984.275-1.265-.295-2.386-.941-3.362-1.937Zm2.01-1.968c.57.581 1.218.934 1.945 1.059.738.113 1.55-.031 2.435-.433.897-.389 1.843-1.072 2.839-2.048 1.009-.987 1.711-1.919 2.108-2.795.42-.876.575-1.678.465-2.407-.098-.741-.432-1.402-1.002-1.983a3.467 3.467 0 0 0-1.944-1.024c-.727-.125-1.539.008-2.435.398-.873.39-1.814 1.078-2.822 2.065-.997.976-1.705 1.902-2.125 2.778-.408.888-.564 1.702-.465 2.442a3.55 3.55 0 0 0 1.001 1.948ZM268.926 629.951c-1.062-.878-1.8-1.94-2.213-3.187-.4-1.235-.42-2.566-.059-3.991.371-1.438 1.165-2.892 2.382-4.363 1.217-1.471 2.492-2.517 3.825-3.138 1.344-.634 2.66-.87 3.95-.709 1.301.172 2.483.697 3.546 1.576 1.075.889 1.812 1.951 2.212 3.186.4 1.236.415 2.573.044 4.011-.348 1.436-1.13 2.889-2.347 4.36-1.218 1.47-2.504 2.517-3.861 3.141-1.333.621-2.644.851-3.933.689-1.289-.161-2.471-.686-3.546-1.575Zm1.794-2.168c.627.519 1.308.802 2.044.851.747.035 1.539-.193 2.377-.684.851-.482 1.721-1.259 2.61-2.334.9-1.087 1.501-2.087 1.804-3 .326-.915.396-1.729.211-2.442-.175-.727-.576-1.349-1.203-1.868a3.464 3.464 0 0 0-2.041-.815c-.736-.048-1.53.168-2.381.649-.827.479-1.691 1.262-2.59 2.349-.889 1.075-1.497 2.069-1.823 2.984-.313.926-.383 1.752-.208 2.478a3.55 3.55 0 0 0 1.2 1.832ZM279.251 637.771l19.465-8.175 2.051 1.325-19.465 8.175-2.051-1.325Zm5.581-5.969c-.683-.442-1.182-1.001-1.496-1.678a4 4 0 0 1-.328-2.199c.094-.789.403-1.587.926-2.396.523-.808 1.124-1.418 1.805-1.828.68-.41 1.394-.611 2.14-.603.746.008 1.461.233 2.145.674.711.46 1.217 1.024 1.516 1.692a3.99 3.99 0 0 1 .329 2.198c-.095.789-.404 1.587-.926 2.396-.523.809-1.125 1.418-1.805 1.828-.681.41-1.394.611-2.14.603-.733.001-1.455-.228-2.166-.687Zm.967-1.451c.558.361 1.13.424 1.717.19.609-.238 1.179-.769 1.711-1.592.532-.822.777-1.553.736-2.192-.019-.645-.307-1.147-.865-1.508a1.897 1.897 0 0 0-1.771-.196c-.61.239-1.176.763-1.698 1.571-.523.809-.768 1.54-.736 2.193.046.662.348 1.174.906 1.534Zm4.174 14.556c-.683-.442-1.182-1.001-1.495-1.678-.314-.677-.424-1.41-.329-2.199.095-.788.404-1.587.926-2.395.523-.809 1.125-1.418 1.805-1.828.681-.411 1.394-.612 2.14-.604.747.008 1.462.233 2.145.674.711.46 1.217 1.024 1.517 1.692.313.677.423 1.41.328 2.198-.094.789-.403 1.588-.926 2.396-.523.809-1.124 1.418-1.805 1.828-.68.41-1.394.612-2.14.604-.732.001-1.454-.229-2.166-.688Zm.947-1.464c.558.361 1.141.421 1.751.183.609-.239 1.175-.763 1.698-1.571.522-.809.768-1.54.735-2.193-.032-.653-.327-1.16-.885-1.521-.544-.351-1.128-.412-1.751-.182-.6.224-1.166.748-1.698 1.571-.532.822-.782 1.56-.749 2.213.055.649.355 1.149.899 1.5ZM309.616 655.114c-1.002-.444-1.831-.992-2.486-1.645a5.918 5.918 0 0 1-1.436-2.296c-.279-.886-.356-1.882-.23-2.988.127-1.106.485-2.326 1.077-3.662.43-.972.906-1.823 1.429-2.553a9.034 9.034 0 0 1 1.71-1.831 7.49 7.49 0 0 1 2.018-1.176 7.617 7.617 0 0 1 2.354-.456c.832-.031 1.72.053 2.667.254l6.183 1.293-.718 2.731-5.59-1.22c-.315-.067-.705-.13-1.168-.19a6.376 6.376 0 0 0-1.452-.044c-.504.031-1.029.171-1.575.42-.524.24-1.041.628-1.551 1.165-.488.528-.941 1.263-1.357 2.204a7.75 7.75 0 0 0-.27.671c-.03.15-.074.311-.133.485-.037.165-.122.4-.257.703l-.577-1.589a6.456 6.456 0 0 1 2.13-1.427 6.01 6.01 0 0 1 2.455-.438 6.656 6.656 0 0 1 2.571.593c1.139.504 2.045 1.186 2.717 2.046a5.689 5.689 0 0 1 1.197 2.898c.124 1.072-.052 2.146-.529 3.224-.497 1.123-1.21 1.997-2.14 2.62-.93.623-2.007.964-3.231 1.021-1.202.049-2.471-.222-3.808-.813Zm1.246-2.199c.684.302 1.347.423 1.991.364a3.493 3.493 0 0 0 1.775-.686 3.653 3.653 0 0 0 1.221-1.529c.282-.637.376-1.258.28-1.863a3.418 3.418 0 0 0-.716-1.706c-.389-.517-.94-.933-1.654-1.249-.683-.302-1.358-.437-2.026-.406a3.431 3.431 0 0 0-1.757.584c-.497.343-.883.825-1.158 1.448a3.79 3.79 0 0 0-.321 1.954c.069.666.302 1.268.699 1.807.412.546.968.973 1.666 1.282ZM328.62 662.002l.836-2.555.013-.599 1.464-4.472c.284-.868.243-1.623-.123-2.267-.361-.66-1.07-1.162-2.127-1.508a7.282 7.282 0 0 0-2.216-.359c-.751-.001-1.428.118-2.03.358l-.455-2.533c.849-.299 1.78-.422 2.794-.37 1.035.042 2.057.228 3.067.559 1.831.599 3.099 1.503 3.804 2.712.726 1.198.79 2.712.191 4.542l-2.425 7.407-2.793-.915Zm-4.032-1.136c-.947-.309-1.724-.738-2.331-1.286-.602-.564-1.007-1.194-1.216-1.891a3.725 3.725 0 0 1 .075-2.15c.233-.71.607-1.295 1.125-1.754.533-.455 1.24-.721 2.122-.799.882-.078 1.962.092 3.241.51l3.669 1.201-.643 1.964-3.456-1.131c-1.01-.331-1.743-.387-2.199-.17-.45.202-.753.54-.908 1.013-.176.537-.102 1.032.221 1.487.323.455.863.807 1.621 1.055.726.237 1.427.283 2.104.138a2.95 2.95 0 0 0 1.735-1.057l-.084 1.938c-.527.648-1.228 1.056-2.105 1.224-.86.172-1.85.075-2.971-.292ZM336.021 664.222l2.952-12.964 6.339 1.444c1.571.357 2.735.929 3.493 1.714.775.789 1.04 1.718.797 2.786-.24 1.052-.849 1.782-1.827 2.189-.975.391-2.158.428-3.551.111l.536-.67c1.57.358 2.67.915 3.298 1.671.649.743.847 1.665.597 2.766-.262 1.149-.895 1.949-1.901 2.401-1.002.436-2.377.455-4.126.057l-6.607-1.505Zm3.394-1.551 3.473.791c.826.188 1.479.201 1.959.038.483-.18.788-.545.913-1.095.133-.582.036-1.056-.29-1.419-.326-.364-.902-.64-1.728-.828l-3.57-.813-.757 3.326Zm1.216-5.341 3.182.725c.777.177 1.391.172 1.842-.015.472-.199.766-.557.884-1.075.122-.534.009-.977-.336-1.328-.33-.348-.883-.61-1.661-.787l-3.182-.724-.729 3.204ZM357.647 668.569c-1.351-.174-2.516-.617-3.496-1.329a6.706 6.706 0 0 1-2.184-2.742c-.478-1.1-.633-2.299-.465-3.6.17-1.317.624-2.438 1.363-3.364a6.51 6.51 0 0 1 2.804-2.074c1.128-.44 2.367-.573 3.718-.399 1.367.176 2.541.62 3.52 1.332.997.715 1.727 1.612 2.19 2.693.48 1.083.634 2.291.463 3.624-.168 1.301-.622 2.422-1.363 3.365-.725.944-1.66 1.643-2.807 2.098-1.129.44-2.376.572-3.743.396Zm.34-2.642c.758.097 1.454.02 2.09-.233a3.448 3.448 0 0 0 1.568-1.254c.426-.581.694-1.291.802-2.131.11-.856.031-1.611-.236-2.265a3.438 3.438 0 0 0-1.199-1.61c-.55-.406-1.196-.657-1.938-.752-.757-.098-1.454-.02-2.089.232-.619.255-1.142.673-1.568 1.254-.425.565-.692 1.275-.802 2.131-.108.84-.03 1.595.235 2.265.266.67.665 1.207 1.199 1.611.551.405 1.197.656 1.938.752ZM369.317 669.641l.392-13.29 6.499.193c1.61.048 2.863.384 3.758 1.008.912.625 1.352 1.485 1.319 2.58-.031 1.079-.488 1.912-1.369 2.501-.881.571-2.035.836-3.463.793l.396-.76c1.611.048 2.797.382 3.559 1.002.78.605 1.153 1.471 1.12 2.599-.035 1.179-.502 2.086-1.401 2.724-.899.621-2.245.905-4.038.851l-6.772-.201Zm3.03-2.176 3.56.105c.847.025 1.49-.088 1.929-.341.44-.269.668-.686.685-1.25.018-.597-.169-1.043-.559-1.337-.39-.294-1.008-.453-1.855-.479l-3.66-.108-.1 3.41Zm.161-5.476 3.262.097c.797.024 1.399-.1 1.805-.37.424-.286.644-.695.659-1.226.017-.547-.179-.96-.586-1.238-.391-.277-.984-.428-1.781-.451l-3.262-.097-.097 3.285ZM386.28 669.918l-.953-13.262 3.105-.223.388 5.39 6.683-.479-.387-5.389 3.106-.223.953 13.263-3.106.222-.377-5.24-6.683.478.376 5.24-3.105.223ZM411.641 667.076l-.451-2.651-.267-.536-.788-4.64c-.153-.9-.541-1.549-1.164-1.949-.627-.416-1.489-.531-2.586-.345a7.283 7.283 0 0 0-2.127.714c-.665.348-1.209.769-1.63 1.261l-1.583-2.03c.612-.659 1.379-1.202 2.301-1.627a11.25 11.25 0 0 1 2.974-.933c1.9-.322 3.443-.112 4.63.63 1.201.722 1.962 2.033 2.284 3.931l1.304 7.684-2.897.491Zm-4.097.871c-.983.166-1.87.148-2.662-.054-.795-.219-1.448-.589-1.957-1.108a3.715 3.715 0 0 1-.935-1.938c-.125-.737-.066-1.429.178-2.076.26-.65.762-1.215 1.506-1.695.744-.479 1.779-.831 3.105-1.056l3.807-.645.346 2.038-3.586.607c-1.048.178-1.722.469-2.024.873a1.609 1.609 0 0 0-.332 1.319c.094.557.39.961.888 1.214.497.252 1.139.312 1.925.179.753-.128 1.395-.413 1.926-.857a2.946 2.946 0 0 0 1.044-1.742l.828 1.753c-.164.819-.595 1.507-1.292 2.063-.681.553-1.603.928-2.765 1.125Z"/><path stroke="#010101" stroke-width="1.6" d="M535.524 440.544a164.492 164.492 0 0 1-6.502 125.77 164.492 164.492 0 0 1-38.393 51.463 164.592 164.592 0 0 1-55.176 32.856M296.382 354.028a164.533 164.533 0 0 0-47.782 42.896 164.478 164.478 0 0 0-9.783 182.571"/><defs><radialGradient id="b" cx="0" cy="0" r="1" gradientTransform="matrix(0 11.7917 -10.803 0 10.803 11.792)" gradientUnits="userSpaceOnUse"><stop stop-color="#FBB"/><stop offset="1" stop-color="#FBB" stop-opacity="0"/></radialGradient><radialGradient id="d" cx="0" cy="0" r="1" gradientTransform="matrix(0 13.4167 -12.2918 0 12.292 13.417)" gradientUnits="userSpaceOnUse"><stop stop-color="#FBB"/><stop offset="1" stop-color="#FBB" stop-opacity="0"/></radialGradient></defs></svg>