<svg xmlns="http://www.w3.org/2000/svg" width="180" height="150" fill="none"><path fill="#fff" stroke="#383838" stroke-width=".752" d="M57.463 16.338c-10.489 2.93-14.145 9.483-14.662 12.394l10.15 49.154-3.665 17.887c-2.142 10.591-.892 19.436 0 22.535-1.579 6.31-4.981 11.925-6.485 13.943 2.933 7.324 13.91 10.282 19.033 10.845 59.071 7.183 68.939-12.112 67.812-12.112-1.128 0-2.538-9.718-1.551-12.676.987-2.958.119-13.912 0-14.929-.092-.784-1.974-14.226-2.961-20.845-.423-1.362-1.607-7.916-2.96-23.24-1.354-15.323 8.834-24.975 14.098-27.886-7.331-12.253-21.006-16.338-21.006-16.338s-8.6-3.427-11.561-5.07c0 0-8.611 3.72-14.437 3.75-5.943.03-14.746-3.75-14.746-3.75-1.034.892-6.57 3.408-17.059 6.338Z"/><path fill="#fff" stroke="#383838" stroke-width=".752" d="M130.016 89.266c-1.798-3.024-5.393-9.184-5.393-9.638-1.466-6-3.473-18.421-2.451-27.719 1.022-9.297 9.512-18.076 14.101-20.486L154 80.762c-.908.907-16.368 6.047-23.984 8.504ZM54.016 49.392c-.342-16.15-7.334-20.85-11.08-21.182L24 77.966l24.468 7.819 4.54-7.766c.57-2.796 1.35-12.478 1.008-28.627Z"/><g clip-path="url(#a)"><mask id="b" width="55" height="90" x="89.496" y="28.23" fill="#000" maskUnits="userSpaceOnUse"><path fill="#fff" d="M89.496 28.23h55v90h-55z"/><path fill-rule="evenodd" d="M98.93 29.471a.15.15 0 0 0-.005-.07c-.139-.4-2.136-.075-4.461.727-2.326.802-4.099 1.777-3.96 2.178a.134.134 0 0 0 .009.02l-.006.002 1.507 4.316.064.005c-.695.99-.96 2.213-.333 3.664-.593.178-.98 1.035-.884 2.017.101 1.026.694 1.814 1.343 1.81-.166.754-.45 1.464-.728 2.162-.688 1.727-1.346 3.377-.13 5.423.6 1.012 1.237 1.687 1.831 2.317 1.339 1.42 2.463 2.611 2.476 6.897.009 2.985 1.335 8.934 2.786 14.489l-.017-.002.172.594a253.568 253.568 0 0 0 2.169 7.714c-5.46 7.421-2.964 20.933-.314 28.389 17.657 5.776 50.607 11.657 41.153-11.027-6.062-14.547-13.347-20.852-19.12-23.105 2.243-3.975 1.269-6.13-.759-7.19.571-3.885-3.072-3.495-6.519-2.715-1.34-4.625-2.82-9.043-4.061-11.207-1.735-3.027-1.156-4.923-.578-6.813.447-1.463.893-2.922.264-4.9-.673-2.114-2.051-2.87-3.379-3.597-.708-.389-1.402-.769-1.967-1.344.544-.334.654-1.298.235-2.224-.361-.797-1.003-1.319-1.564-1.327-.403-2.018-1.996-2.846-3.716-3.082l-1.508-4.12Zm16.59 39.716.231.824c1.588-.178 3.527-.118 5.1.42-.367-1.147-1.806-1.78-5.331-1.244Zm5.259 3.072c-.963-.642-2.448-1.011-4.633-.927l-.096-.296.371 1.287.017-.014.582 2.26-.038.036c.209.808.406 1.59.59 2.333.306.008.623.028.95.063.159-.279.328-.566.509-.861l.269-.519c.552-1.06 1.182-2.269 1.479-3.362Zm-1.622 4.823c.146-.291.303-.594.472-.908.741-1.38 1.27-2.553 1.618-3.545 1.376 1.29 1.235 3.324.545 5.11a15.297 15.297 0 0 0-2.635-.657Z" clip-rule="evenodd"/></mask><path fill="#005BBB" fill-rule="evenodd" d="M98.93 29.471a.15.15 0 0 0-.005-.07c-.139-.4-2.136-.075-4.461.727-2.326.802-4.099 1.777-3.96 2.178a.134.134 0 0 0 .009.02l-.006.002 1.507 4.316.064.005c-.695.99-.96 2.213-.333 3.664-.593.178-.98 1.035-.884 2.017.101 1.026.694 1.814 1.343 1.81-.166.754-.45 1.464-.728 2.162-.688 1.727-1.346 3.377-.13 5.423.6 1.012 1.237 1.687 1.831 2.317 1.339 1.42 2.463 2.611 2.476 6.897.009 2.985 1.335 8.934 2.786 14.489l-.017-.002.172.594a253.568 253.568 0 0 0 2.169 7.714c-5.46 7.421-2.964 20.933-.314 28.389 17.657 5.776 50.607 11.657 41.153-11.027-6.062-14.547-13.347-20.852-19.12-23.105 2.243-3.975 1.269-6.13-.759-7.19.571-3.885-3.072-3.495-6.519-2.715-1.34-4.625-2.82-9.043-4.061-11.207-1.735-3.027-1.156-4.923-.578-6.813.447-1.463.893-2.922.264-4.9-.673-2.114-2.051-2.87-3.379-3.597-.708-.389-1.402-.769-1.967-1.344.544-.334.654-1.298.235-2.224-.361-.797-1.003-1.319-1.564-1.327-.403-2.018-1.996-2.846-3.716-3.082l-1.508-4.12Zm16.59 39.716.231.824c1.588-.178 3.527-.118 5.1.42-.367-1.147-1.806-1.78-5.331-1.244Zm5.259 3.072c-.963-.642-2.448-1.011-4.633-.927l-.096-.296.371 1.287.017-.014.582 2.26-.038.036c.209.808.406 1.59.59 2.333.306.008.623.028.95.063.159-.279.328-.566.509-.861l.269-.519c.552-1.06 1.182-2.269 1.479-3.362Zm-1.622 4.823c.146-.291.303-.594.472-.908.741-1.38 1.27-2.553 1.618-3.545 1.376 1.29 1.235 3.324.545 5.11a15.297 15.297 0 0 0-2.635-.657Z" clip-rule="evenodd"/><path fill="#161616" d="m98.925 29.401.323-.111-.323.111Zm.005.07-.339-.047-.011.085.029.08.322-.118Zm-4.466.657.112.324-.112-.324Zm-3.96 2.178-.324.112.324-.112Zm.009.02.113.323.378-.132-.19-.353-.301.162Zm-.006.002-.113-.323-.323.113.113.323.323-.113Zm1.507 4.316-.323.112.073.209.22.02.03-.341Zm.064.005.28.197.34-.485-.59-.053-.03.341Zm-.333 3.664.099.328.369-.11-.153-.354-.315.136Zm-.884 2.017-.34.034.34-.034Zm1.343 1.81.335.074.092-.42-.43.003.003.343Zm-.728 2.162-.318-.127.318.127Zm-.13 5.423.294-.175-.295.175Zm1.831 2.317.25-.235-.25.235Zm2.476 6.897.342-.001h-.342Zm2.786 14.489-.05.339.512.076-.13-.502-.332.087Zm-.017-.002.05-.34-.527-.078.148.513.33-.096Zm.172.594.332-.087-.003-.008-.329.095Zm2.169 7.714.276.203.101-.137-.049-.164-.328.098Zm-.314 28.389-.323.115.056.158.16.053.107-.326Zm41.153-11.027-.316.132.316-.132Zm-19.12-23.105-.298-.168-.194.344.368.143.124-.319Zm-.759-7.19-.338-.05-.036.24.216.114.158-.304Zm-6.519-2.715-.329.096.09.31.315-.072-.076-.334Zm-4.061-11.207.297-.17-.297.17Zm-.578-6.813.328.1-.328-.1Zm.264-4.9-.326.104.326-.104Zm-3.379-3.597-.165.3.165-.3Zm-1.967-1.344-.179-.291-.366.225.301.306.244-.24Zm.235-2.224.312-.141-.312.141Zm-1.564-1.327-.336.067.054.271.277.004.005-.342Zm-3.716-3.082-.322.117.071.194.204.028.047-.34Zm15.082 35.595-.052-.339-.384.058.106.374.33-.093Zm.231.824-.33.092.079.28.29-.032-.039-.34Zm5.1.42-.111.323.645.22-.208-.648-.326.104Zm-.072 1.828.33.09.065-.238-.205-.137-.19.285Zm-4.633-.927-.326.105.08.248.259-.01-.013-.343Zm-.096-.296.326-.105-.655.2.329-.095Zm.371 1.287-.329.095.147.509.404-.343-.222-.261Zm.017-.014.331-.086-.136-.53-.417.355.222.26Zm.582 2.26.237.248.145-.14-.05-.193-.332.085Zm-.038.036-.237-.247-.144.138.05.195.331-.086Zm.59 2.333-.332.082.063.254.26.007.009-.343Zm.95.063-.035.34.222.023.111-.194-.298-.17Zm.509-.861.292.178.007-.01.006-.012-.305-.156Zm.269-.519.304.158-.304-.158Zm.329.553.302.162-.302-.162Zm-.472.908-.306-.153-.21.42.465.072.051-.339Zm2.09-4.453.235-.25-.384-.36-.174.497.323.113Zm.545 5.11-.111.323.312.107.118-.307-.319-.124ZM98.601 29.512a.194.194 0 0 1-.01-.09l.679.096a.49.49 0 0 0-.022-.23l-.647.224Zm-4.025.939c1.15-.397 2.21-.673 2.994-.8.394-.065.7-.088.908-.077.105.006.163.02.188.03.028.01-.035-.005-.065-.092l.647-.223a.549.549 0 0 0-.336-.325 1.32 1.32 0 0 0-.397-.074c-.28-.015-.642.017-1.056.085-.831.135-1.931.423-3.107.828l.224.648Zm-3.748 1.742c.03.087-.01.138.005.112a.683.683 0 0 1 .13-.139c.156-.136.412-.307.762-.5.695-.382 1.7-.819 2.85-1.215l-.223-.648c-1.175.405-2.219.857-2.957 1.263-.367.202-.673.4-.883.585-.104.09-.201.192-.267.303a.549.549 0 0 0-.065.463l.647-.224Zm-.014-.03.014.03-.648.224a.473.473 0 0 0 .031.07l.603-.324Zm-.193.487.005-.002-.227-.646-.005.002.227.646Zm1.716 3.88-1.507-4.316-.646.226 1.507 4.315.646-.225Zm-.228-.223-.064-.006-.061.683.063.005.062-.682Zm-.05 3.869c-.576-1.332-.333-2.43.3-3.331l-.561-.393c-.757 1.078-1.046 2.426-.367 3.996l.629-.272Zm-.857 2.12c-.043-.44.023-.84.156-1.138.134-.304.317-.467.486-.518l-.197-.656c-.425.127-.732.482-.916.896-.185.42-.264.94-.21 1.483l.681-.067Zm1 1.5c-.178.001-.397-.108-.6-.38-.2-.269-.355-.66-.4-1.12l-.682.067c.056.566.249 1.08.533 1.462.28.377.682.66 1.154.656l-.005-.685Zm-.408 2.632c.277-.694.57-1.43.745-2.215l-.67-.148c-.159.722-.431 1.407-.711 2.109l.636.254Zm-.154 5.121c-1.122-1.889-.537-3.387.154-5.121l-.636-.254c-.686 1.72-1.416 3.52-.107 5.725l.589-.35Zm1.787 2.257c-.594-.63-1.208-1.28-1.787-2.257l-.59.35c.622 1.047 1.283 1.746 1.878 2.377l.499-.47Zm2.568 7.13c-.006-2.17-.294-3.591-.77-4.66-.476-1.071-1.13-1.762-1.798-2.47l-.499.47c.671.712 1.248 1.326 1.671 2.278.424.953.705 2.27.711 4.385l.685-.002Zm2.775 14.404c-.724-2.774-1.417-5.643-1.929-8.189-.514-2.553-.841-4.758-.846-6.214l-.685.002c.005 1.529.345 3.79.86 6.347.515 2.564 1.211 5.447 1.937 8.227l.663-.173Zm-.398.423.016.003.101-.678-.017-.002-.1.677Zm.551.161-.172-.595-.658.19.172.596.658-.19Zm2.168 7.711c-.632-2.117-1.41-4.84-2.165-7.703l-.663.175a254.76 254.76 0 0 0 2.172 7.724l.656-.196Zm-.32 28.373c-1.316-3.704-2.594-8.913-2.865-14.111-.27-5.208.472-10.345 3.133-13.96l-.552-.407c-2.8 3.805-3.539 9.135-3.265 14.402.275 5.277 1.57 10.552 2.904 14.305l.645-.229Zm40.515-10.781c2.344 5.623 2.011 9.355.09 11.759-1.942 2.432-5.6 3.633-10.208 3.953-9.195.639-21.795-2.258-30.613-5.142l-.213.651c8.84 2.891 21.543 5.823 30.874 5.175 4.655-.323 8.566-1.544 10.695-4.209 2.15-2.692 2.391-6.731.008-12.451l-.633.264ZM122.358 78.31c5.658 2.208 12.888 8.425 18.928 22.918l.633-.264c-6.085-14.6-13.425-20.994-19.312-23.292l-.249.638Zm-.793-7.206c.946.495 1.61 1.222 1.802 2.26.196 1.057-.081 2.505-1.183 4.459l.597.337c1.14-2.022 1.497-3.64 1.26-4.92-.24-1.297-1.078-2.178-2.159-2.743l-.317.608Zm-6.285-2.684c1.732-.392 3.43-.663 4.614-.392.577.132.994.385 1.247.783.255.404.379 1.015.244 1.94l.677.1c.15-1.018.032-1.815-.343-2.406-.378-.597-.98-.926-1.672-1.085-1.358-.31-3.204.004-4.918.392l.151.668Zm-4.434-11.371c1.217 2.123 2.687 6.5 4.029 11.133l.658-.191c-1.338-4.618-2.828-9.077-4.093-11.283l-.594.341Zm-.609-7.083c-.287.94-.593 1.933-.593 3.08 0 1.157.309 2.445 1.202 4.003l.594-.34c-.842-1.47-1.111-2.642-1.111-3.663 0-1.03.273-1.93.564-2.88l-.656-.2Zm.266-4.696c.594 1.868.181 3.236-.266 4.696l.656.2c.448-1.466.926-3.016.262-5.104l-.652.208Zm-3.218-3.4c1.322.724 2.589 1.424 3.218 3.4l.652-.208c-.716-2.252-2.207-3.063-3.54-3.793l-.33.6Zm-2.046-1.404c.606.616 1.345 1.019 2.046 1.403l.33-.6c-.716-.393-1.364-.75-1.887-1.283l-.489.48Zm.167-2.324c.188.415.251.826.215 1.156-.036.336-.166.543-.317.636l.359.583c.393-.241.589-.684.639-1.145.051-.468-.041-1.001-.272-1.512l-.624.282Zm-1.257-1.126c.178.003.406.09.642.288.233.195.454.482.615.838l.624-.282c-.2-.441-.48-.814-.799-1.08-.316-.265-.69-.443-1.072-.449l-.01.685Zm-3.758-3.085c.825.113 1.593.365 2.196.81.595.438 1.047 1.075 1.231 2l.672-.134c-.218-1.093-.765-1.879-1.497-2.418-.724-.533-1.613-.814-2.508-.937l-.094.679Zm-1.782-4.342 1.507 4.12.644-.235-1.508-4.12-.643.235ZM115.19 69.28c.078.274.155.549.231.823l.66-.184c-.076-.275-.154-.55-.232-.826l-.659.187Zm.6 1.071c1.558-.174 3.441-.112 4.95.403l.221-.648c-1.637-.56-3.631-.617-5.248-.435l.077.68Zm5.387-.025c-.226-.704-.782-1.22-1.716-1.478-.915-.254-2.212-.27-3.993 0l.103.677c1.745-.265 2.93-.233 3.707-.017.759.21 1.105.585 1.246 1.027l.653-.21Zm-.208 1.648c-1.047-.698-2.614-1.07-4.836-.984l.026.685c2.148-.084 3.55.283 4.43.869l.38-.57Zm-4.497-.746-.096-.297-.652.21.096.296.652-.21Zm-.751-.097.371 1.287.658-.19-.37-1.287-.659.19Zm.922 1.453.016-.014-.443-.522-.016.013.443.523Zm-.537-.19.582 2.26.664-.17-.583-2.26-.663.17Zm.677 1.928-.038.036.474.494.038-.035-.474-.495Zm-.132.368c.208.808.405 1.589.589 2.33l.665-.164a271.38 271.38 0 0 0-.591-2.336l-.663.17Zm.912 2.59c.297.008.606.028.924.061l.071-.681a12.647 12.647 0 0 0-.977-.064l-.018.684Zm1.257-.11c.156-.275.324-.559.503-.852l-.584-.357c-.183.299-.354.588-.514.87l.595.339Zm.516-.874c.085-.167.175-.339.268-.517l-.608-.316-.27.52.61.313Zm.268-.517c.547-1.05 1.197-2.294 1.505-3.43l-.661-.18c-.285 1.05-.895 2.225-1.452 3.294l.608.316Zm-.277.233c-.17.317-.328.622-.476.917l.613.307c.144-.289.299-.589.467-.9l-.604-.324Zm1.597-3.496c-.34.97-.861 2.125-1.597 3.496l.604.324c.747-1.391 1.284-2.58 1.639-3.594l-.646-.226Zm1.187 5.346c.703-1.82.907-4.041-.629-5.483l-.469.5c1.215 1.14 1.136 2.984.459 4.736l.639.247Zm-3.005-.441c.805.123 1.668.33 2.575.641l.222-.648a15.654 15.654 0 0 0-2.694-.67l-.103.677Z" mask="url(#b)"/><ellipse cx="92.091" cy="42.21" fill="#161616" rx="1.232" ry="1.936" transform="rotate(-5.631 92.091 42.21)"/><ellipse cx="1.232" cy="1.936" fill="#161616" rx="1.232" ry="1.936" transform="scale(-1 1) rotate(24.369 -136.376 -224.845)"/><path fill="#fff" fill-rule="evenodd" d="M96.662 33.752c-2.344.658-6.598 2.915-4.861 6.676 1.084 2.35.366 4.15-.32 5.874-.69 1.727-1.347 3.377-.132 5.423.6 1.012 1.238 1.687 1.832 2.318 1.339 1.419 2.463 2.61 2.476 6.896.015 4.952 3.655 18.06 5.473 23.994l8.625-2.311.023.085 8.627-2.311c-1.393-6.05-4.795-19.221-7.258-23.517-1.735-3.026-1.156-4.922-.578-6.812.447-1.463.893-2.922.264-4.9-.673-2.114-2.051-2.87-3.379-3.597-1.519-.833-2.971-1.63-3.223-4.381-.376-4.125-5.187-3.954-7.547-3.352l-.022-.086Z" clip-rule="evenodd"/><ellipse cx="2.977" cy="4.193" fill="url(#c)" rx="2.977" ry="4.193" transform="scale(-1 1) rotate(40.381 -108.919 -105.094)"/><ellipse cx="2.977" cy="4.193" fill="url(#d)" rx="2.977" ry="4.193" transform="scale(-1 1) rotate(-17.75 86.834 380.862)"/><path fill="#005BBB" d="M115.859 70.357c-5.516 4.372-13.958 5.59-17.433 5.07l.59 2.037c7.994 1.706 14.888-2.716 17.425-5.086l-.582-2.02Z"/><path fill="#FFD500" d="M116.442 72.31c-6.518 5.537-13.964 5.605-17.45 5.125l.496 1.587c8.028 1.613 15.047-2.053 17.536-4.452l-.582-2.26Z"/><ellipse cx="104.361" cy="37.908" fill="#fff" opacity=".2" rx=".552" ry=".868" transform="rotate(9.05 104.361 37.908)"/><ellipse cx="91.826" cy="41.471" fill="#fff" opacity=".2" rx=".552" ry=".868" transform="rotate(9.05 91.826 41.47)"/><path fill="#fff" d="M108.807 78.86c-15.097 2.94-11.86 23.401-8.354 33.264 17.657 5.776 50.607 11.657 41.153-11.027-9.453-22.684-21.879-25.328-26.91-23.814l-5.889 1.578Z"/><path fill="#FF6B0A" d="M94.468 44.77c-1.858-5.842 3.552-8.35 3.548-8.271 6.115 0 6.969 5.236 6.969 6.045 0 2.226 3.952 3.135 3.498 5.576-.454 2.441.767 6.945.76 10.318-.004 2.066-.603 2.98-1.111 3.309.149-.038.089-.014-.058.035a.847.847 0 0 1-.363.118c.135-.043.268-.086.363-.118a.745.745 0 0 0 .058-.035c-.196.05-.753.21-1.951.563-3.376.996-4.785-3.41-9.083-7.723-4.299-4.314-.31-2.514-2.63-9.817Z"/><path fill="#161616" d="M105.601 60.143c-2.784.49-5.28-5.312-6.18-8.274 1.573-.816 5.058-2.303 6.417-1.72 1.698.73 3.242 9.38-.237 9.994Z"/><path fill="#956C7C" d="M105.949 59.23c1.84-.748.123-4.755-.965-6.665l-3.698.99c.788 2.204 2.823 6.423 4.663 5.675Z"/><path fill="#86616F" d="M105.338 57.794c.317-.386-1.362-4.356-2.241-6.292l-.789.304c.877 2.157 2.712 6.375 3.03 5.989Z"/><path fill="#EB6005" d="M97.701 49.87c.789-4.401-.863-6.281-1.787-6.671 1.844-4.54 5.726-3.22 7.436-1.993-1.142 4.405-.347.913 2.638 6.444 2.388 4.425-.301 6.867-1.944 7.535-2.442.063-7.131-.913-6.343-5.315Z"/><path fill="#EFE5D5" d="M106.749 49.56c-5.937-4.75-7.99.44-8.274 3.629.715 1.084 2.853 2.998 5.679 1.985 2.826-1.012 2.907-4.164 2.595-5.614Z"/><path fill="#DACAB0" d="M101.692 50.116c-.182-.49-.603-1.377-.822-.993-.219.383.457.822.822.993ZM102.651 49.861c-.168-.496-.399-1.449.013-1.289.412.16.163.926-.013 1.29Z"/><path fill="#3D3A00" d="m98.898 29.384 1.541 4.212c-1.753 2.905-6.347 3.243-8.425 3.048l-1.507-4.315 8.391-2.945Z"/><path fill="#3D3A00" d="M100.44 33.597c.08 2.477-1.603 6.356-8.425 3.013l8.425-3.013Z"/><ellipse cx="94.714" cy="30.854" fill="#3D3A00" rx="4.454" ry=".768" transform="rotate(-19.031 94.714 30.854)"/><path fill="#FFD500" d="M94.708 31.679c.019.003.034.004.049.008.121.03.21.086.278.19.029.045.053.093.078.139l.068.12c.006.01.006.016-.005.022-.026.014-.043.036-.044.067 0 .027.013.048.035.06.022.014.047.013.07.004.012-.005.018-.014.02-.027a.745.745 0 0 0-.023-.307c-.024-.084-.063-.16-.1-.238-.02-.044-.039-.09-.06-.133a.289.289 0 0 1-.029-.085.2.2 0 0 1 .007-.092c.03.012.054.032.07.057.016.024.03.05.04.076.013.028.022.058.033.086.028.074.056.148.086.221.052.122.13.223.236.3.014.011.026.01.04.003a.076.076 0 0 0 .038-.096c-.014-.033-.056-.05-.093-.036-.014.005-.016 0-.02-.011-.016-.06-.034-.122-.052-.182-.02-.068-.043-.135-.042-.208a.436.436 0 0 1 .084-.252l.014-.019.007.017.377.9c.007.017.007.017-.01.024l-.185.08c-.011.004-.015.01-.012.021a.372.372 0 0 1-.043.26c-.01.016-.016.036-.024.054-.052-.026-.113-.033-.163-.068a.402.402 0 0 1-.106-.104c-.006-.01-.012-.01-.022-.006l-.189.08c-.01.005-.016.005-.022-.008-.128-.305-.25-.6-.379-.905-.002 0-.003-.004-.007-.012Zm.127.11-.004.004.007.016.18.43c.01.024.01.024.034.013.01-.004.014-.008.012-.019a.123.123 0 0 1 .027-.088c.008-.011.007-.019 0-.03-.03-.05-.06-.102-.088-.154a.37.37 0 0 0-.108-.129c-.02-.016-.04-.028-.06-.043Zm.646-.274-.005.001a.26.26 0 0 0-.005.025c-.01.06-.02.108-.005.167.02.075.042.149.063.223.003.01.008.015.02.017.031.004.059.017.081.042.01.011.02.01.04-.002.01-.008.002-.015 0-.022a1249.167 1249.167 0 0 0-.19-.45Zm-.227.843-.016.003c-.054.01-.102.002-.14-.043-.005-.006-.009-.008-.016-.004l-.016.007c-.008.004-.01.008-.007.016.025.059.05.119.076.177.001.003.01.008.013.006.043-.017.086-.035.128-.054.003-.001.007-.01.006-.013l-.028-.095Zm.334-.144.049.088c.004.008.01.006.017.003.04-.017.078-.035.118-.051.013-.005.015-.012.01-.023-.024-.053-.045-.105-.067-.159-.01-.024-.01-.024-.035-.014-.007.003-.013.006-.012.016.006.052-.018.091-.056.123-.008.007-.017.012-.024.017Zm-.258-.15c.003.07.006.138-.005.207.031.007.06.012.09.017.004.001.012-.003.014-.007.016-.022.028-.044.043-.065.005-.007.005-.011-.002-.017a.771.771 0 0 1-.13-.125l-.01-.01Zm.059.426c.014.042.091.105.121.104l.001-.002-.05-.122c-.002-.003-.01-.005-.013-.005-.02.007-.04.016-.059.025Zm.188.078c.025-.034.029-.135.01-.164l-.053.023c-.01.004-.012.01-.008.019l.042.099.009.023Zm-.187-.152c.01-.005.022-.008.031-.014.003-.002.007-.01.005-.013-.019-.032-.053-.053-.09-.047-.007.002-.01.005-.009.013l.018.068c.003.008.009.01.016.006a.365.365 0 0 1 .03-.013Zm.144-.062.027-.011c.01-.004.014-.01.008-.02a1.413 1.413 0 0 0-.032-.055c-.006-.009-.012-.01-.02-.002a.091.091 0 0 0-.027.096c.002.003.01.006.013.006l.031-.014Z"/><path fill="#4B4800" d="m98.898 29.384 1.541 4.212c-1.753 2.905-6.347 3.243-8.425 3.048l-1.507-4.315s.725-.09 1.165-.24c.526-.178 1.267-.65 1.267-.65l3.63 2.945V30s.79.13 1.267 0c.463-.127 1.062-.616 1.062-.616Z"/><path fill="#FFD500" d="M115.721 70.014c4.519-.516 11.933.892 5.587 9.81-6.299 8.851-7.519 14.418-4.137 13.322-.94.352-.51 1.62-.996 2.133-3.764.599-3.834-4.46 4.573-15.56 2.024-2.95 3.375-8.696-4.602-8.387l-.425-1.318Z"/><path fill="#005BBB" d="M115.117 68.106c4.607-1.052 9.632-1.465 4.512 8.069-5.067 9.436.308 8.73 3.725 7.162a1.37 1.37 0 0 1 .105-.05l-.105.05c-.842.434.178 1.125-.237 1.682-3.809 1.042-9.959.724-4.086-8.879 1.615-3.145 4.681-8.212-3.549-6.947l-.365-1.087Z"/><path fill="#fff" stroke="#161616" stroke-width=".342" d="m87.596 56.528.286.003-.137.25c-.34.62-.67 1.62-.572 2.609.096.973.61 1.945 1.992 2.541.86.371 2.075.402 3.494.333.459-.022.938-.054 1.43-.088 1.011-.068 2.076-.14 3.122-.133 1.558.01 3.107.194 4.438.834 1.339.643 2.446 1.742 3.126 3.556 1.341 3.576 1.265 6.611.25 8.769-1.017 2.163-2.97 3.427-5.325 3.453-.928.011-2.826.162-5.297.359l-1.756.139c-3.315.26-7.344.555-11.335.709-3.99.153-7.949.165-11.123-.144-1.587-.154-2.984-.39-4.093-.73-1.103-.337-1.951-.788-2.404-1.394-1.7-2.273-2.559-5.016-2.619-7.461-.06-2.438.676-4.62 2.214-5.723.318-.227.823-.442 1.453-.646a24.81 24.81 0 0 1 2.274-.594c1.732-.38 3.84-.725 5.943-1.01 2.103-.286 4.202-.512 5.917-.655 1.602-.134 2.881-.196 3.511-.161.411-.817 1.126-1.984 2.006-2.962.91-1.012 2.033-1.866 3.205-1.854Z"/><path fill="#161616" d="M66.189 73.183v-4.604h4.195v4.604h-1.059v-3.979l.243.244h-2.564l.243-.244v3.979H66.19Zm7.342.052c-.299 0-.56-.066-.783-.197a1.333 1.333 0 0 1-.526-.599c-.123-.271-.184-.613-.184-1.025 0-.417.06-.759.177-1.026a1.26 1.26 0 0 1 .513-.599c.224-.131.491-.197.803-.197.333 0 .63.077.894.23.267.15.478.36.631.632.158.271.237.591.237.96 0 .372-.079.695-.237.966a1.62 1.62 0 0 1-.631.632 1.782 1.782 0 0 1-.894.223Zm-2.092 1.223v-4.813h.98v.723l-.02 1.052.066 1.046v1.992H71.44Zm1.914-2.064a.865.865 0 0 0 .776-.454 1.06 1.06 0 0 0 .125-.526c0-.206-.042-.382-.125-.526a.864.864 0 0 0-.776-.454c-.17 0-.324.04-.46.118a.848.848 0 0 0-.323.336c-.078.144-.118.32-.118.526 0 .201.04.377.118.526a.848.848 0 0 0 .323.335.9.9 0 0 0 .46.118Zm2.659.789v-3.538h1.02v2.104l1.722-2.104h.94v3.538h-1.019v-2.105l-1.716 2.105h-.947Zm4.668 0v-3.538h1.809c.442 0 .789.08 1.039.243a.75.75 0 0 1 .374.67c0 .29-.118.518-.355.685-.232.162-.541.243-.927.243l.105-.237c.43 0 .75.08.96.237.215.158.323.388.323.69a.875.875 0 0 1-.355.737c-.237.18-.599.27-1.085.27H80.68Zm.94-.698h.862c.189 0 .329-.03.421-.091.096-.066.145-.165.145-.296 0-.136-.044-.235-.132-.296-.087-.066-.226-.099-.414-.099h-.881v.782Zm0-1.387h.777c.18 0 .313-.033.4-.099a.327.327 0 0 0 .139-.282c0-.127-.046-.222-.138-.283-.088-.061-.222-.092-.401-.092h-.776v.756Zm3.144 2.085v-3.538h1.026v3.538h-1.026Zm.513-4.031a.65.65 0 0 1-.46-.165.533.533 0 0 1-.177-.407c0-.163.059-.299.177-.408a.65.65 0 0 1 .46-.165c.189 0 .342.053.46.158.119.101.178.233.178.395 0 .17-.059.313-.177.427a.636.636 0 0 1-.46.165Zm2.254 4.03V70.25l.23.237h-1.427v-.842h3.413v.842H88.32l.23-.237v2.933h-1.02Zm3.262 1.329c-.184 0-.366-.029-.546-.086a1.205 1.205 0 0 1-.44-.236l.374-.73a.889.889 0 0 0 .579.223.514.514 0 0 0 .342-.105.835.835 0 0 0 .237-.335l.184-.434.079-.112 1.269-3.051h.986L92.26 73.4a2.185 2.185 0 0 1-.394.67 1.206 1.206 0 0 1-.487.342c-.175.066-.37.099-.585.099Zm.605-1.19-1.578-3.676h1.058l1.224 2.959-.704.717Zm2.257-.145.052-.842c.026.005.053.01.079.013h.072a.39.39 0 0 0 .29-.105.654.654 0 0 0 .157-.282c.035-.123.06-.261.073-.415.017-.153.03-.313.04-.48l.052-1.42h3.025v3.538h-1.026v-2.946l.23.25h-1.552l.217-.263-.046.887c-.013.316-.04.605-.079.868a2.589 2.589 0 0 1-.177.684 1.082 1.082 0 0 1-.336.44c-.14.102-.32.152-.539.152-.079 0-.162-.007-.25-.02a2.74 2.74 0 0 1-.282-.059Zm4.82.007v-3.538H99.5v3.538h-1.025Zm.513-4.031a.65.65 0 0 1-.46-.165.533.533 0 0 1-.178-.407c0-.163.059-.299.177-.408a.65.65 0 0 1 .46-.165c.189 0 .343.053.46.158.12.101.178.233.178.395 0 .17-.059.313-.177.427a.636.636 0 0 1-.46.165Z"/></g><defs><radialGradient id="c" cx="0" cy="0" r="1" gradientTransform="matrix(0 4.19342 -2.9771 0 2.977 4.193)" gradientUnits="userSpaceOnUse"><stop stop-color="#FBB"/><stop offset="1" stop-color="#FBB" stop-opacity="0"/></radialGradient><radialGradient id="d" cx="0" cy="0" r="1" gradientTransform="matrix(0 4.19342 -2.9771 0 2.977 4.193)" gradientUnits="userSpaceOnUse"><stop stop-color="#FBB"/><stop offset="1" stop-color="#FBB" stop-opacity="0"/></radialGradient><clipPath id="a"><path fill="#fff" d="M57.306 22.854h58.285v58.11H57.306z"/></clipPath></defs></svg>