<svg xmlns="http://www.w3.org/2000/svg" width="180" height="144" fill="none"><path fill="#fff" stroke="#383838" stroke-width=".75" d="m158.802 20.003-42.834 1.456L23.645 20a.1.1 0 0 0-.1.088L12.66 104.925v3.497c0 .008.001.016.003.023l.676 2.786a.107.107 0 0 0 .007.02l.676 1.394 2.043 4.211 2.043 3.509 2.042 2.808 1.355 1.396a.1.1 0 0 0 .016.013l2.034 1.398 2.724 1.404 2.706 1.395a.096.096 0 0 0 .037.01l55.733 4.904a.1.1 0 0 0 .105-.072l7.562-26.262c.028-.098.168-.096.193.004l6.5 26.253a.1.1 0 0 0 .108.075l52.701-5.69a.114.114 0 0 0 .025-.006l3.883-1.495 1.948-1 2.298-1.274 2.377-1.75.012-.011 2.037-2.1 2.038-2.8.009-.015 1.352-2.788a.075.075 0 0 0 .008-.024l.679-3.497.391-3.241v-3.5l-10.077-84.409a.1.1 0 0 0-.103-.088Z"/><path stroke="#383838" stroke-width=".75" d="m28.245 20-9.74 86v2.209c0 .524.083 1.045.245 1.544l.579 1.784c.1.308.23.605.387.888l1.711 3.075 1.743 2.684c.136.21.289.41.455.598l2.022 2.275c.418.47.921.858 1.483 1.142l2.03 1.025c.362.183.746.322 1.142.412l3.787.864 3.895.5 5.357.5 12.175 1 30.192 3M153.611 20l9.953 86.472c.041.351.044.705.01 1.057l-.431 4.414-.447 1.845a4.981 4.981 0 0 1-.816 1.763l-1.04 1.43c-.279.383-.61.724-.985 1.014l-2.159 1.669-3.523 2.421c-.373.256-.779.46-1.207.608l-3.441 1.182-5.866 1.125-18.018 2-27.271 2.5"/><path stroke="#383838" stroke-width=".75" d="m22.089 34.74 36.342-.638c.064 0 .066-.002.13-.001 2.045.003 96.786.162 101.939.399"/><path stroke="#383838" stroke-width=".75" d="M87.5 80.5c1.5 0 1.067-5.905 1.067-5.905l-1.192-16.226-1.786-11.405a.102.102 0 0 1 0-.027l1.188-10.181a.1.1 0 0 1 .013-.04l3.56-5.98a.093.093 0 0 1 .014-.02l2.901-2.924a.1.1 0 0 1 .142 0l2.898 2.922a.097.097 0 0 1 .019.026l2.967 5.982a.096.096 0 0 1 .009.027l1.783 10.185a.12.12 0 0 1 0 .033L99.297 58.37l-1.19 16.207a.1.1 0 0 0 .003.036c.105.355 1.764 6.011 1.187 6.593"/><mask id="a" fill="#fff"><path fill-rule="evenodd" d="m116.646 71.66.223-.458.002-.003.001-.002.02-.041.025.013c.288-.07 1.751.491 3.445 1.33 1.694.84 3.028 1.666 3.149 1.938l.027.013-.245.502c.05.058.07.102.056.13a.045.045 0 0 1-.016.018l-1.183 2.441c.478.827.63 1.784.517 2.7.062.656-.159 1.478-.919 2.453-.205.263-.426.54-.656.83-1.692 2.128-3.882 4.881-3.864 6.984.228.12.446.24.654.36 3.676-1.159 10.353-1.08 21.699 1.462 3.375.7 8.308 2.477 7.256 3.402-.24.574-2.216 1.114-7.202 1.488-.07.098-.218.197-.464.294 1.573.437 2.517 1.21-2.452 1.929.714.52 1.172 1.586-2.712 1.686-.788.02-1.514.124-2.175.284a138.817 138.817 0 0 1 7.744 5.75c-3.895.704-7.335 1.057-10.368 1.13a1.497 1.497 0 0 1 .268 1.278 1.5 1.5 0 0 1-.736 2.401 1.5 1.5 0 0 1-2.619-.036l-.043-.079a1.493 1.493 0 0 1-.886.497 1.5 1.5 0 0 1-2.596-.34l-.738-1.849-3.862-2.828a1.51 1.51 0 0 1-.483-.595c-2.962-1.05-5.074-2.539-6.531-4.181-1.979-.604-4.061-1.612-5.439-2.397-.273-1.177-1.714-3.882-5.295-5.294-3.58-1.41-2.78-2.217-1.932-2.444-4.7-2.513-3.019-2.76-1.234-2.534a.292.292 0 0 1 .107-.105c-9.3-4.099-7.786-4.905-4.205-4.657 1.698-.096 4.087.09 5.933.402 6.384.979 11.148 2.14 14.637 3.393.475-1.484 1.433-3.136 3.133-4.891-.627-.275-1.332-.72-2.109-1.401l-3.956 1.688c-.326.14-.638-.217-.465-.53l.574-1.03-1.97.345c-.377.066-.59-.42-.29-.664l3.967-3.21a2.957 2.957 0 0 1 .514-1.918.509.509 0 0 1 .081-.115c.308-.42.721-.785 1.212-1.083-2.774-1.105-.679-2.288 1.06-1.92l-.002-.029 1.205-2.464a.034.034 0 0 1 .004-.01c.013-.027.059-.038.134-.034Z" clip-rule="evenodd"/></mask><path fill="#000" d="m116.869 71.202 89.87 43.858.779-1.598.723-1.625-91.372-40.635Zm-.223.457-6.226 99.806 66.759 4.165 29.336-60.112-89.869-43.859Zm.225-.46L28.627 24.155l-1.678 3.149-1.45 3.26 91.372 40.635Zm.001-.002 88.243 47.043.842-1.579.785-1.607-89.87-43.858Zm.02-.041 44.406-89.6-90.15-44.679L27.023 27.3l89.87 43.857Zm.025.013-44.406 89.599 32.547 16.131 35.312-8.519-23.453-97.211Zm3.445 1.33 44.407-89.598L120.362 72.5Zm3.149 1.938-91.378 40.62 14.652 32.96 32.318 16.018 44.408-89.598Zm.027.013 89.871 43.855 43.586-89.319-89.049-44.135-44.408 89.599Zm-.245.502-89.87-43.855-29 59.428 43.329 49.952 75.541-65.525Zm.056.13-89.87-43.858-.004.01 89.874 43.848Zm-.016.018L67.074-7.574 44.997 7.45 33.348 31.48l89.985 43.62Zm-1.183 2.441-89.985-43.62L9.007 81.694l26.598 45.947 86.545-50.1Zm.517 2.7L23.426 67.944 22.08 78.8l1.034 10.89 99.552-9.45Zm-.919 2.453 78.881 61.464.003-.004-78.884-61.46Zm-.656.83L42.829 21.276l-.043.054-.043.054 78.349 62.14Zm0 0 78.264 62.248.043-.054.043-.054-78.35-62.14Zm-3.864 6.984-99.996.886.53 59.817 52.956 27.823 46.51-88.526Zm.654.36-49.91 86.654 38.069 21.927 41.901-13.206-30.06-95.375Zm21.699 1.462-21.866 97.58.772.173.774.161 20.32-97.914Zm7.256 3.402L80.772 20.663 63.515 35.85 54.622 57.05l92.215 38.683Zm-7.202 1.488L132.151-2.5 85.293 1.017 58.092 39.334l81.543 57.886Zm-.464.294L102.384 4.526l-277.117 109.631 287.156 79.713 26.748-96.356Zm-2.452 1.929L122.405.473l-243.033 35.15L77.82 180.257l58.899-80.814Zm-2.712 1.686 2.578 99.967h.005l-2.583-99.967Zm-2.175.284L108.22 4.241-108.731 56.96 75.052 183.73l56.78-82.317Zm7.744 5.75 17.775 98.408 216.335-39.078L202.074 29.099l-62.498 78.064Zm-10.368 1.13-2.39-99.972-197.304 4.718L50.01 169.346l79.199-61.053Zm.278 1.237 97.683 21.4.003-.012-97.686-21.388Zm-.01.041-97.067-24.04-12.178 49.174 32.442 38.907 76.803-64.041Zm.009 1.909L52.041 48.215l77.444 63.265Zm-.745.492-27.662-96.098-38.872 11.19-20.161 35.068 86.695 49.84Zm-.586.57-47.57-87.96 47.57 87.96Zm-2.033-.606 87.96-47.57v-.001l-87.96 47.571Zm-.043-.079 87.96-47.571-68.702-127.032L50.6 46.26l75.478 65.597Zm-.091.096 69.482 71.919.003-.003-69.485-71.916Zm-.795.401-16.399-98.646-39.815 6.619L44.912 52.73l80.28 59.624Zm-.647.497L87.498 19.967l37.047 92.884Zm-1.949-.837 92.882-37.053-92.882 37.053Zm-.738-1.849 92.882-37.054-10.638-26.668-23.166-16.962-59.078 80.684Zm-3.862-2.828 59.078-80.683-59.078 80.683Zm-.483-.595 91.093-41.257-17.56-38.77-40.113-14.223-33.42 94.25Zm-6.531-4.181 74.801-66.37-18.682-21.054-26.922-8.219-29.197 95.643Zm-5.439-2.397L8.134 122.78l9.89 42.598 37.991 21.659 49.528-86.873Zm-5.295-5.294 36.668-93.034-.004-.002-36.664 93.036Zm-1.932-2.444 25.815 96.611 244.694-65.382L145.465 4.239 98.316 92.427Zm-1.234-2.534-12.575 99.206 67.092 8.504 32.874-59.101-87.391-48.609Zm.107-.105 52.028 85.4 163.566-99.65L137.524-1.717 97.189 89.787Zm-4.205-4.657-6.898 99.761 6.242.432 6.246-.35-5.59-99.843Zm5.933.402-16.713 98.594.78.132.782.12 15.15-98.846Zm14.637 3.393L79.75 183.038l97.477 35.013 31.569-98.647-95.242-30.479Zm3.133-4.891 71.832 69.571 100.27-103.527L156.712-7.607l-40.025 91.64Zm-2.109-1.401L180.469 7.41l-47.305-41.438L75.324-9.34l39.254 91.974Zm-3.956 1.688L71.368-7.652l-.01.004-.01.004 39.274 91.965Zm-.465-.53 87.374 48.64.005-.008-87.379-48.631Zm.574-1.03 87.378 48.632L300.102-51.864 93.509-15.744l17.222 98.506Zm-1.97.345L91.539-15.4l17.222 98.506Zm-.29-.664 62.895 77.745.007-.006.008-.006-62.91-77.733Zm3.967-3.21 62.91 77.732 41.047-33.219-4.287-52.632-99.67 8.119Zm.514-1.918 82.968 55.824 3.216-4.78 2.646-5.119-88.83-45.925Zm.081-.115 73.245 68.082 3.938-4.237 3.423-4.661-80.606-59.184Zm1.212-1.083 51.798 85.54L337.915 57.58l-186.66-74.363-37.01 92.9Zm1.06-1.92-20.74 97.826 136.662 28.973L214.594 62.29l-99.289 11.906Zm-.002-.029L25.482 30.21l-11.34 23.171 1.285 25.765 99.876-4.979Zm1.205-2.464 89.821 43.957 5.586-11.414 2.554-12.45-97.961-20.093Zm.004-.01 89.862 43.874.003-.008.004-.008-89.869-43.857ZM27 27.344l-.223.458 179.738 87.717.224-.458L27 27.344Zm-1.501 3.22-.001.004 182.743 81.27.001-.003-182.743-81.27Zm3.13-6.41-.002.002 176.487 94.088.001-.003L28.629 24.153Zm-1.607 3.146-.02.04 179.74 87.715.02-.041-179.74-87.714Zm134.302-45.73-.026-.012-88.813 179.198.026.013 88.813-179.199Zm3.445 1.332a127.625 127.625 0 0 0-10.679-4.712 108.252 108.252 0 0 0-10.307-3.4 102.146 102.146 0 0 0-12.263-2.57c-2.583-.376-18.524-2.974-38.055 1.739L140.37 168.38a99.78 99.78 0 0 1-25.248 2.766 99.303 99.303 0 0 1-12.485-1.023 97.81 97.81 0 0 1-11.743-2.454 91.678 91.678 0 0 1-8.76-2.872 72.643 72.643 0 0 1-6.179-2.698L164.77-17.099Zm50.12 50.915c-8.08-18.176-19.681-29.163-21.558-30.998a102.16 102.16 0 0 0-9.428-8.153 108.416 108.416 0 0 0-8.924-6.124 127.727 127.727 0 0 0-10.21-5.64L75.955 162.099a72.48 72.48 0 0 1-5.88-3.278 91.761 91.761 0 0 1-7.565-5.211 97.799 97.799 0 0 1-9.02-7.808 99.179 99.179 0 0 1-8.325-9.233 99.714 99.714 0 0 1-13.032-21.512l182.756-81.241ZM167.946-15.15l-.027-.013-88.816 179.197.028.014 88.815-179.198Zm45.218 133.957.245-.503-179.741-87.71-.245.502 179.741 87.711Zm.054.132c18.48-37.867 7.16-71.532 1.837-83.778-5.826-13.401-13.232-22.29-16.22-25.734L47.752 140.477c-2.939-3.387-10.31-12.225-16.117-25.583-5.304-12.202-16.621-45.83 1.845-83.67l179.738 87.716Zm-33.626 38.834c12.256-8.341 24.931-21.012 33.631-38.844L33.475 31.234C42.168 13.416 54.832.757 67.075-7.574l112.517 165.348Zm32.543-36.613 1.183-2.441-179.97-87.24-1.183 2.441 179.97 87.24Zm9.773-28.626c2.443-19.72-.474-43.086-13.213-65.093L35.605 127.64c-11.782-20.353-14.395-41.806-12.18-59.696l198.483 24.59Zm-21.276 51.619c11.616-14.909 24.714-40.426 21.588-73.363L23.114 89.69c-3-31.622 9.654-55.497 19.75-68.455l157.768 122.92Zm-1.276 1.618c.161-.203.705-.885 1.273-1.614L42.867 21.23l.123-.157.03-.037-.056.07-.058.073-.077.097 156.527 124.496Zm.086-.108v-.001L42.742 21.384l156.7 124.28Zm17.782-56.041c.146 16.392-3.891 28.928-6.482 35.565-2.733 7.004-5.701 12.067-7.297 14.635-2.841 4.57-5.651 7.912-4.089 5.949L42.828 21.276c-.13.165-4.88 5.948-9.235 12.952-2.342 3.767-16.638 25.824-16.36 57.166l199.991-1.771Zm-49.431-85.41a118.66 118.66 0 0 0-4.054-2.23L70.718 179.034a80.682 80.682 0 0 1-2.747-1.512L167.793 4.214Zm-6.347-9.463c-13.205-2.96-42.71-9-73.623.743l60.119 190.75c-7.471 2.355-13.756 3.254-17.971 3.624-4.297.377-7.595.302-9.536.197-3.664-.199-4.914-.646-2.72-.154L161.446-5.25ZM212.903 170.8c10.261-9.031 22.389-23.503 29.161-44.325 7.007-21.546 5.83-42.403.824-59.391-8.547-29.008-27.417-44.952-32.055-48.838-12.314-10.313-24.464-15.32-26.861-16.338-8.574-3.643-17.101-6.046-24.071-7.493l-40.64 195.828c-3.595-.746-7.968-1.911-13.494-4.259-.874-.371-11.777-4.717-23.356-14.415-4.271-3.578-22.902-19.226-31.368-47.957-4.965-16.85-6.14-37.573.826-58.99 6.73-20.695 18.772-35.045 28.903-43.96l132.131 150.138Zm-65.785 26.138c4.055-.304 11.36-.951 19.465-2.742a106.266 106.266 0 0 0 21.654-7.256c4.769-2.202 35.432-15.854 50.815-52.525L54.622 57.049a99.442 99.442 0 0 1 29.04-38.762 98.358 98.358 0 0 1 20.724-12.92c9.049-4.178 16.51-5.899 19.062-6.463a76.248 76.248 0 0 1 6.88-1.21c.62-.077 1.084-.126 1.363-.153.283-.027.443-.04.46-.04l14.967 199.438Zm28.84-6.437c4.201-1.662 27.59-10.562 45.219-35.396L58.092 39.334A99.422 99.422 0 0 1 85.406 13.24a98.304 98.304 0 0 1 16.978-8.715l73.574 185.976Zm-24.924 7.911c3.259-.471 10-1.534 17.824-3.944a103.597 103.597 0 0 0 19.546-8.28c6.39-3.526 25.802-14.864 39.32-39.09 18.106-32.45 15.828-69.673-.254-98.148-12.105-21.433-28.657-32.31-34.289-35.833-12.84-8.032-24.579-11.216-27.262-11.96L112.423 193.87c-1.896-.526-12.927-3.449-25.303-11.191-5.4-3.377-21.781-14.102-33.796-35.376-15.992-28.317-18.263-65.376-.251-97.656 13.423-24.058 32.64-35.222 38.71-38.572 8.099-4.468 14.982-6.753 18.198-7.744 6.654-2.05 11.649-2.746 12.424-2.858l28.629 197.94Zm-14.444 2.683c4.67-.121 13.365-.587 23.668-3.144 6.966-1.729 33.261-8.604 54.175-34.123 12.092-14.756 20.857-34.105 22.495-56.29 1.56-21.138-3.788-38.544-9.384-50.378-10.139-21.44-25.059-33.527-31.926-38.532L77.82 180.257c-6.51-4.745-21.104-16.504-31.078-37.594-5.514-11.66-10.819-28.886-9.272-49.844 1.624-22.006 10.32-41.177 22.272-55.76 20.632-25.176 46.357-31.733 52.34-33.218 9.318-2.313 16.614-2.608 19.343-2.678l5.165 199.933Zm18.854-2.51a89.671 89.671 0 0 1-18.859 2.51L131.43 1.162a110.316 110.316 0 0 0-23.21 3.08l47.224 194.344Zm46.63-169.487a238.516 238.516 0 0 0-13.461-10.002L75.052 183.73a41.01 41.01 0 0 1 2.025 1.497L202.074 29.099Zm-70.476 179.165c8.928-.213 17.556-1.213 25.753-2.693L121.8 8.756c.409-.074 2.157-.366 5.018-.435l4.78 199.943Zm95.574-77.346c6.684-30.53-1.24-60.945-18.765-83.679L50.009 169.346c-17.002-22.055-24.696-51.574-18.21-81.203l195.373 42.775Zm-.628 2.692c.217-.875.426-1.768.625-2.68L31.802 88.13c.194-.884.397-1.75.607-2.599l194.135 48.079Zm-19.615 41.135c31.355-38.382 29.899-92.58-.65-129.216L52.673 173.612c-29.646-35.554-31.062-88.147-.632-125.397l154.888 126.53Zm-50.527 33.325a101.49 101.49 0 0 0 50.527-33.326L52.041 48.214a98.508 98.508 0 0 1 49.037-32.34l55.324 192.196Zm19.321-7.567a101.499 101.499 0 0 0 39.712-38.691l-173.39-99.68a98.507 98.507 0 0 1 38.539-37.55l95.139 175.921ZM38.16 159.507c26.656 49.288 88.236 67.672 137.564 40.996L80.584 24.581c47.87-25.888 107.629-8.046 133.497 39.784l-175.92 95.142Zm-.042-.079.043.079 175.92-95.142-.043-.08-175.92 95.143Zm157.354 24.441c2.12-2.049 4.15-4.189 6.084-6.414L50.6 46.26a98.481 98.481 0 0 1 5.902-6.223l138.97 143.832ZM141.592 211a101.496 101.496 0 0 0 53.877-27.128L56.505 40.034a98.507 98.507 0 0 1 52.288-26.326L141.592 211Zm19.999-5.264a101.495 101.495 0 0 0 43.882-33.758L44.913 52.729a98.508 98.508 0 0 1 42.585-32.762l74.093 185.769ZM29.714 149.067c20.762 52.045 79.793 77.443 131.878 56.669L87.497 19.967c50.547-20.16 107.833 4.488 127.981 54.994L29.714 149.067Zm-.738-1.849.738 1.849L215.478 74.96l-.738-1.849-185.764 74.107ZM58.92 188.02l3.861 2.828L180.936 29.481l-3.862-2.827L58.919 188.02ZM26.42 147.999a101.499 101.499 0 0 0 32.498 40.021L177.074 26.653a98.493 98.493 0 0 1 31.532 38.832L26.421 147.999Zm9.76 20.931c13.773 15.523 30.66 25.945 47.913 32.062l66.839-188.5c11.328 4.016 23.991 11.462 34.85 23.7L36.181 168.93Zm19.834 18.107c5.559 3.169 14.6 7.757 25.77 11.166L140.179 6.918a75.213 75.213 0 0 1 9.1 3.413 69.487 69.487 0 0 1 5.793 2.96L56.015 187.037Zm7.564.868c-14.732-5.807-26.854-15.105-35.93-25.882-7.909-9.39-15.608-22.417-19.515-39.243l194.818-45.233c-7.304-31.458-30.227-61.598-66.036-75.711L63.579 187.905Zm8.923-192.09c-7.843 2.097-25.918 7.83-43.054 23.857C19.983 28.524 8.33 42.927 1.984 63.68c-6.708 21.93-5.27 43.808 1.186 62.373 11.032 31.722 33.993 47.279 39.57 51.008 8.706 5.819 16.606 9.177 20.843 10.846L136.912 1.834c2.447.965 9.104 3.692 16.979 8.956 4.748 3.174 27.291 18.25 38.181 49.566 6.386 18.362 7.823 40.055 1.166 61.82-6.297 20.586-17.846 34.84-27.172 43.563-16.859 15.769-34.516 21.316-41.935 23.298L72.502-4.184Zm37.155-5.13a105.789 105.789 0 0 0-22.911-.43C81.96-9.306 68.7-7.873 53.474-.831 37.974 6.336 3.962 27.968-3.47 74.29c-6.456 40.236 12.982 68.311 18.776 76.059a102.648 102.648 0 0 0 18.856 19.265c7.356 5.77 14.179 9.489 17.006 11L145.465 4.239c.477.255 5.748 3 12.152 8.024 2.891 2.269 10.426 8.374 17.856 18.31 5.595 7.48 24.959 35.34 18.531 75.401-7.404 46.149-41.287 67.649-56.581 74.722-15.02 6.947-27.997 8.32-32.447 8.727-10.399.952-18.36-.057-20.469-.325l25.15-198.412ZM45.161 4.389c-10.422 6.35-24.849 17.8-35.47 36.895l174.782 97.218c-10.577 19.015-24.931 30.396-35.256 36.686L45.161 4.388Zm54.722-19.02c-1.896-.131-14.546-1.213-29.563 1.933-4.657.975-30.964 6.136-53.12 29.863C3.716 31.604-7.202 52.007-9.403 76.73c-2.066 23.212 4.292 41.795 9.949 53.28 9.968 20.241 24.18 31.605 27.641 34.387a110.386 110.386 0 0 0 13.49 9.252c5.861 3.423 11.443 5.997 15.177 7.643l80.67-183.01c-.916-.403 1.368.533 5.01 2.66 1.737 1.014 5.929 3.534 10.933 7.555 2.857 2.295 16.699 13.25 26.499 33.15 5.573 11.314 11.897 29.743 9.843 52.818-2.188 24.585-13.048 44.866-26.432 59.199-21.956 23.512-47.895 28.517-52.052 29.388-14.016 2.936-25.135 1.847-25.239 1.839L99.883-14.632Zm15.747 1.57c-7.168-1.214-17.262-2.266-28.235-1.652l11.18 199.687c-4.671.262-8.11.07-9.724-.043a68.225 68.225 0 0 1-6.647-.804L115.63-13.061Zm31.728 7.874c-11.586-4.161-23.139-6.57-33.29-8.125L83.766 184.378c1.071.164 1.244.229.701.101-.498-.116-2.19-.532-4.717-1.441L147.358-5.188ZM44.856 14.462c-10.504 10.845-20.61 25.44-26.544 43.984l190.484 60.958c-4.985 15.577-13.175 26.868-20.277 34.201L44.856 14.462Zm3.83 143.392c6.905 6.049 16.166 12.662 27.977 17.82L156.712-7.607c10.556 4.61 18.406 10.331 23.757 15.018L48.686 157.854Zm101.189 18.441 3.956-1.689L75.324-9.341l-3.956 1.689 78.507 183.947ZM22.784 35.152C-21.06 113.91 56.86 216.016 149.895 176.287L71.349-7.644C163.73-47.095 241.026 54.299 197.53 132.43L22.784 35.152Zm.568-1.022-.573 1.03 174.757 97.263.573-1.03L23.352 34.13Zm102.632 147.482 1.969-.344L93.509-15.744l-1.97.344 34.445 197.012ZM45.577 4.697c-74.402 60.19-29.342 196.103 80.407 176.915L91.538-15.4c108.994-19.056 153.628 115.884 79.828 175.587L45.577 4.697Zm3.952-3.198-3.967 3.21 125.819 155.466 3.967-3.211L49.528 1.499ZM29.984 21.49C17.968 39.35 10.729 62.307 12.768 87.35l199.34-16.237c1.926 23.636-4.929 45.292-16.188 62.025L29.984 21.49Zm9.804-12.373A100.524 100.524 0 0 0 24.12 31.389l177.661 91.85a99.451 99.451 0 0 1-15.504 22.042L39.788 9.117Zm22.66-18.54C52.26-3.254 41.513 5.639 32.427 18.015l161.211 118.368a95.861 95.861 0 0 1-27.596 25.273L62.447-9.424Zm73.597-14.206a103.326 103.326 0 0 0-40.893-.39C85.14-22.096 62.93-16.333 42.959 3.31c-11.112 10.93-24.802 29.683-28.904 56.482-4.3 28.09 3.858 52.417 14.67 69.341 17.785 27.842 43.325 37.816 48.51 39.882l74.02-185.799c3.798 1.513 28.559 10.925 46.013 38.246 10.644 16.663 18.748 40.74 14.483 68.596-4.067 26.565-17.63 45.102-28.544 55.837-19.578 19.257-41.11 24.724-50.327 26.494a96.672 96.672 0 0 1-38.314-.368l41.479-195.651ZM15.427 79.146c.12 2.402.322 4.723.59 6.957L214.594 62.29c.265 2.214.466 4.515.585 6.898L15.427 79.146Zm11.26-51.4-1.205 2.464 179.642 87.914 1.205-2.464L26.687 27.746Zm-.037.075a100.041 100.041 0 0 0-8.102 23.79l195.921 40.185a99.967 99.967 0 0 1-8.095 23.771L26.65 27.821Zm96.222-55.968c-4.57-.285-16.26-.785-30.596 2.803C79.04-22.03 45.24-10.272 26.642 27.837l179.739 87.715c-18.584 38.081-52.353 49.819-65.545 53.121-14.291 3.577-25.92 3.074-30.416 2.793l12.452-199.612Z" mask="url(#a)"/><path fill="#D9D9D9" d="M98.841 85.643c27.316 4.264 23.498 12.324 18.175 15.821-1.201 2.636-7.216.011-10.073-1.631-.285-1.162-1.703-3.82-5.1-5.156-3.398-1.336-2.665-2.15-1.873-2.39-4.918-2.647-2.532-2.718-.724-2.422-15.008-4.899-5.516-5.107-.405-4.222Z"/><path fill="url(#b)" d="M98.088 85.785c27.75 4.729 23.637 12.758 18.113 16.182-1.297 2.627-7.361-.108-10.232-1.803-.259-1.171-1.634-3.863-5.063-5.26-3.43-1.397-2.66-2.202-1.846-2.43-4.945-2.738-2.509-2.77-.673-2.444-12.694-5.728-5.488-5.216-.299-4.245Z"/><path stroke="#FF6B0A" stroke-linecap="round" stroke-width="3" d="m118.725 106.06 3.993 3.046M124.502 110.773l-1.633-1.765M124.365 109.43l-1.465-.526M123.588 111.358l-.898-2.369"/><path fill="#D9D9D9" d="M139.386 92.404c-27.038-5.808-26.272 3.101-22.509 8.282.206 2.897 6.747 2.599 9.992 2.087.67-.985 2.923-2.962 6.565-2.994 3.643-.031 3.241-1.055 2.584-1.563 5.522-.713 3.314-1.635 1.52-2.007 15.745.8 6.937-2.799 1.848-3.805Z"/><path fill="url(#c)" d="M140.004 93.198c-27.605-5.53-26.552 3.456-22.575 8.64.298 2.923 6.923 2.54 10.199 1.984.649-1.003 2.873-3.028 6.567-3.105 3.694-.077 3.254-1.105 2.572-1.61 5.579-.789 3.311-1.692 1.48-2.046 13.869-.805 6.95-2.911 1.757-3.864Z"/><path fill="url(#d)" d="M108.904 95.09c-.377 5.992 5.01 16.769 29.566 11.932-9.103-7.656-27.761-20.762-29.566-11.933Z"/><path fill="#fff" d="M121.56 82.727c1.732-2.332.549-3.767-.259-4.194-.765.272-3.297.532-2.166.854 1.131.322.374 1.872-.145 2.607-7.694 6.4-5.649 11.78-4.307 13.486 2.148-.27 5.867-1.241 3.56-2.958-2.884-2.146 1.153-6.881 3.317-9.795Z"/><path fill="url(#e)" d="M123.608 107.277c-.555.963-3.832-.053-7.321-2.268-3.489-2.216-5.867-4.792-5.313-5.754.554-.962 3.832.053 7.32 2.269 3.489 2.215 5.868 4.791 5.314 5.753Z"/><path stroke="#FF6B0A" stroke-linecap="round" stroke-width="3" d="m121.448 106.446 4.385 2.381M127.726 110.418l-1.819-1.549M127.442 109.104l-1.515-.342M126.88 111.111l-1.153-2.239"/><path fill="#fff" d="M114.134 82.123c3.072 3.176 5.099 2.411 5.728 1.632 3.113-.924 4.035-6.844-.522-8.143-4.557-1.298-9.047 2.54-5.206 6.51Z"/><path fill="#DF5B04" d="m117.052 81.266-.474-.563a4.954 4.954 0 0 0-3.317-1.763.184.184 0 0 0-.179.1l-2.584 4.823c-.167.312.129.665.441.525l6.02-2.702a.274.274 0 0 0 .093-.42Z"/><path fill="#FF6B0A" d="m117.163 81.266-.391-.45a5.485 5.485 0 0 0-3.547-1.876.198.198 0 0 0-.149.047l-4.181 3.538c-.288.244-.087.728.274.66l7.843-1.462c.203-.038.289-.298.151-.457Z"/><path fill="#797979" d="M113.484 78.135c.259.074.528-.09.602-.364.074-.275-.076-.558-.335-.632-.259-.074-.528.09-.602.365-.074.275.076.558.335.631ZM118.163 80.005c.258.074.528-.09.602-.365.073-.275-.077-.558-.335-.632a.492.492 0 0 0-.602.365c-.074.275.076.558.335.632Z"/><path fill="#3D3A00" d="m116.702 71.82.266-.565 6.327 3.255-1.44 3.063-.222-.115-5.378-2.338-.727-.802 1.001-2.13-.033-.01.109-.387.097.029Z"/><path fill="#3D3A00" d="M119.696 73.81c1.797.925 3.327 1.52 3.416 1.33.09-.19-1.294-1.095-3.092-2.02-1.797-.924-3.327-1.519-3.416-1.328-.09.19 1.294 1.094 3.092 2.019ZM115.45 74.29c-2.316-.51-5.32 2.01 4.63 3.063l-4.63-3.063Z"/><path fill="#494600" d="M115.441 74.26c.054 1.223 5.51 3.961 6.511 3.348l1.152-2.465c-1.054-.143-2.597-1.63-4.233-1.79l-2.498 1.317.232-2.879-1.164 2.468Z"/><path fill="#3D3A00" d="M119.948 73.27c1.747.899 3.236 1.473 3.326 1.282.089-.19-1.254-1.074-3.001-1.972-1.747-.899-3.236-1.473-3.325-1.282-.09.19 1.253 1.073 3 1.972Z"/><path fill="#3D3A00" d="M119.743 73.835c1.771.911 3.28 1.496 3.369 1.305.09-.19-1.273-1.084-3.045-1.995-1.771-.911-3.28-1.495-3.37-1.305-.089.19 1.274 1.084 3.046 1.995Z"/><path fill="#FFD500" d="M117.326 72.445a.428.428 0 0 1 .002.36c-.02.045-.045.088-.067.13l-.059.115c-.005.01-.009.013-.02.007-.022-.014-.047-.016-.07-.001a.065.065 0 0 0-.029.058c0 .024.012.043.03.057.01.007.019.008.03.002a.671.671 0 0 0 .22-.171c.052-.06.091-.13.132-.198.024-.038.049-.076.072-.115a.256.256 0 0 1 .051-.065.173.173 0 0 1 .073-.04.16.16 0 0 1-.011.084.56.56 0 0 1-.039.07c-.015.024-.033.046-.049.068-.043.06-.086.119-.126.18a.7.7 0 0 0-.117.337c-.001.017.005.027.017.034.032.019.07.011.09-.018a.072.072 0 0 0-.016-.092c-.01-.009-.008-.013-.001-.021l.112-.133c.043-.05.082-.101.137-.137a.37.37 0 0 1 .229-.059l.021.002-.009.014-.502.75c-.009.014-.009.014-.022.004l-.147-.108c-.008-.007-.014-.007-.022 0a.319.319 0 0 1-.214.096c-.018.001-.035.006-.053.008-.005-.054-.028-.106-.024-.164a.372.372 0 0 1 .029-.136c.004-.01.002-.015-.006-.02l-.149-.11c-.008-.007-.01-.012-.003-.022l.504-.754c0-.002.001-.005.006-.012Zm-.024.156-.005-.001-.009.013-.239.358c-.014.02-.014.02.006.034.007.006.012.007.02 0a.102.102 0 0 1 .078-.023c.012.002.018-.004.022-.014.025-.049.05-.1.076-.147a.377.377 0 0 0 .047-.15 1.61 1.61 0 0 0 .004-.07Zm.506.378-.003-.003a.3.3 0 0 0-.021.008c-.05.022-.09.038-.127.08l-.139.161c-.006.007-.008.014-.004.024a.127.127 0 0 1 .007.086c-.004.014.001.022.019.03.012.006.013-.005.017-.01l.244-.365.007-.01Zm-.739.24a.06.06 0 0 1-.009-.011c-.033-.038-.05-.081-.033-.133.002-.007.001-.011-.005-.015l-.013-.01c-.006-.004-.01-.003-.015.004l-.098.148c-.002.002-.001.012.002.014.032.025.066.05.1.074.002.002.01.001.013-.001l.058-.07Zm.263.195-.043.082c-.004.008.001.011.006.015.031.023.062.045.093.07.01.007.016.005.022-.005.028-.045.058-.088.088-.132.014-.02.014-.02-.006-.035-.005-.004-.01-.008-.017-.002-.036.03-.077.032-.119.017-.009-.003-.016-.008-.024-.01Zm-.007-.282a.905.905 0 0 1-.158.1l.029.08c.001.005.008.008.013.008.023.002.045 0 .068.002.007 0 .011-.002.012-.01a.727.727 0 0 1 .034-.166l.002-.014Zm-.292.26c-.026.032-.037.126-.023.15l.002-.001c.023-.034.047-.068.068-.102.002-.002 0-.01-.002-.012-.014-.013-.03-.023-.045-.035Zm.028.189c.038.003.115-.044.128-.074a1.77 1.77 0 0 0-.042-.03c-.007-.007-.012-.005-.017.003l-.056.082-.013.019Zm.028-.225c.008.007.016.014.025.018.002.002.011 0 .011-.002.016-.032.015-.07-.006-.095-.005-.005-.009-.006-.014-.001l-.043.048c-.004.007-.003.012.003.016l.024.016Zm.113.085a.42.42 0 0 0 .022.015c.006.007.013.006.017-.003a.597.597 0 0 0 .027-.054c.004-.008.002-.013-.007-.016a.079.079 0 0 0-.085.026c-.002.003-.001.01.001.013l.025.019Z"/><path fill="url(#f)" d="M117.544 83.355c.555.87 1.739 1.044 2.645.388.907-.655 1.193-1.892.639-2.762-.555-.87-1.739-1.044-2.645-.388-.907.655-1.193 1.892-.639 2.762Z"/><path fill="#fff" stroke="#161616" stroke-width=".342" d="m130.744 74.943-.27-.001.138-.243c.243-.43.504-1.128.5-1.812-.005-.674-.265-1.333-1.065-1.73-.495-.246-1.231-.263-2.119-.207-.283.017-.581.043-.888.068-.635.054-1.308.11-1.961.112-.974.001-1.942-.12-2.748-.57-.813-.452-1.445-1.229-1.766-2.505-.631-2.505-.41-4.642.35-6.17.763-1.534 2.071-2.454 3.575-2.486.575-.013 1.76-.129 3.309-.28l1.102-.108c2.078-.2 4.603-.43 7.097-.559 2.493-.129 4.961-.159 6.924.04.982.1 1.844.258 2.522.493.673.233 1.19.55 1.447.988.932 1.593 1.31 3.518 1.206 5.237-.103 1.71-.685 3.262-1.727 4.059-.22.168-.556.324-.962.472-.409.148-.905.293-1.456.431-1.103.276-2.437.53-3.763.742a68.3 68.3 0 0 1-3.724.492c-.962.098-1.744.15-2.157.134-.306.575-.811 1.38-1.405 2.06-.317.363-.664.696-1.025.94-.36.242-.745.404-1.134.403Z"/><path fill="#000" d="m130.296 63.922.671-.984.005.258-.742-.886.524-.028.47.58-.197.016.42-.631.497-.026-.646.95-.014-.252.77.913-.53.027-.493-.617.196.016-.422.638-.509.026Zm2.318-.12-.071-1.335.11.102-.65.034-.02-.384 1.554-.08.021.383-.65.034.099-.113.072 1.336-.465.024Zm1.948-.076a.953.953 0 0 1-.464-.084.846.846 0 0 1-.331-.277.816.816 0 0 1-.136-.423.794.794 0 0 1 .389-.744.955.955 0 0 1 .453-.131c.17-.01.324.019.461.084a.786.786 0 0 1 .467.7.802.802 0 0 1-.091.434.806.806 0 0 1-.298.31.947.947 0 0 1-.45.131Zm-.021-.383a.39.39 0 0 0 .346-.225.508.508 0 0 0 .041-.243.49.49 0 0 0-.067-.237.383.383 0 0 0-.155-.145.41.41 0 0 0-.212-.043.41.41 0 0 0-.207.065.412.412 0 0 0-.142.16.5.5 0 0 0-.041.243c.005.092.027.17.067.237a.405.405 0 0 0 .37.188Zm1.993.281a1.004 1.004 0 0 1-.47-.08.823.823 0 0 1-.336-.28.816.816 0 0 1-.137-.423.802.802 0 0 1 .091-.434.798.798 0 0 1 .305-.31.978.978 0 0 1 .458-.132c.17-.009.32.02.449.085.13.063.228.16.295.288l-.352.213a.418.418 0 0 0-.168-.16.434.434 0 0 0-.419.022.405.405 0 0 0-.145.161.5.5 0 0 0-.041.243.5.5 0 0 0 .067.236.406.406 0 0 0 .38.188.415.415 0 0 0 .201-.061.406.406 0 0 0 .149-.18l.373.18a.658.658 0 0 1-.262.317.899.899 0 0 1-.438.127Zm1.818-1.217c.212-.009.375.03.49.12a.48.48 0 0 1 .189.383.504.504 0 0 1-.166.426c-.121.104-.293.162-.517.174l-.809.039-.086-1.612.464-.024.028.515.407-.02Zm-.064.773c.09-.003.158-.026.204-.068.046-.043.067-.104.062-.184-.004-.08-.031-.135-.081-.167a.355.355 0 0 0-.21-.046l-.302.013.025.467.302-.016Zm-12.094 3.958-.087-1.612.465-.024.034.63.701-.037-.034-.629.467-.024.087 1.612-.468.024-.032-.602-.701.036.032.602-.464.024Zm3.045-.157-.017-.315-.034-.067-.03-.563a.298.298 0 0 0-.105-.23c-.063-.052-.158-.075-.283-.069a.809.809 0 0 0-.457.174l-.185-.318c.084-.066.188-.12.31-.16a1.42 1.42 0 0 1 .375-.07c.245-.013.439.035.581.144.142.109.22.286.233.532l.049.92-.437.022Zm-.49.05a.762.762 0 0 1-.327-.047.5.5 0 0 1-.216-.166.45.45 0 0 1-.086-.245.46.46 0 0 1 .056-.255.463.463 0 0 1 .215-.18c.1-.047.232-.075.396-.083l.428-.022.015.272-.378.02c-.11.006-.185.027-.225.066a.173.173 0 0 0-.052.137c.003.06.028.107.076.14.05.032.116.046.198.042a.41.41 0 0 0 .207-.065.334.334 0 0 0 .126-.172l.083.212a.415.415 0 0 1-.173.246.666.666 0 0 1-.343.1Zm1.333-.094-.086-1.611.488-.026.667 1.072-.194.01.591-1.136.437-.023.093 1.611-.423.022-.061-1.132.075.044-.505.957-.197.01-.609-.932.086-.026.061 1.138-.423.022Zm3.199-.14a.958.958 0 0 1-.464-.085.85.85 0 0 1-.33-.277.816.816 0 0 1-.137-.423.812.812 0 0 1 .091-.434.807.807 0 0 1 .299-.31.952.952 0 0 1 .453-.131.95.95 0 0 1 .461.084.798.798 0 0 1 .33.274c.082.12.128.262.137.426a.82.82 0 0 1-.091.434.808.808 0 0 1-.299.31.948.948 0 0 1-.45.131Zm-.02-.384a.41.41 0 0 0 .207-.065.382.382 0 0 0 .138-.16.496.496 0 0 0 .041-.243.5.5 0 0 0-.066-.237.391.391 0 0 0-.368-.188.403.403 0 0 0-.348.225.488.488 0 0 0-.041.243c.005.092.027.17.066.237a.42.42 0 0 0 .158.145.412.412 0 0 0 .213.043Zm2.207-.372a1.01 1.01 0 0 1-.476.144c-.212.011-.377-.028-.496-.118-.119-.092-.184-.244-.196-.456l-.027-.506.468-.024.025.476c.006.1.035.17.09.212a.34.34 0 0 0 .222.051.836.836 0 0 0 .372-.112l.018.333Zm0 .618-.086-1.611.467-.024.087 1.611-.468.024Zm.916-.047-.086-1.611.464-.025.052.96.733-1 .429-.022.086 1.612-.464.023-.052-.958-.73.999-.432.022Zm2.127-.11-.086-1.611.824-.043c.202-.01.361.019.479.087.118.066.18.165.187.296a.36.36 0 0 1-.145.32.723.723 0 0 1-.416.133l.042-.11c.196-.01.343.018.443.085.102.067.156.169.164.307a.401.401 0 0 1-.144.344c-.103.087-.266.137-.488.148l-.86.044Zm.412-.34.392-.02a.353.353 0 0 0 .19-.051.15.15 0 0 0 .058-.138c-.003-.063-.025-.106-.067-.132-.041-.028-.105-.04-.191-.035l-.401.02.019.357Zm-.034-.631.353-.019c.082-.004.142-.022.181-.054a.15.15 0 0 0 .056-.132c-.003-.058-.027-.1-.07-.126a.32.32 0 0 0-.185-.032l-.354.018.019.345Zm2.254.86a1.005 1.005 0 0 1-.47-.081.828.828 0 0 1-.336-.28.816.816 0 0 1-.137-.423.803.803 0 0 1 .091-.434.798.798 0 0 1 .305-.31.978.978 0 0 1 .458-.132c.17-.009.32.02.45.085.129.063.228.16.295.288l-.353.214a.402.402 0 0 0-.374-.203.432.432 0 0 0-.213.065.396.396 0 0 0-.144.16.488.488 0 0 0-.042.243.512.512 0 0 0 .067.237.404.404 0 0 0 .161.145.434.434 0 0 0 .219.042.416.416 0 0 0 .201-.061.406.406 0 0 0 .149-.179l.374.179a.66.66 0 0 1-.263.317.898.898 0 0 1-.438.128Zm1.983-.127-.029-.536.07.072-.446.023c-.232.012-.416-.027-.553-.116a.48.48 0 0 1-.22-.403.51.51 0 0 1 .183-.451c.134-.11.319-.17.555-.182l.77-.04.086 1.612-.416.021Zm-1.148.06.396-.637.476-.024-.374.635-.498.025Zm1.111-.74-.036-.67.073.116-.411.02a.401.401 0 0 0-.222.066c-.05.039-.072.098-.068.178.008.154.111.226.309.216l.416-.022-.061.096Z"/><defs><linearGradient id="b" x1="108.356" x2="103.467" y1="87.715" y2="99.4" gradientUnits="userSpaceOnUse"><stop stop-color="#fff"/><stop offset="1" stop-color="#F5F5F5"/></linearGradient><linearGradient id="c" x1="129.728" x2="130.112" y1="91.319" y2="104.008" gradientUnits="userSpaceOnUse"><stop stop-color="#fff"/><stop offset="1" stop-color="#F9F9F9"/></linearGradient><linearGradient id="d" x1="118.508" x2="129.548" y1="94.763" y2="107.007" gradientUnits="userSpaceOnUse"><stop stop-color="#fff"/><stop offset="1" stop-color="#F5F5F5"/></linearGradient><radialGradient id="e" cx="0" cy="0" r="1" gradientTransform="rotate(32.416 -118.985 253.388) scale(7.48279 2.00886)" gradientUnits="userSpaceOnUse"><stop stop-color="#E8E8E8"/><stop offset="1" stop-color="#EFEFEF" stop-opacity=".5"/></radialGradient><radialGradient id="f" cx="0" cy="0" r="1" gradientTransform="matrix(-1.64165 1.18696 -1.09243 -1.5109 119.186 82.168)" gradientUnits="userSpaceOnUse"><stop stop-color="#FBB"/><stop offset="1" stop-color="#FBB" stop-opacity="0"/></radialGradient></defs></svg>