<svg xmlns="http://www.w3.org/2000/svg" width="52" height="52" fill="none"><circle cx="26" cy="26" r="25" fill="#fff" stroke="#010101" stroke-width=".5"/><path fill="#57B2AB" stroke="#010101" stroke-width=".2" d="M43.457 43.673c-4.505 4.388-10.56 7.111-17.242 7.111-6.401 0-12.172-2.19-16.594-6.148 4.332-1.826 10.148-1.826 17.957-1.826 6.729 0 11.736-.235 15.879.863Z"/><path fill="#714E2F" d="M15.841 15.49c-1.796 1.19.749 2.525 2.246 3.045.21.377.905 1.359 2 2.265 1.368 1.133 3.893 0 5.542-1.133 1.65-1.133 3.509.885 6 2.903 2.49 2.018-.14 3.93 1.368 6.338 1.508 2.407 1.403-.142 1.403-2.408 0-2.265.105-1.522 1.754-2.903 1.649-1.38 1.86-2.018 2.49-3.93.632-1.911.387-2.655-2.49-4.177-2.877-1.522-4.912-2.124-6.14-4.036-1.227-1.912-6.139-.496-8.174 0-2.034.496 1.158 1.912-.877 1.912-2.034 0-2.876.637-5.122 2.124Z"/><path fill="#FFDECE" fill-rule="evenodd" d="m26.107 9.34.561-.028c6.075.03 9.441 5.082 9.241 11.012l-.029 2.145c1.165.164 2.759.837 2.214 3.32-.372 1.694-1.343 2.29-2.292 2.424l-.192 13.982a13.615 13.615 0 0 1-6.656 2.032 13.651 13.651 0 0 1-6.8-1.514l-.156-.081c-.016-1.67.025-3.188.025-3.188s-5.87-.582-6.25-6.257c-.184-2.74-.092-8.414.053-13.548a10.471 10.471 0 0 1 3.077-7.11 10.983 10.983 0 0 1 7.204-3.189Z" clip-rule="evenodd"/><path fill="#010101" d="m26.668 9.312.001-.1h-.006l.005.1Zm-.56.028-.006-.1.005.1Zm9.801 10.984-.1-.003v.002l.1.001Zm-.029 2.145-.1-.002-.001.088.087.013.014-.1Zm2.214 3.32.098.02-.098-.02Zm-2.292 2.424-.014-.1-.085.013-.001.085.1.002Zm-.192 13.982.053.085.047-.029v-.054l-.1-.002Zm-6.656 2.032-.004-.1.004.1Zm-6.8-1.514-.045.089.046-.089Zm-.156-.081h-.1v.061l.054.028.046-.09Zm.025-3.188.1.002.003-.093-.093-.009-.01.1Zm-6.25-6.257.1-.007-.1.007Zm.053-13.548.1.003-.1-.003Zm3.077-7.11.07.07-.07-.07Zm7.76-3.317-.561.029.01.2.562-.03-.01-.2Zm9.346 11.116c.1-2.984-.696-5.754-2.289-7.784-1.595-2.032-3.984-3.317-7.051-3.332l-.001.2c3.006.015 5.338 1.272 6.895 3.256 1.559 1.986 2.346 4.707 2.246 7.653l.2.007Zm-.029 2.142.03-2.144-.2-.003-.03 2.144.2.003Zm-.114.098c.574.08 1.237.285 1.69.76.447.47.708 1.221.44 2.439l.196.043c.277-1.265.013-2.09-.491-2.62-.5-.523-1.215-.737-1.807-.82l-.028.198Zm2.13 3.199c-.182.832-.51 1.385-.9 1.746-.39.36-.85.536-1.308.6l.028.199c.49-.07.99-.259 1.416-.653.426-.394.77-.986.96-1.85l-.196-.042Zm-2.286 16.43.191-13.983-.2-.003-.19 13.983.2.003Zm-6.752 2.13a13.714 13.714 0 0 0 6.705-2.047l-.105-.17a13.514 13.514 0 0 1-6.608 2.017l.008.2Zm-6.85-1.525a13.751 13.751 0 0 0 6.85 1.525l-.008-.2a13.552 13.552 0 0 1-6.75-1.503l-.091.178Zm-.156-.081.157.081.092-.178-.157-.08-.092.177Zm.071-3.277-.1-.003V39.46l-.001.05a58.774 58.774 0 0 0-.017.901 95.255 95.255 0 0 0-.007 2.223l.2-.002a95.413 95.413 0 0 1 .024-3.116l.001-.051v-.017l-.1-.003Zm-6.35-6.25c.193 2.879 1.781 4.47 3.318 5.337a8.697 8.697 0 0 0 3.004 1.01.61.61 0 0 0 .014.002h.004l.01-.1.01-.099h-.003c-.003 0-.007 0-.012-.002a3.228 3.228 0 0 1-.231-.033 8.501 8.501 0 0 1-2.697-.952c-1.494-.843-3.03-2.38-3.217-5.177l-.2.014Zm.053-13.558c-.145 5.133-.237 10.811-.053 13.558l.2-.014c-.184-2.735-.092-8.403.053-13.538l-.2-.006Zm3.106-7.178a10.571 10.571 0 0 0-3.106 7.178l.2.006a10.372 10.372 0 0 1 3.048-7.043l-.142-.141Zm7.27-3.217a11.082 11.082 0 0 0-7.27 3.217l.142.141a10.883 10.883 0 0 1 7.138-3.159l-.01-.2ZM17.323 22.081c.011.23.12.447.302.604.182.158.424.244.674.24a.989.989 0 0 0 .358-.058.93.93 0 0 0 .306-.18.845.845 0 0 0 .205-.277.787.787 0 0 0 .073-.328.854.854 0 0 0-.3-.605 1.008 1.008 0 0 0-.675-.24.99.99 0 0 0-.359.058.93.93 0 0 0-.306.182.846.846 0 0 0-.205.276.79.79 0 0 0-.073.328ZM25.634 22.081c.01.23.106.447.268.604a.837.837 0 0 0 .599.24.791.791 0 0 0 .59-.239.846.846 0 0 0 .248-.604.898.898 0 0 0-.268-.604.839.839 0 0 0-.6-.24.792.792 0 0 0-.59.238.845.845 0 0 0-.247.605Z"/><path stroke="#010101" stroke-linecap="round" stroke-width=".2" d="M23.061 28.757c-.001.05-.563.075-1.482.075a1.651 1.651 0 0 1-.394-.033.58.58 0 0 1-.395-.307c-.136-.328-.002-.624.07-.882.178-.556.13-2.177.325-2.786.812-2.47 1.789-3.407 1.891-3.375"/><path fill="#010101" d="M25.207 18.694c.034.25 1.268.027 2.266.365 1.002.319 1.425 1.085 1.607.906.084-.087-.011-.336-.296-.632-.384-.37-.85-.65-1.36-.817a3.63 3.63 0 0 0-1.59-.151c-.41.068-.64.21-.627.329ZM16.76 19.62c.137.213.825-.295 1.562-.229.735.04 1.29.64 1.456.448.073-.093-.005-.301-.256-.517a2.227 2.227 0 0 0-2.431-.178c-.282.177-.389.372-.33.476Z"/><path stroke="#010101" stroke-width=".2" d="M22.12 32.897c0 .476-.483.862-1.078.862-.595 0-1.077-.386-1.077-.862"/><path fill="#714E2F" d="M15.841 12.041c-1.796 1.19.749 2.526 2.246 3.045.21.378.905 1.36 2 2.266 1.368 1.133 3.893 0 5.542-1.133 1.65-1.133 3.509.885 6 2.903 2.49 2.018-.14 3.93 1.368 6.337 1.508 2.408 1.403-.141 1.403-2.407s.105-1.523 1.754-2.903c1.649-1.381 1.86-2.018 2.49-3.93.632-1.912.387-2.655-2.49-4.178-2.877-1.522-4.912-2.124-6.14-4.036-1.227-1.911-6.139-.495-8.174 0-2.034.496 1.158 1.912-.877 1.912-2.034 0-2.876.638-5.122 2.124Z"/><path fill="#010101" stroke="#010101" stroke-miterlimit="10" stroke-width=".2" d="m36.896 21.333-20.879-1.035-.051.999 20.879 1.036.051-1Z"/><path fill="#010101" stroke="#010101" stroke-miterlimit="10" stroke-width=".2" d="m34.884 21.233-20.879-1.036-.05 1 20.878 1.035.051-1Z"/><path fill="#010101" stroke="#010101" stroke-miterlimit="10" stroke-width=".2" d="M13.71 20.182c-.027.623.082 1.22.299 1.764l1.576-1.671-1.875-.093ZM17.438 20.367l-2.663 2.826c.146.167.305.324.476.467l3.064-3.25-.877-.043ZM19.387 20.464l-3.456 3.666c.57.318 1.22.514 1.916.548 2.393.119 4.432-1.698 4.574-4.064l-3.034-.15Z"/><path fill="#fff" stroke="#010101" stroke-miterlimit="10" stroke-width=".2" d="m15.584 20.275-1.575 1.672c.182.457.441.878.762 1.246l2.664-2.826-1.85-.091ZM18.316 20.41l-3.064 3.25c.21.177.438.334.68.469l3.456-3.666-1.072-.053Z"/><path fill="#010101" stroke="#010101" stroke-miterlimit="10" stroke-width=".2" d="M22.943 20.642c-.026.623.083 1.22.3 1.764l1.575-1.671-1.875-.093ZM26.672 20.828l-2.664 2.825c.146.167.306.324.477.468l3.063-3.25-.876-.043ZM28.62 20.924l-3.456 3.667c.57.317 1.22.513 1.917.547 2.393.119 4.432-1.698 4.573-4.064l-3.034-.15Z"/><path fill="#fff" stroke="#010101" stroke-miterlimit="10" stroke-width=".2" d="m24.82 20.735-1.576 1.672c.183.458.442.878.763 1.246l2.664-2.826-1.85-.091ZM27.55 20.87l-3.064 3.25c.21.177.437.334.68.47l3.455-3.666-1.072-.053Z"/></svg>