<svg xmlns="http://www.w3.org/2000/svg" width="50" height="51" fill="none"><circle cx="25" cy="25" r="24.75" fill="#fff" stroke="#010101" stroke-width=".5" transform="matrix(-1 0 0 1 50 0)"/><path fill="#F3A307" stroke="#010101" stroke-width=".5" d="M7.543 42.694c4.505 4.389 10.56 7.111 17.242 7.111 6.401 0 12.172-2.19 16.594-6.148-4.332-1.825-10.148-1.825-17.957-1.825-6.729 0-11.736-.236-15.879.862Z"/><path fill="#010101" d="M33.233 43.884c-1.582.276-12.033-5.822-3.432-15.949 3.205-3.773 2.22 8.009 5.202 7.69 2.281.799 2.493 7.517-1.77 8.259Z"/><path fill="#EFC7B2" fill-rule="evenodd" d="m24.949 8.364-.56-.029c-6.068.031-9.43 5.077-9.231 11l.03 2.142c-1.165.165-2.756.837-2.213 3.316.372 1.693 1.342 2.288 2.29 2.422l.191 13.966a13.6 13.6 0 0 0 6.65 2.029c2.36.09 4.704-.43 6.79-1.512l.157-.081c.016-1.668-.025-3.184-.025-3.184s5.864-.581 6.243-6.25c.184-2.738.092-8.404-.053-13.532a10.46 10.46 0 0 0-3.073-7.103 10.97 10.97 0 0 0-7.196-3.184Z" clip-rule="evenodd"/><path fill="#010101" d="m24.388 8.335-.001-.25h.014l-.013.25Zm.56.029.014-.25-.013.25Zm-9.79 10.971.25-.008v.005l-.25.003Zm.03 2.142.249-.003.003.22-.218.03-.035-.247Zm-2.213 3.316-.244.053.244-.053Zm2.29 2.422.035-.248.213.03.002.214-.25.004Zm.191 13.966-.131.212-.117-.072-.002-.137.25-.003Zm13.44.517.116.222-.115-.222Zm.157-.081.25.002v.15l-.134.07-.116-.222Zm-.025-3.184-.25.006-.006-.232.231-.023.025.248Zm6.243-6.25-.25-.017.25.017Zm-.053-13.532-.25.007.25-.007Zm-3.073-7.103-.177.177.177-.177ZM24.4 8.085l.56.03-.025.498-.56-.028.025-.5Zm-9.493 11.258c-.101-3.008.701-5.812 2.318-7.872 1.622-2.066 4.051-3.37 7.16-3.386l.003.5c-2.957.015-5.242 1.25-6.77 3.195-1.53 1.95-2.31 4.632-2.211 7.547l-.5.016Zm.03 2.138-.03-2.143.5-.006.029 2.142-.5.007Zm.284.244c-.56.079-1.182.276-1.6.714-.404.424-.661 1.12-.402 2.3l-.489.107c-.285-1.298-.018-2.178.529-2.752.532-.558 1.288-.779 1.892-.864l.07.495Zm-2.002 3.014c.177.808.491 1.33.854 1.666.363.336.792.5 1.226.562l-.07.495a2.722 2.722 0 0 1-1.496-.69c-.452-.418-.808-1.04-1.003-1.925l.489-.108Zm1.986 16.445-.19-13.966.5-.007.19 13.967-.5.006Zm6.89 2.276a13.848 13.848 0 0 1-6.771-2.067l.263-.424a13.348 13.348 0 0 0 6.527 1.991l-.02.5Zm6.916-1.54a13.887 13.887 0 0 1-6.916 1.54l.019-.5c2.318.09 4.618-.423 6.667-1.484l.23.444Zm.157-.081-.157.081-.23-.444.156-.081.23.444Zm-.141-3.407.25-.006v.017a60.018 60.018 0 0 1 .018.952c.009.59.015 1.388.008 2.224l-.5-.004a94.893 94.893 0 0 0-.024-3.108l-.002-.05v-.017l.25-.008ZM35.52 32.2c-.197 2.938-1.823 4.567-3.391 5.451a8.838 8.838 0 0 1-3.057 1.028l-.015.002h-.005l-.025-.248-.025-.25H29.016a2.902 2.902 0 0 0 .223-.033 8.334 8.334 0 0 0 2.645-.934c1.46-.823 2.955-2.319 3.138-5.05l.499.034Zm-.053-13.556c.145 5.124.237 10.804.053 13.556l-.5-.034c.183-2.723.092-8.377-.052-13.508l.5-.014Zm-3.146-7.272a10.71 10.71 0 0 1 3.146 7.272l-.5.014a10.21 10.21 0 0 0-3-6.933l.354-.354Zm-7.36-3.258a11.22 11.22 0 0 1 7.36 3.257l-.354.354a10.72 10.72 0 0 0-7.032-3.112l.026-.499ZM24.6 21.227c.009.21.101.407.257.55a.83.83 0 0 0 .576.219.8.8 0 0 0 .569-.218.77.77 0 0 0 .238-.55.798.798 0 0 0-.257-.552.83.83 0 0 0-.577-.218.798.798 0 0 0-.569.218.77.77 0 0 0-.238.55ZM32.456 21.227c.01.21.102.407.258.55a.83.83 0 0 0 .576.219.798.798 0 0 0 .568-.218.768.768 0 0 0 .238-.55.8.8 0 0 0-.257-.551.831.831 0 0 0-.577-.22.799.799 0 0 0-.569.218.769.769 0 0 0-.237.552ZM27.485 18.252c-.096.233-1.234-.287-2.283-.206-1.05.062-1.652.7-1.783.48-.059-.104.096-.321.445-.538a3.576 3.576 0 0 1 1.522-.455 3.624 3.624 0 0 1 1.576.246c.378.167.565.361.523.473Z"/><path fill="#010101" d="M35.288 19.203c-.154.2-.794-.364-1.533-.362-.735-.024-1.34.525-1.489.32-.064-.1.032-.3.301-.493a2.228 2.228 0 0 1 2.435.033c.265.2.354.403.286.502Z"/><circle cx="4.47" cy="4.47" r="4.47" fill="url(#a)" opacity=".2" transform="matrix(-1 0 0 1 26.44 26.25)"/><path stroke="#010101" stroke-width=".33" d="M28.372 31.71c.272-.192 1.385-.855 1.885-.177.209-.11.857-1 .93.177"/><path stroke="#010101" stroke-width=".33" d="M31.287 32.213c-.444.607-2.491.451-4.323-1.005M29.467 22.845c.72 2.802 2.156 3.931 1.308 4.406-1.231.69-1.488.16-1.462-.192"/><path fill="#010101" d="M10.726 21.995C13.91 10.162 19.04 7.69 23.125 8.125c5.368-.79 7.79 1.73 9.541 2.935 1.4.963 4.392 5.028 0 2.207 0 4.228-4.654 1.508-10.283 1.816-5.63.308 1.32 8.45-2.915 7.94-1.333-.16-1.518-1.028-1.518-1.028-3.81-.881-3.407 4.848-.794 4.848 1.005 0 .82 13.602 3.645 14.607 1.709 1.709-1.92 5.93-5.176 6.675-1.566.358-10.531-5.199-4.899-26.13Z"/><defs><radialGradient id="a" cx="0" cy="0" r="1" gradientTransform="rotate(90 0 4.47) scale(4.4703)" gradientUnits="userSpaceOnUse"><stop stop-color="red"/><stop offset="1" stop-color="red" stop-opacity="0"/></radialGradient></defs></svg>